<svg width="126" height="104" viewBox="0 0 126 104" fill="none" xmlns="http://www.w3.org/2000/svg">
<path d="M18.6944 38.6283C18.4197 37.1061 17.5793 35.7441 16.3418 34.816C15.1044 33.8879 13.5616 33.4624 12.0233 33.625C11.2881 33.674 10.5715 33.8776 9.92048 34.2226C9.26943 34.5676 8.69857 35.0463 8.24526 35.6271C7.79196 36.208 7.46643 36.8781 7.28997 37.5935C7.11351 38.3088 7.0901 39.0534 7.22128 39.7785C7.23309 39.8826 7.26753 39.9829 7.32217 40.0723C7.3768 40.1617 7.45032 40.2381 7.53758 40.2961C7.34097 40.39 7.1872 40.5549 7.10719 40.7576C7.02718 40.9603 7.02685 41.1858 7.10626 41.3887C7.43824 42.4483 7.98656 43.4275 8.71652 44.2642C9.2567 44.8778 9.93747 45.3513 10.7006 45.6444C11.6817 45.9751 12.7339 46.0347 13.7461 45.8171C14.7583 45.5995 15.693 45.1127 16.4515 44.408C17.2793 43.7094 17.9184 42.8141 18.3103 41.8043C18.7022 40.7945 18.8342 39.7024 18.6944 38.6283ZM11.2757 43.4591C10.6977 43.2901 10.1794 42.9612 9.78044 42.5102C9.30254 41.9932 8.91385 41.4005 8.63025 40.7561C8.57897 40.6106 8.48961 40.4815 8.37147 40.3823C8.49162 40.3133 8.5902 40.2121 8.65621 40.0903C8.72222 39.9684 8.75306 39.8306 8.74528 39.6922C8.7091 39.2205 8.77198 38.7464 8.92987 38.3004C9.08777 37.8544 9.3372 37.4463 9.66214 37.1024C9.98708 36.7585 10.3803 36.4864 10.8167 36.3035C11.253 36.1206 11.7228 36.031 12.1958 36.0404C13.0838 36.0269 13.9453 36.3426 14.6143 36.9266C15.2833 37.5107 15.7124 38.3217 15.8189 39.2034C15.8749 39.7863 15.792 40.3742 15.5771 40.919C15.3622 41.4638 15.0213 41.9499 14.5825 42.3376C14.1772 42.797 13.6587 43.1423 13.0785 43.339C12.4984 43.5358 11.8768 43.5772 11.2757 43.4591Z" fill="#F03240"/>
<path d="M13.6329 66.7503C15.4243 65.2076 16.5817 63.0568 16.8822 60.7118C20.6778 61.0857 24.5022 61.3732 28.384 61.402L36.1478 61.402C39.7134 61.402 43.2502 61.0569 46.787 61.0281C46.8598 61.143 46.9625 61.2358 47.0841 61.2966C47.2057 61.3574 47.3416 61.3839 47.4771 61.3732C47.6181 61.3614 47.7534 61.3126 47.8695 61.2318C47.9856 61.1511 48.0784 61.0411 48.1385 60.9131C48.9148 60.5106 47.5059 55.421 53.0555 55.1622C54.3595 55.1018 55.6382 55.5364 56.6354 56.3789C57.6325 57.2214 58.2745 58.4096 58.4326 59.7054C58.5143 60.5884 58.3728 61.4777 58.0211 62.2916C57.6694 63.1056 57.1188 63.8181 56.4198 64.3637C55.8181 65.0272 55.0519 65.5203 54.1986 65.7929C53.3454 66.0655 52.4353 66.1081 51.5603 65.9164C50.7226 65.6453 49.9762 65.1477 49.4037 64.4787C48.7604 63.7347 48.2278 62.9018 47.8222 62.0058C47.7875 61.8984 47.7307 61.7994 47.6553 61.7154C47.5799 61.6314 47.4877 61.5641 47.3847 61.518C47.2817 61.4719 47.1701 61.448 47.0572 61.4478C46.9443 61.4477 46.8327 61.4712 46.7295 61.517C46.621 61.5554 46.5213 61.6152 46.4363 61.6927C46.3512 61.7703 46.2826 61.8641 46.2343 61.9686C46.1861 62.0731 46.1593 62.1862 46.1554 62.3012C46.1516 62.4163 46.1708 62.5309 46.2119 62.6384C46.7308 63.9477 47.4917 65.1476 48.4548 66.1752C49.1516 66.9404 50.0183 67.5313 50.9852 67.9005C52.2488 68.3097 53.5994 68.3708 54.8948 68.0773C56.1901 67.7838 57.3825 67.1466 58.3464 66.2327C59.3827 65.3721 60.1882 64.2668 60.6903 63.0167C61.1923 61.7666 61.375 60.4112 61.2218 59.0728C60.8898 57.1417 59.8398 55.4076 58.2825 54.2183C56.7253 53.029 54.7759 52.4726 52.8255 52.6606C51.6928 52.7599 50.5994 53.1243 49.6337 53.7245C48.3398 51.7404 47.017 49.7563 45.5793 47.801L43.6528 45.3856C42.9626 44.6093 42.2725 43.8329 41.5537 43.114C40.1447 41.705 38.6782 40.4398 37.183 39.2034C38.0254 38.2801 38.6572 37.1847 39.0345 35.9932C39.4119 34.8016 39.5258 33.5422 39.3683 32.3023C38.9932 30.4686 38.0825 28.7875 36.7516 27.4715C38.3044 26.005 39.7996 24.7686 41.1799 23.5321C42.5601 22.2957 43.5665 21.433 44.7167 20.1678C46.2272 18.5583 47.6387 16.8586 48.9436 15.0783C49.5346 15.6368 50.2278 16.0761 50.9852 16.3722C52.2463 16.7851 53.5953 16.8508 54.8906 16.5624C56.1859 16.274 57.3796 15.6422 58.3464 14.7332C59.383 13.8664 60.1883 12.7559 60.6902 11.5013C61.192 10.2467 61.3747 8.88716 61.2218 7.54457C60.8898 5.61345 59.8398 3.87931 58.2825 2.69003C56.7253 1.50074 54.7759 0.944288 52.8255 1.13229C51.8807 1.18753 50.9583 1.44144 50.1183 1.87745C49.2784 2.31345 48.5398 2.92174 47.951 3.66257C47.3621 4.40341 46.9361 5.26014 46.7009 6.1768C46.4656 7.09346 46.4264 8.04944 46.5857 8.9823C46.6074 9.17797 46.7026 9.3581 46.8521 9.48622C47.0016 9.61435 47.1942 9.6809 47.3909 9.67241C47.4916 9.66883 47.5906 9.64491 47.6819 9.60208C47.7732 9.55925 47.8549 9.4984 47.922 9.42318C47.9892 9.34797 48.0404 9.25995 48.0727 9.16441C48.1049 9.06888 48.1175 8.96781 48.1097 8.86728C48.0499 8.19244 48.1311 7.51254 48.348 6.87073C48.565 6.22891 48.9129 5.6392 49.3699 5.139C49.8268 4.63881 50.3827 4.23906 51.0023 3.96511C51.622 3.69117 52.2918 3.54902 52.9693 3.54767C54.276 3.49475 55.5548 3.93576 56.5512 4.78294C57.5476 5.63012 58.1885 6.82137 58.3464 8.11966C58.4306 8.99023 58.2988 9.86814 57.9628 10.6756C57.6267 11.4831 57.0968 12.1953 56.4198 12.7492C55.844 13.426 55.0983 13.9372 54.2594 14.2304C53.4204 14.5235 52.5186 14.5879 51.6465 14.4169C50.7642 14.0357 49.968 13.48 49.3059 12.7833C48.6437 12.0865 48.1293 11.2631 47.7934 10.3625C47.7552 10.2576 47.6963 10.1615 47.6202 10.0798C47.5441 9.99811 47.4524 9.93252 47.3505 9.88694C47.2486 9.84135 47.1386 9.81668 47.027 9.81441C46.9154 9.81213 46.8044 9.83229 46.7007 9.87369C46.5923 9.91213 46.4926 9.97189 46.4075 10.0494C46.3225 10.127 46.2538 10.2208 46.2056 10.3253C46.1573 10.4298 46.1305 10.5429 46.1267 10.6579C46.1228 10.773 46.142 10.8876 46.1832 10.9951C46.5936 11.9656 47.1354 12.8751 47.7934 13.6981C46.2119 15.1645 44.7167 16.401 43.3365 17.6662C41.9562 18.9314 40.9498 19.8515 39.8284 21.0305C38.182 22.7213 36.6362 24.5071 35.1989 26.3788C33.6404 25.4516 31.8294 25.0391 30.0231 25.1999C29.7837 25.1839 29.5435 25.1839 29.3042 25.1999C29.3042 24.251 29.1029 23.0433 28.8729 21.7493C28.8729 21.1167 28.6428 20.4841 28.4703 19.8515L27.8952 18.0112C27.5502 17.0911 27.1764 16.2572 26.8601 15.5671C28.5291 15.3822 30.098 14.6782 31.3458 13.5543C32.3841 12.6953 33.1911 11.5902 33.6933 10.3397C34.1956 9.08921 34.377 7.73294 34.2212 6.39438C33.8761 4.46839 32.8165 2.74374 31.2544 1.56548C29.6922 0.387225 27.7428 -0.157744 25.7961 0.0396115C24.853 0.0992481 23.9329 0.356042 23.0952 0.793409C22.2574 1.23078 21.5208 1.83899 20.9328 2.57877C20.3447 3.31854 19.9184 4.17343 19.6813 5.08822C19.4442 6.00301 19.4017 6.95736 19.5564 7.88962C19.5561 7.9966 19.5779 8.10249 19.6205 8.20064C19.663 8.29879 19.7254 8.38708 19.8037 8.45998C19.882 8.53288 19.9745 8.58881 20.0755 8.62426C20.1764 8.65971 20.2836 8.67392 20.3903 8.666C20.5859 8.6443 20.7661 8.54908 20.8942 8.39961C21.0223 8.25013 21.0889 8.05756 21.0804 7.86087C21.025 7.18315 21.11 6.5013 21.33 5.8579C21.55 5.21451 21.9003 4.62339 22.359 4.12147C22.8178 3.61956 23.3751 3.21763 23.9962 2.94079C24.6172 2.66395 25.2887 2.51816 25.9687 2.51251C27.2706 2.46696 28.5422 2.91131 29.5325 3.75779C30.5227 4.60428 31.1595 5.79133 31.317 7.08449C31.4099 7.94498 31.2938 8.81518 30.9784 9.62116C30.663 10.4271 30.1577 11.1451 29.5055 11.714C28.9055 12.38 28.1395 12.8747 27.2857 13.1475C26.4319 13.4203 25.5209 13.4615 24.6459 13.2667C23.7998 12.9962 23.0439 12.499 22.4606 11.829C21.8159 11.0917 21.2918 10.2571 20.9078 9.35611C20.8699 9.24768 20.8101 9.14826 20.7319 9.06406C20.6538 8.97987 20.5592 8.91272 20.4539 8.86683C20.3486 8.82093 20.2349 8.79728 20.1201 8.79736C20.0052 8.79744 19.8916 8.82124 19.7864 8.86728C19.5773 8.95657 19.4101 9.12243 19.3193 9.3309C19.2284 9.53938 19.2206 9.7747 19.2976 9.98871C19.7664 11.331 20.4888 12.5708 21.4254 13.6405C22.1294 14.3905 22.9947 14.9706 23.9558 15.3371C24.2146 15.3371 24.4447 15.4808 24.6747 15.5383C24.8068 16.8819 25.018 18.2165 25.3073 19.5352C25.5292 20.5091 25.8076 21.4692 26.1412 22.4107C26.5725 23.7622 27.0613 24.9699 27.3776 25.89C25.852 26.5396 24.5904 27.6851 23.7971 29.1412C23.0039 30.5973 22.7254 32.2785 23.0069 33.9125C22.985 34.025 22.9882 34.1409 23.0163 34.2519C23.0445 34.363 23.0968 34.4664 23.1697 34.5549C23.2425 34.6433 23.334 34.7145 23.4376 34.7634C23.5412 34.8123 23.6544 34.8376 23.7689 34.8376C23.8835 34.8376 23.9966 34.8123 24.1002 34.7634C24.2038 34.7145 24.2953 34.6433 24.3682 34.5549C24.441 34.4664 24.4934 34.363 24.5215 34.2519C24.5497 34.1409 24.5529 34.025 24.5309 33.9125C24.4681 33.1315 24.5655 32.3459 24.8171 31.6038C25.0688 30.8618 25.4695 30.179 25.9946 29.5974C26.5196 29.0158 27.158 28.5476 27.8706 28.2216C28.5831 27.8956 29.3547 27.7186 30.1381 27.7015C31.6636 27.6308 33.1601 28.1351 34.3316 29.1149C35.503 30.0946 36.264 31.4784 36.4641 32.9924C36.5708 34.0051 36.4304 35.0286 36.0548 35.9752C35.6792 36.9217 35.0796 37.763 34.3075 38.427C33.5927 39.206 32.6824 39.7795 31.6711 40.0879C30.6599 40.3964 29.5845 40.4285 28.5566 40.1811C27.5747 39.8724 26.7049 39.2825 26.0549 38.4845C25.288 37.6445 24.6836 36.6695 24.2721 35.6091C24.2313 35.5032 24.1693 35.4067 24.09 35.3256C24.0106 35.2446 23.9155 35.1805 23.8105 35.1374C23.7055 35.0944 23.5929 35.0732 23.4794 35.0752C23.366 35.0772 23.2541 35.1023 23.1507 35.149C23.0433 35.1836 22.9443 35.2405 22.8603 35.3159C22.7763 35.3912 22.709 35.4834 22.6629 35.5865C22.6168 35.6895 22.5929 35.8011 22.5927 35.914C22.5926 36.0268 22.6161 36.1385 22.6619 36.2417C23.2118 37.7425 24.0521 39.1202 25.1348 40.2961C25.9265 41.1577 26.9122 41.8181 28.0102 42.2226C29.3662 42.6561 30.8119 42.7276 32.204 42.43C33.5962 42.1324 34.8863 41.4761 35.9465 40.5261C37.1542 41.9926 38.3044 43.4016 39.5121 45.0406L41.4674 47.341L43.4802 49.6126C45.0905 51.3666 46.7295 53.0919 48.2822 54.8459C47.1674 56.0411 46.5415 57.611 46.5282 59.2454C42.5888 58.8428 38.6782 58.5265 34.7388 58.469L26.9751 58.469C23.582 58.469 20.2177 58.699 16.8247 58.699C16.4511 56.5653 15.2884 54.6501 13.5676 53.3343C11.8469 52.0184 9.69404 51.3981 7.53694 51.5966C6.47435 51.6582 5.43674 51.9434 4.49194 52.4336C3.54715 52.9237 2.71647 53.6078 2.05421 54.441C1.39196 55.2743 0.913055 56.2379 0.648816 57.269C0.384577 58.3 0.340955 59.3752 0.520807 60.4243C0.542499 60.62 0.637723 60.8001 0.787201 60.9282C0.936679 61.0564 1.12925 61.1229 1.32594 61.1144C1.42671 61.1108 1.52571 61.0869 1.617 61.0441C1.70828 61.0013 1.78996 60.9404 1.85711 60.8652C1.92427 60.79 1.97552 60.702 2.00777 60.6064C2.04003 60.5109 2.05262 60.4098 2.0448 60.3093C1.974 59.533 2.06173 58.7505 2.30268 58.0092C2.54362 57.2679 2.93274 56.5833 3.4464 55.9971C3.96007 55.4108 4.58755 54.9351 5.29073 54.5988C5.99391 54.2625 6.75813 54.0726 7.53694 54.0408C9.06682 53.9707 10.567 54.4791 11.7392 55.4647C12.9113 56.4504 13.6695 57.8412 13.863 59.3604C13.9649 60.3685 13.8221 61.3863 13.4467 62.3274C13.0712 63.2685 12.4742 64.1052 11.7064 64.7662C10.9915 65.5452 10.0813 66.1187 9.06999 66.4272C8.05872 66.7356 6.98333 66.7678 5.95544 66.5203C4.98841 66.196 4.12502 65.6204 3.45378 64.8525C2.69925 64.0032 2.09622 63.0306 1.67099 61.9771C1.58709 61.7627 1.42349 61.589 1.21445 61.4926C1.00541 61.3961 0.767148 61.3842 0.549563 61.4595C0.443634 61.5007 0.34691 61.5626 0.26495 61.6413C0.182989 61.7201 0.11741 61.8143 0.0719825 61.9185C0.026555 62.0228 0.00217506 62.1349 0.000245138 62.2486C-0.00168478 62.3623 0.0188703 62.4752 0.0607338 62.5809C0.573375 64.095 1.396 65.4856 2.47612 66.6641C3.26028 67.5344 4.24835 68.1965 5.35159 68.5906C6.76809 69.0718 8.28957 69.1547 9.74997 68.8302C11.2104 68.5056 12.5535 67.7862 13.6329 66.7503Z" fill="#262626"/>
<path d="M48.3402 34.5451C48.3748 34.7247 48.4539 34.8928 48.5703 35.0339C48.3687 35.1223 48.2103 35.2867 48.1295 35.4914C48.0487 35.6961 48.0521 35.9244 48.1389 36.1266C48.4732 37.1852 49.0213 38.1639 49.7492 39.002C50.2967 39.5868 50.9774 40.0307 51.7333 40.296C52.7144 40.6267 53.7666 40.6863 54.7788 40.4687C55.791 40.2511 56.7257 39.7642 57.4842 39.0595C58.3107 38.3651 58.9512 37.4756 59.3478 36.4716C59.7444 35.4675 59.8846 34.3805 59.7558 33.3086C59.4949 31.7898 58.6736 30.4242 57.4543 29.4818C56.235 28.5394 54.7065 28.0888 53.171 28.2191C52.4173 28.2651 51.6824 28.4727 51.0161 28.828C50.3498 29.1832 49.7677 29.6776 49.3095 30.2777C48.8512 30.8778 48.5274 31.5696 48.3602 32.3059C48.193 33.0422 48.1861 33.8059 48.3402 34.5451ZM56.9666 33.97C57.0275 34.5491 56.9467 35.1342 56.7313 35.6752C56.516 36.2162 56.1724 36.6967 55.7302 37.0755C55.3304 37.5421 54.8124 37.8924 54.2306 38.0897C53.6487 38.2871 53.0245 38.3241 52.4234 38.1969C51.8454 38.028 51.3271 37.699 50.9281 37.248C50.4597 36.7237 50.072 36.1326 49.7779 35.494C49.7253 35.3646 49.6471 35.2472 49.5479 35.1489C49.6651 35.0715 49.759 34.9638 49.8198 34.8372C49.8805 34.7106 49.9058 34.5699 49.893 34.4301C49.8655 33.9603 49.9344 33.4898 50.0955 33.0477C50.2566 32.6055 50.5064 32.201 50.8296 31.859C51.1528 31.5169 51.5425 31.2446 51.9748 31.0587C52.4072 30.8729 52.8729 30.7774 53.3435 30.7782C54.2093 30.7682 55.0496 31.071 55.7099 31.6309C56.3703 32.1909 56.8063 32.9704 56.9378 33.8262L56.9666 33.97Z" fill="#F03240"/>
<path d="M70.975 9.42422C71.0095 9.60385 71.0886 9.77193 71.205 9.91305C71.0035 10.0014 70.8451 10.1659 70.7643 10.3705C70.6835 10.5752 70.6869 10.8035 70.7737 11.0057C71.108 12.0643 71.656 13.043 72.384 13.8812C72.9315 14.466 73.6121 14.9099 74.368 15.1751C75.3491 15.5058 76.4013 15.5655 77.4135 15.3478C78.4257 15.1302 79.3604 14.6434 80.119 13.9387C80.9455 13.2442 81.586 12.3548 81.9826 11.3507C82.3792 10.3467 82.5194 9.25961 82.3906 8.18777C82.1296 6.66899 81.3083 5.30339 80.0891 4.36098C78.8698 3.41856 77.3413 2.96794 75.8058 3.09821C75.0521 3.14421 74.3171 3.35188 73.6508 3.7071C72.9845 4.06232 72.4025 4.55678 71.9442 5.15689C71.486 5.757 71.1622 6.4487 70.995 7.18503C70.8277 7.92135 70.8209 8.68503 70.975 9.42422ZM79.6014 8.84913C79.6622 9.42821 79.5815 10.0134 79.3661 10.5544C79.1507 11.0953 78.8071 11.5759 78.3649 11.9546C77.9652 12.4212 77.4472 12.7716 76.8653 12.9689C76.2835 13.1662 75.6592 13.2032 75.0581 13.0761C74.4802 12.9071 73.9618 12.5782 73.5629 12.1272C73.0945 11.6029 72.7068 11.0117 72.4127 10.3731C72.3601 10.2438 72.2818 10.1264 72.1827 10.0281C72.2998 9.95065 72.3938 9.84291 72.4545 9.71632C72.5153 9.58973 72.5406 9.44903 72.5277 9.30921C72.5003 8.83943 72.5692 8.369 72.7303 7.92684C72.8914 7.48469 73.1412 7.08015 73.4644 6.73811C73.7875 6.39606 74.1773 6.12374 74.6096 5.93789C75.0419 5.75203 75.5077 5.65657 75.9783 5.65737C76.844 5.64732 77.6843 5.95011 78.3447 6.51009C79.005 7.07007 79.4411 7.84959 79.5726 8.70536L79.6014 8.84913Z" fill="#F03240"/>
<path d="M52.684 52.6372C54.8144 52.4783 56.9282 53.1131 58.6185 54.4194C60.8049 51.7553 63.0648 49.128 65.5268 46.6293L70.4875 41.6685C72.7658 39.3903 75.2462 37.3509 77.5244 35.1094C77.4975 34.9895 77.5039 34.8645 77.5427 34.748C77.5816 34.6315 77.6515 34.5277 77.7449 34.4479C77.8425 34.3654 77.9601 34.3101 78.0859 34.2875C78.2117 34.265 78.3412 34.2759 78.4614 34.3193C79.2147 34.0805 81.5665 38.2328 85.2778 34.8521C86.1496 34.0575 86.689 32.9628 86.7878 31.7873C86.8866 30.6118 86.5376 29.4424 85.8107 28.5134C85.2987 27.8971 84.6401 27.4192 83.8953 27.1239C83.1504 26.8285 82.3433 26.7251 81.5481 26.8231C80.7396 26.7836 79.9351 26.9581 79.2157 27.3291C78.4963 27.7001 77.8875 28.2544 77.4509 28.936C77.0889 29.6445 76.9299 30.4394 76.9916 31.2326C77.056 32.119 77.2478 32.9916 77.5612 33.8232C77.6077 33.914 77.6345 34.0136 77.6401 34.1154C77.6456 34.2173 77.6297 34.3191 77.5933 34.4144C77.5569 34.5097 77.5009 34.5963 77.4289 34.6685C77.3569 34.7408 77.2705 34.7971 77.1753 34.8338C77.0814 34.8785 76.9795 34.904 76.8757 34.9088C76.7718 34.9136 76.668 34.8975 76.5704 34.8616C76.4728 34.8256 76.3834 34.7705 76.3074 34.6995C76.2314 34.6284 76.1705 34.5429 76.1281 34.4479C75.623 33.2798 75.3425 32.0269 75.3013 30.7549C75.2576 29.8208 75.4338 28.8894 75.8157 28.0357C76.3617 26.9669 77.1856 26.0649 78.2008 25.4247C79.2161 24.7845 80.3851 24.4298 81.5849 24.3979C82.797 24.2856 84.0179 24.4772 85.1374 24.9551C86.2569 25.4331 87.2398 26.1824 87.9971 27.1354C89.0188 28.5815 89.456 30.3605 89.2208 32.1154C88.9857 33.8703 88.0957 35.4715 86.7293 36.5976C85.9421 37.2578 85.0106 37.7236 84.0101 37.9572C84.4511 40.0517 84.8736 42.1646 85.2044 44.3326L85.5167 47.107C85.5718 48.044 85.6269 48.981 85.6269 49.8997C85.6269 51.7002 85.4983 53.4457 85.333 55.1911C86.4612 55.2427 87.5648 55.539 88.5673 56.0592C89.5697 56.5795 90.4472 57.3114 91.1389 58.2043C92.0708 59.6156 92.5631 61.2717 92.5536 62.9629C94.4828 62.9078 96.2282 62.7424 97.9001 62.6506C99.5721 62.5587 100.766 62.4668 102.31 62.5403C104.303 62.6036 106.291 62.7877 108.263 63.0915C108.283 62.357 108.446 61.6334 108.74 60.9602C109.282 59.8906 110.102 58.9867 111.114 58.3433C112.126 57.7 113.292 57.341 114.491 57.304C115.707 57.1955 116.931 57.3905 118.054 57.8715C119.176 58.3525 120.161 59.1044 120.922 60.06C121.943 61.506 122.38 63.285 122.145 65.0399C121.91 66.7948 121.02 68.396 119.654 69.5221C119.015 70.0905 118.263 70.5176 117.448 70.7757C116.633 71.0338 115.772 71.1171 114.922 71.02C114.073 70.9229 113.253 70.6476 112.517 70.2122C111.781 69.7768 111.145 69.1911 110.651 68.4932C110.54 68.3543 110.486 68.1784 110.499 68.001C110.513 67.8236 110.593 67.6581 110.725 67.5378C110.791 67.4757 110.87 67.4277 110.955 67.3968C111.041 67.3658 111.132 67.3525 111.223 67.3576C111.314 67.3628 111.403 67.3863 111.485 67.4267C111.566 67.4672 111.639 67.5237 111.698 67.5929C112.091 68.0623 112.578 68.4449 113.126 68.7164C113.675 68.9879 114.274 69.1423 114.886 69.17C115.497 69.1976 116.108 69.0978 116.679 68.8769C117.25 68.6561 117.769 68.3189 118.202 67.8869C119.071 67.0857 119.607 65.9868 119.702 64.8089C119.797 63.6309 119.445 62.4602 118.717 61.5298C118.214 60.9197 117.569 60.443 116.839 60.1417C116.108 59.8405 115.314 59.7241 114.528 59.8027C113.727 59.7382 112.924 59.888 112.201 60.2368C111.478 60.5855 110.86 61.1206 110.412 61.787C110.092 62.5944 109.938 63.4582 109.96 64.3265C109.983 65.1947 110.18 66.0496 110.541 66.8396C110.583 66.9311 110.607 67.0301 110.611 67.1309C110.614 67.2318 110.598 67.3323 110.562 67.4265C110.526 67.5208 110.471 67.6068 110.401 67.6796C110.331 67.7523 110.248 67.8103 110.155 67.8501C110.061 67.8949 109.959 67.9204 109.855 67.9252C109.751 67.93 109.648 67.9139 109.55 67.878C109.452 67.842 109.363 67.7869 109.287 67.7158C109.211 67.6448 109.15 67.5593 109.108 67.4643C108.75 66.582 108.515 65.6546 108.41 64.7083C106.462 64.7818 104.717 64.9472 103.026 65.0207C101.336 65.0942 100.105 65.1493 98.6351 65.1126C96.5028 65.0842 94.374 64.9308 92.2596 64.6532C91.8563 66.2415 90.9627 67.6623 89.7058 68.7137C89.5631 68.8769 89.4096 69.0303 89.2464 69.173C89.8527 69.7793 90.4958 70.6796 91.1756 71.6534C91.5798 72.0576 91.837 72.6088 92.131 73.1232L92.9394 74.6665C93.3069 75.475 93.6009 76.2466 93.8397 76.8897C95.0243 75.9414 96.4766 75.3887 97.992 75.3096C99.2043 75.195 100.426 75.3854 101.546 75.8636C102.666 76.3417 103.648 77.0924 104.404 78.0472C105.414 79.4983 105.839 81.2774 105.594 83.0284C105.349 84.7794 104.451 86.3732 103.081 87.4909C102.441 88.0555 101.689 88.4793 100.874 88.7351C100.059 88.9909 99.1998 89.073 98.3514 88.976C97.503 88.8791 96.6844 88.6052 95.9484 88.1722C95.2124 87.7392 94.5754 87.1566 94.0786 86.462C94.01 86.3939 93.9563 86.3123 93.9208 86.2224C93.8853 86.1325 93.8687 86.0362 93.8722 85.9396C93.8756 85.843 93.899 85.7481 93.9408 85.661C93.9827 85.5738 94.0421 85.4963 94.1153 85.4332C94.2542 85.322 94.4301 85.2677 94.6075 85.2814C94.7849 85.295 94.9504 85.3755 95.0707 85.5066C95.4683 85.9751 95.9583 86.3564 96.51 86.627C97.0617 86.8975 97.6632 87.0514 98.277 87.079C98.8909 87.1065 99.5038 87.0073 100.078 86.7873C100.651 86.5674 101.173 86.2315 101.612 85.8006C102.472 84.9978 103.001 83.9014 103.093 82.7278C103.185 81.5542 102.833 80.3889 102.108 79.4619C101.617 78.8527 100.987 78.3709 100.27 78.0575C99.5539 77.744 98.7723 77.6081 97.992 77.6614C97.1831 77.6191 96.3776 77.7925 95.6577 78.1638C94.9378 78.535 94.3295 79.0908 93.8948 79.7743C93.527 80.4878 93.3618 81.2884 93.4171 82.0893C93.4762 82.9723 93.6747 83.8404 94.0051 84.6615C94.0501 84.755 94.0754 84.8568 94.0793 84.9605C94.0831 85.0642 94.0656 85.1676 94.0276 85.2642C93.9897 85.3608 93.9322 85.4485 93.8587 85.5218C93.7853 85.5952 93.6975 85.6526 93.6009 85.6904C93.4102 85.767 93.1974 85.7678 93.0061 85.6926C92.8148 85.6175 92.6595 85.4721 92.572 85.2862C92.0138 84.1289 91.6832 82.8752 91.5982 81.5932C91.5688 80.6642 91.751 79.7406 92.131 78.8923C92.2964 78.727 92.3515 78.4881 92.4617 78.3044C91.6876 77.3615 90.9698 76.3738 90.3121 75.3463C89.8316 74.5823 89.396 73.7909 89.0076 72.9762C88.4196 71.8371 87.9603 70.7531 87.5745 69.963C86.1846 70.5228 84.6465 70.5969 83.2093 70.1734C81.7721 69.75 80.5199 68.8536 79.6557 67.6297C79.5698 67.5718 79.4978 67.4957 79.4448 67.4068C79.3919 67.3179 79.3592 67.2183 79.3493 67.1153C79.3393 67.0122 79.3523 66.9082 79.3872 66.8108C79.4222 66.7134 79.4783 66.6249 79.5515 66.5517C79.6247 66.4785 79.7132 66.4224 79.8106 66.3874C79.908 66.3525 80.012 66.3395 80.1151 66.3495C80.2181 66.3594 80.3177 66.3921 80.4066 66.445C80.4955 66.498 80.5716 66.57 80.6295 66.6559C81.0883 67.1951 81.6526 67.6349 82.2875 67.9482C82.9225 68.2615 83.6148 68.4418 84.3219 68.4779C85.029 68.514 85.7361 68.4053 86.3996 68.1583C87.0632 67.9113 87.6693 67.5314 88.1808 67.0417C89.2008 66.1122 89.8347 64.8337 89.9572 63.4592C90.0797 62.0847 89.6818 60.7142 88.8422 59.619C88.2633 58.9037 87.5196 58.3395 86.6748 57.9747C85.83 57.6099 84.9093 57.4554 83.9917 57.5245C83.0372 57.4835 82.0892 57.6987 81.2459 58.1478C80.4027 58.5968 79.695 59.2634 79.1964 60.0783C78.7662 60.9029 78.5874 61.8356 78.6819 62.7608C78.7287 63.7876 78.9654 64.7968 79.3801 65.7372C79.4217 65.831 79.4437 65.9322 79.4448 66.0347C79.4459 66.1373 79.4261 66.2389 79.3865 66.3335C79.3469 66.4281 79.2885 66.5137 79.2147 66.5849C79.141 66.6561 79.0534 66.7115 78.9575 66.7478C78.8667 66.7943 78.7672 66.8211 78.6653 66.8267C78.5635 66.8322 78.4616 66.8163 78.3663 66.7799C78.271 66.7435 78.1845 66.6875 78.1122 66.6155C78.04 66.5435 77.9837 66.4571 77.947 66.3619C77.3394 65.0516 76.996 63.6344 76.9365 62.1912C76.8918 61.1348 77.0997 60.083 77.5428 59.1229C78.1322 57.9796 79.0103 57.0101 80.0899 56.3108C81.1696 55.6114 82.4133 55.2064 83.6978 55.136C83.5324 53.4273 83.367 51.7921 83.0915 49.9732L82.871 47.2539L82.7056 44.5164C82.6137 42.3667 82.5586 40.2171 82.43 38.1042C80.954 38.0529 79.5509 37.4497 78.4982 36.4138C76.2383 39.1882 73.9417 41.889 71.4613 44.4429L66.5006 49.4036C64.3325 51.5716 62.0359 53.5743 59.8679 55.7423C60.9926 57.3444 61.4733 59.311 61.2146 61.2513C60.9559 63.1916 59.9767 64.9635 58.4715 66.2149C57.7532 66.8545 56.908 67.3353 55.9911 67.6258C55.0743 67.9163 54.1064 68.01 53.1508 67.9007C52.1953 67.7915 51.2735 67.4817 50.4459 66.9918C49.6183 66.5018 48.9034 65.8427 48.348 65.0574C48.2368 64.9185 48.1826 64.7426 48.1962 64.5652C48.2098 64.3879 48.2904 64.2223 48.4215 64.102C48.4881 64.0399 48.5667 63.992 48.6524 63.961C48.7381 63.93 48.8291 63.9167 48.9201 63.9219C49.0111 63.927 49.1001 63.9505 49.1817 63.991C49.2634 64.0314 49.336 64.0879 49.3952 64.1572C49.846 64.6984 50.4021 65.1423 51.0297 65.462C51.6573 65.7817 52.3433 65.9705 53.0461 66.0169C53.749 66.0633 54.4539 65.9664 55.1181 65.7319C55.7822 65.4975 56.3918 65.1305 56.9098 64.6532C57.9321 63.7205 58.5659 62.4371 58.685 61.0583C58.8042 59.6796 58.4 58.3065 57.5529 57.2121C56.9739 56.5029 56.2323 55.9438 55.3911 55.5823C54.5498 55.2209 53.6338 55.0678 52.7208 55.136C51.7663 55.095 50.8182 55.3102 49.975 55.7593C49.1317 56.2083 48.4241 56.8749 47.9254 57.6898C47.5147 58.5149 47.3308 59.4344 47.3926 60.3539C47.4532 61.3787 47.6893 62.3855 48.0908 63.3304C48.1741 63.521 48.1805 63.7364 48.1086 63.9317C48.0367 64.1269 47.892 64.2867 47.7049 64.3776C47.6109 64.4189 47.5096 64.4413 47.4069 64.4433C47.3041 64.4453 47.2021 64.427 47.1064 64.3895C47.0108 64.3519 46.9236 64.2958 46.8497 64.2244C46.7758 64.153 46.7168 64.0677 46.676 63.9734C46.0361 62.6784 45.6732 61.2642 45.6104 59.8211C45.5553 58.7639 45.7636 57.7096 46.2167 56.7528C46.8143 55.5402 47.7335 54.5151 48.874 53.7894C50.0145 53.0636 51.3325 52.665 52.684 52.6372Z" fill="#262626"/>
</svg>
