<svg width="226" height="42" viewBox="0 0 226 42" fill="none" xmlns="http://www.w3.org/2000/svg">
<path d="M21.5064 23.904H38.1624V25.272H21.5064V23.904ZM22.3944 20.88H40.0104V22.224H22.3944V20.88ZM22.4904 14.832H35.7144V16.08H22.4904V14.832ZM37.6344 23.904H39.3624C39.3624 23.904 39.3544 23.992 39.3384 24.168C39.3384 24.344 39.3304 24.496 39.3144 24.624C39.2024 26.064 39.0824 27.24 38.9544 28.152C38.8424 29.048 38.7144 29.744 38.5704 30.24C38.4264 30.736 38.2504 31.088 38.0424 31.296C37.8344 31.504 37.6104 31.648 37.3704 31.728C37.1464 31.824 36.8744 31.888 36.5544 31.92C36.2504 31.936 35.8344 31.944 35.3064 31.944C34.7784 31.944 34.2184 31.92 33.6264 31.872C33.6104 31.664 33.5624 31.416 33.4824 31.128C33.4184 30.84 33.3224 30.592 33.1944 30.384C33.7544 30.432 34.2744 30.464 34.7544 30.48C35.2504 30.496 35.5944 30.504 35.7864 30.504C36.1704 30.504 36.4424 30.432 36.6024 30.288C36.7464 30.128 36.8744 29.832 36.9864 29.4C37.1144 28.968 37.2264 28.328 37.3224 27.48C37.4344 26.632 37.5384 25.528 37.6344 24.168V23.904ZM28.1544 9.72L30.2424 10.008C30.0024 10.504 29.7384 10.984 29.4504 11.448C29.1624 11.912 28.9064 12.32 28.6824 12.672L27.1224 12.312C27.3144 11.928 27.5064 11.496 27.6984 11.016C27.9064 10.52 28.0584 10.088 28.1544 9.72ZM22.5624 11.76H36.6264V19.272H22.5624V17.928H34.8504V13.104H22.5624V11.76ZM21.5064 11.76H23.3064V24.504H21.5064V11.76ZM28.0344 26.712L29.4264 26.376C29.7304 26.984 29.9944 27.648 30.2184 28.368C30.4584 29.072 30.6104 29.672 30.6744 30.168L29.1864 30.576C29.1384 30.064 29.0024 29.448 28.7784 28.728C28.5544 28.008 28.3064 27.336 28.0344 26.712ZM31.8264 26.376L33.0984 25.872C33.4664 26.336 33.8184 26.864 34.1544 27.456C34.5064 28.032 34.7544 28.528 34.8984 28.944L33.5544 29.496C33.4104 29.08 33.1704 28.576 32.8344 27.984C32.5144 27.376 32.1784 26.84 31.8264 26.376ZM24.0984 26.808L25.6104 26.592C25.8184 27.264 25.9784 28.008 26.0904 28.824C26.2024 29.624 26.2504 30.304 26.2344 30.864L24.6504 31.128C24.6824 30.552 24.6504 29.864 24.5544 29.064C24.4584 28.248 24.3064 27.496 24.0984 26.808ZM20.8344 26.112L22.3224 26.664C22.0984 27.56 21.7704 28.488 21.3384 29.448C20.9224 30.392 20.3784 31.176 19.7064 31.8L18.2664 30.912C18.9064 30.336 19.4344 29.608 19.8504 28.728C20.2824 27.848 20.6104 26.976 20.8344 26.112ZM42.8904 12.12H63.6504V13.776H42.8904V12.12ZM52.2264 9.84H54.0744V13.056H52.2264V9.84ZM43.8984 16.32H62.0184V17.904H45.6264V31.896H43.8984V16.32ZM61.0584 16.32H62.8104V29.688C62.8104 30.216 62.7384 30.632 62.5944 30.936C62.4504 31.24 62.1864 31.464 61.8024 31.608C61.4024 31.752 60.8664 31.84 60.1944 31.872C59.5224 31.904 58.6904 31.92 57.6984 31.92C57.6664 31.76 57.6184 31.576 57.5544 31.368C57.4904 31.16 57.4184 30.944 57.3384 30.72C57.2584 30.512 57.1704 30.328 57.0744 30.168C57.8584 30.184 58.5784 30.192 59.2344 30.192C59.8904 30.208 60.3224 30.208 60.5304 30.192C60.7384 30.176 60.8744 30.128 60.9384 30.048C61.0184 29.984 61.0584 29.864 61.0584 29.688V16.32ZM49.9464 17.472H51.6024C51.5224 18.528 51.3304 19.424 51.0264 20.16C50.7224 20.896 50.2184 21.504 49.5144 21.984C48.8264 22.464 47.8664 22.848 46.6344 23.136C46.5704 22.944 46.4504 22.72 46.2744 22.464C46.0984 22.208 45.9304 22.008 45.7704 21.864C46.8424 21.64 47.6664 21.344 48.2424 20.976C48.8344 20.608 49.2504 20.144 49.4904 19.584C49.7304 19.024 49.8824 18.32 49.9464 17.472ZM54.4104 17.496H56.0184V20.28C56.0184 20.504 56.0584 20.648 56.1384 20.712C56.2184 20.776 56.4104 20.808 56.7144 20.808C56.7784 20.808 56.9064 20.808 57.0984 20.808C57.2904 20.808 57.4984 20.808 57.7224 20.808C57.9624 20.808 58.1784 20.808 58.3704 20.808C58.5784 20.808 58.7304 20.808 58.8264 20.808C58.9864 20.808 59.1064 20.776 59.1864 20.712C59.2824 20.648 59.3544 20.504 59.4024 20.28C59.4504 20.04 59.4824 19.688 59.4984 19.224C59.6584 19.336 59.8744 19.448 60.1464 19.56C60.4184 19.656 60.6664 19.728 60.8904 19.776C60.8104 20.736 60.6344 21.384 60.3624 21.72C60.1064 22.04 59.6584 22.2 59.0184 22.2C58.9384 22.2 58.7784 22.2 58.5384 22.2C58.3144 22.2 58.0584 22.2 57.7704 22.2C57.4984 22.2 57.2424 22.2 57.0024 22.2C56.7784 22.2 56.6184 22.2 56.5224 22.2C55.9624 22.2 55.5304 22.144 55.2264 22.032C54.9224 21.92 54.7064 21.728 54.5784 21.456C54.4664 21.184 54.4104 20.8 54.4104 20.304V17.496ZM48.7704 23.424H50.4024V30.816H48.7704V23.424ZM49.7544 23.424H57.9144V29.328H49.7544V27.912H56.2584V24.84H49.7544V23.424ZM47.4984 13.752L49.2264 13.416C49.5144 13.864 49.7784 14.36 50.0184 14.904C50.2744 15.448 50.4664 15.928 50.5944 16.344L48.7464 16.776C48.6504 16.36 48.4824 15.872 48.2424 15.312C48.0024 14.736 47.7544 14.216 47.4984 13.752ZM57.1464 13.344L59.1144 13.704C58.8424 14.264 58.5544 14.816 58.2504 15.36C57.9624 15.904 57.6904 16.368 57.4344 16.752L55.6824 16.392C55.9384 15.976 56.2024 15.48 56.4744 14.904C56.7464 14.312 56.9704 13.792 57.1464 13.344ZM75.4104 11.352C75.3784 11.576 75.3384 11.816 75.2904 12.072C75.2424 12.312 75.1944 12.552 75.1464 12.792C75.0824 13.064 75.0104 13.448 74.9304 13.944C74.8504 14.44 74.7544 14.968 74.6424 15.528C74.5464 16.072 74.4424 16.6 74.3304 17.112C74.1544 17.784 73.9464 18.552 73.7064 19.416C73.4824 20.264 73.2104 21.176 72.8904 22.152C72.5864 23.112 72.2424 24.096 71.8584 25.104C71.4744 26.096 71.0504 27.08 70.5864 28.056C70.1224 29.032 69.6184 29.96 69.0744 30.84L67.1304 30.048C67.6744 29.328 68.1864 28.512 68.6664 27.6C69.1464 26.688 69.5864 25.744 69.9864 24.768C70.3864 23.776 70.7464 22.8 71.0664 21.84C71.3864 20.88 71.6584 19.992 71.8824 19.176C72.1224 18.344 72.3064 17.632 72.4344 17.04C72.6584 16.096 72.8424 15.104 72.9864 14.064C73.1304 13.024 73.2024 12.048 73.2024 11.136L75.4104 11.352ZM83.6664 14.136C84.0504 14.616 84.4504 15.224 84.8664 15.96C85.2984 16.696 85.7144 17.472 86.1144 18.288C86.5304 19.104 86.9064 19.896 87.2424 20.664C87.5944 21.432 87.8664 22.096 88.0584 22.656L86.2104 23.544C86.0344 22.92 85.7864 22.216 85.4664 21.432C85.1624 20.648 84.8104 19.856 84.4104 19.056C84.0264 18.24 83.6184 17.472 83.1864 16.752C82.7704 16.016 82.3464 15.408 81.9144 14.928L83.6664 14.136ZM66.7704 16.632C67.1544 16.648 67.5144 16.656 67.8504 16.656C68.1864 16.656 68.5464 16.648 68.9304 16.632C69.2824 16.616 69.7384 16.592 70.2984 16.56C70.8744 16.512 71.4904 16.464 72.1464 16.416C72.8024 16.352 73.4584 16.296 74.1144 16.248C74.7704 16.184 75.3704 16.136 75.9144 16.104C76.4584 16.056 76.8904 16.032 77.2104 16.032C77.9304 16.032 78.5784 16.152 79.1544 16.392C79.7464 16.616 80.2184 17.024 80.5704 17.616C80.9384 18.192 81.1224 19.024 81.1224 20.112C81.1224 21.056 81.0744 22.08 80.9784 23.184C80.8824 24.272 80.7304 25.312 80.5224 26.304C80.3304 27.28 80.0664 28.104 79.7304 28.776C79.3624 29.576 78.8824 30.104 78.2904 30.36C77.6984 30.632 77.0104 30.768 76.2264 30.768C75.7624 30.768 75.2664 30.728 74.7384 30.648C74.2264 30.584 73.7784 30.512 73.3944 30.432L73.0824 28.416C73.4184 28.528 73.7704 28.624 74.1384 28.704C74.5064 28.768 74.8584 28.824 75.1944 28.872C75.5304 28.904 75.8024 28.92 76.0104 28.92C76.4584 28.92 76.8584 28.848 77.2104 28.704C77.5624 28.544 77.8664 28.2 78.1224 27.672C78.3784 27.128 78.5864 26.448 78.7464 25.632C78.9224 24.816 79.0504 23.944 79.1304 23.016C79.2104 22.088 79.2504 21.192 79.2504 20.328C79.2504 19.592 79.1464 19.04 78.9384 18.672C78.7304 18.304 78.4344 18.056 78.0504 17.928C77.6664 17.8 77.2184 17.736 76.7064 17.736C76.3064 17.736 75.7624 17.768 75.0744 17.832C74.3864 17.88 73.6504 17.944 72.8664 18.024C72.0824 18.088 71.3544 18.16 70.6824 18.24C70.0264 18.32 69.5144 18.376 69.1464 18.408C68.8584 18.44 68.4984 18.488 68.0664 18.552C67.6504 18.6 67.2904 18.648 66.9864 18.696L66.7704 16.632ZM83.9544 10.656C84.1624 10.928 84.3784 11.264 84.6024 11.664C84.8424 12.048 85.0824 12.448 85.3224 12.864C85.5624 13.264 85.7624 13.624 85.9224 13.944L84.6024 14.52C84.4584 14.2 84.2744 13.84 84.0504 13.44C83.8264 13.04 83.5944 12.64 83.3544 12.24C83.1144 11.84 82.8824 11.488 82.6584 11.184L83.9544 10.656ZM86.5944 9.672C86.8024 9.976 87.0344 10.328 87.2904 10.728C87.5464 11.128 87.7944 11.528 88.0344 11.928C88.2744 12.312 88.4664 12.656 88.6104 12.96L87.3144 13.536C87.0584 13.008 86.7464 12.44 86.3784 11.832C86.0104 11.208 85.6584 10.672 85.3224 10.224L86.5944 9.672ZM91.1304 14.208C91.5784 14.192 91.9864 14.176 92.3544 14.16C92.7384 14.128 93.0424 14.104 93.2664 14.088C93.6504 14.04 94.2024 13.984 94.9224 13.92C95.6584 13.84 96.4984 13.76 97.4424 13.68C98.3864 13.584 99.4024 13.488 100.49 13.392C101.578 13.296 102.674 13.2 103.778 13.104C104.658 13.024 105.49 12.96 106.274 12.912C107.058 12.848 107.786 12.8 108.458 12.768C109.13 12.72 109.73 12.688 110.258 12.672V14.592C109.81 14.592 109.298 14.6 108.722 14.616C108.146 14.632 107.578 14.664 107.018 14.712C106.458 14.76 105.97 14.848 105.554 14.976C104.706 15.248 103.938 15.664 103.25 16.224C102.578 16.768 102.002 17.4 101.522 18.12C101.042 18.84 100.674 19.584 100.418 20.352C100.178 21.12 100.058 21.864 100.058 22.584C100.058 23.512 100.218 24.328 100.538 25.032C100.858 25.72 101.29 26.304 101.834 26.784C102.394 27.264 103.026 27.656 103.73 27.96C104.434 28.264 105.178 28.496 105.962 28.656C106.762 28.8 107.554 28.88 108.338 28.896L107.642 30.888C106.746 30.856 105.85 30.728 104.954 30.504C104.058 30.296 103.202 29.992 102.386 29.592C101.57 29.176 100.842 28.656 100.202 28.032C99.5624 27.408 99.0584 26.68 98.6904 25.848C98.3224 25.016 98.1384 24.064 98.1384 22.992C98.1384 21.744 98.3544 20.592 98.7864 19.536C99.2344 18.464 99.8024 17.528 100.49 16.728C101.178 15.928 101.89 15.312 102.626 14.88C102.114 14.944 101.474 15.016 100.706 15.096C99.9544 15.176 99.1464 15.264 98.2824 15.36C97.4184 15.44 96.5464 15.536 95.6664 15.648C94.8024 15.76 93.9944 15.872 93.2424 15.984C92.4904 16.08 91.8584 16.184 91.3464 16.296L91.1304 14.208ZM106.802 17.544C106.978 17.8 107.186 18.128 107.426 18.528C107.682 18.912 107.93 19.312 108.17 19.728C108.41 20.128 108.61 20.512 108.77 20.88L107.546 21.456C107.274 20.864 106.97 20.28 106.634 19.704C106.298 19.112 105.946 18.568 105.578 18.072L106.802 17.544ZM109.418 16.536C109.61 16.792 109.834 17.112 110.09 17.496C110.346 17.88 110.594 18.28 110.834 18.696C111.09 19.096 111.314 19.48 111.506 19.848L110.258 20.448C109.97 19.856 109.65 19.272 109.298 18.696C108.962 18.12 108.61 17.584 108.242 17.088L109.418 16.536ZM117.53 13.56C119.21 13.752 120.81 13.864 122.33 13.896C123.866 13.928 125.25 13.888 126.482 13.776C127.458 13.68 128.426 13.536 129.386 13.344C130.362 13.136 131.282 12.896 132.146 12.624L132.41 14.352C131.626 14.576 130.746 14.784 129.77 14.976C128.81 15.168 127.85 15.312 126.89 15.408C125.674 15.52 124.258 15.576 122.642 15.576C121.042 15.56 119.378 15.472 117.65 15.312L117.53 13.56ZM117.074 18.48C118.434 18.624 119.778 18.72 121.106 18.768C122.434 18.8 123.69 18.792 124.874 18.744C126.058 18.696 127.114 18.616 128.042 18.504C129.194 18.376 130.242 18.208 131.186 18C132.13 17.792 132.922 17.584 133.562 17.376L133.85 19.176C133.194 19.352 132.426 19.528 131.546 19.704C130.666 19.864 129.722 20.008 128.714 20.136C127.722 20.248 126.594 20.336 125.33 20.4C124.066 20.448 122.73 20.464 121.322 20.448C119.93 20.416 118.546 20.36 117.17 20.28L117.074 18.48ZM125.282 13.248C125.186 12.88 125.074 12.52 124.946 12.168C124.834 11.8 124.722 11.448 124.61 11.112L126.65 10.848C126.73 11.52 126.858 12.224 127.034 12.96C127.21 13.68 127.402 14.392 127.61 15.096C127.818 15.784 128.018 16.408 128.21 16.968C128.434 17.592 128.698 18.256 129.002 18.96C129.306 19.664 129.642 20.36 130.01 21.048C130.378 21.736 130.77 22.392 131.186 23.016C131.314 23.192 131.45 23.368 131.594 23.544C131.754 23.704 131.914 23.872 132.074 24.048L131.09 25.512C130.642 25.384 130.114 25.28 129.506 25.2C128.898 25.104 128.274 25.024 127.634 24.96C126.994 24.88 126.394 24.808 125.834 24.744L126.002 23.28C126.642 23.344 127.306 23.416 127.994 23.496C128.682 23.576 129.218 23.64 129.602 23.688C128.93 22.648 128.338 21.576 127.826 20.472C127.33 19.368 126.906 18.328 126.554 17.352C126.362 16.808 126.186 16.304 126.026 15.84C125.882 15.36 125.746 14.904 125.618 14.472C125.506 14.04 125.394 13.632 125.282 13.248ZM120.554 23.64C120.266 24.056 120.026 24.48 119.834 24.912C119.642 25.344 119.546 25.824 119.546 26.352C119.546 27.344 119.994 28.088 120.89 28.584C121.802 29.08 123.202 29.328 125.09 29.328C126.21 29.328 127.226 29.288 128.138 29.208C129.05 29.128 129.938 29 130.802 28.824L130.73 30.744C129.898 30.872 129.01 30.968 128.066 31.032C127.122 31.112 126.138 31.152 125.114 31.152C123.546 31.152 122.21 30.992 121.106 30.672C120.018 30.352 119.186 29.864 118.61 29.208C118.05 28.552 117.762 27.712 117.746 26.688C117.73 26 117.81 25.392 117.986 24.864C118.178 24.32 118.41 23.784 118.682 23.256L120.554 23.64ZM142.478 12.312C142.75 12.344 143.038 12.368 143.342 12.384C143.662 12.4 143.942 12.408 144.182 12.408C144.422 12.408 144.814 12.4 145.358 12.384C145.918 12.368 146.542 12.352 147.23 12.336C147.934 12.304 148.63 12.28 149.318 12.264C150.022 12.232 150.646 12.2 151.19 12.168C151.75 12.136 152.158 12.112 152.414 12.096C152.766 12.064 153.038 12.032 153.23 12C153.422 11.968 153.582 11.936 153.71 11.904L154.814 13.296C154.606 13.44 154.382 13.592 154.142 13.752C153.918 13.912 153.694 14.088 153.47 14.28C153.166 14.504 152.758 14.832 152.246 15.264C151.734 15.68 151.166 16.152 150.542 16.68C149.934 17.192 149.334 17.696 148.742 18.192C148.15 18.688 147.614 19.136 147.134 19.536C147.694 19.344 148.254 19.216 148.814 19.152C149.39 19.072 149.942 19.032 150.47 19.032C151.798 19.032 152.974 19.28 153.998 19.776C155.038 20.256 155.846 20.92 156.422 21.768C157.014 22.616 157.31 23.584 157.31 24.672C157.31 25.952 156.974 27.072 156.302 28.032C155.63 28.992 154.678 29.728 153.446 30.24C152.214 30.768 150.75 31.032 149.054 31.032C147.966 31.032 147.03 30.888 146.246 30.6C145.462 30.312 144.854 29.912 144.422 29.4C144.006 28.888 143.798 28.296 143.798 27.624C143.798 27.08 143.95 26.568 144.254 26.088C144.558 25.608 144.99 25.224 145.55 24.936C146.11 24.648 146.758 24.504 147.494 24.504C148.566 24.504 149.454 24.728 150.158 25.176C150.862 25.608 151.406 26.184 151.79 26.904C152.174 27.608 152.39 28.368 152.438 29.184L150.71 29.472C150.646 28.448 150.326 27.608 149.75 26.952C149.19 26.28 148.43 25.944 147.47 25.944C146.926 25.944 146.47 26.096 146.102 26.4C145.734 26.704 145.55 27.064 145.55 27.48C145.55 28.056 145.846 28.512 146.438 28.848C147.03 29.184 147.798 29.352 148.742 29.352C150.102 29.352 151.278 29.168 152.27 28.8C153.278 28.432 154.046 27.896 154.574 27.192C155.118 26.488 155.39 25.64 155.39 24.648C155.39 23.864 155.158 23.16 154.694 22.536C154.23 21.912 153.59 21.424 152.774 21.072C151.974 20.704 151.054 20.52 150.014 20.52C149.006 20.52 148.102 20.632 147.302 20.856C146.502 21.064 145.75 21.368 145.046 21.768C144.358 22.168 143.67 22.672 142.982 23.28C142.31 23.872 141.59 24.552 140.822 25.32L139.454 23.904C139.95 23.504 140.494 23.056 141.086 22.56C141.694 22.048 142.302 21.544 142.91 21.048C143.518 20.536 144.078 20.064 144.59 19.632C145.118 19.184 145.558 18.816 145.91 18.528C146.246 18.256 146.662 17.912 147.158 17.496C147.67 17.064 148.198 16.616 148.742 16.152C149.286 15.688 149.798 15.248 150.278 14.832C150.774 14.416 151.174 14.08 151.478 13.824C151.222 13.824 150.846 13.84 150.35 13.872C149.854 13.888 149.302 13.912 148.694 13.944C148.086 13.96 147.478 13.984 146.87 14.016C146.278 14.048 145.734 14.08 145.238 14.112C144.758 14.128 144.39 14.144 144.134 14.16C143.878 14.176 143.614 14.192 143.342 14.208C143.07 14.224 142.806 14.256 142.55 14.304L142.478 12.312ZM166.406 13.152C167.27 13.264 168.238 13.344 169.31 13.392C170.398 13.44 171.542 13.464 172.742 13.464C173.51 13.464 174.278 13.448 175.046 13.416C175.83 13.384 176.574 13.344 177.278 13.296C177.998 13.232 178.646 13.176 179.222 13.128V15.096C178.678 15.128 178.046 15.168 177.326 15.216C176.606 15.264 175.846 15.304 175.046 15.336C174.262 15.368 173.494 15.384 172.742 15.384C171.542 15.384 170.422 15.36 169.382 15.312C168.342 15.248 167.35 15.184 166.406 15.12V13.152ZM167.366 22.824C167.206 23.304 167.078 23.768 166.982 24.216C166.902 24.664 166.862 25.112 166.862 25.56C166.862 26.472 167.334 27.216 168.278 27.792C169.222 28.368 170.654 28.656 172.574 28.656C173.678 28.656 174.742 28.616 175.766 28.536C176.79 28.456 177.726 28.344 178.574 28.2C179.438 28.056 180.174 27.888 180.782 27.696L180.806 29.76C180.23 29.92 179.518 30.064 178.67 30.192C177.838 30.32 176.91 30.416 175.886 30.48C174.862 30.56 173.774 30.6 172.622 30.6C171.006 30.6 169.622 30.424 168.47 30.072C167.318 29.72 166.438 29.2 165.83 28.512C165.222 27.824 164.918 26.976 164.918 25.968C164.918 25.344 164.974 24.752 165.086 24.192C165.198 23.632 165.31 23.112 165.422 22.632L167.366 22.824ZM204.302 15.672C204.03 15.848 203.742 16.016 203.438 16.176C203.134 16.336 202.806 16.504 202.454 16.68C202.054 16.904 201.558 17.16 200.966 17.448C200.374 17.736 199.742 18.056 199.07 18.408C198.398 18.76 197.726 19.128 197.054 19.512C196.382 19.896 195.75 20.28 195.158 20.664C194.038 21.384 193.158 22.144 192.518 22.944C191.894 23.744 191.582 24.6 191.582 25.512C191.582 26.504 192.054 27.296 192.998 27.888C193.958 28.464 195.382 28.752 197.27 28.752C198.15 28.752 199.062 28.72 200.006 28.656C200.95 28.576 201.854 28.472 202.718 28.344C203.598 28.216 204.342 28.08 204.95 27.936V30.072C204.358 30.184 203.654 30.28 202.838 30.36C202.038 30.456 201.174 30.528 200.246 30.576C199.318 30.64 198.358 30.672 197.366 30.672C196.23 30.672 195.19 30.576 194.246 30.384C193.302 30.208 192.478 29.928 191.774 29.544C191.086 29.16 190.55 28.656 190.166 28.032C189.782 27.392 189.59 26.624 189.59 25.728C189.59 24.848 189.774 24.04 190.142 23.304C190.51 22.552 191.038 21.84 191.726 21.168C192.414 20.496 193.23 19.848 194.174 19.224C194.782 18.808 195.43 18.408 196.118 18.024C196.822 17.624 197.51 17.24 198.182 16.872C198.854 16.504 199.478 16.168 200.054 15.864C200.646 15.56 201.142 15.304 201.542 15.096C201.878 14.888 202.182 14.704 202.454 14.544C202.726 14.368 202.99 14.176 203.246 13.968L204.302 15.672ZM192.158 11.328C192.526 12.352 192.918 13.352 193.334 14.328C193.766 15.304 194.198 16.216 194.63 17.064C195.078 17.912 195.486 18.664 195.854 19.32L194.198 20.304C193.798 19.648 193.374 18.872 192.926 17.976C192.478 17.08 192.03 16.128 191.582 15.12C191.134 14.112 190.694 13.112 190.262 12.12L192.158 11.328Z" fill="#262626"/>
<path d="M183 1C182.448 1 182 1.44772 182 2C182 2.55228 182.448 3 183 3V2V1ZM183.1 2L183.116 1.00012L183.108 1H183.1V2ZM198 2.1593L197.999 3.1593L198 2.1593ZM207.818 2.98771L207.649 3.97336L207.818 2.98771ZM216.534 6.61752L215.95 7.42927L216.534 6.61752ZM220.713 31.9463L221.515 32.5434L220.713 31.9463ZM213.197 37.6683L212.837 36.7352L213.197 37.6683ZM193.693 39.9268L193.731 40.9261L193.693 39.9268ZM183.693 39.8752L183.742 38.8764L183.693 39.8752ZM153.693 40.2029L153.691 41.2029L153.693 40.2029ZM143.693 39.9853L143.735 38.9862L143.693 39.9853ZM133.693 40.0795L133.753 41.0777L133.693 40.0795ZM93.6926 39.9439L93.6178 40.941L93.6926 39.9439ZM83.6926 40.0013L83.6064 39.0051L83.6926 40.0013ZM73.6926 40.236L73.7323 39.2368L73.6926 40.236ZM53.6926 40.127L53.7394 41.1259L53.6926 40.127ZM23.6884 39.8249L23.7386 40.8237L23.6884 39.8249ZM16.6705 3.01691L16.7649 4.01244L16.6705 3.01691ZM156.615 2.15361L156.688 1.15633L156.615 2.15361ZM174.807 2.25655L174.773 1.25713L174.807 2.25655ZM178 2.07386H179V1.56927L178.594 1.26948L178 2.07386ZM177.9 2V1H174.863L177.306 2.80438L177.9 2ZM178 3C178.552 3 179 2.55228 179 2C179 1.44772 178.552 1 178 1V2V3ZM183 2V3H183.1V2V1H183V2ZM183.1 2L183.084 2.99988C189.685 3.10376 194.658 3.15696 197.999 3.1593L198 2.1593L198.001 1.1593C194.675 1.15697 189.715 1.10397 183.116 1.00012L183.1 2ZM198 2.1593L197.999 3.1593C201.278 3.16159 204.494 3.43314 207.649 3.97336L207.818 2.98771L207.986 2.00205C204.718 1.44239 201.389 1.16167 198.001 1.1593L198 2.1593ZM207.818 2.98771L207.649 3.97336C210.713 4.49811 213.476 5.64972 215.95 7.42927L216.534 6.61752L217.118 5.80576C214.393 3.84545 211.345 2.57718 207.986 2.00205L207.818 2.98771ZM216.534 6.61752L215.95 7.42927C218.419 9.20529 220.367 11.4715 221.8 14.241L222.688 13.7815L223.576 13.3219C222.002 10.2794 219.848 7.76961 217.118 5.80576L216.534 6.61752ZM222.688 13.7815L221.8 14.241C223.209 16.9638 223.713 19.8517 223.312 22.933L224.303 23.062L225.295 23.191C225.748 19.7103 225.175 16.4111 223.576 13.3219L222.688 13.7815ZM224.303 23.062L223.312 22.933C222.907 26.0451 221.775 28.8452 219.911 31.3492L220.713 31.9463L221.515 32.5434C223.584 29.7636 224.846 26.6409 225.295 23.191L224.303 23.062ZM220.713 31.9463L219.911 31.3492C218.056 33.841 215.704 35.631 212.837 36.7352L213.197 37.6683L213.556 38.6015C216.779 37.36 219.437 35.3353 221.515 32.5434L220.713 31.9463ZM213.197 37.6683L212.837 36.7352C209.9 37.8669 206.833 38.4824 203.631 38.581L203.662 39.5806L203.692 40.5801C207.116 40.4747 210.405 39.8154 213.556 38.6015L213.197 37.6683ZM203.662 39.5806L203.631 38.581C200.316 38.6831 196.99 38.7986 193.654 38.9276L193.693 39.9268L193.731 40.9261C197.062 40.7973 200.382 40.682 203.692 40.5801L203.662 39.5806ZM193.693 39.9268L193.654 38.9276C190.35 39.0553 187.046 39.0382 183.742 38.8764L183.693 39.8752L183.644 40.874C187.006 41.0387 190.369 41.056 193.731 40.9261L193.693 39.9268ZM183.693 39.8752L183.742 38.8764C180.372 38.7114 177.003 38.7279 173.634 38.9259L173.693 39.9242L173.751 40.9225C177.049 40.7287 180.346 40.7125 183.644 40.874L183.693 39.8752ZM173.693 39.9242L173.634 38.9259C170.32 39.1207 167.007 39.2168 163.693 39.2143L163.693 40.2143L163.692 41.2143C167.045 41.2168 170.398 41.1195 173.751 40.9225L173.693 39.9242ZM163.693 40.2143L163.693 39.2143C160.36 39.2119 157.027 39.208 153.694 39.2029L153.693 40.2029L153.691 41.2029C157.025 41.208 160.358 41.2119 163.692 41.2143L163.693 40.2143ZM153.693 40.2029L153.694 39.2029C150.374 39.1978 147.054 39.1256 143.735 38.9862L143.693 39.9853L143.651 40.9845C146.997 41.1249 150.344 41.1978 153.691 41.2029L153.693 40.2029ZM143.693 39.9853L143.735 38.9862C140.367 38.8449 136.999 38.8766 133.632 39.0814L133.693 40.0795L133.753 41.0777C137.053 40.8771 140.352 40.846 143.651 40.9845L143.693 39.9853ZM133.693 40.0795L133.632 39.0814C130.332 39.282 127.033 39.3153 123.733 39.1813L123.693 40.1804L123.652 41.1796C127.019 41.3164 130.386 41.2825 133.753 41.0777L133.693 40.0795ZM123.693 40.1804L123.733 39.1813C120.369 39.0446 117.005 39.0625 113.641 39.2351L113.693 40.2338L113.744 41.2324C117.047 41.063 120.349 41.0454 123.652 41.1796L123.693 40.1804ZM113.693 40.2338L113.641 39.2351C110.331 39.4049 107.02 39.4615 103.71 39.4049L103.693 40.4048L103.676 41.4047C107.032 41.462 110.388 41.4046 113.744 41.2324L113.693 40.2338ZM103.693 40.4048L103.71 39.4049C100.396 39.3483 97.0817 39.1955 93.7675 38.9467L93.6926 39.9439L93.6178 40.941C96.9703 41.1928 100.323 41.3474 103.676 41.4047L103.693 40.4048ZM93.6926 39.9439L93.7675 38.9467C90.3805 38.6923 86.9933 38.7118 83.6064 39.0051L83.6926 40.0013L83.7789 40.9976C87.0587 40.7136 90.3381 40.6947 93.6178 40.941L93.6926 39.9439ZM83.6926 40.0013L83.6064 39.0051C80.3148 39.2901 77.0235 39.3673 73.7323 39.2368L73.6926 40.236L73.653 41.2352C77.0285 41.3691 80.4038 41.2899 83.7789 40.9976L83.6926 40.0013ZM73.6926 40.236L73.7323 39.2368C70.3906 39.1043 67.0489 39.0138 63.7071 38.9654L63.6926 39.9653L63.6782 40.9652C67.0031 41.0133 70.328 41.1034 73.653 41.2352L73.6926 40.236ZM63.6926 39.9653L63.7071 38.9654C60.3533 38.9168 56.9996 38.971 53.6459 39.1281L53.6926 40.127L53.7394 41.1259C57.0524 40.9707 60.3653 40.9172 63.6782 40.9652L63.6926 39.9653ZM53.6926 40.127L53.6459 39.1281C50.3445 39.2827 47.0432 39.2787 43.7419 39.1159L43.6926 40.1146L43.6434 41.1134C47.0087 41.2794 50.3741 41.2835 53.7394 41.1259L53.6926 40.127ZM43.6926 40.1146L43.7419 39.1159C40.402 38.9512 37.062 38.8196 33.7221 38.7212L33.6926 39.7207L33.6632 40.7203C36.9899 40.8183 40.3166 40.9494 43.6434 41.1134L43.6926 40.1146ZM33.6926 39.7207L33.7221 38.7212C30.3622 38.6222 27.0008 38.6572 23.6382 38.8262L23.6884 39.8249L23.7386 40.8237C27.0483 40.6573 30.3564 40.6229 33.6632 40.7203L33.6926 39.7207ZM23.6884 39.8249L23.6382 38.8262C20.4313 38.9874 17.3351 38.5371 14.342 37.4757L14.0078 38.4182L13.6736 39.3607C16.9156 40.5103 20.2732 40.9978 23.7386 40.8237L23.6884 39.8249ZM14.0078 38.4182L14.342 37.4757C11.379 36.4249 8.83041 34.7385 6.68511 32.4069L5.94922 33.084L5.21334 33.7611C7.57765 36.3307 10.4014 38.2003 13.6736 39.3607L14.0078 38.4182ZM5.94922 33.084L6.68511 32.4069C4.5568 30.0939 3.19175 27.387 2.58327 24.2663L1.60175 24.4577L0.620236 24.649C1.29877 28.129 2.83203 31.1731 5.21334 33.7611L5.94922 33.084ZM1.60175 24.4577L2.58327 24.2663C1.97575 21.1505 2.24403 18.1363 3.38797 15.2012L2.45623 14.8381L1.5245 14.4749C0.242114 17.7653 -0.0592519 21.1641 0.620236 24.649L1.60175 24.4577ZM2.45623 14.8381L3.38797 15.2012C4.5443 12.2343 6.30226 9.69473 8.66888 7.57174L8.00113 6.82736L7.33338 6.08297C4.73312 8.41554 2.79448 11.2164 1.5245 14.4749L2.45623 14.8381ZM8.00113 6.82736L8.66888 7.57174C10.9943 5.4857 13.6836 4.3046 16.7649 4.01244L16.6705 3.01691L16.5761 2.02137C13.0652 2.35426 9.97483 3.71346 7.33338 6.08297L8.00113 6.82736ZM16.6705 3.01691L16.7649 4.01244C20.0443 3.7015 23.3425 3.47205 26.6593 3.32409L26.6147 2.32509L26.5702 1.32608C23.2203 1.47551 19.889 1.70726 16.5761 2.02137L16.6705 3.01691ZM26.6147 2.32509L26.6593 3.32409C29.9926 3.1754 33.3259 3.02683 36.6592 2.87838L36.6147 1.87937L36.5702 0.880358C33.2369 1.02882 29.9035 1.17739 26.5702 1.32608L26.6147 2.32509ZM36.6147 1.87937L36.6592 2.87838C39.9704 2.73091 43.2816 2.69353 46.5928 2.76625L46.6147 1.76649L46.6367 0.766729C43.2812 0.693039 39.9257 0.730916 36.5702 0.880358L36.6147 1.87937ZM46.6147 1.76649L46.5928 2.76625C49.9243 2.83941 53.2559 2.92146 56.5874 3.01239L56.6147 2.01276L56.642 1.01313C53.3069 0.922106 49.9718 0.839971 46.6367 0.766729L46.6147 1.76649ZM56.6147 2.01276L56.5874 3.01239C59.9207 3.10337 63.254 3.19458 66.5873 3.28602L66.6147 2.28639L66.6422 1.28677C63.3088 1.19533 59.9754 1.10412 56.642 1.01313L56.6147 2.01276ZM66.6147 2.28639L66.5873 3.28602C69.9545 3.37838 73.3217 3.29983 76.6886 3.05038L76.6147 2.05311L76.5408 1.05585C73.2411 1.30031 69.9416 1.37728 66.6422 1.28677L66.6147 2.28639ZM76.6147 2.05311L76.6886 3.05038C79.9764 2.8068 83.2639 2.78913 86.5515 2.99735L86.6147 1.99935L86.6779 1.00135C83.2989 0.78734 79.9198 0.80551 76.5408 1.05585L76.6147 2.05311ZM86.6147 1.99935L86.5515 2.99735C89.8999 3.20942 93.2484 3.34526 96.5969 3.40484L96.6147 2.405L96.6325 1.40516C93.3144 1.34611 89.9962 1.21151 86.6779 1.00135L86.6147 1.99935ZM96.6147 2.405L96.5969 3.40484C99.9564 3.46462 103.316 3.39309 106.675 3.19024L106.615 2.19206L106.554 1.19388C103.247 1.39359 99.9398 1.46401 96.6325 1.40516L96.6147 2.405ZM106.615 2.19206L106.675 3.19024C109.974 2.99103 113.273 2.9617 116.572 3.10225L116.615 2.10316L116.657 1.10407C113.29 0.960594 109.922 0.990535 106.554 1.19388L106.615 2.19206ZM116.615 2.10316L116.572 3.10225C119.936 3.24556 123.3 3.23517 126.663 3.07109L126.615 2.07227L126.566 1.07346C123.263 1.23458 119.96 1.24478 116.657 1.10407L116.615 2.10316ZM126.615 2.07227L126.663 3.07109C129.978 2.90942 133.292 2.84295 136.606 2.87167L136.615 1.87171L136.623 0.871749C133.271 0.842691 129.918 0.90993 126.566 1.07346L126.615 2.07227ZM136.615 1.87171L136.606 2.87167C139.947 2.90063 143.287 2.89323 146.628 2.84949L146.615 1.84958L146.602 0.849663C143.276 0.893216 139.949 0.900578 136.623 0.871749L136.615 1.87171ZM146.615 1.84958L146.628 2.84949C149.932 2.80622 153.237 2.90668 156.541 3.15089L156.615 2.15361L156.688 1.15633C153.326 0.907866 149.964 0.805635 146.602 0.849663L146.615 1.84958ZM156.615 2.15361L156.541 3.15089C159.904 3.39943 163.267 3.49718 166.631 3.44412L166.615 2.44425L166.599 1.44437C163.296 1.49648 159.992 1.40048 156.688 1.15633L156.615 2.15361ZM166.615 2.44425L166.631 3.44412C169.967 3.39149 172.705 3.32881 174.841 3.25597L174.807 2.25655L174.773 1.25713C172.653 1.32939 169.929 1.39184 166.599 1.44437L166.615 2.44425ZM174.807 2.25655L174.841 3.25597C175.907 3.21963 176.715 3.18596 177.259 3.15483C177.528 3.13941 177.747 3.12388 177.903 3.10766C177.977 3.10004 178.063 3.0897 178.142 3.07419C178.175 3.06791 178.254 3.0518 178.344 3.01767C178.383 3.00282 178.486 2.96176 178.598 2.87803C178.68 2.8158 179 2.55502 179 2.07386H178H177C177 1.59578 177.318 1.3381 177.396 1.27899C177.504 1.19839 177.601 1.16047 177.631 1.14879C177.674 1.13267 177.707 1.12364 177.722 1.11966C177.74 1.11515 177.752 1.11258 177.758 1.11155C177.77 1.10909 177.757 1.11214 177.698 1.11829C177.588 1.1296 177.407 1.14307 177.145 1.1581C176.625 1.18786 175.836 1.22091 174.773 1.25713L174.807 2.25655ZM178 2.07386L178.594 1.26948L178.494 1.19562L177.9 2L177.306 2.80438L177.406 2.87824L178 2.07386ZM177.9 2V3H178V2V1H177.9V2Z" fill="#F03240"/>
</svg>
