<svg width="202" height="200" viewBox="0 0 202 200" fill="none" xmlns="http://www.w3.org/2000/svg">
<path fill-rule="evenodd" clip-rule="evenodd" d="M190.833 162.128C189.414 159.208 187.913 156.372 186.411 153.786C184.864 151.078 183.048 148.535 180.988 146.194C179.271 144.448 177.268 143.009 175.065 141.939C170.839 139.878 166.012 139.404 161.466 140.604C161.497 140.048 161.497 139.491 161.466 138.936C161.466 138.185 161.049 137.434 160.715 136.683C160.319 136.011 159.872 135.37 159.38 134.764C169.682 129.118 178.205 120.711 183.992 110.487C188.858 101.981 191.12 92.2344 190.499 82.455C189.74 72.6922 186.463 63.2929 180.988 55.1741C180.781 54.8119 180.504 54.4943 180.173 54.2394C179.842 53.9846 179.465 53.7975 179.062 53.689C178.659 53.5805 178.238 53.5526 177.824 53.607C177.41 53.6615 177.011 53.7971 176.65 54.0061C175.927 54.4549 175.408 55.1691 175.205 55.9957C175.003 56.8222 175.132 57.6954 175.565 58.4278C179.967 65.7097 182.516 73.9595 182.99 82.455C183.021 90.8587 180.679 99.1005 176.233 106.232C171.15 114.2 164.298 120.89 156.21 125.78C148.121 130.671 139.015 133.631 129.597 134.43C120.389 135.908 110.965 135.264 102.044 132.545C93.1232 129.827 84.941 125.107 78.1217 118.746C71.7238 112.643 67.0913 104.926 64.7126 96.4098C62.334 87.8936 62.2973 78.8933 64.6064 70.358C66.9162 61.6345 71.0978 53.5187 76.8607 46.5744C82.6235 39.6302 89.8294 34.0241 97.9775 30.1458C107.166 25.8605 117.339 24.1313 127.428 25.1401C137.51 26.0357 147.221 29.387 155.71 34.9012C156.324 35.1775 157.016 35.2262 157.663 35.0388C158.31 34.8513 158.869 34.4399 159.24 33.878C159.611 33.3162 159.77 32.6406 159.689 31.9721C159.608 31.3036 159.291 30.6858 158.796 30.2292C149.668 23.8913 139.128 19.8816 128.095 18.5494C116.761 17.0628 105.236 18.6475 94.7238 23.1379C85.2776 27.2457 76.8436 33.369 70.0126 41.0791C63.1817 48.7891 58.119 57.8993 55.1791 67.7717C52.2047 78.003 52.086 88.853 54.836 99.1469C57.5859 109.441 63.0996 118.786 70.7801 126.171C78.8057 133.581 88.4243 139.052 98.8958 142.161C109.367 145.271 120.413 145.937 131.182 144.108C137.635 143.067 143.938 141.246 149.953 138.685V139.102C150.193 139.878 150.5 140.632 150.871 141.355C151.266 142.1 151.741 142.799 152.289 143.441C152.805 143.984 153.363 144.486 153.958 144.942C151.851 146.875 150.163 149.22 149.001 151.832C147.838 154.444 147.225 157.267 147.2 160.126C147.294 163.257 148.062 166.33 149.452 169.136C151.205 172.555 153.242 175.82 155.543 178.897L168.557 198.67C168.945 199.3 169.566 199.751 170.286 199.923C171.006 200.096 171.764 199.975 172.395 199.587C173.026 199.2 173.477 198.578 173.649 197.859C173.821 197.139 173.7 196.38 173.313 195.75L162.717 174.726C161.01 171.785 159.532 168.717 158.296 165.549C157.709 163.891 157.454 162.133 157.545 160.376C157.603 158.76 158.014 157.175 158.749 155.734C159.484 154.293 160.525 153.03 161.8 152.034C163.117 151.152 164.644 150.634 166.226 150.532C167.808 150.429 169.389 150.746 170.81 151.45C172.327 152.031 173.695 152.943 174.814 154.119C176.2 155.564 177.457 157.127 178.569 158.791C180.988 162.128 183.074 165.549 185.076 168.969C188.246 174.309 191.25 179.815 194.337 185.154C194.743 185.898 195.424 186.454 196.234 186.703C197.045 186.953 197.92 186.876 198.675 186.489C199.048 186.304 199.38 186.046 199.651 185.729C199.922 185.413 200.126 185.044 200.251 184.647C200.375 184.249 200.418 183.831 200.377 183.416C200.335 183.001 200.211 182.6 200.01 182.234C196.839 175.31 194.003 168.636 190.833 162.128Z" fill="#262626"/>
<path fill-rule="evenodd" clip-rule="evenodd" d="M61.5193 126.255L55.4291 139.019C53.2452 141.627 51.2913 144.418 49.5891 147.362C48.9217 146.444 48.3377 145.527 48.0874 145.277C45.2509 143.024 42.6646 140.688 39.7447 138.269C37.18 135.94 34.7564 133.46 32.4865 130.844C31.9025 130.176 29.2328 126.505 26.8968 123.836C28.5098 122.54 29.8677 120.956 30.9013 119.164C31.4776 117.634 31.714 115.997 31.5941 114.367C31.4742 112.737 31.0009 111.152 30.2071 109.723C29.4133 108.294 28.3179 107.056 26.9972 106.092C25.6764 105.129 24.1618 104.465 22.5586 104.147C20.8498 103.909 19.1099 104.039 17.4556 104.529C15.8013 105.019 14.271 105.857 12.9672 106.986C11.6634 108.116 10.6165 109.512 9.89651 111.08C9.17656 112.648 8.80031 114.352 8.793 116.077C8.99627 117.877 9.66476 119.592 10.7326 121.055C11.8005 122.518 13.231 123.678 14.8832 124.42C13.6318 127.256 12.4638 131.928 12.0467 132.762L1.03423 162.963C0.829165 163.328 0.709801 163.734 0.685192 164.151C0.660584 164.569 0.731376 164.986 0.892198 165.372C1.05302 165.758 1.29965 166.102 1.61336 166.379C1.92708 166.655 2.29964 166.857 2.70278 166.968C3.03634 167.12 3.39688 167.203 3.76327 167.214C4.12965 167.225 4.4945 167.163 4.83642 167.03C5.17833 166.898 5.49042 166.699 5.75438 166.445C6.01834 166.191 6.22887 165.886 6.3736 165.549L20.7232 137.184C20.7232 136.767 21.2237 134.848 21.7243 133.013C23.1426 135.265 24.394 138.102 24.7277 138.519C27.272 141.527 30.0626 144.317 33.0705 146.862C35.9769 149.355 39.0123 151.694 42.1641 153.87L45.2509 156.372C43.7249 158.202 42.8711 160.498 42.8315 162.88C43.1392 165.653 44.4579 168.215 46.5356 170.077C48.6132 171.94 51.3042 172.971 54.0942 172.975C56.311 172.98 58.4821 172.345 60.3468 171.146C62.2115 169.947 63.6905 168.236 64.6061 166.217C65.5047 163.61 65.385 160.761 64.2711 158.239C63.1571 155.717 61.1312 153.709 58.5993 152.618C60.1461 149.151 61.4562 145.583 62.5204 141.939L67.2758 129.175C67.6183 128.399 67.6442 127.52 67.3481 126.725C67.052 125.931 66.4573 125.283 65.6907 124.92C65.3294 124.733 64.9346 124.618 64.529 124.584C64.1234 124.549 63.715 124.596 63.3273 124.72C62.9396 124.844 62.5802 125.043 62.2699 125.307C61.9596 125.57 61.7045 125.892 61.5193 126.255Z" fill="#262626"/>
<path fill-rule="evenodd" clip-rule="evenodd" d="M172.145 29.312C172.562 29.3476 172.98 29.3476 173.397 29.312C168.224 36.9873 162.885 44.5792 157.462 52.0043C152.039 59.4294 144.864 68.6898 138.357 77.0326L127.845 90.0473L127.094 90.6313L119.92 84.4577C118.084 82.8725 116.332 81.3708 114.413 79.8691C110.159 76.532 106.071 73.4452 101.399 70.275L100.397 69.5241C101.627 68.4614 102.695 67.2248 103.568 65.8533C104.131 64.3447 104.356 62.731 104.227 61.126C104.099 59.521 103.62 57.9636 102.825 56.5637C102.029 55.1637 100.937 53.9552 99.6236 53.0233C98.3105 52.0914 96.809 51.4588 95.225 51.17C93.5771 50.9224 91.8954 51.0251 90.2899 51.4717C88.6845 51.9182 87.1912 52.6984 85.9078 53.7614C84.6244 54.8243 83.5797 56.1461 82.8419 57.6403C82.1042 59.1345 81.6899 60.7675 81.6263 62.4328C81.7651 64.1858 82.352 65.8737 83.3308 67.3346C84.3096 68.7955 85.6475 69.9804 87.2159 70.7755C86.7988 71.5264 86.3816 72.1104 85.9645 72.9446C83.7954 77.7 82.1268 83.9571 81.1257 86.6268L74.5349 101.143C74.3369 101.785 74.3732 102.477 74.6373 103.094C74.9014 103.712 75.3761 104.216 75.9769 104.516C76.5778 104.817 77.2658 104.894 77.9184 104.735C78.571 104.575 79.1458 104.19 79.5406 103.646L87.2159 89.3799C88.3005 87.2108 90.1359 82.372 92.2216 78.2006C92.6387 77.4497 92.9724 76.6989 93.3896 76.0315L95.809 77.4497L112.495 92.2164L121.505 100.059C119.606 101.933 118.526 104.482 118.501 107.15C118.851 109.892 120.205 112.407 122.3 114.209C124.395 116.012 127.084 116.975 129.847 116.911C132.008 116.903 134.121 116.279 135.939 115.112C137.757 113.944 139.204 112.282 140.109 110.32C140.918 107.98 140.894 105.432 140.043 103.107C139.192 100.782 137.565 98.8213 135.437 97.5558L135.938 96.8884L146.616 83.54C152.623 75.1972 158.547 66.187 164.22 57.3437C169.893 48.5003 174.898 40.6581 179.904 31.8148L181.239 32.2319C183.988 33.0816 186.921 33.1328 189.698 32.3795C192.475 31.6262 194.981 30.0995 196.923 27.9771C198.476 26.41 199.668 24.5234 200.417 22.4487C201.166 20.374 201.455 18.1609 201.262 15.9635C200.871 12.0312 199.097 8.36528 196.256 5.61848C193.498 2.79659 189.949 0.87682 186.078 0.112256C183.016 -0.211932 179.921 0.168296 177.029 1.22386C174.137 2.27943 171.525 3.98238 169.392 6.20248C167.044 8.42004 165.518 11.3688 165.063 14.5665C164.608 17.7642 165.252 21.0215 166.889 23.8057C168.032 26.1392 169.867 28.0624 172.145 29.312ZM176.233 13.8778C177.315 12.8 178.63 11.984 180.076 11.4923C181.522 11.0007 183.061 10.8464 184.576 11.0413C186.386 11.2375 188.098 11.963 189.498 13.127C190.908 14.154 191.936 15.6218 192.418 17.2984C192.602 18.2795 192.585 19.2876 192.37 20.2624C192.155 21.2371 191.746 22.1585 191.167 22.9714C190.666 23.6389 186.078 30.0628 176.901 24.1394C175.611 23.3125 174.595 22.1224 173.981 20.7189C173.618 19.4847 173.639 18.1694 174.041 16.9475C174.444 15.7256 175.208 14.655 176.233 13.8778Z" fill="#F03240"/>
</svg>
