<svg width="232" height="200" viewBox="0 0 232 200" fill="none" xmlns="http://www.w3.org/2000/svg">
<path fill-rule="evenodd" clip-rule="evenodd" d="M229.578 80.5985C228.349 77.2913 226.001 74.5184 222.942 72.7604C219.884 71.0023 216.306 70.37 212.83 70.9731C208.622 72.1904 204.977 74.8479 202.53 78.4809C201.522 79.9811 200.773 81.6407 200.316 83.3899H198.68C197.691 83.2423 196.685 83.2423 195.696 83.3899C194.707 83.2491 193.702 83.2491 192.712 83.3899C192.231 83.3899 191.942 83.3899 191.557 83.8712C190.884 81.6573 190.402 79.3472 189.632 77.1334C186.876 69.5784 182.802 62.5717 177.6 56.4386C172.467 50.7466 166.572 45.7908 160.082 41.7116C160.867 40.9544 161.607 40.1508 162.296 39.3053C163.002 38.5682 163.587 37.7234 164.028 36.8026C164.158 36.0057 164.158 35.1932 164.028 34.3963C164.128 33.5006 164.128 32.5968 164.028 31.7011C165.501 31.8453 166.984 31.8453 168.456 31.7011C171.786 30.6866 174.675 28.5737 176.65 25.7069C178.625 22.8401 179.571 19.3886 179.333 15.9154C179.485 12.7836 178.633 9.68509 176.902 7.07092C175.171 4.45675 172.65 2.46335 169.707 1.38089C169.271 1.20963 168.806 1.12607 168.338 1.135C167.869 1.14394 167.407 1.24519 166.978 1.43296C166.549 1.62072 166.161 1.89132 165.836 2.22924C165.512 2.56716 165.257 2.96577 165.087 3.40224C164.916 3.83827 164.832 4.30381 164.841 4.77218C164.85 5.24056 164.952 5.70256 165.139 6.13175C165.327 6.56093 165.598 6.94885 165.936 7.27329C166.274 7.59773 166.672 7.85232 167.109 8.02247C168.008 8.62885 168.726 9.46907 169.184 10.4528C169.642 11.4364 169.823 12.5263 169.707 13.6052C169.707 16.3966 168.937 19.7655 166.435 19.9581C165.246 20.1434 164.032 20.0763 162.871 19.7612C161.71 19.4461 160.629 18.89 159.697 18.1292C158.252 17.178 157.141 15.7979 156.521 14.1828C156.155 12.7656 156.314 11.2639 156.968 9.95481C157.623 8.64569 158.729 7.61748 160.082 7.05992C160.849 6.77651 161.478 6.20804 161.836 5.4729C162.195 4.73775 162.256 3.89261 162.007 3.11348C161.743 2.32852 161.182 1.67789 160.445 1.30029C159.708 0.922691 158.852 0.847996 158.061 1.09213C155.996 1.46118 154.042 2.29739 152.35 3.53687C150.657 4.77635 149.27 6.3863 148.295 8.24371C147.32 10.1011 146.782 12.1569 146.723 14.2539C146.664 16.3509 147.085 18.4336 147.954 20.3431C149.287 23.7884 151.68 26.721 154.788 28.7172C154.262 29.1157 153.778 29.5673 153.344 30.0648C152.86 30.6968 152.5 31.4156 152.285 32.1824C151.917 32.9371 151.689 33.7524 151.612 34.5888V36.3214C142.844 31.9426 133.412 29.0478 123.698 27.7547C105.297 25.3092 86.6423 29.767 71.3352 40.2678C71.2203 38.5172 70.9628 36.7788 70.5651 35.07C70.1101 33.9527 69.596 32.8602 69.025 31.7974C68.4063 30.8283 67.7314 29.8962 67.0037 29.006C66.2432 28.1012 65.4058 27.2639 64.5011 26.5034H65.1749C67.3785 23.7793 68.5807 20.3817 68.5807 16.8779C68.5807 13.3741 67.3785 9.97647 65.1749 7.25243C63.5785 4.58764 61.1902 2.48757 58.3431 1.2452C55.496 0.0028286 52.3321 -0.319881 49.2928 0.32209C48.3754 0.529128 47.5771 1.09065 47.0722 1.88411C46.5673 2.67756 46.3967 3.63853 46.5977 4.5573C46.6882 5.01795 46.8713 5.45542 47.136 5.84314C47.4007 6.23087 47.7414 6.56076 48.1375 6.8128C48.5336 7.06485 48.9767 7.23378 49.4401 7.30935C49.9034 7.38492 50.3773 7.36556 50.8329 7.25243C51.9053 7.31401 52.9446 7.64651 53.8536 8.21884C54.7626 8.79117 55.5116 9.58465 56.0307 10.5251C57.667 12.8352 58.822 16.1079 56.8007 17.6479C55.9154 18.469 54.8648 19.0913 53.7193 19.4731C52.5738 19.855 51.36 19.9875 50.1591 19.8618C48.4723 19.8084 46.8359 19.274 45.4426 18.3217C44.3066 17.3799 43.5668 16.0448 43.3706 14.5822C43.1744 13.1196 43.5362 11.6368 44.3838 10.4288C44.8895 9.76328 45.1124 8.92522 45.0043 8.09638C44.8962 7.26753 44.4658 6.5147 43.8063 6.00112C43.4845 5.75339 43.1168 5.57175 42.7245 5.46666C42.3322 5.36157 41.923 5.3351 41.5204 5.38878C41.1178 5.44245 40.7299 5.57522 40.3788 5.77942C40.0277 5.98363 39.7205 6.25525 39.4748 6.57865C37.9344 8.0177 36.7477 9.79356 36.0075 11.7674C35.2673 13.7412 34.9937 15.8595 35.208 17.9566C35.4224 20.0537 36.1189 22.0729 37.2432 23.8561C38.3674 25.6393 39.8889 27.1384 41.6887 28.236C45.1054 30.7383 49.3057 31.9335 53.528 31.6049C54.2981 31.6049 54.9718 31.6049 55.7419 31.0273C56.0056 32.3336 56.3593 33.6201 56.8007 34.8775C57.2011 35.8308 57.6509 36.7625 58.1483 37.6689C58.6428 38.6927 59.2921 39.6342 60.0733 40.4603C61.5172 42.1929 63.0572 43.5405 64.5973 45.0805C60.9365 48.3513 57.7026 52.0703 54.9718 56.1498C52.1405 60.8724 49.725 65.8321 47.7527 70.9731C47.5884 71.3459 47.4991 71.7476 47.49 72.1549C47.4809 72.5623 47.5521 72.9675 47.6996 73.3474C47.8471 73.7273 48.0679 74.0744 48.3496 74.3689C48.6312 74.6634 48.9681 74.8996 49.3409 75.0639C49.7138 75.2282 50.1154 75.3175 50.5228 75.3266C50.9302 75.3357 51.3354 75.2645 51.7153 75.117C52.0952 74.9695 52.4423 74.7487 52.7368 74.4671C53.0313 74.1854 53.2674 73.8486 53.4318 73.4757C58.8915 60.2724 68.8379 49.4209 81.517 42.8348C94.1961 36.2487 108.794 34.351 122.735 37.4764C140.846 40.2614 157.313 49.5732 169.034 63.6577C190.402 89.9352 185.975 133.057 157.098 151.442C120.233 174.736 69.3138 164.436 54.5868 126.32C50.5557 113.869 50.023 100.55 53.0467 87.8176C53.2537 86.9 53.0991 85.9379 52.6151 85.1312C52.1311 84.3246 51.3549 83.7354 50.4479 83.4862C49.9928 83.371 49.5194 83.3469 49.055 83.4153C48.5905 83.4837 48.1442 83.6433 47.7417 83.8848C47.3391 84.1264 46.9883 84.4451 46.7094 84.8227C46.4305 85.2003 46.2289 85.6293 46.1164 86.085C46.1164 88.0101 45.4426 89.6465 45.0576 91.4753C43.3392 90.6862 41.5707 90.0109 39.7636 89.454C38.7715 89.3543 37.7718 89.3543 36.7797 89.454C35.7873 89.3603 34.7882 89.3603 33.7958 89.454H33.122C32.7314 87.1306 31.6977 84.9632 30.1381 83.1974C27.0604 80.2698 23.1009 78.4423 18.8763 77.9996C14.6384 77.6631 10.4247 78.8964 7.037 81.4648C5.23871 82.5518 3.71736 84.0414 2.59281 85.8164C1.46825 87.5914 0.771207 89.6033 0.556581 91.6936C0.341955 93.7839 0.615611 95.8954 1.35599 97.8619C2.09637 99.8284 3.28325 101.596 4.82314 103.026C5.0693 103.363 5.38151 103.647 5.74079 103.86C6.10007 104.073 6.49891 104.211 6.91307 104.265C7.32722 104.319 7.74803 104.288 8.14992 104.174C8.55181 104.061 8.92638 103.866 9.25086 103.603C9.80552 103 10.1133 102.209 10.1133 101.39C10.1133 100.57 9.80552 99.7796 9.25086 99.1757C8.40932 97.9829 8.0507 96.5157 8.24714 95.0692C8.44358 93.6227 9.1805 92.3042 10.3097 91.3791C11.8498 90.3882 13.6926 89.9787 15.5074 90.224C16.7104 90.0497 17.9375 90.1592 19.0907 90.5436C20.2438 90.928 21.2911 91.5767 22.149 92.4379C24.1703 93.8817 23.0153 97.1543 21.379 99.4645C19.7426 101.775 18.3951 103.026 16.1812 102.737C15.7256 102.624 15.2517 102.605 14.7884 102.68C14.325 102.756 13.8819 102.925 13.4858 103.177C13.0897 103.429 12.749 103.759 12.4843 104.146C12.2196 104.534 12.0365 104.972 11.946 105.432C11.745 106.351 11.9156 107.312 12.4205 108.105C12.9254 108.899 13.7237 109.46 14.6411 109.667C17.6708 110.348 20.8382 110.054 23.6906 108.826C26.543 107.599 28.9344 105.501 30.5231 102.833C31.0193 101.874 31.4378 100.876 31.7745 99.8495L33.6033 100.523C34.6276 100.623 35.6592 100.623 36.6834 100.523C37.6758 100.618 38.675 100.618 39.6673 100.523C41.0292 100.395 42.3801 100.17 43.71 99.8495C42.599 109.591 43.6844 119.458 46.8864 128.726C51.337 139.94 58.5165 149.865 67.7737 157.602C67.7737 157.602 66.9074 158.372 66.5224 158.854C65.7927 159.7 65.1778 160.638 64.6936 161.645C64.1546 162.677 63.6726 163.737 63.2498 164.821C63.2498 166.073 62.576 167.42 62.191 168.672L60.0733 168.094C55.9162 167.942 51.8346 169.234 48.5228 171.752C46.723 172.849 45.2015 174.348 44.0773 176.132C42.953 177.915 42.2565 179.934 42.0421 182.031C41.8277 184.128 42.1013 186.247 42.8415 188.22C43.5817 190.194 44.7685 191.97 46.3089 193.409C46.8225 194.069 47.5753 194.499 48.4042 194.607C49.233 194.715 50.0711 194.492 50.7366 193.987C51.3756 193.459 51.7906 192.708 51.8978 191.887C52.005 191.065 51.7964 190.233 51.3142 189.559C50.4331 188.37 50.0417 186.889 50.2208 185.42C50.3999 183.952 51.1358 182.608 52.2767 181.666C53.6873 180.749 55.3135 180.218 56.9932 180.126C58.1948 179.987 59.4121 180.114 60.5595 180.496C61.707 180.879 62.7567 181.508 63.6348 182.34C65.6561 183.88 64.5011 187.152 62.8647 189.463C62.3682 190.421 61.6246 191.23 60.7109 191.806C59.7971 192.381 58.7463 192.702 57.667 192.735C57.2113 192.622 56.7375 192.603 56.2742 192.678C55.8108 192.754 55.3677 192.923 54.9716 193.175C54.5755 193.427 54.2348 193.757 53.9701 194.145C53.7054 194.532 53.5223 194.97 53.4318 195.43C53.2308 196.349 53.4013 197.31 53.9063 198.104C54.4112 198.897 55.2095 199.459 56.1269 199.666C59.1666 200.322 62.3358 200.007 65.1861 198.763C68.0363 197.519 70.4232 195.41 72.0089 192.735C74.2295 190.019 75.4426 186.618 75.4426 183.11C75.4426 179.601 74.2295 176.201 72.0089 173.484H71.4314L73.8378 170.982C74.6497 170.124 75.3307 169.151 75.8591 168.094C76.4869 167.095 77.0033 166.029 77.3992 164.918C83.2777 168.77 89.7971 171.54 96.6501 173.099C101.618 174.143 106.687 174.627 111.762 174.543C112.233 174.685 112.735 174.685 113.206 174.543H120.618C133.873 173.738 146.817 170.198 158.638 164.148C158.59 164.724 158.59 165.304 158.638 165.88C158.694 166.678 158.889 167.46 159.216 168.19C159.451 168.949 159.809 169.664 160.275 170.308C160.756 170.885 161.333 171.27 161.815 171.752C158.683 173.722 156.283 176.663 154.98 180.126C154.092 182 153.641 184.051 153.663 186.125C153.684 188.199 154.178 190.241 155.105 192.096C156.032 193.95 157.37 195.57 159.016 196.832C160.662 198.093 162.574 198.964 164.606 199.377C165.41 199.624 166.279 199.553 167.032 199.176C167.785 198.8 168.364 198.148 168.649 197.355C168.893 196.564 168.818 195.708 168.441 194.971C168.063 194.234 167.412 193.673 166.627 193.409C165.265 192.869 164.154 191.838 163.513 190.52C162.872 189.202 162.746 187.692 163.162 186.286C163.745 184.678 164.824 183.296 166.242 182.34C167.174 181.579 168.256 181.023 169.416 180.708C170.577 180.393 171.792 180.326 172.98 180.511C175.579 180.511 176.349 184.072 176.253 186.864C176.358 187.932 176.182 189.009 175.744 189.988C175.305 190.967 174.617 191.815 173.75 192.447C172.867 192.792 172.153 193.467 171.758 194.329C171.363 195.191 171.318 196.172 171.633 197.067C171.803 197.503 172.057 197.902 172.382 198.24C172.706 198.578 173.094 198.848 173.523 199.036C173.952 199.224 174.414 199.325 174.883 199.334C175.351 199.343 175.817 199.259 176.253 199.088C179.178 197.98 181.682 195.981 183.409 193.373C185.136 190.765 186 187.68 185.878 184.554C186.124 181.077 185.168 177.622 183.171 174.765C181.173 171.909 178.255 169.826 174.905 168.864C173.468 168.673 172.011 168.673 170.574 168.864V166.169C170.465 165.327 170.204 164.512 169.804 163.763C169.518 162.987 169.094 162.269 168.552 161.645C167.988 160.844 167.343 160.102 166.627 159.431C178.414 151.31 187.153 139.488 191.461 125.838C192.723 121.792 193.594 117.634 194.06 113.421C194.552 108.915 194.713 104.379 194.541 99.8495C194.541 98.0206 194.06 96.1918 193.771 94.363C194.603 94.4593 195.442 94.4593 196.274 94.363C197.202 94.4562 198.137 94.4562 199.065 94.363L200.701 93.8817C201.085 95.6516 201.835 97.3218 202.902 98.785C203.969 100.248 205.33 101.472 206.898 102.379C208.466 103.285 210.206 103.854 212.006 104.048C213.807 104.242 215.628 104.058 217.354 103.507C217.76 103.449 218.151 103.309 218.503 103.098C218.855 102.886 219.161 102.606 219.403 102.274C219.646 101.942 219.819 101.565 219.913 101.165C220.007 100.765 220.021 100.351 219.952 99.9457C219.833 99.1368 219.406 98.4053 218.76 97.9032C218.115 97.4012 217.301 97.1675 216.487 97.2506C215.017 97.3946 213.547 96.9792 212.369 96.0872C211.192 95.1952 210.394 93.8921 210.134 92.4379C209.971 90.7621 210.342 89.0777 211.193 87.6251C211.661 86.5062 212.369 85.5038 213.268 84.6887C214.166 83.8737 215.232 83.266 216.391 82.9086C218.701 81.9461 221.011 84.6412 222.166 87.1439C222.707 88.0803 222.992 89.1426 222.992 90.224C222.992 91.3054 222.707 92.3677 222.166 93.3042C221.508 93.9707 221.139 94.8699 221.139 95.8068C221.139 96.7437 221.508 97.6428 222.166 98.3094C222.849 98.9738 223.764 99.3456 224.717 99.3456C225.67 99.3456 226.585 98.9738 227.268 98.3094C229.526 96.0098 230.973 93.0368 231.39 89.841C231.807 86.6451 231.171 83.4004 229.578 80.5985Z" fill="#262626"/>
<path fill-rule="evenodd" clip-rule="evenodd" d="M82.597 71.4543C82.597 73.1869 81.5382 74.9195 81.2494 76.6521C79.9979 84.1006 79.2583 91.6261 79.0355 99.1757L61.0359 99.8495C52.9505 99.8495 51.4104 105.336 61.0359 107.454L79.2281 109.09C79.4325 116.304 80.2699 123.487 81.7307 130.555C78.9371 131.396 76.2037 132.425 73.549 133.635C65.0786 139.121 70.7576 144.03 75.2816 142.298C79.8056 140.565 81.4419 140.661 84.9071 139.988C86.2274 144.379 88.0355 148.608 90.2974 152.597C91.4524 157.699 99.9228 161.452 102.233 155.485C99.0707 150.098 96.5816 144.344 94.8213 138.351H97.709C103.388 137.581 109.163 137.004 114.842 136.715C120.521 136.426 123.505 136.715 127.837 136.715C127.416 142.978 126.645 149.212 125.527 155.388C125.527 160.779 134.189 157.506 135.152 150.961C136.47 145.949 137.53 140.873 138.328 135.752C145.58 136.076 152.809 136.783 159.986 137.87C167.397 139.41 171.44 134.309 166.242 130.843C157.588 128.407 148.776 126.574 139.869 125.357C139.915 124.973 139.915 124.586 139.869 124.202C140.11 119.456 140.11 114.702 139.869 109.956C150.797 109.13 161.663 107.619 172.403 105.432C182.702 104.277 179.718 97.9244 172.403 97.1543C162.777 98.2132 153.152 98.8869 144.2 99.0794H139.58C139.58 94.6517 139.098 90.3203 138.425 85.9888C137.751 81.6573 136.692 76.3633 135.73 72.2244C143.09 71.6746 150.395 70.5481 157.579 68.8555C158.051 68.775 158.502 68.6003 158.904 68.3418C159.307 68.0833 159.653 67.7464 159.923 67.3511C160.192 66.9558 160.379 66.5103 160.473 66.0411C160.566 65.5719 160.564 65.0887 160.467 64.6203C160.445 64.1381 160.322 63.6658 160.107 63.2338C159.892 62.8018 159.589 62.4194 159.217 62.1113C158.846 61.8032 158.414 61.5761 157.95 61.4446C157.485 61.3131 156.999 61.28 156.521 61.3476C149.498 62.2257 142.42 62.5796 135.345 62.4064H133.997C132.264 55.4761 130.436 48.8345 128.51 42.3854C128.42 41.9848 128.251 41.6063 128.012 41.2721C127.773 40.938 127.47 40.6549 127.12 40.4397C126.77 40.2245 126.381 40.0813 125.975 40.0188C125.569 39.9562 125.155 39.9754 124.757 40.0753C123.943 40.2596 123.234 40.7566 122.784 41.4591C122.334 42.1615 122.178 43.0129 122.35 43.8292C123.409 49.6045 124.179 55.7648 124.853 61.9251H119.366L103.099 61.3476H93.4738V58.4599C94.6506 54.369 96.298 50.4283 98.3827 46.7169C98.8102 45.9278 98.924 45.0064 98.7014 44.1371C98.4787 43.2677 97.9361 42.5144 97.182 42.0279C96.4279 41.5414 95.5179 41.3575 94.6341 41.513C93.7502 41.6685 92.9577 42.152 92.415 42.8667C90.1135 47.0387 88.3046 51.464 87.0247 56.0536C86.3509 57.8824 86.1584 59.7113 85.5809 61.6364H76.7254L73.934 61.3476C65.2711 60.1925 61.4209 65.8716 68.4475 68.9517L75.3779 70.9731C77.3992 70.9731 80.1906 70.9731 82.597 71.4543ZM128.607 117.464V124.009H114.554C108.311 124.299 102.1 125.071 95.9764 126.32L92.9925 127.282C91.9255 121.395 91.2184 115.448 90.8749 109.475L97.4202 109.956C107.713 110.486 118.026 110.486 128.318 109.956C128.318 112.94 128.607 115.25 128.607 117.464ZM91.2599 78.0959C91.2599 76.2671 91.9337 74.4382 92.1262 72.5131L102.714 73.3794H126.008C126.008 78.4809 126.97 83.0049 127.355 88.5877V99.1757H106.276H90.6824C90.4214 92.144 90.6143 85.1028 91.2599 78.0959Z" fill="#F03240"/>
</svg>
