<svg width="160" height="150" viewBox="0 0 160 150" fill="none" xmlns="http://www.w3.org/2000/svg">
<path fill-rule="evenodd" clip-rule="evenodd" d="M48.4042 116.252C48.6807 115.797 48.7824 115.258 48.6905 114.733C48.5986 114.209 48.3192 113.736 47.9045 113.403C47.4897 113.07 46.9679 112.898 46.4363 112.921C45.9046 112.944 45.3994 113.159 45.0148 113.527C43.337 115.827 41.1771 117.732 38.686 119.109C36.195 120.487 33.433 121.304 30.5934 121.502C27.9349 121.467 25.3158 120.855 22.9174 119.707C20.5191 118.56 18.3989 116.904 16.7037 114.856C15.1017 112.214 14.1357 109.236 13.8819 106.156C13.6282 103.077 14.0937 99.9807 15.2416 97.112C16.188 94.1997 18.0249 91.658 20.4931 89.8456C22.9613 88.0331 25.9364 87.0414 28.9984 87.0104C31.7558 86.9284 34.5045 87.3565 37.1063 88.2731C39.6149 89.2016 41.8851 90.6773 43.7521 92.5929C43.9048 92.8067 44.0982 92.9883 44.3211 93.1274C44.544 93.2665 44.7922 93.3604 45.0514 93.4036C45.3106 93.4467 45.5757 93.4385 45.8317 93.3792C46.0877 93.3199 46.3295 93.2108 46.5433 93.0581C46.7571 92.9053 46.9388 92.712 47.0779 92.4891C47.217 92.2661 47.3108 92.018 47.354 91.7588C47.3972 91.4996 47.3889 91.2344 47.3297 90.9785C47.2704 90.7225 47.1613 90.4807 47.0085 90.2668C44.857 87.6579 42.1262 85.5871 39.0336 84.2192C35.9162 82.7649 32.5614 81.8868 29.1313 81.6273C24.7279 81.3038 20.3392 82.427 16.6326 84.8262C12.9259 87.2253 10.104 90.7691 8.59583 94.9189C6.94797 98.8735 6.29822 103.173 6.70386 107.438C7.10949 111.703 8.55805 115.802 10.9219 119.375C11.7703 120.214 12.7322 120.93 13.7796 121.502C11.8073 122.81 9.98041 124.325 8.33 126.021C7.11876 127.379 6.07046 128.873 5.20648 130.474C4.32905 132.044 3.59503 133.69 3.01337 135.392C1.70112 139.288 0.853453 143.326 0.487963 147.421C0.388085 147.974 0.50484 148.545 0.814081 149.015C1.12332 149.485 1.60139 149.819 2.14941 149.946C2.44357 150.014 2.74873 150.018 3.04461 149.958C3.34049 149.899 3.62032 149.777 3.86548 149.601C4.11065 149.425 4.31554 149.199 4.46654 148.937C4.61755 148.676 4.7112 148.386 4.74127 148.085C5.88041 144.586 7.30289 141.185 8.99458 137.917L11.1877 133.93C11.9187 132.667 12.7162 131.404 13.5137 130.142C14.89 128.07 16.3763 126.073 17.9664 124.16C22.0405 126.327 26.6683 127.23 31.258 126.752C34.6969 126.317 38.004 125.156 40.96 123.346C43.9161 121.535 46.4535 119.117 48.4042 116.252Z" fill="#020202"/>
<path fill-rule="evenodd" clip-rule="evenodd" d="M157.793 135.392C157.211 133.69 156.477 132.044 155.6 130.474C154.736 128.873 153.688 127.379 152.477 126.021C150.826 124.325 148.999 122.81 147.027 121.502C147.974 120.824 148.824 120.019 149.552 119.11C151.872 115.568 153.295 111.515 153.7 107.301C154.106 103.087 153.48 98.8377 151.878 94.9189C150.37 90.7691 147.548 87.2253 143.842 84.8262C140.135 82.427 135.746 81.3038 131.343 81.6273C127.993 81.8473 124.708 82.6572 121.64 84.0198C118.547 85.3877 115.817 87.4585 113.665 90.0675C113.33 90.4376 113.156 90.9256 113.181 91.4241C113.206 91.9227 113.428 92.3909 113.798 92.7258C114.168 93.0607 114.656 93.2348 115.155 93.2099C115.653 93.1849 116.121 92.963 116.456 92.5929C118.323 90.6773 120.594 89.2016 123.102 88.2731C125.708 87.379 128.457 86.9735 131.21 87.0769C134.272 87.1079 137.247 88.0996 139.715 89.912C142.184 91.7245 144.02 94.2661 144.967 97.1785C146.143 100.018 146.648 103.091 146.44 106.158C146.233 109.224 145.319 112.201 143.771 114.856C142.026 116.807 139.883 118.363 137.488 119.417C135.092 120.472 132.498 121.001 129.881 120.97C127.084 120.836 124.349 120.101 121.861 118.817C119.373 117.533 117.19 115.729 115.459 113.527C115.075 113.159 114.57 112.944 114.038 112.921C113.506 112.898 112.984 113.07 112.57 113.403C112.155 113.736 111.876 114.209 111.784 114.733C111.692 115.258 111.794 115.797 112.07 116.252C114.043 119.181 116.627 121.648 119.644 123.484C122.661 125.32 126.04 126.48 129.549 126.885C134.028 127.296 138.531 126.396 142.508 124.293C144.098 126.206 145.584 128.203 146.961 130.275C147.758 131.537 148.555 132.8 149.287 134.063L151.48 138.05C153.165 141.275 154.587 144.631 155.733 148.085C155.781 148.367 155.885 148.636 156.038 148.876C156.192 149.117 156.393 149.324 156.629 149.485C156.865 149.647 157.13 149.759 157.41 149.815C157.69 149.871 157.979 149.871 158.258 149.813C158.792 149.701 159.265 149.393 159.585 148.951C159.904 148.509 160.048 147.963 159.986 147.421C159.729 143.339 158.993 139.302 157.793 135.392Z" fill="#020202"/>
<path fill-rule="evenodd" clip-rule="evenodd" d="M110.209 121.901C109.169 119.997 107.921 118.213 106.488 116.584C104.254 114.057 101.708 111.824 98.9115 109.938C101.918 107.045 104.233 103.511 105.683 99.5983C107.133 95.6858 107.681 91.4964 107.285 87.3426C107.268 83.9564 106.584 80.6068 105.272 77.485C103.96 74.3631 102.046 71.5303 99.6389 69.1482C97.2321 66.7662 94.3797 64.8814 91.2446 63.6017C88.1094 62.322 84.7529 61.6724 81.3666 61.6899C74.0178 61.4191 66.859 64.0594 61.4459 69.037C56.0327 74.0146 52.8026 80.9273 52.4574 88.2731C52.2818 93.1009 53.5718 97.8688 56.1578 101.949C58.7438 106.03 62.5046 109.232 66.9453 111.135C63.1806 113.234 59.6207 115.682 56.312 118.445C53.3293 120.985 50.7521 123.966 48.6693 127.284C46.7359 130.098 45.3868 133.271 44.7019 136.616C44.017 139.961 44.0102 143.409 44.6818 146.756C44.7612 147.32 45.0613 147.83 45.5162 148.172C45.9711 148.515 46.5435 148.663 47.1075 148.584C47.6716 148.504 48.181 148.204 48.5237 147.749C48.8665 147.294 49.0145 146.722 48.9351 146.158C48.9491 140.687 50.9305 135.403 54.5176 131.271C56.5114 128.613 58.8374 126.021 61.1634 123.496C64.8851 119.575 68.6067 115.853 72.0625 112.863C74.6712 113.531 77.3457 113.91 80.0375 113.992C80.2907 114.01 80.545 113.978 80.7857 113.898C81.0265 113.817 81.249 113.69 81.4404 113.523C81.6319 113.356 81.7885 113.154 81.9013 112.926C82.0141 112.699 82.0808 112.451 82.0977 112.198C82.1161 111.698 81.9391 111.21 81.6042 110.838C81.2693 110.466 80.8028 110.238 80.3033 110.204C65.8155 108.875 58.9703 99.9032 58.7709 90.2668C60.7351 91.3014 62.8773 91.9553 65.0844 92.1941C66.1191 92.3582 67.1732 92.3582 68.2079 92.1941C69.2815 92.0393 70.331 91.749 71.3315 91.3301C73.893 90.4426 76.1821 88.9089 77.9773 86.8774C77.9773 86.8774 77.9773 86.3458 78.3096 86.1464L80.835 87.4756C83.0826 88.5274 85.4474 89.3082 87.8795 89.8016C92.4579 90.5367 97.1243 90.5367 101.703 89.8016C102.252 94.7008 100.916 99.6254 97.9656 103.575C95.0156 107.525 90.6729 110.204 85.8193 111.068C85.2487 111.135 84.7272 111.423 84.3668 111.871C84.0064 112.318 83.8359 112.889 83.892 113.461C83.9248 113.741 84.013 114.012 84.1515 114.257C84.29 114.503 84.476 114.719 84.6986 114.892C84.9213 115.065 85.1762 115.192 85.4484 115.266C85.7207 115.34 86.0049 115.359 86.2845 115.321C89.4559 115.062 92.5363 114.133 95.3228 112.597C97.5548 115.037 99.5779 117.66 101.37 120.439C102.367 121.967 103.364 123.496 104.295 125.091C105.225 126.686 106.089 128.347 106.953 130.075C108.984 134.121 110.63 138.349 111.871 142.702C111.998 143.264 112.341 143.753 112.826 144.064C113.311 144.375 113.899 144.483 114.463 144.364C114.738 144.308 115 144.199 115.233 144.041C115.466 143.884 115.666 143.682 115.82 143.447C115.975 143.213 116.081 142.949 116.133 142.673C116.185 142.397 116.182 142.113 116.124 141.838C115.541 137.17 114.45 132.579 112.868 128.148C112.178 125.987 111.288 123.896 110.209 121.901ZM71.8631 84.6179H68.6732L65.4832 85.0831C63.3119 85.684 61.0852 86.0625 58.8374 86.2129C59.9361 81.2749 62.8244 76.9188 66.9453 73.9846C68.7861 77.6246 71.3136 80.8743 74.3885 83.5545C74.4975 83.5827 74.6119 83.5827 74.7208 83.5545C73.8239 84.0436 72.8616 84.4017 71.8631 84.6179ZM89.1422 83.2887C87.2284 82.6738 85.3625 81.9186 83.5597 81.0291C81.731 80.1773 79.975 79.1771 78.3096 78.0385C75.5468 76.1606 73.044 73.926 70.8663 71.3927C74.2328 69.8833 77.8767 69.0911 81.566 69.0667C86.19 68.9093 90.7079 70.474 94.244 73.4577C97.7802 76.4413 100.083 80.6314 100.706 85.216C96.7864 85.0547 92.9021 84.4073 89.1422 83.2887Z" fill="#020202"/>
<path fill-rule="evenodd" clip-rule="evenodd" d="M83.2946 121.901C83.2946 121.39 83.0915 120.899 82.7301 120.538C82.3687 120.177 81.8784 119.974 81.3673 119.974C80.8562 119.974 80.3659 120.177 80.0045 120.538C79.6431 120.899 79.44 121.39 79.44 121.901C78.8419 124.293 78.1109 126.486 77.7121 128.879C77.6126 129.895 77.6126 130.919 77.7121 131.936C77.6461 132.932 77.6461 133.931 77.7121 134.927C77.7121 137.319 78.6425 139.512 79.1077 141.905C79.1071 142.187 79.1645 142.466 79.2762 142.725C79.388 142.984 79.5517 143.217 79.7574 143.411C79.963 143.604 80.2061 143.753 80.4716 143.848C80.7371 143.943 81.0193 143.983 81.3008 143.965C81.5858 143.965 81.8679 143.908 82.1303 143.797C82.3928 143.686 82.6302 143.523 82.8286 143.319C83.027 143.114 83.1822 142.872 83.2851 142.606C83.388 142.34 83.4364 142.057 83.4275 141.772C83.4275 139.446 84.2914 137.253 84.5573 135.126C84.6233 134.152 84.6233 133.175 84.5573 132.202C84.6568 131.207 84.6568 130.206 84.5573 129.211C84.3579 126.42 83.6933 124.293 83.2946 121.901Z" fill="#020202"/>
<path fill-rule="evenodd" clip-rule="evenodd" d="M92.0014 33.3123L83.96 28.4609C83.96 28.4609 81.9663 27.0653 81.1688 26.6665C80.4439 26.3051 79.6236 26.1812 78.8243 26.3124C78.025 26.4437 77.2873 26.8233 76.7161 27.3976C74.1907 30.1224 71.5324 32.6478 68.9405 35.2396C64.953 39.1606 61.032 42.9487 56.8452 46.5375C52.1483 50.4517 47.2455 54.1121 42.1579 57.503C41.9485 57.634 41.7669 57.8048 41.6235 58.0059C41.48 58.207 41.3776 58.4344 41.3221 58.6751C41.2666 58.9158 41.259 59.165 41.2997 59.4086C41.3405 59.6523 41.4289 59.8854 41.5598 60.0949C41.6907 60.3044 41.8616 60.486 42.0627 60.6294C42.2638 60.7728 42.4912 60.8752 42.7319 60.9308C42.9726 60.9863 43.2218 60.9939 43.4654 60.9531C43.709 60.9123 43.9422 60.8239 44.1517 60.693C51.1197 56.9154 57.7853 52.6049 64.0891 47.8002C69.6146 43.68 74.8959 39.242 79.9061 34.5086L88.1469 39.4929L122.04 61.6899C122.527 61.9913 123.112 62.0905 123.671 61.9663C124.23 61.8422 124.718 61.5045 125.031 61.0253C125.192 60.791 125.305 60.5267 125.362 60.2482C125.419 59.9696 125.42 59.6825 125.364 59.4036C125.308 59.1248 125.197 58.86 125.037 58.6249C124.877 58.3897 124.672 58.1891 124.433 58.0347C115.594 51.8541 107.42 44.7431 98.7801 38.0973C96.5206 36.5023 94.261 35.1067 92.0014 33.3123Z" fill="#F03240"/>
<path fill-rule="evenodd" clip-rule="evenodd" d="M37.9701 40.1575C42.4893 37.2334 47.0084 34.0434 51.2617 30.7869C57.9075 25.9355 64.5533 20.8847 70.8003 15.9004L79.5063 9.25456L80.2374 8.52352C80.2374 8.52352 82.0317 9.58685 82.364 9.91914C84.6901 12.1123 86.8832 14.3054 89.0098 16.5649C90.0732 17.4289 91.2029 18.3593 92.3327 19.1568C96.8082 22.3125 101.469 25.1975 106.289 27.7963C113.333 31.9167 120.577 35.5719 127.555 39.4929C127.795 39.6376 128.061 39.7334 128.338 39.7749C128.615 39.8164 128.898 39.8028 129.169 39.7349C129.441 39.667 129.697 39.5461 129.922 39.3791C130.146 39.2121 130.336 39.0024 130.48 38.7619C130.758 38.2633 130.838 37.6777 130.702 37.1228C130.567 36.568 130.226 36.0851 129.749 35.7713C123.103 31.518 116.125 27.3976 109.346 22.8784C104.957 19.9803 100.741 16.8293 96.7189 13.4414L87.3484 4.46959C86.2303 3.2598 85.0313 2.1274 83.7596 1.08023C82.9547 0.503266 82.0178 0.137645 81.0349 0.0169047C80.1881 -0.0555402 79.3377 0.10535 78.5759 0.48211C77.3911 1.31969 76.2592 2.22968 75.1866 3.20689L66.4806 10.5173C60.3 15.9668 54.4517 21.8151 48.2711 26.7995C44.1507 30.3882 40.0303 33.4453 35.777 37.034C35.5312 37.1593 35.3152 37.336 35.1436 37.552C34.972 37.7681 34.8487 38.0184 34.7822 38.2862C34.7157 38.554 34.7074 38.8329 34.758 39.1041C34.8086 39.3753 34.9168 39.6325 35.0753 39.8584C35.2339 40.0842 35.439 40.2733 35.677 40.413C35.9149 40.5526 36.1801 40.6396 36.4545 40.6679C36.7289 40.6963 37.0063 40.6654 37.2677 40.5774C37.5292 40.4893 37.7687 40.3461 37.9701 40.1575Z" fill="#F03240"/>
</svg>
