<svg width="202" height="200" viewBox="0 0 202 200" fill="none" xmlns="http://www.w3.org/2000/svg">
<path fill-rule="evenodd" clip-rule="evenodd" d="M11.2934 167.936C9.26029 144.098 9.89416 120.114 13.184 96.4125C13.2017 95.5014 13.5868 94.6356 14.2542 94.0038C14.9217 93.3721 15.8169 93.0265 16.7431 93.0441C17.6693 93.0617 18.5506 93.4409 19.1931 94.097C19.8355 94.753 20.1866 95.6323 20.1689 96.5425C22.4162 120.405 21.669 144.449 17.9443 168.133C17.9178 168.999 17.5421 169.821 16.8996 170.415C16.2572 171.01 15.4009 171.329 14.5189 171.303C13.637 171.277 12.8015 170.907 12.1966 170.276C11.5918 169.644 11.2669 168.803 11.2934 167.936Z" fill="#F03240"/>
<path fill-rule="evenodd" clip-rule="evenodd" d="M58.8863 195.904C50.2456 98.5785 65.3669 119.112 65.1725 122.054C67.0934 146.616 67.144 171.291 65.3238 195.861C65.3295 196.722 64.9958 197.551 64.3963 198.164C63.7967 198.777 62.9801 199.125 62.1265 199.13C61.2728 199.136 60.4519 198.799 59.8442 198.194C59.2365 197.589 58.892 196.766 58.8863 195.904Z" fill="#F03240"/>
<path fill-rule="evenodd" clip-rule="evenodd" d="M109.469 178.455C106.621 160.738 106.899 142.686 110.288 125.058C110.321 124.146 110.73 123.285 111.423 122.663C112.117 122.041 113.039 121.709 113.986 121.741C114.935 121.773 115.83 122.166 116.477 122.833C117.123 123.5 117.468 124.387 117.435 125.299C119.626 142.998 119.227 160.906 116.252 178.499C116.248 178.927 116.158 179.351 115.985 179.745C115.812 180.14 115.559 180.498 115.242 180.799C114.925 181.1 114.55 181.338 114.137 181.499C113.724 181.66 113.282 181.742 112.837 181.739C112.393 181.736 111.951 181.648 111.541 181.482C111.131 181.315 110.759 181.073 110.446 180.768C110.133 180.463 109.885 180.101 109.717 179.705C109.55 179.308 109.465 178.883 109.469 178.455Z" fill="#F03240"/>
<path fill-rule="evenodd" clip-rule="evenodd" d="M156.88 171.214C156.893 170.757 156.992 170.305 157.173 169.887C157.354 169.469 157.613 169.092 157.934 168.778C158.256 168.463 158.635 168.218 159.048 168.055C159.462 167.891 159.902 167.814 160.344 167.828C160.786 167.841 161.221 167.944 161.625 168.131C162.029 168.319 162.393 168.586 162.696 168.919C163 169.253 163.238 169.644 163.395 170.072C163.553 170.5 163.627 170.956 163.615 171.414C170.52 207.528 147.165 211.548 156.88 171.214Z" fill="#F03240"/>
<path fill-rule="evenodd" clip-rule="evenodd" d="M15.4747 54.1116C12.8022 37.3042 13.0016 20.188 16.0648 3.44287C16.0648 2.52974 16.4404 1.6545 17.1086 1.00816C17.7768 0.362659 18.683 -6.86646e-05 19.628 -6.86646e-05C20.573 -6.86646e-05 21.4795 0.362659 22.1478 1.00816C22.816 1.6545 23.1913 2.52974 23.1913 3.44287C25.7716 20.2746 25.4497 37.4035 22.2382 54.1334C22.2352 55.0003 21.8761 55.8309 21.2398 56.4419C20.6034 57.0529 19.7419 57.3937 18.845 57.3912C17.9482 57.3879 17.0892 57.0411 16.4572 56.4268C15.8252 55.8116 15.4717 54.9784 15.4747 54.1116Z" fill="#F03240"/>
<path fill-rule="evenodd" clip-rule="evenodd" d="M60.7531 85.2967C58.7832 64.9162 59.5677 44.3641 63.086 24.1904C63.1181 23.2783 63.5132 22.4158 64.184 21.7929C64.8547 21.1708 65.7464 20.8396 66.6629 20.8716C67.5794 20.9035 68.4456 21.2961 69.071 21.9636C69.6964 22.631 70.0298 23.5196 69.9976 24.4317C71.9505 44.8332 71.0466 65.4054 67.3121 85.5598C67.2771 86.4256 66.898 87.2419 66.2582 87.8295C65.6184 88.4171 64.7703 88.7282 63.9005 88.6928C63.0307 88.6584 62.2106 88.2809 61.6204 87.6437C61.0301 87.0074 60.7181 86.1625 60.7531 85.2967Z" fill="#F03240"/>
<path fill-rule="evenodd" clip-rule="evenodd" d="M111.278 82.7715C108.248 61.5266 108.633 39.9681 112.422 18.8333C112.489 17.9286 112.932 17.0855 113.653 16.491C114.374 15.8956 115.315 15.5971 116.269 15.6605C117.223 15.7239 118.11 16.1441 118.737 16.8287C119.364 17.5133 119.679 18.4064 119.612 19.3119C121.27 40.5126 120.764 61.8159 118.101 82.9241C118.079 83.7829 117.7 84.5984 117.044 85.1913C116.39 85.785 115.514 86.106 114.609 86.086C113.704 86.0652 112.845 85.705 112.22 85.0837C111.595 84.4617 111.256 83.6303 111.278 82.7715Z" fill="#F03240"/>
<path fill-rule="evenodd" clip-rule="evenodd" d="M159.511 117.859C157.197 80.0303 157.467 42.0762 160.319 4.28832C160.319 3.38207 160.662 2.51257 161.272 1.87109C161.882 1.23045 162.71 0.869621 163.573 0.869621C164.436 0.869621 165.263 1.23045 165.874 1.87109C166.484 2.51257 166.826 3.38207 166.826 4.28832C169.236 42.1263 168.863 80.1038 165.708 117.881C165.641 118.698 165.285 119.46 164.709 120.013C164.133 120.567 163.38 120.872 162.599 120.87C161.819 120.867 161.068 120.556 160.496 119.998C159.924 119.44 159.572 118.677 159.511 117.859Z" fill="#F03240"/>
<path fill-rule="evenodd" clip-rule="evenodd" d="M169.739 140.203C165.502 140.656 161.462 141.087 156.357 141.293C155.483 141.272 154.637 141.599 154.005 142.2C153.373 142.802 153.006 143.63 152.986 144.5C152.966 145.371 153.293 146.214 153.897 146.844C154.195 147.156 154.553 147.407 154.949 147.581C155.345 147.755 155.771 147.85 156.203 147.86C169.323 149.345 182.535 149.862 195.73 149.404C203.365 149.437 201.821 137.4 199.713 120.973C199.087 116.092 198.411 110.825 197.911 105.371C197.911 104.466 197.551 103.597 196.909 102.957C196.266 102.317 195.395 101.957 194.487 101.957C193.579 101.957 192.707 102.317 192.065 102.957C191.423 103.597 191.062 104.466 191.062 105.371C190.262 117.509 190.36 121.834 190.48 127.062C190.518 128.695 190.557 130.416 190.572 132.491C188.189 130.661 185.015 128.309 180.838 125.214C173.297 119.626 162.488 111.616 147.173 99.892C123.981 82.149 116.907 73.1319 111.463 74.0221C106.818 74.7805 103.359 82.7464 92.0924 98.6523C62.3641 77.9032 49.1918 69.3375 36.474 61.0662C27.7468 55.3905 19.2335 49.8541 5.73109 40.6159C5.38446 40.3656 4.99191 40.1871 4.57575 40.0878C4.15959 39.9893 3.72792 39.9735 3.30559 40.0411C2.88325 40.1086 2.47853 40.2588 2.1143 40.4824C1.75008 40.706 1.43364 40.9988 1.18298 41.3442C0.932326 41.6896 0.752343 42.0817 0.653413 42.4964C0.554483 42.911 0.538623 43.3415 0.60648 43.7629C0.674338 44.1833 0.824528 44.5863 1.04884 44.9492C1.27316 45.313 1.56697 45.6284 1.91359 45.8778C20.9789 60.5556 40.7859 75.2118 58.237 87.5628C81.3705 104.071 88.922 112.034 94.5103 110.844C99.3455 109.814 102.711 101.931 113.426 86.8019C139.41 107.295 157.803 119.453 185.868 138.006C186.299 138.291 186.733 138.578 187.169 138.866C179.796 139.13 174.636 139.68 169.739 140.203Z" fill="#262626"/>
</svg>
