<svg width="149" height="150" viewBox="0 0 149 150" fill="none" xmlns="http://www.w3.org/2000/svg">
<path fill-rule="evenodd" clip-rule="evenodd" d="M79.114 111.742H77.4266C78.7587 110.563 79.7543 109.051 80.3119 107.362C80.8695 105.672 80.9692 103.865 80.6007 102.125C80.2323 100.384 79.4089 98.7723 78.2146 97.4536C77.0202 96.135 75.4976 95.1566 73.8018 94.6182C74.9447 94.3159 76.0388 93.853 77.0516 93.2433C79.0018 91.7346 80.3885 89.6144 80.9892 87.2231C81.5899 84.8317 81.3697 82.3079 80.3639 80.0567C79.3386 78.0843 77.7693 76.4472 75.8419 75.3395C73.9146 74.2318 71.71 73.7001 69.4896 73.8072C69.194 73.7815 68.8962 73.8146 68.6133 73.9045C68.3305 73.9944 68.0683 74.1394 67.8417 74.3311C67.6152 74.5228 67.4288 74.7574 67.2933 75.0214C67.1578 75.2855 67.0759 75.5737 67.0523 75.8695C67.0177 76.1619 67.0425 76.4582 67.1252 76.7407C67.2079 77.0233 67.3468 77.2862 67.5335 77.5138C67.7203 77.7414 67.951 77.9289 68.212 78.0652C68.4729 78.2015 68.7587 78.2837 69.0522 78.3069C72.4894 78.8693 74.4268 80.3067 75.3017 82.1816C75.5723 83.1345 75.5163 84.1506 75.1426 85.0679C74.7688 85.9853 74.0989 86.7512 73.2394 87.2437C71.8873 88.0698 70.3233 88.4826 68.7397 88.4312C66.9027 88.4839 65.0686 88.252 63.3026 87.7437C61.603 87.3885 60.0026 86.663 58.6154 85.6189C57.8058 85.0531 57.1419 84.3035 56.678 83.4315C56.3989 82.8286 56.353 82.1436 56.5492 81.5089C56.7454 80.8741 57.1698 80.3345 57.7404 79.9942C59.55 78.6829 61.7596 78.0421 63.99 78.1819C64.5121 78.2813 65.0523 78.1693 65.4919 77.8704C65.9314 77.5716 66.2342 77.1103 66.3336 76.5882C66.4331 76.0661 66.321 75.5259 66.0221 75.0864C65.7233 74.6469 65.2621 74.3441 64.74 74.2446C62.808 73.8591 60.8172 73.8765 58.8923 74.2959C56.9673 74.7153 55.1497 75.5276 53.5532 76.682C52.2079 77.6887 51.2168 79.0965 50.7226 80.7025C50.2285 82.3085 50.2567 84.0299 50.8034 85.6189C51.5748 88.107 53.1043 90.292 55.1781 91.8684C56.4007 92.6668 57.7249 93.2974 59.1153 93.7433C56.8635 94.0298 54.717 94.8669 52.8658 96.1806C51.448 97.1889 50.3914 98.6257 49.8514 100.28C49.3114 101.933 49.3165 103.717 49.866 105.367C50.503 107.288 51.5968 109.025 53.0533 110.43L43.6164 109.992C44.6685 108.472 45.303 106.702 45.4565 104.859C45.6101 103.017 45.2772 101.166 44.4914 99.4929C43.4661 97.5204 41.8968 95.8833 39.9694 94.7757C38.0421 93.668 35.8375 93.1362 33.6171 93.2433C33.3215 93.2176 33.0236 93.2507 32.7408 93.3406C32.458 93.4305 32.1958 93.5755 31.9692 93.7672C31.7427 93.9589 31.5563 94.1936 31.4208 94.4576C31.2853 94.7216 31.2034 95.0098 31.1798 95.3057C31.1452 95.598 31.17 95.8943 31.2527 96.1769C31.3354 96.4594 31.4743 96.7223 31.661 96.9499C31.8478 97.1775 32.0785 97.3651 32.3395 97.5013C32.6004 97.6376 32.8862 97.7198 33.1796 97.743C34.4798 97.7383 35.7551 98.0991 36.8601 98.7842C37.9651 99.4693 38.8553 100.451 39.4292 101.618C39.7113 102.57 39.6608 103.591 39.286 104.511C38.9111 105.431 38.2343 106.196 37.3669 106.68C36.0148 107.506 34.4508 107.919 32.8672 107.867C31.0302 107.92 29.1961 107.688 27.43 107.18C25.7305 106.825 24.1301 106.099 22.7429 105.055C21.9333 104.489 21.2694 103.74 20.8055 102.868C20.5264 102.265 20.4805 101.58 20.6767 100.945C20.8729 100.31 21.2973 99.7706 21.8679 99.4304C23.6775 98.119 25.8871 97.4782 28.1175 97.618C28.414 97.6887 28.7227 97.6907 29.02 97.6238C29.3174 97.5569 29.5955 97.423 29.8332 97.2322C30.0709 97.0413 30.2618 96.7987 30.3914 96.5229C30.521 96.247 30.5858 95.9452 30.5808 95.6404C30.5759 95.3357 30.5014 95.0361 30.363 94.7645C30.2246 94.493 30.026 94.2567 29.7823 94.0736C29.5386 93.8906 29.2563 93.7656 28.9569 93.7084C28.6575 93.6511 28.349 93.6631 28.055 93.7433C26.123 93.3577 24.1322 93.3752 22.2073 93.7945C20.2824 94.214 18.4647 95.0263 16.8683 96.1806C15.5229 97.1874 14.5318 98.5951 14.0377 100.201C13.5435 101.807 13.5718 103.529 14.1185 105.117C14.7114 107.142 15.8587 108.96 17.4307 110.367C14.6809 110.367 11.9936 110.867 9.24381 111.242V105.68C9.24381 100.493 9.55628 95.3057 9.24381 90.181L8.36887 63.5579L9.3688 39.997L9.99375 10.6241C10.0194 10.3284 9.98635 10.0306 9.89644 9.7478C9.80652 9.46498 9.66154 9.20274 9.46984 8.97619C9.27815 8.74965 9.04353 8.56326 8.77949 8.42777C8.51546 8.29229 8.22722 8.21037 7.9314 8.18676C7.63905 8.1522 7.34273 8.17701 7.06019 8.2597C6.77766 8.34239 6.51472 8.48126 6.28714 8.668C6.05956 8.85473 5.87201 9.08549 5.73574 9.34643C5.59946 9.60738 5.51726 9.89315 5.49407 10.1866L2.61927 39.6846C2.24429 44.4342 1.55684 49.1839 1.18187 53.9336C1.18187 57.1833 0.744396 60.1831 0.806892 63.8079C0.869388 67.4326 0.806892 71.0574 1.36935 74.6821C1.93181 79.9942 2.74426 85.3064 3.30672 90.6185L5.24408 112.492C5.24408 112.492 4.93161 112.929 5.24408 113.242C5.25964 113.502 5.32759 113.757 5.44386 113.99C5.56014 114.224 5.72234 114.431 5.92075 114.6C6.11917 114.77 6.3497 114.897 6.59855 114.975C6.84739 115.053 7.10942 115.08 7.36894 115.054C15.9308 115.054 24.4928 115.867 33.1172 116.492C38.8043 116.867 44.6164 117.117 50.3035 117.242C60.0314 117.359 69.7574 116.879 79.4264 115.804C79.7576 115.859 80.0968 115.841 80.4204 115.752C80.744 115.663 81.0443 115.504 81.3004 115.287C81.5565 115.07 81.7623 114.8 81.9034 114.495C82.0445 114.191 82.1176 113.859 82.1176 113.523C82.1176 113.187 82.0445 112.856 81.9034 112.551C81.7623 112.247 81.5565 111.976 81.3004 111.759C81.0443 111.542 80.744 111.383 80.4204 111.294C80.0968 111.205 79.7576 111.187 79.4264 111.242L79.114 111.742ZM72.3644 106.992C71.0096 107.812 69.4475 108.224 67.8647 108.18C66.0072 108.233 64.1524 108.001 62.3651 107.492C60.6655 107.137 59.0652 106.412 57.6779 105.367C56.8684 104.802 56.2045 104.052 55.7406 103.18C55.535 102.6 55.5345 101.968 55.7392 101.387C55.944 100.807 56.3415 100.315 56.8655 99.9928C58.6679 98.6669 60.8829 98.0246 63.1151 98.1805C63.6371 98.2712 64.1739 98.1511 64.6074 97.8464C65.041 97.5418 65.3359 97.0775 65.4274 96.5556C65.4274 96.5556 65.4274 96.5556 65.4274 96.2431H66.8023C66.8303 96.7373 67.0351 97.2049 67.3793 97.5606C67.7236 97.9162 68.1842 98.1363 68.6772 98.1805C69.9758 98.183 71.2481 98.5468 72.3518 99.2311C73.4555 99.9154 74.347 100.893 74.9268 102.055C75.1385 103.048 74.9988 104.083 74.5313 104.983C74.0639 105.884 73.2979 106.594 72.3644 106.992Z" fill="#020202"/>
<path fill-rule="evenodd" clip-rule="evenodd" d="M27.3051 58.9334V65.1829V71.4325C27.3051 76.1822 27.8676 80.8068 28.1176 85.5565C28.0919 85.8539 28.1274 86.1535 28.2218 86.4366C28.3162 86.7198 28.4676 86.9807 28.6667 87.2032C28.8658 87.4257 29.1082 87.605 29.3792 87.7303C29.6502 87.8555 29.944 87.9239 30.2424 87.9313C30.538 87.9482 30.834 87.9066 31.1134 87.8089C31.3928 87.7111 31.6503 87.5592 31.8709 87.3618C32.0915 87.1644 32.271 86.9254 32.3991 86.6585C32.5271 86.3916 32.6013 86.1021 32.6173 85.8065C33.3047 81.0568 34.0547 76.3696 34.4921 71.62C34.4921 69.6201 34.4921 67.5578 34.8671 65.3704C35.2421 63.1831 34.8671 61.3082 34.8671 59.1208C34.8671 55.2461 34.4296 55.7461 33.9922 51.9339C33.5547 48.1216 29.9299 47.5592 27.9926 49.9965C27.439 52.9416 27.2085 55.9383 27.3051 58.9334Z" fill="#F03240"/>
<path fill-rule="evenodd" clip-rule="evenodd" d="M61.4899 19.3737C61.4899 22.4985 61.1149 25.6233 61.0524 28.6231C60.9899 31.6229 61.0524 34.8726 61.0524 37.8099C61.5524 46.9343 62.6148 55.9962 62.9898 65.183C62.9348 65.5142 62.9526 65.8534 63.0419 66.177C63.1312 66.5006 63.2899 66.8009 63.5069 67.057C63.724 67.3131 63.9943 67.5189 64.2989 67.66C64.6035 67.8011 64.9352 67.8742 65.2709 67.8742C65.6066 67.8742 65.9383 67.8011 66.2429 67.66C66.5475 67.5189 66.8178 67.3131 67.0348 67.057C67.2519 66.8009 67.4106 66.5006 67.4999 66.177C67.5892 65.8534 67.607 65.5142 67.552 65.183C68.2394 57.5586 68.6144 49.9966 68.6144 42.1846V28.4981C68.6144 25.4358 68.1144 22.2485 67.927 19.3737C67.7395 16.4989 67.302 13.8741 67.302 13.1242C66.8645 9.87439 64.1772 10.1244 62.6148 12.8117C62.0318 14.9582 61.6551 17.1556 61.4899 19.3737Z" fill="#F03240"/>
<path fill-rule="evenodd" clip-rule="evenodd" d="M99.8633 44.872C99.988 43.2077 99.988 41.5365 99.8633 39.8723C99.9875 38.2498 99.9875 36.6202 99.8633 34.9976C99.7347 33.7314 99.5048 32.4774 99.1758 31.2479C98.5971 30.4364 97.7235 29.8838 96.7422 29.7086C95.7609 29.5333 94.7501 29.7494 93.9262 30.3105C92.6138 31.4354 92.6138 32.8103 92.4263 35.0601C92.3006 36.7035 92.3006 38.354 92.4263 39.9973C92.4263 41.6222 92.5513 43.2471 92.8013 44.872C93.1137 48.3717 92.8013 48.7467 93.3637 52.1839C93.9262 55.6212 98.6134 56.3712 99.1758 52.1839C99.5315 49.7602 99.761 47.3195 99.8633 44.872Z" fill="#F03240"/>
<path fill-rule="evenodd" clip-rule="evenodd" d="M111.674 61.3705C110.637 59.408 109.065 57.7794 107.14 56.6734C105.216 55.5673 103.017 55.0291 100.8 55.121C100.504 55.0953 100.206 55.1284 99.9233 55.2183C99.6405 55.3082 99.3783 55.4532 99.1517 55.6449C98.9252 55.8366 98.7388 56.0712 98.6033 56.3352C98.4678 56.5993 98.3859 56.8875 98.3623 57.1833C98.3182 57.4771 98.3363 57.7769 98.4153 58.0633C98.4943 58.3497 98.6325 58.6164 98.821 58.8461C99.0094 59.0757 99.244 59.2634 99.5094 59.3968C99.7749 59.5302 100.065 59.6065 100.362 59.6207C101.662 59.616 102.938 59.9767 104.043 60.6618C105.148 61.3469 106.038 62.3288 106.612 63.4954C106.906 64.4475 106.861 65.4721 106.485 66.395C106.109 67.3178 105.425 68.082 104.549 68.5575C103.197 69.3836 101.633 69.7964 100.05 69.745C98.2127 69.7977 96.3786 69.5658 94.6125 69.0575C92.913 68.7023 91.3126 67.9768 89.9254 66.9327C89.1158 66.3669 88.4519 65.6173 87.988 64.7453C87.7088 64.1424 87.6629 63.4574 87.8591 62.8227C88.0553 62.1879 88.4797 61.6483 89.0504 61.308C90.86 59.9967 93.0696 59.3559 95.3 59.4957C95.7454 59.5793 96.2061 59.4988 96.5967 59.269C96.9874 59.0393 97.2816 58.6757 97.4248 58.2458C97.7725 58.0465 98.0567 57.753 98.2447 57.3992C98.4326 57.0453 98.5167 56.6455 98.4873 56.2459C98.4873 55.7459 97.4873 55.121 93.8626 55.5584C90.5075 55.2213 87.1416 56.0849 84.3632 57.9958C83.0179 59.0025 82.0268 60.4103 81.5326 62.0163C81.0385 63.6223 81.0668 65.3437 81.6134 66.9327C82.3848 69.4208 83.9143 71.6058 85.9881 73.1822C87.8738 74.5792 89.9887 75.6366 92.2377 76.307C95.3344 77.2394 98.5953 77.4952 101.8 77.0569C104.073 76.6187 106.213 75.6558 108.049 74.2446C109.984 72.7954 111.388 70.7489 112.043 68.4218C112.698 66.0947 112.568 63.6165 111.674 61.3705Z" fill="#020202"/>
<path fill-rule="evenodd" clip-rule="evenodd" d="M134.422 11.5617C134.553 10.9817 134.449 10.3735 134.133 9.8699C133.817 9.36635 133.314 9.00844 132.735 8.87438C120.145 5.48075 107.318 3.03656 94.3623 1.56239C89.1751 0.99993 83.9255 0.499965 78.7383 0H55.24C47.4905 0 38.0537 1.18742 29.4293 2.43733C23.6541 3.27591 17.9508 4.55029 12.3679 6.24956C12.0775 6.27438 11.796 6.36238 11.5432 6.5074C11.2904 6.65242 11.0723 6.85095 10.9042 7.08911C10.7362 7.32726 10.6222 7.59927 10.5703 7.88609C10.5184 8.17291 10.5298 8.46761 10.6038 8.74955C10.6777 9.0315 10.8124 9.29387 10.9984 9.51829C11.1844 9.74271 11.4172 9.92377 11.6805 10.0488C11.9438 10.1738 12.2313 10.2397 12.5228 10.242C12.8142 10.2442 13.1027 10.1827 13.3679 10.0618C15.4927 9.62433 17.7426 9.49934 19.9299 9.18686C18.6048 10.1957 17.6276 11.5931 17.1347 13.1839C16.6417 14.7748 16.6576 16.4798 17.1801 18.0612C17.9515 20.5494 19.481 22.7344 21.5548 24.3108C22.6052 24.973 23.7139 25.5378 24.8671 25.9982C23.0914 26.389 21.4124 27.1328 19.9299 28.1855C18.5996 29.2046 17.6199 30.6129 17.1271 32.2146C16.6342 33.8163 16.6528 35.5317 17.1801 37.1224C17.9515 39.6106 19.481 41.7956 21.5548 43.372C23.4121 44.8146 25.5359 45.8765 27.8044 46.4968H28.7418L33.2415 47.2467C34.61 47.4351 35.9978 47.4351 37.3662 47.2467C39.6502 46.8415 41.7978 45.8751 43.6158 44.4344C45.6324 42.9781 47.0994 40.8847 47.7797 38.492C48.4601 36.0994 48.3142 33.5473 47.3655 31.2478C46.1272 28.9701 44.1075 27.2167 41.6784 26.3107C42.5057 26.0694 43.3026 25.7339 44.0532 25.3107C45.9043 23.8113 47.2252 21.7573 47.8215 19.451C48.4178 17.1447 48.2579 14.7078 47.3655 12.4991C46.1272 10.2214 44.1075 8.46803 41.6784 7.56197H55.365C57.6148 7.56197 74.5511 7.56197 78.4259 7.93695L86.1753 8.31192C85.5549 8.54479 84.9496 8.81613 84.363 9.12436C83.0176 10.1311 82.0265 11.5389 81.5323 13.1449C81.0382 14.7509 81.0665 16.4723 81.6131 18.0612C82.3845 20.5494 83.914 22.7344 85.9878 24.3108C87.8736 25.7078 89.9884 26.7652 92.2374 27.4356H93.2998C95.0173 27.8591 96.7805 28.069 98.5495 28.0605C99.6291 28.1861 100.72 28.1861 101.799 28.0605C104.073 27.6223 106.213 26.6594 108.049 25.2482C109.957 23.8062 111.343 21.7815 111.997 19.481C112.651 17.1804 112.538 14.7293 111.674 12.4991C111.211 11.6409 110.644 10.8432 109.986 10.1243C116.861 10.8742 123.61 11.7492 130.235 12.9991C129.922 21.2485 128.922 29.3105 128.172 37.4349C127.797 41.2471 127.485 45.0594 127.36 48.8091V65.2454L128.61 82.9942C128.61 83.6075 128.854 84.1956 129.287 84.6293C129.721 85.0629 130.309 85.3065 130.922 85.3065C131.519 85.3065 132.091 85.0695 132.513 84.6476C132.935 84.2257 133.172 83.6534 133.172 83.0567L133.797 65.3704C134.11 60.9333 134.609 56.4336 134.984 51.9964C135.359 47.5592 135.609 42.9345 135.734 38.4348C135.838 29.4589 135.4 20.4849 134.422 11.5617ZM42.0534 33.6852C42.313 34.6383 42.2517 35.6504 41.879 36.5653C41.5062 37.4801 40.8428 38.2469 39.991 38.7473C38.6246 39.5392 37.0705 39.9493 35.4913 39.9347C33.6338 39.9879 31.779 39.7561 29.9917 39.2473C28.2989 38.8718 26.7026 38.1482 25.3046 37.1224C24.495 36.5566 23.8311 35.807 23.3672 34.9351C23.1913 34.624 23.0793 34.2811 23.0375 33.9262C22.9958 33.5713 23.0253 33.2117 23.1242 32.8684C23.2231 32.525 23.3895 32.2049 23.6137 31.9266C23.8378 31.6484 24.1152 31.4176 24.4296 31.2478C26.2271 29.9118 28.4458 29.2684 30.6792 29.4354C31.1313 29.5025 31.5925 29.4075 31.9813 29.1673C32.3701 28.9272 32.6615 28.5573 32.804 28.123C33.3661 28.1542 33.9294 28.1542 34.4914 28.123C34.5806 28.518 34.7914 28.8751 35.0941 29.1442C35.3967 29.4132 35.7761 29.5806 36.1788 29.6229C39.4911 30.3729 41.3659 31.8103 42.0534 33.6852ZM42.0534 14.5615C42.324 15.5144 42.268 16.5305 41.8942 17.4478C41.5205 18.3652 40.8505 19.1311 39.991 19.6236C38.6362 20.4431 37.0741 20.8553 35.4913 20.811C33.6338 20.8642 31.779 20.6324 29.9917 20.1236C28.2922 19.7684 26.6918 19.0429 25.3046 17.9987C24.495 17.433 23.8311 16.6834 23.3672 15.8114C23.1354 15.2214 23.1145 14.5695 23.3081 13.9659C23.5017 13.3623 23.8979 12.8442 24.4296 12.4991C26.2415 11.1925 28.4493 10.5522 30.6792 10.6868C31.2012 10.7775 31.738 10.6574 32.1715 10.3527C32.6051 10.0481 32.9 9.58379 32.9915 9.06187C33.1618 8.64097 33.1618 8.17036 32.9915 7.74946H34.8664C34.8664 7.74946 34.8664 8.12443 34.4914 8.43691C34.4569 8.72926 34.4817 9.02558 34.5644 9.30812C34.647 9.59065 34.7859 9.85358 34.9727 10.0812C35.1594 10.3087 35.3901 10.4963 35.6511 10.6326C35.912 10.7688 36.1978 10.851 36.4913 10.8742C37.6521 10.9773 38.7687 11.3684 39.74 12.0123C40.7113 12.6562 41.5065 13.5324 42.0534 14.5615ZM104.549 19.6236C103.197 20.4497 101.633 20.8625 100.049 20.811C98.2124 20.8638 96.3783 20.6319 94.6122 20.1236C92.9127 19.7684 91.3123 19.0429 89.9251 17.9987C89.1155 17.433 88.4516 16.6834 87.9877 15.8114C87.7189 15.2506 87.653 14.6139 87.8012 14.0099C87.9493 13.4059 88.3024 12.8719 88.8001 12.4991C90.6097 11.1877 92.8193 10.547 95.0497 10.6868C95.5792 10.7788 96.1238 10.6604 96.5673 10.3569C97.0109 10.0534 97.3185 9.58876 97.4245 9.06187H98.8619C98.9153 9.52412 99.1234 9.95475 99.4524 10.2838C99.7814 10.6128 100.212 10.8209 100.674 10.8742C101.974 10.8696 103.25 11.2303 104.355 11.9154C105.46 12.6005 106.35 13.5824 106.924 14.749C107.128 15.7404 106.977 16.772 106.497 17.6632C106.017 18.5544 105.239 19.2484 104.299 19.6236H104.549Z" fill="#020202"/>
<path fill-rule="evenodd" clip-rule="evenodd" d="M146.422 116.117C145.854 114.625 145.052 113.233 144.047 111.992C142.381 109.639 140.053 107.834 137.36 106.805C134.697 105.843 131.817 105.648 129.048 106.243C127.788 106.535 126.555 106.932 125.361 107.43L123.236 108.43C121.526 104.087 119.435 99.9044 116.986 95.931C114.337 91.7538 111.166 87.9316 107.55 84.5568C104.792 82.224 101.436 80.7087 97.8627 80.1821C96.6028 80.1068 95.3474 80.3897 94.2414 80.9979C93.1355 81.6062 92.2243 82.515 91.6132 83.6193C90.8258 85.1879 90.4394 86.9271 90.4883 88.6815C90.6793 91.5204 91.2684 94.3184 92.2381 96.9934C93.6542 101.061 95.4757 104.977 97.6753 108.68C98.4252 110.055 99.4251 111.305 100.3 112.68C97.7933 114.435 95.831 116.861 94.6374 119.679C93.4439 122.497 93.0672 125.594 93.5505 128.616C94.1711 132.51 95.7615 136.185 98.1752 139.303C101.577 143.591 105.833 147.124 110.674 149.677C111.115 149.963 111.65 150.065 112.165 149.959C112.679 149.854 113.131 149.551 113.424 149.115C113.72 148.672 113.833 148.132 113.74 147.608C113.647 147.084 113.354 146.616 112.924 146.302C109.379 143.104 106.381 139.346 104.05 135.178C102.523 132.722 101.385 130.045 100.675 127.241C100.192 125.456 100.133 123.583 100.502 121.771C100.871 119.959 101.658 118.259 102.8 116.805C104.487 119.242 105.987 121.742 107.737 124.179C108.032 124.628 108.486 124.948 109.008 125.076C109.53 125.203 110.081 125.129 110.549 124.866C110.976 124.553 111.275 124.095 111.39 123.578C111.505 123.06 111.428 122.519 111.174 122.054C108.036 116.932 105.158 111.655 102.55 106.243C100.984 102.692 99.7298 99.0114 98.8002 95.2435C98.356 93.6818 98.0013 92.096 97.7378 90.4938C97.5869 89.6464 97.5869 88.779 97.7378 87.9315C98.3352 88.1227 98.9198 88.3524 99.4876 88.619C100.641 89.034 101.734 89.6015 102.737 90.3064C106.216 92.9904 109.326 96.1213 111.987 99.6182C124.986 116.305 115.861 114.992 126.111 112.93C127.305 112.702 128.52 112.597 129.736 112.617C131.424 112.647 133.078 113.098 134.548 113.93C135.951 114.668 137.169 115.715 138.11 116.992C141.571 121.959 143.72 127.721 144.36 133.741C144.479 134.281 144.789 134.761 145.232 135.092C145.675 135.424 146.223 135.585 146.775 135.547C147.327 135.509 147.847 135.275 148.241 134.886C148.635 134.497 148.877 133.98 148.922 133.428C149.276 127.548 148.426 121.657 146.422 116.117Z" fill="#020202"/>
</svg>
