<svg width="171" height="150" viewBox="0 0 171 150" fill="none" xmlns="http://www.w3.org/2000/svg">
<path fill-rule="evenodd" clip-rule="evenodd" d="M114.079 75.2725C114.079 72.4975 112.229 71.5014 111.446 70.0783C109.738 66.8052 105.967 63.7456 107.034 61.2553C108.742 57.4841 114.15 56.7014 118.206 57.6976C121.051 59.0122 123.974 60.1527 126.957 61.1129C129.59 61.5399 131.654 58.9072 134.073 55.9899C137.431 52.2503 139.996 47.8693 141.615 43.1111C141.673 42.2883 141.474 41.4679 141.046 40.763C136.671 36.1637 131.664 32.2106 126.175 29.0227C126.175 29.0227 125.179 28.0265 124.467 27.5284C126.487 23.7179 127.515 19.4601 127.456 15.1477C127.123 12.0101 125.92 9.02797 123.983 6.53745C122.045 4.04694 119.451 2.14713 116.492 1.05226C113.533 -0.0426219 110.327 -0.289029 107.235 0.34082C104.143 0.970669 101.289 2.45172 98.9941 4.61698C95.3652 8.67274 101.413 10.8073 101.911 7.32082L104.188 5.54198C106.155 4.48485 108.368 3.97253 110.598 4.05809C112.829 4.14364 114.996 4.82395 116.876 6.02857C118.755 7.23319 120.279 8.91832 121.288 10.9095C122.298 12.9006 122.756 15.1254 122.617 17.3535C122.029 20.5906 120.873 23.6981 119.202 26.5323C116.427 32.2246 122.688 31.2284 135.567 43.3246C133.384 47.3275 130.573 50.9549 127.242 54.0687L120.127 51.0803C116.536 49.8064 112.614 49.8195 109.032 51.1173C105.45 52.4152 102.43 54.9173 100.488 58.1957C97.2152 65.311 102.481 69.0822 104.9 73.7071C106.465 76.8379 107.39 74.7033 104.9 79.5417C102.978 83.3356 100.587 86.8734 97.7845 90.0725C90.6691 87.7956 51.5346 67.0899 46.8385 59.1918C48.2276 54.0174 50.6478 49.177 53.9538 44.9611C61.9942 49.2303 66.8326 52.8591 74.1615 48.6611C89.1037 39.9803 84.2653 22.9035 67.4019 20.1996C69.2933 15.8592 71.681 11.7524 74.5172 7.9612C76.2961 6.04005 83.4826 9.59774 85.6172 10.665C86.1645 10.9387 86.798 10.9837 87.3785 10.7902C87.9589 10.5967 88.4388 10.1806 88.7124 9.63331C88.986 9.08605 89.031 8.4525 88.8376 7.87204C88.6441 7.29159 88.2279 6.81176 87.6807 6.53813C71.8134 -2.0003 71.3865 2.55353 62.6346 17.9227C61.4961 19.915 60.0731 22.1208 61.7096 24.1131C63.3461 26.1054 68.2557 25.6073 70.1057 26.2477C75.0865 28.0265 79.2134 32.9361 76.6518 37.5611C74.9442 40.5496 70.7461 44.2495 67.2596 43.7515C53.0288 37.7034 53.8115 33.0784 47.3366 42.5419C43.4932 47.4219 41.0353 53.2471 40.2212 59.4053C40.2212 72.1418 95.3652 97.7571 98.9229 97.8994C105.184 98.2551 114.079 79.2571 114.079 75.2725Z" fill="#F03240"/>
<path fill-rule="evenodd" clip-rule="evenodd" d="M62.2067 128.709C59.9298 118.819 64.0567 92.5629 52.3875 92.7763C41.9991 92.7763 43.9914 101.244 40.2914 111.276C39.2953 114.051 39.4376 114.336 33.1761 108.572C31.973 107.359 30.8999 106.024 29.9741 104.588C30.5434 101.813 29.4049 103.876 31.5395 86.0879C32.3222 79.7552 32.0376 72.3553 26.4165 69.3668C24.6577 68.3941 22.6299 68.0208 20.64 68.3032C18.6501 68.5856 16.8063 69.5085 15.3877 70.9322C14.5491 69.7355 13.3896 68.8 12.0426 68.2335C10.6956 67.667 9.21601 67.4926 7.77422 67.7303C0.231934 68.5841 0.231934 77.2649 0.231934 84.5937C0.658855 104.09 15.8857 125.009 30.4011 138.03L34.8126 149.272C35.453 151.193 39.5799 148.917 38.8683 146.995L35.8087 135.113C35.8087 134.188 5.71076 110.351 5.99538 84.5225C5.99538 81.6052 5.99538 73.7072 8.69921 73.4226C12.8261 72.9956 12.0434 76.6956 17.7357 91.5667C19.7781 97.1496 22.3764 102.513 25.4915 107.576C28.6626 112.221 33.0419 115.911 38.1568 118.249C47.051 119.886 45.8414 105.299 48.5452 101.172C49.1856 100.105 50.3952 99.6071 52.3875 99.5359C59.5029 99.5359 53.9529 130.559 58.649 132.622C60.2856 133.405 63.5586 131.128 62.4913 129.705C62.6337 129.563 62.2779 129.136 62.2067 128.709ZM17.38 74.2764C18.2163 73.3382 19.3723 72.7455 20.6222 72.6139C21.8721 72.4823 23.1262 72.8214 24.1395 73.5649C26.9857 75.486 26.3453 82.4591 26.0607 86.3725C25.731 90.1919 25.8504 94.0367 26.4165 97.8282C22.9845 90.1452 19.9679 82.2833 17.38 74.2764Z" fill="#020202"/>
<path fill-rule="evenodd" clip-rule="evenodd" d="M108.741 129.705C107.673 131.128 110.946 133.405 112.583 132.622C117.279 130.559 111.943 99.2513 118.844 99.5359C120.837 99.5359 122.046 100.105 122.687 101.172C125.391 105.299 124.181 119.886 133.075 118.249C138.19 115.911 142.569 112.221 145.741 107.576C148.954 102.525 151.648 97.1608 153.781 91.5667C159.473 76.6956 158.691 72.9956 162.817 73.4225C165.735 73.4225 165.521 81.6052 165.521 84.5225C165.521 110.351 136.064 134.33 135.708 135.113L132.364 146.995C131.652 148.917 135.779 151.193 136.419 149.272L140.831 138.03C155.062 125.009 170.573 104.09 171 84.5937C171 77.4783 171 68.5841 163.458 67.7303C161.983 67.4493 160.459 67.6023 159.07 68.1706C157.68 68.739 156.486 69.6983 155.631 70.9322C154.212 69.5085 152.368 68.5856 150.379 68.3032C148.389 68.0207 146.361 68.3941 144.602 69.3668C138.981 72.3552 138.696 79.7552 139.479 86.0879C141.685 104.588 140.475 101.955 141.044 104.588C140.119 106.024 139.046 107.359 137.842 108.572C131.794 114.336 131.937 114.051 130.727 111.276C127.027 101.244 129.019 92.9186 118.631 92.7763C106.891 92.7763 111.089 118.819 108.812 128.709C108.954 129.136 108.598 129.563 108.741 129.705ZM144.816 97.8282C145.382 94.0367 145.501 90.1919 145.171 86.3725C145.171 82.4591 144.246 75.486 147.092 73.5648C148.106 72.8214 149.36 72.4823 150.61 72.6139C151.86 72.7454 153.016 73.3382 153.852 74.2764C151.264 82.2832 148.248 90.1452 144.816 97.8282Z" fill="#020202"/>
</svg>
