<svg width="165" height="87" viewBox="0 0 165 87" fill="none" xmlns="http://www.w3.org/2000/svg">
<path d="M133.3 60.9593C133.763 63.5224 135.178 65.8156 137.262 67.3783C139.345 68.9409 141.943 69.6574 144.533 69.3837C145.771 69.3012 146.977 68.9583 148.074 68.3774C149.17 67.7965 150.131 66.9906 150.894 66.0125C151.657 65.0345 152.206 63.9063 152.503 62.7017C152.8 61.4972 152.839 60.2435 152.618 59.0227C152.598 58.8474 152.54 58.6786 152.448 58.528C152.356 58.3775 152.233 58.2489 152.086 58.1512C152.417 57.993 152.676 57.7153 152.81 57.374C152.945 57.0327 152.946 56.6531 152.812 56.3114C152.253 54.5273 151.33 52.8787 150.101 51.4698C149.191 50.4367 148.045 49.6393 146.76 49.1459C145.108 48.5891 143.336 48.4887 141.632 48.8551C139.928 49.2215 138.354 50.0412 137.077 51.2277C135.683 52.404 134.607 53.9114 133.947 55.6117C133.287 57.312 133.065 59.1508 133.3 60.9593ZM145.792 52.8255C146.765 53.1099 147.638 53.6638 148.309 54.4232C149.114 55.2936 149.768 56.2916 150.246 57.3765C150.332 57.6215 150.483 57.8389 150.682 58.006C150.479 58.1223 150.313 58.2925 150.202 58.4977C150.091 58.7029 150.039 58.9349 150.052 59.1679C150.113 59.9622 150.007 60.7605 149.741 61.5114C149.476 62.2624 149.056 62.9495 148.509 63.5285C147.961 64.1075 147.299 64.5657 146.565 64.8737C145.83 65.1817 145.039 65.3326 144.242 65.3167C142.747 65.3395 141.297 64.8079 140.17 63.8245C139.044 62.8411 138.321 61.4755 138.142 59.991C138.048 59.0095 138.187 58.0196 138.549 57.1023C138.911 56.1851 139.485 55.3665 140.224 54.7137C140.906 53.9402 141.779 53.3589 142.756 53.0276C143.733 52.6963 144.78 52.6266 145.792 52.8255Z" fill="#F03240"/>
<path d="M141.822 13.6086C138.805 16.2061 136.857 19.8277 136.351 23.7759C129.96 23.1465 123.52 22.6624 116.984 22.614L103.912 22.614C97.9085 22.614 91.9534 23.195 85.9983 23.2434C85.8757 23.05 85.7027 22.8938 85.498 22.7914C85.2933 22.689 85.0645 22.6444 84.8363 22.6624C84.599 22.6823 84.3711 22.7644 84.1756 22.9004C83.9801 23.0364 83.8239 23.2215 83.7227 23.437C82.4155 24.1149 84.7879 32.6845 75.4436 33.1202C73.2479 33.2219 71.095 32.4901 69.416 31.0715C67.737 29.6529 66.6561 27.6523 66.3898 25.4705C66.2523 23.9839 66.4905 22.4865 67.0827 21.116C67.6749 19.7455 68.6021 18.5458 69.779 17.6271C70.7921 16.5099 72.0822 15.6798 73.5189 15.2207C74.9555 14.7617 76.4879 14.6899 77.9612 15.0127C79.3717 15.4693 80.6285 16.3071 81.5924 17.4335C82.6755 18.6863 83.5723 20.0886 84.2553 21.5972C84.3136 21.7781 84.4094 21.9447 84.5363 22.0862C84.6631 22.2277 84.8184 22.3409 84.9919 22.4185C85.1654 22.4961 85.3532 22.5364 85.5433 22.5367C85.7333 22.537 85.9213 22.4974 86.0951 22.4203C86.2778 22.3556 86.4456 22.255 86.5888 22.1244C86.732 21.9938 86.8476 21.8359 86.9288 21.6599C87.01 21.4839 87.0552 21.2935 87.0617 21.0998C87.0682 20.9061 87.0358 20.7131 86.9666 20.5321C86.0929 18.3275 84.8117 16.3072 83.1901 14.577C82.0168 13.2886 80.5575 12.2936 78.9295 11.672C76.8019 10.983 74.5279 10.8802 72.3468 11.3744C70.1656 11.8685 68.158 12.9414 66.5351 14.4801C64.7902 15.9293 63.4338 17.7903 62.5885 19.8951C61.7432 21.9999 61.4356 24.2822 61.6935 26.5357C62.2526 29.7872 64.0205 32.7071 66.6426 34.7095C69.2646 36.712 72.5469 37.6489 75.8309 37.3324C77.738 37.1652 79.5791 36.5515 81.2051 35.541C83.3838 38.8817 85.6109 42.2224 88.0317 45.5146L91.2756 49.5816C92.4376 50.8888 93.5995 52.196 94.8099 53.4064C97.1823 55.7788 99.6515 57.9091 102.169 59.991C100.751 61.5456 99.6869 63.3899 99.0515 65.3962C98.4162 67.4026 98.2244 69.523 98.4895 71.6108C99.1212 74.6982 100.654 77.5289 102.895 79.7446C100.281 82.2138 97.7633 84.2957 95.4393 86.3776C93.1154 88.4595 91.4208 89.9119 89.4842 92.0422C86.9409 94.7524 84.5641 97.6142 82.3671 100.612C81.3719 99.6714 80.2048 98.9317 78.9295 98.4331C76.8061 97.7379 74.5347 97.6273 72.3538 98.1129C70.1729 98.5985 68.163 99.6624 66.5351 101.193C64.7897 102.652 63.4337 104.522 62.5887 106.635C61.7437 108.747 61.4361 111.036 61.6935 113.297C62.2526 116.548 64.0205 119.468 66.6426 121.471C69.2646 123.473 72.5469 124.41 75.8309 124.094C77.4217 124 78.9749 123.573 80.3892 122.839C81.8034 122.105 83.0469 121.081 84.0384 119.833C85.03 118.586 85.7472 117.143 86.1433 115.6C86.5394 114.056 86.6055 112.447 86.3372 110.876C86.3006 110.547 86.1403 110.243 85.8886 110.027C85.6369 109.812 85.3127 109.7 84.9815 109.714C84.8118 109.72 84.6451 109.76 84.4914 109.832C84.3377 109.905 84.2002 110.007 84.0871 110.134C83.9741 110.26 83.8878 110.408 83.8335 110.569C83.7792 110.73 83.758 110.9 83.7711 111.07C83.8718 112.206 83.7351 113.351 83.3699 114.431C83.0046 115.512 82.4187 116.505 81.6494 117.347C80.88 118.189 79.944 118.862 78.9007 119.324C77.8574 119.785 76.7296 120.024 75.5888 120.027C73.3885 120.116 71.2354 119.373 69.5577 117.947C67.8801 116.52 66.8009 114.514 66.5351 112.328C66.3933 110.863 66.6151 109.384 67.181 108.025C67.7468 106.665 68.6391 105.466 69.779 104.534C70.7485 103.394 72.0041 102.533 73.4166 102.04C74.8292 101.546 76.3477 101.438 77.816 101.725C79.3016 102.367 80.6422 103.303 81.7571 104.476C82.872 105.649 83.7382 107.036 84.3037 108.552C84.3681 108.729 84.4673 108.891 84.5954 109.028C84.7235 109.166 84.8779 109.276 85.0495 109.353C85.221 109.43 85.4063 109.471 85.5942 109.475C85.7821 109.479 85.9689 109.445 86.1435 109.375C86.3262 109.31 86.494 109.21 86.6372 109.079C86.7804 108.949 86.896 108.791 86.9772 108.615C87.0584 108.439 87.1036 108.248 87.1101 108.055C87.1166 107.861 87.0842 107.668 87.015 107.487C86.324 105.853 85.4117 104.321 84.3037 102.936C86.9666 100.467 89.4842 98.3847 91.8081 96.2544C94.1321 94.1241 95.8267 92.5748 97.7149 90.5898C100.487 87.7429 103.09 84.7359 105.51 81.5844C108.134 83.1457 111.183 83.8403 114.225 83.5695C114.628 83.5965 115.032 83.5965 115.435 83.5695C115.435 85.1672 115.774 87.2007 116.161 89.3794C116.161 90.4445 116.549 91.5097 116.839 92.5748L117.807 95.6734C118.388 97.2227 119.018 98.6268 119.55 99.7888C116.74 100.1 114.098 101.286 111.998 103.178C110.249 104.624 108.89 106.485 108.045 108.59C107.199 110.696 106.894 112.98 107.156 115.233C107.737 118.476 109.521 121.38 112.151 123.364C114.782 125.348 118.064 126.266 121.342 125.933C122.93 125.833 124.479 125.401 125.89 124.664C127.3 123.928 128.54 122.904 129.531 121.658C130.521 120.412 131.238 118.973 131.638 117.433C132.037 115.892 132.108 114.285 131.848 112.716C131.849 112.536 131.812 112.357 131.74 112.192C131.668 112.027 131.563 111.878 131.432 111.755C131.3 111.633 131.144 111.539 130.974 111.479C130.804 111.419 130.624 111.395 130.444 111.409C130.114 111.445 129.811 111.605 129.595 111.857C129.38 112.109 129.268 112.433 129.282 112.764C129.375 113.905 129.232 115.053 128.862 116.137C128.491 117.22 127.901 118.215 127.129 119.06C126.357 119.906 125.418 120.582 124.372 121.048C123.327 121.515 122.196 121.76 121.051 121.77C118.859 121.846 116.718 121.098 115.051 119.673C113.383 118.248 112.311 116.249 112.046 114.071C111.89 112.623 112.085 111.157 112.616 109.8C113.147 108.443 113.998 107.234 115.096 106.276C116.106 105.155 117.396 104.322 118.834 103.863C120.271 103.403 121.805 103.334 123.278 103.662C124.703 104.117 125.976 104.955 126.958 106.083C128.044 107.324 128.926 108.729 129.572 110.247C129.636 110.429 129.737 110.597 129.869 110.738C130 110.88 130.16 110.993 130.337 111.07C130.514 111.148 130.705 111.188 130.899 111.187C131.092 111.187 131.284 111.147 131.461 111.07C131.813 110.919 132.094 110.64 132.247 110.289C132.4 109.938 132.413 109.542 132.284 109.181C131.494 106.921 130.278 104.834 128.701 103.033C127.516 101.77 126.059 100.793 124.44 100.176C124.005 100.176 123.617 99.934 123.23 99.8372C123.008 97.5749 122.652 95.3278 122.165 93.1074C121.791 91.4676 121.322 89.851 120.761 88.2658C120.035 85.9903 119.211 83.9568 118.679 82.4075C121.248 81.3138 123.372 79.3849 124.708 76.9333C126.043 74.4816 126.512 71.6508 126.038 68.8995C126.075 68.7102 126.07 68.515 126.022 68.328C125.975 68.141 125.887 67.9669 125.764 67.818C125.641 67.6691 125.487 67.5492 125.313 67.4669C125.138 67.3845 124.948 67.3419 124.755 67.3419C124.562 67.3419 124.372 67.3845 124.197 67.4669C124.023 67.5492 123.869 67.6691 123.746 67.818C123.623 67.9669 123.535 68.141 123.488 68.328C123.441 68.515 123.435 68.7102 123.472 68.8995C123.578 70.2146 123.414 71.5374 122.99 72.7868C122.566 74.0362 121.892 75.1859 121.008 76.1652C120.124 77.1444 119.049 77.9327 117.849 78.4817C116.649 79.0306 115.35 79.3286 114.031 79.3573C111.462 79.4765 108.943 78.6272 106.97 76.9776C104.998 75.3279 103.716 72.998 103.38 70.4488C103.2 68.7436 103.436 67.0203 104.069 65.4265C104.701 63.8328 105.711 62.4162 107.011 61.2982C108.214 59.9866 109.747 59.021 111.45 58.5016C113.152 57.9823 114.963 57.9282 116.694 58.3448C118.347 58.8646 119.812 59.8578 120.906 61.2014C122.197 62.6158 123.215 64.2574 123.908 66.043C123.977 66.2212 124.081 66.3836 124.215 66.5202C124.348 66.6567 124.508 66.7645 124.685 66.8371C124.862 66.9096 125.052 66.9453 125.243 66.9419C125.434 66.9386 125.622 66.8963 125.796 66.8176C125.977 66.7593 126.144 66.6635 126.285 66.5366C126.426 66.4097 126.54 66.2545 126.617 66.081C126.695 65.9075 126.735 65.7197 126.736 65.5296C126.736 65.3395 126.696 65.1515 126.619 64.9778C125.693 62.4508 124.278 60.131 122.455 58.1512C121.122 56.7005 119.463 55.5884 117.614 54.9073C115.331 54.1774 112.896 54.0571 110.552 54.5581C108.208 55.0592 106.036 56.1643 104.251 57.7639C102.218 55.2946 100.281 52.9223 98.2474 50.1626L94.9552 46.2893L91.5661 42.4645C88.8548 39.5111 86.0951 36.6061 83.4806 33.6528C85.3578 31.6404 86.4117 28.997 86.434 26.2452C93.067 26.923 99.6515 27.4556 106.284 27.5524L119.357 27.5524C125.07 27.5524 130.734 27.1651 136.448 27.1651C137.077 30.7578 139.034 33.9824 141.932 36.198C144.829 38.4136 148.454 39.458 152.086 39.1238C153.875 39.0201 155.622 38.5399 157.213 37.7146C158.804 36.8893 160.202 35.7375 161.317 34.3345C162.432 32.9315 163.239 31.3089 163.684 29.5729C164.129 27.8369 164.202 26.0265 163.899 24.2601C163.863 23.9306 163.702 23.6274 163.451 23.4116C163.199 23.1959 162.875 23.0838 162.544 23.0981C162.374 23.1042 162.207 23.1444 162.054 23.2165C161.9 23.2887 161.762 23.3911 161.649 23.5178C161.536 23.6444 161.45 23.7926 161.396 23.9535C161.341 24.1143 161.32 24.2845 161.333 24.4538C161.452 25.7608 161.305 27.0784 160.899 28.3265C160.493 29.5747 159.838 30.7273 158.973 31.7145C158.108 32.7016 157.052 33.5026 155.868 34.0689C154.684 34.6351 153.397 34.9548 152.086 35.0084C149.51 35.1264 146.984 34.2704 145.01 32.6108C143.037 30.9512 141.76 28.6095 141.434 26.0515C141.263 24.3541 141.503 22.6404 142.135 21.0557C142.767 19.4711 143.773 18.0625 145.066 16.9493C146.269 15.6377 147.802 14.6721 149.505 14.1527C151.207 13.6334 153.018 13.5793 154.749 13.996C156.377 14.5419 157.831 15.5111 158.961 16.8041C160.231 18.2341 161.247 19.8718 161.963 21.6457C162.104 22.0066 162.379 22.299 162.731 22.4614C163.083 22.6239 163.484 22.6438 163.851 22.5171C164.029 22.4476 164.192 22.3436 164.33 22.2109C164.468 22.0783 164.579 21.9196 164.655 21.7442C164.731 21.5687 164.773 21.3798 164.776 21.1884C164.779 20.997 164.744 20.8069 164.674 20.6289C163.811 18.0795 162.426 15.7381 160.607 13.7539C159.287 12.2883 157.623 11.1737 155.765 10.51C153.38 9.69976 150.819 9.56024 148.36 10.1067C145.901 10.6531 143.639 11.8645 141.822 13.6086Z" fill="#262626"/>
<path d="M83.3837 67.8344C83.3256 67.5319 83.1924 67.2489 82.9964 67.0113C83.3357 66.8625 83.6025 66.5856 83.7385 66.241C83.8745 65.8964 83.8688 65.5119 83.7227 65.1715C83.1598 63.3891 82.237 61.7412 81.0114 60.3299C80.0895 59.3453 78.9434 58.5979 77.6707 58.1512C76.0187 57.5945 74.2471 57.494 72.5428 57.8604C70.8385 58.2269 69.2647 59.0466 67.9875 60.2331C66.5959 61.4024 65.5174 62.9 64.8496 64.5906C64.1818 66.2812 63.9457 68.1115 64.1627 69.9162C64.602 72.4735 65.9849 74.7729 68.0378 76.3597C70.0908 77.9464 72.6644 78.7052 75.2499 78.4858C76.5189 78.4084 77.7564 78.0587 78.8782 77.4606C80.0001 76.8625 80.9802 76.03 81.7518 75.0195C82.5234 74.0091 83.0685 72.8444 83.3501 71.6046C83.6317 70.3649 83.6432 69.079 83.3837 67.8344ZM68.859 68.8027C68.7565 67.8277 68.8925 66.8423 69.2551 65.9315C69.6178 65.0207 70.1963 64.2115 70.9409 63.5738C71.6139 62.7882 72.4861 62.1983 73.4658 61.866C74.4455 61.5338 75.4966 61.4714 76.5087 61.6856C77.4818 61.97 78.3546 62.5239 79.0263 63.2833C79.815 64.166 80.4678 65.1614 80.963 66.2366C81.0516 66.4545 81.1833 66.6521 81.3503 66.8176C81.153 66.948 80.9948 67.1294 80.8925 67.3425C80.7902 67.5557 80.7476 67.7926 80.7693 68.028C80.8155 68.819 80.6994 69.6111 80.4282 70.3556C80.157 71.1001 79.7364 71.7812 79.1922 72.3571C78.6481 72.9331 77.9918 73.3916 77.2639 73.7045C76.536 74.0175 75.7517 74.1782 74.9594 74.1768C73.5017 74.1938 72.0868 73.6839 70.9749 72.7411C69.8631 71.7982 69.1289 70.4857 68.9074 69.0448L68.859 68.8027Z" fill="#F03240"/>
<path d="M76.0689 37.3717C72.4819 37.6393 68.9227 36.5704 66.0766 34.3709C62.3953 38.8566 58.5902 43.2804 54.4448 47.4877L46.0921 55.8404C42.2561 59.6764 38.0798 63.1103 34.2437 66.8844C34.289 67.0863 34.2783 67.2966 34.2129 67.4929C34.1475 67.6891 34.0298 67.8638 33.8725 67.9981C33.7081 68.137 33.5101 68.2301 33.2983 68.2681C33.0865 68.3062 32.8684 68.2877 32.666 68.2147C31.3976 68.6168 27.4379 61.6253 21.1888 67.3175C19.7209 68.6555 18.8128 70.4987 18.6465 72.4779C18.4801 74.4572 19.0677 76.4261 20.2917 77.9904C21.1537 79.0282 22.2627 79.8327 23.5168 80.33C24.7709 80.8273 26.1298 81.0015 27.4688 80.8365C28.8301 80.903 30.1848 80.6091 31.3961 79.9844C32.6074 79.3598 33.6323 78.4265 34.3675 77.2788C34.977 76.0859 35.2447 74.7475 35.1409 73.4119C35.0324 71.9194 34.7094 70.4503 34.1819 69.0499C34.1036 68.8971 34.0583 68.7295 34.049 68.558C34.0396 68.3865 34.0665 68.215 34.1277 68.0545C34.189 67.8941 34.2833 67.7483 34.4046 67.6267C34.5258 67.505 34.6713 67.4102 34.8315 67.3485C34.9896 67.2731 35.1611 67.2301 35.3361 67.2221C35.511 67.214 35.6858 67.2411 35.8501 67.3016C36.0144 67.3622 36.165 67.455 36.2929 67.5746C36.4208 67.6942 36.5235 67.8382 36.5949 67.9981C37.4452 69.965 37.9175 72.0745 37.987 74.2162C38.0604 75.7891 37.7638 77.3573 37.1208 78.7947C36.2015 80.5944 34.8142 82.1131 33.1048 83.191C31.3954 84.2689 29.4271 84.8662 27.4069 84.92C25.366 85.1089 23.3103 84.7865 21.4253 83.9817C19.5403 83.1769 17.8855 81.9152 16.6103 80.3106C14.89 77.8757 14.1539 74.8804 14.5498 71.9255C14.9457 68.9706 16.4443 66.2747 18.7449 64.3786C20.0703 63.2669 21.6388 62.4827 23.3234 62.0894C22.5809 58.5627 21.8694 55.0051 21.3126 51.3547L20.7867 46.6834C20.6939 45.1056 20.601 43.5279 20.601 41.9811C20.601 38.9494 20.8176 36.0105 21.096 33.0716C19.1963 32.9847 17.3382 32.4859 15.6502 31.6099C13.9623 30.7339 12.4849 29.5015 11.3203 27.9982C9.75119 25.6218 8.9222 22.8334 8.93826 19.9858C5.69 20.0786 2.7511 20.357 -0.0640497 20.5117C-2.8792 20.6664 -4.89003 20.8211 -7.48864 20.6973C-10.8454 20.5907 -14.1926 20.2808 -17.5118 19.7692C-17.5468 21.006 -17.8199 22.2244 -18.3162 23.3578C-19.2287 25.1588 -20.6094 26.6808 -22.3132 27.764C-24.017 28.8473 -25.981 29.4518 -27.9991 29.514C-30.0469 29.6967 -32.108 29.3684 -33.9977 28.5586C-35.8874 27.7487 -37.5466 26.4825 -38.8266 24.8736C-40.5469 22.4388 -41.283 19.4435 -40.8871 16.4886C-40.4912 13.5337 -38.9926 10.8378 -36.692 8.94172C-35.6162 7.98473 -34.3505 7.26546 -32.9778 6.83087C-31.6051 6.39629 -30.1561 6.25617 -28.7255 6.41966C-27.2949 6.58316 -25.9149 7.04659 -24.6757 7.77969C-23.4364 8.51279 -22.3657 9.49907 -21.5335 10.6741C-21.3463 10.908 -21.2549 11.2042 -21.2779 11.5029C-21.3009 11.8015 -21.4365 12.0803 -21.6572 12.2828C-21.7695 12.3873 -21.9017 12.4681 -22.046 12.5203C-22.1903 12.5724 -22.3436 12.5948 -22.4968 12.5861C-22.65 12.5774 -22.7998 12.5379 -22.9373 12.4698C-23.0748 12.4017 -23.1971 12.3065 -23.2968 12.19C-23.9585 11.3996 -24.7773 10.7555 -25.7012 10.2983C-26.6251 9.84123 -27.6339 9.58116 -28.6636 9.53461C-29.6934 9.48807 -30.7215 9.65609 -31.6829 10.028C-32.6442 10.3999 -33.5178 10.9676 -34.2481 11.695C-35.7109 13.044 -36.6123 14.8942 -36.7728 16.8776C-36.9333 18.861 -36.3412 20.8321 -35.1143 22.3988C-34.2683 23.426 -33.182 24.2287 -31.9517 24.736C-30.7214 25.2432 -29.3851 25.4392 -28.0609 25.3067C-26.7132 25.4154 -25.3609 25.1632 -24.143 24.576C-22.9251 23.9888 -21.8856 23.0878 -21.1313 21.9657C-20.5922 20.6062 -20.3335 19.1518 -20.3707 17.6899C-20.4079 16.2279 -20.7403 14.7886 -21.3479 13.4583C-21.4196 13.3044 -21.4596 13.1376 -21.4657 12.9678C-21.4717 12.7981 -21.4436 12.6288 -21.383 12.4702C-21.3224 12.3115 -21.2306 12.1666 -21.113 12.0441C-20.9953 11.9215 -20.8543 11.8239 -20.6982 11.7569C-20.5401 11.6815 -20.3686 11.6385 -20.1936 11.6305C-20.0187 11.6224 -19.8439 11.6495 -19.6796 11.71C-19.5153 11.7706 -19.3647 11.8634 -19.2368 11.983C-19.1089 12.1026 -19.0063 12.2466 -18.9349 12.4065C-18.3323 13.8922 -17.9368 15.4536 -17.7593 17.0469C-14.4801 16.9231 -11.5412 16.6447 -8.69513 16.521C-5.84904 16.3972 -3.77634 16.3044 -1.30148 16.3663C2.2888 16.4141 5.87318 16.6724 9.43323 17.1397C10.1123 14.4654 11.617 12.0732 13.7333 10.3029C13.9736 10.0281 14.2319 9.76975 14.5067 9.5295C13.4858 8.50862 12.4031 6.99276 11.2584 5.35317C10.5779 4.67258 10.1448 3.74451 9.64978 2.87831L8.28861 0.279702C7.66989 -1.08147 7.17492 -2.38077 6.77275 -3.46353C4.77814 -1.86683 2.33277 -0.936299 -0.218732 -0.803053C-2.25998 -0.610096 -4.31708 -0.930741 -6.20276 -1.7358C-8.08845 -2.54087 -9.74283 -3.80478 -11.0153 -5.41248C-12.7161 -7.85586 -13.4316 -10.8513 -13.0186 -13.7996C-12.6056 -16.7478 -11.0946 -19.4314 -8.78794 -21.3135C-7.70912 -22.264 -6.44291 -22.9776 -5.07112 -23.4083C-3.69932 -23.8391 -2.25243 -23.9772 -0.823908 -23.814C0.604616 -23.6507 1.98301 -23.1896 3.22226 -22.4605C4.4615 -21.7314 5.53403 -20.7505 6.37059 -19.5811C6.486 -19.4663 6.57644 -19.3289 6.63625 -19.1775C6.69605 -19.0261 6.72392 -18.864 6.71811 -18.7013C6.7123 -18.5387 6.67294 -18.379 6.60249 -18.2322C6.53204 -18.0855 6.43202 -17.9549 6.30871 -17.8487C6.07486 -17.6615 5.77863 -17.5701 5.47997 -17.5931C5.18131 -17.6161 4.90253 -17.7517 4.70006 -17.9724C4.0305 -18.7611 3.20551 -19.4033 2.27662 -19.8588C1.34772 -20.3143 0.334875 -20.5733 -0.698651 -20.6198C-1.73218 -20.6662 -2.76418 -20.4991 -3.7302 -20.1287C-4.69621 -19.7584 -5.57548 -19.1928 -6.31308 -18.4674C-7.76276 -17.1157 -8.65283 -15.2695 -8.80748 -13.2935C-8.96212 -11.3175 -8.3701 -9.35528 -7.14835 -7.79454C-6.32255 -6.76882 -5.26136 -5.95759 -4.05494 -5.42978C-2.84851 -4.90197 -1.53251 -4.67317 -0.218733 -4.76283C1.1432 -4.69177 2.49958 -4.9837 3.71168 -5.60878C4.92378 -6.23385 5.94812 -7.16964 6.67994 -8.32044C7.29929 -9.5218 7.57749 -10.87 7.48428 -12.2184C7.38472 -13.7052 7.05061 -15.1669 6.49433 -16.5494C6.41845 -16.7068 6.37592 -16.8782 6.36938 -17.0528C6.36284 -17.2274 6.39245 -17.4015 6.45635 -17.5642C6.52025 -17.7268 6.61706 -17.8745 6.74071 -17.998C6.86436 -18.1215 7.01218 -18.2181 7.17492 -18.2818C7.496 -18.4107 7.85424 -18.4121 8.1763 -18.2856C8.49835 -18.159 8.75987 -17.9142 8.90732 -17.6012C9.84708 -15.6526 10.4037 -13.5417 10.5469 -11.3831C10.5964 -9.81883 10.2896 -8.26379 9.64978 -6.83553C9.37136 -6.5571 9.27855 -6.15494 9.09293 -5.84558C10.3963 -4.25797 11.6049 -2.59486 12.7124 -0.86492C13.5215 0.421517 14.2549 1.75401 14.9089 3.1258C15.8988 5.04381 16.6722 6.86902 17.3219 8.19926C19.662 7.25675 22.2518 7.13192 24.6717 7.84499C27.0917 8.55805 29.2 10.0673 30.6552 12.1281C30.7997 12.2255 30.921 12.3536 31.0102 12.5034C31.0994 12.6531 31.1544 12.8207 31.1711 12.9942C31.1879 13.1677 31.1661 13.3428 31.1072 13.5069C31.0483 13.6709 30.9539 13.8199 30.8306 13.9432C30.7074 14.0664 30.5584 14.1609 30.3943 14.2197C30.2303 14.2786 30.0552 14.3004 29.8817 14.2837C29.7082 14.2669 29.5406 14.2119 29.3908 14.1227C29.2411 14.0335 29.1129 13.9123 29.0156 13.7677C28.2429 12.8598 27.2929 12.1193 26.2238 11.5918C25.1547 11.0642 23.9891 10.7607 22.7984 10.6999C21.6078 10.6391 20.4173 10.8222 19.3 11.238C18.1827 11.6538 17.1621 12.2936 16.301 13.118C14.5836 14.6831 13.5162 16.8358 13.3099 19.1502C13.1037 21.4645 13.7737 23.772 15.1873 25.6161C16.162 26.8205 17.4143 27.7705 18.8367 28.3848C20.2591 28.999 21.8093 29.2591 23.3543 29.1428C24.9615 29.2118 26.5578 28.8495 27.9776 28.0933C29.3974 27.3372 30.5889 26.2148 31.4286 24.8427C32.1528 23.4543 32.454 21.8839 32.2948 20.3261C32.216 18.5973 31.8175 16.898 31.1192 15.3145C31.0492 15.1567 31.0121 14.9862 31.0103 14.8136C31.0084 14.641 31.0418 14.4698 31.1084 14.3105C31.175 14.1512 31.2734 14.0072 31.3976 13.8873C31.5218 13.7673 31.6692 13.674 31.8307 13.613C31.9836 13.5347 32.1512 13.4894 32.3227 13.4801C32.4942 13.4708 32.6657 13.4976 32.8262 13.5589C32.9866 13.6202 33.1324 13.7145 33.254 13.8357C33.3756 13.957 33.4704 14.1024 33.5322 14.2627C34.5553 16.4689 35.1334 18.8552 35.2337 21.2851C35.3088 23.0638 34.9589 24.8349 34.2128 26.4514C33.2203 28.3766 31.7419 30.0089 29.924 31.1864C28.1061 32.3639 26.012 33.0458 23.8493 33.1644C24.1277 36.0415 24.4061 38.7947 24.8702 41.8574L25.2414 46.4359L25.5198 51.0453C25.6745 54.6648 25.7673 58.2843 25.9839 61.8419C28.4691 61.9283 30.8315 62.9439 32.6041 64.688C36.4092 60.0167 40.2762 55.4691 44.4525 51.1691L52.8052 42.8164C56.4556 39.166 60.3226 35.794 63.973 32.1436C62.0793 29.446 61.2698 26.1347 61.7054 22.8678C62.141 19.6008 63.7898 16.6173 66.3241 14.5102C67.5336 13.4332 68.9567 12.6237 70.5005 12.1346C72.0443 11.6455 73.674 11.4877 75.2829 11.6717C76.8918 11.8557 78.4438 12.3772 79.8374 13.2022C81.2309 14.0271 82.4346 15.137 83.3697 16.4591C83.5569 16.693 83.6483 16.9892 83.6253 17.2879C83.6023 17.5865 83.4667 17.8653 83.246 18.0678C83.1337 18.1723 83.0015 18.2531 82.8572 18.3052C82.7129 18.3574 82.5596 18.3798 82.4064 18.3711C82.2532 18.3624 82.1034 18.3229 81.9659 18.2548C81.8284 18.1867 81.7061 18.0915 81.6064 17.975C80.8474 17.0637 79.9112 16.3162 78.8544 15.7779C77.7977 15.2396 76.6425 14.9217 75.4592 14.8436C74.2758 14.7655 73.0889 14.9287 71.9706 15.3234C70.8522 15.7182 69.8258 16.3361 68.9537 17.1397C67.2324 18.7103 66.1653 20.8712 65.9647 23.1927C65.764 25.5142 66.4446 27.8261 67.8709 29.6687C68.8458 30.863 70.0944 31.8043 71.5109 32.4129C72.9273 33.0215 74.4697 33.2793 76.007 33.1644C77.6141 33.2335 79.2105 32.8711 80.6303 32.115C82.0501 31.3588 83.2416 30.2365 84.0813 28.8644C84.7728 27.4752 85.0824 25.927 84.9784 24.3787C84.8764 22.6532 84.4788 20.958 83.8028 19.3671C83.6625 19.0462 83.6517 18.6834 83.7728 18.3547C83.8939 18.026 84.1374 17.7569 84.4525 17.6037C84.6109 17.5342 84.7814 17.4966 84.9544 17.4932C85.1273 17.4898 85.2992 17.5206 85.4602 17.5838C85.6212 17.6471 85.7681 17.7415 85.8925 17.8617C86.0168 17.982 86.1162 18.1256 86.1849 18.2843C87.2623 20.4648 87.8734 22.846 87.9792 25.2758C88.0719 27.0559 87.7211 28.8311 86.9583 30.4421C85.9521 32.4838 84.4043 34.2098 82.484 35.4318C80.5637 36.6539 78.3446 37.3249 76.0689 37.3717Z" fill="#262626"/>
</svg>
