<svg width="140" height="57" viewBox="0 0 140 57" fill="none" xmlns="http://www.w3.org/2000/svg">
<path d="M139.265 27.2632V47.9838C139.265 52.4121 136.786 56.0001 133.731 56.0001H6.2684C3.21389 56.0001 0.735352 52.4121 0.735352 47.9838V27.2632H139.265Z" fill="#0F3C67" stroke="#0F3C67" stroke-miterlimit="10"/>
<path d="M133.731 1H6.2684C3.21389 1 0.735352 3.47854 0.735352 6.53304V27.2583H139.265V6.53304C139.265 3.47854 136.786 1 133.731 1Z" fill="white" stroke="#0F3C67" stroke-miterlimit="10"/>
<path d="M8.09546 36.4643H11.2019C13.1281 36.4643 14.5963 37.0356 14.5963 38.7823C14.5963 39.6463 14.1148 40.5291 13.3169 40.8077V40.869C14.3319 41.1098 15.0779 41.818 15.0779 43.0879C15.0779 44.9763 13.5058 45.8497 11.4427 45.8497H8.09546V36.4596V36.4643ZM11.0603 40.2931C12.25 40.2931 12.7693 39.8115 12.7693 39.0656C12.7693 38.2441 12.2122 37.9137 11.0839 37.9137H9.96971V40.2978H11.0603V40.2931ZM11.2774 44.4098C12.5568 44.4098 13.2555 43.9519 13.2555 42.9793C13.2555 42.0682 12.571 41.6763 11.2774 41.6763H9.97443V44.4145H11.2774V44.4098Z" fill="white"/>
<path d="M16.6783 41.6339V36.4644H18.5526V41.7991C18.5526 43.7489 19.2371 44.4098 20.3277 44.4098C21.4182 44.4098 22.15 43.7489 22.15 41.7991V36.4644H23.9487V41.6339C23.9487 44.7498 22.6174 46.0291 20.3229 46.0291C18.0285 46.0291 16.6736 44.7498 16.6736 41.6339H16.6783Z" fill="white"/>
<path d="M25.5869 44.6648L26.6633 43.3712C27.3337 43.9944 28.2212 44.4098 29.0474 44.4098C30.0247 44.4098 30.544 43.9897 30.544 43.3334C30.544 42.6347 29.9728 42.4223 29.1371 42.0682L27.8813 41.5347C26.9324 41.1429 25.9788 40.3828 25.9788 39.0137C25.9788 37.4794 27.3243 36.3038 29.2221 36.3038C30.3127 36.3038 31.4032 36.7334 32.1633 37.5077L31.2144 38.688C30.6195 38.1922 29.9964 37.9137 29.2268 37.9137C28.4054 37.9137 27.8861 38.2819 27.8861 38.9004C27.8861 39.5708 28.547 39.8116 29.3449 40.1279L30.5723 40.6472C31.7148 41.1146 32.4607 41.8369 32.4607 43.1918C32.4607 44.7261 31.1813 46.0291 29.0144 46.0291C27.7586 46.0291 26.5075 45.5334 25.5916 44.66L25.5869 44.6648Z" fill="white"/>
<path d="M34.1179 36.4644H35.9922V45.8545H34.1179V36.4644Z" fill="white"/>
<path d="M38.2959 36.4643H40.2079L42.932 41.4686L43.8714 43.4939H43.9328C43.8431 42.5167 43.692 41.275 43.692 40.2128V36.4643H45.4671V45.8544H43.5646L40.8547 40.836L39.9058 38.8201H39.8444C39.9341 39.8351 40.071 41.0107 40.071 42.0871V45.8497H38.2959V36.4596V36.4643Z" fill="white"/>
<path d="M47.79 36.4644H53.545V38.0365H49.669V40.2034H52.9643V41.7755H49.669V44.2824H53.6866V45.8545H47.7948V36.4644H47.79Z" fill="white"/>
<path d="M54.9658 44.6648L56.0422 43.3712C56.7126 43.9944 57.6002 44.4098 58.4263 44.4098C59.4036 44.4098 59.9229 43.9897 59.9229 43.3334C59.9229 42.6347 59.3517 42.4223 58.516 42.0682L57.2602 41.5347C56.3113 41.1429 55.3577 40.3828 55.3577 39.0137C55.3577 37.4794 56.7032 36.3038 58.601 36.3038C59.6916 36.3038 60.7821 36.7334 61.5422 37.5077L60.5933 38.688C59.9984 38.1922 59.3753 37.9137 58.6057 37.9137C57.7843 37.9137 57.265 38.2819 57.265 38.9004C57.265 39.5708 57.9259 39.8116 58.7238 40.1279L59.9512 40.6472C61.0937 41.1146 61.8396 41.8369 61.8396 43.1918C61.8396 44.7261 60.5602 46.0291 58.3933 46.0291C57.1375 46.0291 55.8864 45.5334 54.9705 44.66L54.9658 44.6648Z" fill="white"/>
<path d="M62.8735 44.6648L63.9499 43.3712C64.6203 43.9944 65.5079 44.4098 66.3341 44.4098C67.3113 44.4098 67.8306 43.9897 67.8306 43.3334C67.8306 42.6347 67.2594 42.4223 66.4238 42.0682L65.168 41.5347C64.219 41.1429 63.2654 40.3828 63.2654 39.0137C63.2654 37.4794 64.6109 36.3038 66.5087 36.3038C67.5993 36.3038 68.6898 36.7334 69.4499 37.5077L68.501 38.688C67.9062 38.1922 67.283 37.9137 66.5135 37.9137C65.692 37.9137 65.1727 38.2819 65.1727 38.9004C65.1727 39.5708 65.8336 39.8116 66.6315 40.1279L67.8589 40.6472C68.9967 41.1146 69.7474 41.8369 69.7474 43.1918C69.7474 44.7261 68.468 46.0291 66.301 46.0291C65.0452 46.0291 63.7941 45.5334 62.8783 44.66L62.8735 44.6648Z" fill="white"/>
<path d="M74.2796 36.4644H77.3577C79.435 36.4644 81.0307 37.2008 81.0307 39.415C81.0307 41.6292 79.4208 42.5214 77.4049 42.5214H76.1492V45.8545H74.2749V36.4644H74.2796ZM77.2822 41.039C78.5758 41.039 79.1942 40.4961 79.1942 39.415C79.1942 38.3339 78.5097 37.9562 77.2161 37.9562H76.1539V41.0343H77.2822V41.039Z" fill="white"/>
<path d="M84.5337 36.4644H86.7384L89.7551 45.8545H87.7912L87.1302 43.4468H84.0899L83.4289 45.8545H81.5264L84.5289 36.4644H84.5337ZM84.4959 41.9927H86.7242L86.4457 40.9682C86.153 39.991 85.9028 38.9146 85.6337 37.8995H85.5723C85.3315 38.924 85.053 39.991 84.7744 40.9682L84.4959 41.9927Z" fill="white"/>
<path d="M90.8551 36.4644H94.122C96.086 36.4644 97.6439 37.1631 97.6439 39.3159C97.6439 40.7227 96.9357 41.5961 95.8546 42.0163L98.0452 45.8545H95.9538L94.0276 42.3043H92.7246V45.8545H90.8503V36.4644H90.8551ZM93.9473 40.8266C95.1512 40.8266 95.8216 40.3214 95.8216 39.3206C95.8216 38.3197 95.1512 37.9656 93.9473 37.9656H92.7293V40.8313H93.9473V40.8266Z" fill="white"/>
<path d="M101.364 38.0365H98.7297V36.4644H105.901V38.0365H103.238V45.8545H101.364V38.0365Z" fill="white"/>
<path d="M107.421 36.4643H109.333L112.057 41.4686L112.997 43.4939H113.058C112.968 42.5167 112.817 41.275 112.817 40.2128V36.4643H114.592V45.8544H112.69L109.98 40.836L109.031 38.8201H108.97C109.059 39.8351 109.196 41.0107 109.196 42.0871V45.8497H107.421V36.4596V36.4643Z" fill="white"/>
<path d="M116.915 36.4644H122.67V38.0365H118.794V40.2034H122.089V41.7755H118.794V44.2824H122.812V45.8545H116.92V36.4644H116.915Z" fill="white"/>
<path d="M124.71 36.4644H127.977C129.941 36.4644 131.499 37.1631 131.499 39.3159C131.499 40.7227 130.79 41.5961 129.709 42.0163L131.9 45.8545H129.809L127.882 42.3043H126.579V45.8545H124.705V36.4644H124.71ZM127.802 40.8266C129.006 40.8266 129.676 40.3214 129.676 39.3206C129.676 38.3197 129.006 37.9656 127.802 37.9656H126.584V40.8313H127.802V40.8266Z" fill="white"/>
<path d="M59.885 15.6729V15.6398C59.885 12.9961 61.7687 10.8149 64.4691 10.8149C67.5661 10.8149 68.9824 13.2179 68.9824 15.8476C68.9824 16.0553 68.9636 16.296 68.9494 16.5415H62.5005C62.7601 17.736 63.591 18.3591 64.7666 18.3591C65.6494 18.3591 66.2867 18.0806 67.0138 17.4102L68.5198 18.7415C67.6558 19.8132 66.4095 20.4694 64.7335 20.4694C61.9481 20.4694 59.8897 18.5149 59.8897 15.6776L59.885 15.6729ZM66.4236 14.8939C66.2678 13.7184 65.5786 12.9205 64.4691 12.9205C63.3597 12.9205 62.6704 13.6995 62.4627 14.8939H66.4236Z" fill="#010100"/>
<path d="M70.2429 10.985H72.8725V12.5618C73.4107 11.2824 74.2747 10.7442 75.8279 10.8103V13.558H75.691C73.9442 13.558 72.8725 14.6108 72.8725 16.8249V20.2477H70.2429V10.9756V10.985Z" fill="#010100"/>
<path d="M76.6399 10.985H79.4253L81.5026 16.6124L83.594 10.985H86.3274L82.6781 20.3232H80.2892L76.6399 10.985Z" fill="#010100"/>
<path d="M86.3608 15.6729V15.6398C86.3608 12.9961 88.2445 10.8149 90.945 10.8149C94.042 10.8149 95.4583 13.2179 95.4583 15.8476C95.4583 16.0553 95.4394 16.296 95.4252 16.5415H88.9763C89.236 17.736 90.0669 18.3591 91.2424 18.3591C92.1252 18.3591 92.7626 18.0806 93.4896 17.4102L94.9956 18.7415C94.1317 19.8132 92.8853 20.4694 91.2093 20.4694C88.4239 20.4694 86.3656 18.5149 86.3656 15.6776L86.3608 15.6729ZM92.8948 14.8939C92.739 13.7184 92.0497 12.9205 90.9402 12.9205C89.8308 12.9205 89.1415 13.6995 88.9338 14.8939H92.8948Z" fill="#010100"/>
<path d="M96.7185 10.985H99.3481V12.5618C99.8863 11.2824 100.75 10.7442 102.303 10.8103V13.558H102.167C100.42 13.558 99.3481 14.6108 99.3481 16.8249V20.2477H96.7185V10.9756V10.985Z" fill="#010100"/>
<path d="M54.1255 8.00598C51.6516 8.00598 49.886 9.46006 49.886 11.6553V11.6884C49.886 11.7639 49.8907 11.83 49.8954 11.9055L56.2311 8.30341C55.5748 8.10984 54.8714 8.00598 54.1208 8.00598H54.1255Z" fill="#010100"/>
<path d="M55.1453 13.0387C54.5457 12.8876 54.0831 12.7554 53.7148 12.6279L50.9625 14.1953C51.6612 14.7524 52.6715 15.0781 53.899 15.3945C55.9243 15.9138 56.3397 16.2584 56.3397 16.9335V16.9666C56.3397 17.6747 55.6835 18.109 54.593 18.109C53.2097 18.109 52.0672 17.5378 50.9766 16.6408L49.4045 18.5245C50.8586 19.8228 52.7093 20.4601 54.541 20.4601C57.1518 20.4601 58.9835 19.1099 58.9835 16.7069V16.6738C58.9835 14.5636 57.6003 13.6807 55.1453 13.0434V13.0387Z" fill="#010100"/>
<path d="M46.1755 20.2854H49.2867L46.761 16.5841L44.5657 17.8305L46.1755 20.2854Z" fill="#010100"/>
<path d="M45.0659 14.0961L49.1119 8.18066H46.0526L43.508 12.1038L40.987 8.18066H37.8711L41.917 14.1292L39.3252 17.9154L45.3398 14.4974L45.0659 14.0961Z" fill="#010100"/>
<path d="M56.2358 8.30347L49.9001 11.9056C49.9474 12.9726 50.3203 13.6807 50.9671 14.1953L53.7195 12.6279C52.8036 12.3116 52.5345 12.0142 52.5345 11.4477V11.4146C52.5345 10.8245 53.0727 10.3618 54.0924 10.3618C54.8667 10.3618 55.6598 10.6215 56.4671 11.07C56.722 11.2116 56.9817 11.3769 57.2414 11.5563L58.2894 10.0361L58.6246 9.54982C57.9212 8.98329 57.1186 8.56784 56.2358 8.30819V8.30347Z" fill="#1C5B9C"/>
<path d="M45.3396 14.4974L39.325 17.9155L37.7009 20.2854H40.7271L43.4559 16.1356L44.5653 17.8305L46.7606 16.5841L45.3396 14.4974Z" fill="#1C5B9C"/>
</svg>
