<svg width="141" height="57" viewBox="0 0 141 57" fill="none" xmlns="http://www.w3.org/2000/svg">
<path d="M139.984 27.2632V47.9837C139.984 52.4121 137.506 56 134.451 56H6.98812C3.93362 56 1.45508 52.4121 1.45508 47.9837V27.2632H139.984Z" fill="#0F3C67" stroke="#0F3C67" stroke-miterlimit="10"/>
<path d="M134.451 1H6.98813C3.93362 1 1.45508 3.47854 1.45508 6.53303V27.2583H139.984V6.53303C139.984 3.47854 137.506 1 134.451 1Z" fill="white" stroke="#0F3C67" stroke-miterlimit="10"/>
<path d="M8.81494 36.4643H11.9214C13.8476 36.4643 15.3158 37.0356 15.3158 38.7823C15.3158 39.6463 14.8343 40.5291 14.0364 40.8077V40.869C15.0514 41.1098 15.7973 41.818 15.7973 43.0879C15.7973 44.9763 14.2252 45.8497 12.1622 45.8497H8.81494V36.4596V36.4643ZM11.7797 40.2931C12.9694 40.2931 13.4888 39.8115 13.4888 39.0656C13.4888 38.2441 12.9317 37.9137 11.8034 37.9137H10.6892V40.2978H11.7797V40.2931ZM11.9969 44.4098C13.2763 44.4098 13.975 43.9519 13.975 42.9793C13.975 42.0682 13.2905 41.6763 11.9969 41.6763H10.6939V44.4145H11.9969V44.4098Z" fill="white"/>
<path d="M17.3983 41.6339V36.4644H19.2725V41.7991C19.2725 43.7489 19.9571 44.4098 21.0476 44.4098C22.1382 44.4098 22.87 43.7489 22.87 41.7991V36.4644H24.6687V41.6339C24.6687 44.7497 23.3373 46.0291 21.0429 46.0291C18.7485 46.0291 17.3936 44.7497 17.3936 41.6339H17.3983Z" fill="white"/>
<path d="M26.3066 44.6648L27.383 43.3712C28.0534 43.9944 28.941 44.4098 29.7672 44.4098C30.7444 44.4098 31.2637 43.9897 31.2637 43.3334C31.2637 42.6347 30.6925 42.4223 29.8569 42.0682L28.6011 41.5347C27.6521 41.1429 26.6985 40.3828 26.6985 39.0137C26.6985 37.4794 28.044 36.3038 29.9418 36.3038C31.0324 36.3038 32.1229 36.7334 32.883 37.5077L31.9341 38.6879C31.3393 38.1922 30.7161 37.9137 29.9466 37.9137C29.1251 37.9137 28.6058 38.2819 28.6058 38.9004C28.6058 39.5708 29.2667 39.8115 30.0646 40.1279L31.292 40.6472C32.4345 41.1146 33.1805 41.8369 33.1805 43.1918C33.1805 44.7261 31.9011 46.0291 29.7341 46.0291C28.4783 46.0291 27.2272 45.5334 26.3114 44.66L26.3066 44.6648Z" fill="white"/>
<path d="M34.8374 36.4644H36.7117V45.8545H34.8374V36.4644Z" fill="white"/>
<path d="M39.0156 36.4643H40.9276L43.6517 41.4686L44.5912 43.4939H44.6525C44.5628 42.5167 44.4118 41.275 44.4118 40.2128V36.4643H46.1869V45.8544H44.2843L41.5744 40.836L40.6255 38.8201H40.5641C40.6538 39.8351 40.7907 41.0107 40.7907 42.087V45.8497H39.0156V36.4596V36.4643Z" fill="white"/>
<path d="M48.5098 36.4644H54.2647V38.0365H50.3887V40.2034H53.684V41.7755H50.3887V44.2824H54.4063V45.8545H48.5145V36.4644H48.5098Z" fill="white"/>
<path d="M55.6855 44.6648L56.7619 43.3712C57.4323 43.9944 58.3199 44.4098 59.1461 44.4098C60.1233 44.4098 60.6426 43.9897 60.6426 43.3334C60.6426 42.6347 60.0714 42.4223 59.2358 42.0682L57.98 41.5347C57.031 41.1429 56.0774 40.3828 56.0774 39.0137C56.0774 37.4794 57.4229 36.3038 59.3207 36.3038C60.4113 36.3038 61.5019 36.7334 62.2619 37.5077L61.313 38.6879C60.7182 38.1922 60.095 37.9137 59.3255 37.9137C58.504 37.9137 57.9847 38.2819 57.9847 38.9004C57.9847 39.5708 58.6456 39.8115 59.4435 40.1279L60.671 40.6472C61.8134 41.1146 62.5594 41.8369 62.5594 43.1918C62.5594 44.7261 61.28 46.0291 59.113 46.0291C57.8572 46.0291 56.6061 45.5334 55.6903 44.66L55.6855 44.6648Z" fill="white"/>
<path d="M63.5933 44.6648L64.6697 43.3712C65.34 43.9944 66.2276 44.4098 67.0538 44.4098C68.031 44.4098 68.5503 43.9897 68.5503 43.3334C68.5503 42.6347 67.9791 42.4223 67.1435 42.0682L65.8877 41.5347C64.9388 41.1429 63.9851 40.3828 63.9851 39.0137C63.9851 37.4794 65.3306 36.3038 67.2285 36.3038C68.319 36.3038 69.4096 36.7334 70.1697 37.5077L69.2207 38.6879C68.6259 38.1922 68.0027 37.9137 67.2332 37.9137C66.4117 37.9137 65.8924 38.2819 65.8924 38.9004C65.8924 39.5708 66.5534 39.8115 67.3512 40.1279L68.5787 40.6472C69.7164 41.1146 70.4671 41.8369 70.4671 43.1918C70.4671 44.7261 69.1877 46.0291 67.0207 46.0291C65.7649 46.0291 64.5139 45.5334 63.598 44.66L63.5933 44.6648Z" fill="white"/>
<path d="M74.9993 36.4644H78.0775C80.1547 36.4644 81.7504 37.2008 81.7504 39.415C81.7504 41.6292 80.1405 42.5214 78.1247 42.5214H76.8689V45.8545H74.9946V36.4644H74.9993ZM78.0019 41.039C79.2955 41.039 79.9139 40.4961 79.9139 39.415C79.9139 38.3339 79.2294 37.9562 77.9358 37.9562H76.8736V41.0343H78.0019V41.039Z" fill="white"/>
<path d="M85.2534 36.4642H87.4581L90.4748 45.8543H88.5109L87.85 43.4466H84.8096L84.1487 45.8543H82.2461L85.2487 36.4642H85.2534ZM85.2156 41.9925H87.4439L87.1654 40.9681C86.8727 39.9908 86.6225 38.9144 86.3534 37.8994H86.292C86.0512 38.9239 85.7727 39.9908 85.4942 40.9681L85.2156 41.9925Z" fill="white"/>
<path d="M91.5745 36.4644H94.8415C96.8054 36.4644 98.3634 37.1631 98.3634 39.3159C98.3634 40.7227 97.6552 41.5961 96.5741 42.0163L98.7647 45.8545H96.6733L94.7471 42.3043H93.4441V45.8545H91.5698V36.4644H91.5745ZM94.6668 40.8266C95.8707 40.8266 96.5411 40.3214 96.5411 39.3206C96.5411 38.3197 95.8707 37.9656 94.6668 37.9656H93.4488V40.8313H94.6668V40.8266Z" fill="white"/>
<path d="M102.084 38.0365H99.4497V36.4644H106.621V38.0365H103.958V45.8545H102.084V38.0365Z" fill="white"/>
<path d="M108.141 36.4643H110.053L112.777 41.4686L113.716 43.4939H113.778C113.688 42.5167 113.537 41.275 113.537 40.2128V36.4643H115.312V45.8544H113.409L110.699 40.836L109.75 38.8201H109.689C109.779 39.8351 109.916 41.0107 109.916 42.087V45.8497H108.141V36.4596V36.4643Z" fill="white"/>
<path d="M117.635 36.4644H123.39V38.0365H119.514V40.2034H122.809V41.7755H119.514V44.2824H123.531V45.8545H117.639V36.4644H117.635Z" fill="white"/>
<path d="M125.43 36.4644H128.696C130.66 36.4644 132.218 37.1631 132.218 39.3159C132.218 40.7227 131.51 41.5961 130.429 42.0163L132.62 45.8545H130.528L128.602 42.3043H127.299V45.8545H125.425V36.4644H125.43ZM128.522 40.8266C129.726 40.8266 130.396 40.3214 130.396 39.3206C130.396 38.3197 129.726 37.9656 128.522 37.9656H127.304V40.8313H128.522V40.8266Z" fill="white"/>
<path d="M60.605 15.6729V15.6398C60.605 12.9961 62.4887 10.8149 65.1891 10.8149C68.2861 10.8149 69.7024 13.2179 69.7024 15.8475C69.7024 16.0553 69.6835 16.296 69.6694 16.5415H63.2204C63.4801 17.736 64.311 18.3591 65.4865 18.3591C66.3694 18.3591 67.0067 18.0806 67.7337 17.4102L69.2397 18.7415C68.3758 19.8132 67.1294 20.4694 65.4535 20.4694C62.6681 20.4694 60.6097 18.5149 60.6097 15.6776L60.605 15.6729ZM67.1436 14.8939C66.9878 13.7184 66.2985 12.9205 65.1891 12.9205C64.0797 12.9205 63.3904 13.6995 63.1827 14.8939H67.1436Z" fill="#010100"/>
<path d="M70.9624 10.985H73.592V12.5618C74.1302 11.2824 74.9942 10.7442 76.5474 10.8103V13.558H76.4105C74.6637 13.558 73.592 14.6108 73.592 16.8249V20.2476H70.9624V10.9756V10.985Z" fill="#010100"/>
<path d="M77.3594 10.985H80.1448L82.222 16.6124L84.3134 10.985H87.0469L83.3976 20.3232H81.0087L77.3594 10.985Z" fill="#010100"/>
<path d="M87.0806 15.6729V15.6398C87.0806 12.9961 88.9643 10.8149 91.6647 10.8149C94.7617 10.8149 96.178 13.2179 96.178 15.8475C96.178 16.0553 96.1591 16.296 96.1449 16.5415H89.696C89.9557 17.736 90.7866 18.3591 91.9621 18.3591C92.8449 18.3591 93.4823 18.0806 94.2093 17.4102L95.7153 18.7415C94.8514 19.8132 93.605 20.4694 91.9291 20.4694C89.1437 20.4694 87.0853 18.5149 87.0853 15.6776L87.0806 15.6729ZM93.6145 14.8939C93.4587 13.7184 92.7694 12.9205 91.66 12.9205C90.5505 12.9205 89.8613 13.6995 89.6535 14.8939H93.6145Z" fill="#010100"/>
<path d="M97.4385 10.985H100.068V12.5618C100.606 11.2824 101.47 10.7442 103.023 10.8103V13.558H102.887C101.14 13.558 100.068 14.6108 100.068 16.8249V20.2476H97.4385V10.9756V10.985Z" fill="#010100"/>
<path d="M54.8454 8.00598C52.3716 8.00598 50.606 9.46006 50.606 11.6553V11.6884C50.606 11.7639 50.6107 11.83 50.6154 11.9055L56.951 8.30341C56.2948 8.10984 55.5914 8.00598 54.8407 8.00598H54.8454Z" fill="#010100"/>
<path d="M55.8648 13.0387C55.2652 12.8876 54.8026 12.7554 54.4343 12.6279L51.682 14.1953C52.3807 14.7524 53.391 15.0781 54.6184 15.3944C56.6438 15.9138 57.0592 16.2584 57.0592 16.9335V16.9665C57.0592 17.6747 56.403 18.109 55.3124 18.109C53.9292 18.109 52.7867 17.5378 51.6961 16.6408L50.124 18.5245C51.5781 19.8228 53.4287 20.4601 55.2605 20.4601C57.8712 20.4601 59.703 19.1099 59.703 16.7069V16.6738C59.703 14.5635 58.3197 13.6807 55.8648 13.0434V13.0387Z" fill="#010100"/>
<path d="M46.8955 20.2854H50.0067L47.4809 16.5841L45.2856 17.8305L46.8955 20.2854Z" fill="#010100"/>
<path d="M45.7857 14.0961L49.8316 8.18066H46.7724L44.2277 12.1038L41.7067 8.18066H38.5908L42.6367 14.1291L40.0449 17.9154L46.0595 14.4974L45.7857 14.0961Z" fill="#010100"/>
<path d="M56.9553 8.30347L50.6196 11.9056C50.6668 12.9726 51.0398 13.6807 51.6866 14.1953L54.4389 12.6279C53.5231 12.3116 53.254 12.0142 53.254 11.4477V11.4146C53.254 10.8245 53.7922 10.3618 54.8119 10.3618C55.5862 10.3618 56.3793 10.6215 57.1866 11.07C57.4415 11.2116 57.7012 11.3769 57.9608 11.5562L59.0089 10.0361L59.3441 9.54982C58.6407 8.98329 57.8381 8.56784 56.9553 8.30819V8.30347Z" fill="#1C5B9C"/>
<path d="M46.059 14.4974L40.0444 17.9155L38.4204 20.2854H41.4466L44.1753 16.1356L45.2848 17.8305L47.4801 16.5841L46.059 14.4974Z" fill="#1C5B9C"/>
</svg>
