<svg width="150" height="55" viewBox="0 0 150 55" fill="none" xmlns="http://www.w3.org/2000/svg">
<path d="M0.984375 8C0.984375 3.58172 4.5661 0 8.98437 0H142C146.418 0 150 3.58172 150 8V47C150 51.4183 146.418 55 142 55H8.98438C4.5661 55 0.984375 51.4183 0.984375 47V8Z" fill="white"/>
<path d="M8.98438 0.5H142C146.142 0.5 149.5 3.85786 149.5 8V47C149.5 51.1421 146.142 54.5 142 54.5H8.98438C4.84224 54.5 1.48438 51.1421 1.48438 47V8C1.48438 3.85786 4.84224 0.5 8.98438 0.5Z" stroke="black" stroke-opacity="0.15"/>
<path d="M46.3021 12.6417C46.3611 12.6063 46.4807 12.5354 46.5397 12.5C46.671 12.5398 46.8009 12.5797 46.9322 12.621C46.9529 16.9876 46.9278 21.3557 46.9455 25.7223C46.947 26.1089 46.9426 26.497 46.916 26.8851C46.9116 22.7605 46.9116 18.636 46.9116 14.5114C46.8998 13.93 47.0119 13.322 46.8112 12.7612C46.6371 12.6859 46.4541 12.6476 46.2623 12.6476C41.7215 12.6889 37.1793 12.6358 32.6386 12.6756C32.7212 17.4097 32.6711 22.1452 32.6489 26.8792C32.5988 22.1334 32.6696 17.386 32.612 12.6402C37.1749 12.621 41.7392 12.6181 46.3021 12.6417Z" fill="#6A6A6A"/>
<path d="M125.183 12.776C126.106 12.4469 127.119 12.4985 128.065 12.7066C128.069 13.4253 128.065 14.1425 128.069 14.8596C127.532 14.6767 126.952 14.4583 126.385 14.6442C125.946 14.7593 125.586 15.1076 125.456 15.5414C125.227 16.2645 125.329 17.0363 125.321 17.7815C126.546 17.783 127.773 17.783 128.999 17.7815C129.003 16.9876 129 16.1937 129.003 15.3998C129.83 15.143 130.656 14.8862 131.488 14.6442C131.503 15.689 131.49 16.7338 131.496 17.7801C132.329 17.783 133.165 17.7801 133.999 17.7874C133.994 18.453 133.994 19.12 133.997 19.7855C133.162 19.8047 132.328 19.7973 131.494 19.7973C131.5 21.4752 131.485 23.1531 131.5 24.8309C131.519 25.3917 131.605 26.1163 132.204 26.3583C132.793 26.6534 133.441 26.407 134 26.1679C133.99 26.8423 133.994 27.5182 133.997 28.1926C132.793 28.6235 131.36 28.7607 130.23 28.0627C129.309 27.4754 129.027 26.314 129.005 25.2884C128.993 23.4585 129.009 21.6287 128.999 19.8003C127.77 19.8077 126.54 19.7678 125.313 19.8254C125.307 22.6499 125.314 25.4729 125.31 28.2974C124.474 28.2974 123.641 28.3077 122.807 28.2841C122.805 25.4566 122.814 22.6292 122.802 19.8018C122.23 19.7959 121.657 19.7988 121.086 19.7929C121.077 19.1244 121.079 18.4544 121.082 17.786C121.656 17.7801 122.231 17.783 122.807 17.783C122.83 16.8459 122.711 15.8779 123.018 14.9733C123.347 13.958 124.163 13.1065 125.183 12.776Z" fill="#6A6A6A"/>
<path d="M70.1996 13.4076C71.1854 12.9294 72.5046 13.8208 72.2995 14.9334C72.1726 16.1302 70.4593 16.5803 69.689 15.7023C68.9792 15.0353 69.2994 13.7322 70.1996 13.4076Z" fill="#6A6A6A"/>
<path d="M51.3195 13.6348C52.4307 13.5492 53.5507 13.6142 54.6664 13.5994C54.904 13.5345 55.0117 13.7617 55.081 13.9359C56.4726 17.4377 57.8288 20.9558 59.2455 24.4487C60.5795 21.2789 61.8397 18.0796 63.1472 14.8995C63.3346 14.4878 63.4365 14.0288 63.6947 13.654C64.1138 13.5345 64.5654 13.6171 64.9977 13.5964C65.7135 13.626 66.438 13.5345 67.1478 13.6437C67.1995 16.6349 67.1552 19.6291 67.17 22.6203C67.1552 24.5137 67.1995 26.407 67.1464 28.2988C66.3141 28.2959 65.4803 28.3003 64.648 28.2959C64.617 24.5624 64.6893 20.8259 64.6141 17.0939C64.4975 17.2886 64.3632 17.4746 64.2909 17.6915C62.9096 21.2258 61.4826 24.7439 60.1117 28.2841C59.5111 28.2959 58.909 28.3018 58.3084 28.2959C57.0157 25.1084 55.7451 21.9135 54.4553 18.726C54.2222 18.1475 54.0156 17.5572 53.7145 17.0097C53.6688 20.7683 53.7086 24.5299 53.6939 28.29C52.9 28.3062 52.1046 28.2929 51.3106 28.2974C51.3092 23.4113 51.29 18.5223 51.3195 13.6348Z" fill="#6A6A6A"/>
<path d="M76.0124 18.453C77.7316 17.3447 80.0558 17.2016 81.9034 18.0649C81.9594 18.8544 81.9107 19.6468 81.9225 20.4378C81.0371 19.8342 79.9554 19.4063 78.8693 19.6173C77.7463 19.7737 76.7989 20.6385 76.4728 21.7143C76.1216 22.8594 76.1821 24.1949 76.8373 25.2235C77.3877 26.0956 78.4547 26.5221 79.4581 26.4911C80.3539 26.4572 81.1877 26.0646 81.9181 25.5688C81.927 26.3288 81.9314 27.0902 81.9181 27.8517C80.376 28.6456 78.5048 28.7784 76.8712 28.1896C75.7467 27.7794 74.8038 26.9205 74.2755 25.8477C73.6572 24.6332 73.5966 23.2062 73.8328 21.884C74.0733 20.516 74.8377 19.2189 76.0124 18.453Z" fill="#6A6A6A"/>
<path d="M87.5818 17.9291C88.2725 17.5056 89.1254 17.5203 89.8854 17.7269C89.8825 18.5548 89.878 19.3827 89.8898 20.212C89.2022 19.8578 88.3433 19.6852 87.6173 20.0216C86.6964 20.5204 86.2921 21.6228 86.2729 22.6233C86.264 24.5092 86.2744 26.3967 86.27 28.2841C85.4465 28.3062 84.6216 28.2929 83.7982 28.2974C83.7804 24.7941 83.7937 21.2893 83.7923 17.7845C84.6039 17.7978 85.417 17.752 86.2272 17.8007C86.3201 18.3246 86.2449 18.8632 86.2803 19.393C86.6492 18.8558 86.9886 18.2523 87.5818 17.9291Z" fill="#6A6A6A"/>
<path d="M93.9834 17.6871C95.5049 17.3757 97.1975 17.4333 98.5611 18.2464C99.8051 18.9857 100.571 20.3552 100.757 21.7689C100.871 22.7901 100.873 23.8496 100.587 24.8442C100.199 26.2727 99.1587 27.5344 97.776 28.0922C96.4065 28.6456 94.8423 28.6943 93.4315 28.2679C92.0813 27.8591 90.9435 26.8099 90.4432 25.4891C89.94 24.1566 89.9046 22.6646 90.2617 21.2907C90.6808 19.5037 92.1772 18.0398 93.9834 17.6871ZM94.7213 19.6409C93.7532 19.8372 93.0154 20.6739 92.7778 21.6095C92.4723 22.824 92.4871 24.2008 93.1423 25.3017C93.9023 26.5737 95.738 26.8261 96.9717 26.1384C97.8896 25.6086 98.2025 24.4901 98.26 23.4984C98.3073 22.427 98.2349 21.2258 97.4882 20.3832C96.8138 19.6084 95.6864 19.421 94.7213 19.6409Z" fill="#6A6A6A"/>
<path d="M104.049 17.8686C105.45 17.3196 107.04 17.4539 108.431 17.9689C108.423 18.7289 108.435 19.4874 108.429 20.2459C107.578 19.7339 106.576 19.3797 105.572 19.514C105.045 19.5745 104.47 19.9759 104.507 20.5603C104.48 20.9912 104.758 21.3763 105.128 21.5711C106.112 22.1304 107.282 22.3798 108.119 23.1841C109.193 24.1492 109.254 25.9407 108.404 27.0696C107.805 27.8635 106.849 28.3092 105.881 28.4567C104.569 28.7091 103.214 28.4317 101.985 27.9594C101.98 27.1552 101.977 26.3524 101.985 25.5481C102.838 26.0927 103.8 26.5531 104.833 26.5649C105.308 26.5708 105.832 26.528 106.214 26.2093C106.661 25.7842 106.549 24.9741 106.038 24.648C105.053 23.9677 103.797 23.7596 102.894 22.9465C102.067 22.2308 101.828 21.0118 102.091 19.9818C102.318 18.9946 103.137 18.2434 104.049 17.8686Z" fill="#6A6A6A"/>
<path d="M113.914 17.7063C115.265 17.4023 116.734 17.4288 118.024 17.9675C119.256 18.481 120.186 19.5937 120.559 20.8657C120.971 22.2898 120.953 23.8496 120.459 25.2515C119.971 26.6446 118.815 27.7868 117.407 28.2369C115.507 28.8345 113.216 28.6353 111.683 27.2732C110.545 26.2683 110.021 24.7085 110.06 23.218C110.015 21.8663 110.346 20.4555 111.203 19.3856C111.872 18.5282 112.859 17.9483 113.914 17.7063ZM114.592 19.6778C113.646 19.9361 112.962 20.7861 112.76 21.7261C112.498 22.8565 112.523 24.1182 113.07 25.1645C113.855 26.6357 116.038 26.925 117.295 25.9171C118.096 25.2102 118.257 24.0724 118.294 23.0631C118.271 22.1127 118.139 21.062 117.453 20.3433C116.742 19.5686 115.569 19.4166 114.592 19.6778Z" fill="#6A6A6A"/>
<path d="M69.5311 17.7815C70.3575 17.783 71.1824 17.7815 72.0088 17.783C72.0206 21.2863 72.0162 24.7911 72.0088 28.2944C71.1824 28.2974 70.3545 28.3062 69.5281 28.2856C69.5311 24.7837 69.5252 21.2834 69.5311 17.7815Z" fill="#6A6A6A"/>
<path d="M51.4656 30.9108C52.5325 30.9049 53.5994 30.9035 54.6664 30.9064C55.6433 30.9226 56.6866 31.1322 57.42 31.8258C58.2272 32.5356 58.4929 33.697 58.3438 34.7285C58.1903 36.0212 57.1869 37.1368 55.9561 37.5161C54.9541 37.8658 53.8798 37.7625 52.838 37.7787C52.8306 39.1615 52.8395 40.5442 52.8335 41.9269C52.379 41.9328 51.926 41.9328 51.473 41.9225C51.4626 38.251 51.4789 34.5809 51.4656 30.9108ZM52.8395 32.1327C52.8454 33.6187 52.8335 35.1062 52.8468 36.5938C53.6393 36.61 54.4435 36.6306 55.2242 36.4654C56.0004 36.2853 56.7515 35.6965 56.8784 34.8746C56.9817 34.1013 56.967 33.1701 56.2911 32.6448C55.3098 31.8774 53.989 32.1873 52.8395 32.1327Z" fill="#6A6A6A"/>
<path d="M73.8726 32.1401C74.2961 32.0014 74.7241 31.8715 75.1476 31.7313C75.1506 32.4913 75.1491 33.2528 75.152 34.0142C75.8338 34.0113 76.5171 34.0128 77.2003 34.0113C77.1974 34.3891 77.1959 34.7683 77.19 35.1476C76.5097 35.1564 75.8294 35.1505 75.1506 35.18C75.152 36.6498 75.1461 38.1196 75.1506 39.5894C75.1771 40.0115 75.214 40.5117 75.5608 40.8054C76.0729 41.1109 76.675 40.984 77.1988 40.7877C77.1959 41.1522 77.1959 41.5182 77.1944 41.8841C76.43 42.1217 75.5549 42.2235 74.8141 41.8591C74.2002 41.5492 73.8726 40.8541 73.8726 40.1871C73.8726 38.5195 73.8697 36.8535 73.877 35.1859C73.4151 35.1594 72.9532 35.1623 72.4928 35.1431C72.484 34.7654 72.4795 34.3891 72.4825 34.0113C72.9459 34.0128 73.4078 34.0113 73.8711 34.0069C73.8741 33.3841 73.8711 32.7614 73.8726 32.1401Z" fill="#6A6A6A"/>
<path d="M60.218 34.5986C61.3956 33.9832 62.8034 33.6364 64.1094 34.0157C64.8694 34.2208 65.4714 34.8628 65.6618 35.6213C65.9201 36.6306 65.8477 37.6813 65.8566 38.7114C65.8448 39.7842 65.8832 40.857 65.8286 41.9299C65.3711 41.9343 64.9136 41.9328 64.4562 41.9166C64.4458 41.5964 64.437 41.2747 64.4207 40.9544C63.9293 41.3824 63.4615 41.9181 62.7857 42.0288C61.9504 42.1571 61.0089 42.1557 60.3021 41.6274C59.0389 40.7036 59.1909 38.4635 60.5825 37.7315C61.7719 37.0925 63.1708 37.2003 64.4606 36.9391C64.5108 36.2086 64.2746 35.2996 63.494 35.0531C62.34 34.7683 61.1299 35.2095 60.218 35.9194C60.2121 35.4781 60.2121 35.0384 60.218 34.5986ZM61.5313 38.4945C60.5884 38.8398 60.5647 40.342 61.4192 40.7995C62.34 41.2821 63.5796 40.9235 64.1138 40.0336C64.5477 39.4345 64.434 38.6715 64.434 37.9809C63.4674 38.1388 62.4522 38.1403 61.5313 38.4945Z" fill="#6A6A6A"/>
<path d="M81.6554 34.0024C82.5763 33.7442 83.689 33.7899 84.4268 34.4673C85.1617 35.1181 85.358 36.1525 85.3875 37.0881C85.389 38.6907 85.3801 40.2933 85.3904 41.8959C84.9492 41.9255 84.508 41.9446 84.0667 41.9225C84.0446 40.407 84.0726 38.8914 84.0535 37.3759C84.0121 36.7325 83.9605 36.0241 83.5296 35.5106C83.0013 34.8746 82.0362 34.848 81.3205 35.1343C80.4734 35.5298 80.0145 36.4742 80.0012 37.3788C79.982 38.8958 80.0041 40.4129 79.9923 41.9299C79.5481 41.9314 79.104 41.9299 78.6612 41.9092C78.6539 39.281 78.6613 36.6528 78.6568 34.0246C79.1276 34.0083 79.5998 34.0113 80.0735 34.0201C80.0676 34.3758 80.0735 34.7314 80.0897 35.0885C80.5634 34.668 81.0238 34.1751 81.6554 34.0024Z" fill="#6A6A6A"/>
<path d="M87.4712 35.8175C88.0275 34.7432 89.1372 33.936 90.3621 33.874C91.4777 33.7693 92.7261 34.1647 93.3356 35.1608C93.9672 36.0846 94.0174 37.2431 93.9702 38.3247C92.0886 38.3292 90.2071 38.3174 88.3256 38.3321C88.3728 39.2441 88.6813 40.2771 89.5681 40.708C90.8284 41.3485 92.3395 40.9338 93.4433 40.1605C93.4478 40.559 93.4492 40.9574 93.4478 41.3558C92.3248 42.0907 90.914 42.228 89.6169 42.0037C88.271 41.7321 87.2867 40.5162 87.0757 39.1925C86.9252 38.065 86.9148 36.8446 87.4712 35.8175ZM89.9061 35.0871C89.0162 35.397 88.516 36.3016 88.3522 37.184C89.7762 37.2165 91.2003 37.1929 92.6258 37.1973C92.5845 36.6085 92.5018 35.9695 92.0768 35.5224C91.5382 34.9321 90.6307 34.8554 89.9061 35.0871Z" fill="#6A6A6A"/>
<path d="M67.9772 34.0113C68.4347 34.0113 68.8936 34.0113 69.3511 34.0098C69.3466 34.4422 69.3496 34.8731 69.3791 35.304C69.7864 34.8244 70.145 34.2223 70.784 34.0305C71.2355 33.8401 71.7328 33.9021 72.1977 33.9965C72.1947 34.4274 72.1933 34.8583 72.1992 35.2907C71.603 35.1107 70.9242 34.9734 70.3737 35.3512C69.5665 35.9371 69.3038 37.0158 69.3481 37.9676C69.3511 39.284 69.3555 40.6018 69.3466 41.9196C68.8906 41.9343 68.4361 41.9314 67.9801 41.9328C67.9787 39.2928 67.9846 36.6513 67.9772 34.0113Z" fill="#6A6A6A"/>
<path d="M95.6628 34.0172C96.0996 34.0128 96.5394 34.0113 96.9776 34.0113C96.9732 34.4732 96.9703 34.9351 97.0027 35.397C97.3392 34.91 97.6565 34.3507 98.229 34.1102C98.7514 33.8386 99.3697 33.8622 99.9172 34.0467C99.9158 34.4658 99.9128 34.8849 99.9143 35.3055C99.3653 35.1608 98.775 34.9616 98.232 35.2391C97.3835 35.639 97.0558 36.6439 96.988 37.5175C96.9585 38.9873 96.988 40.4571 96.9762 41.9284C96.5334 41.9373 96.0922 41.9299 95.6525 41.8989C95.6687 39.2721 95.648 36.6439 95.6628 34.0172Z" fill="#6A6A6A"/>
<path d="M17.0405 12.6402C21.7893 12.6313 26.5381 12.6358 31.2869 12.6387C31.2544 17.3787 31.278 22.1186 31.2751 26.8586L31.2411 26.8571C26.5071 26.829 21.773 26.8364 17.039 26.8541C17.0449 22.1157 17.0434 17.3787 17.0405 12.6402Z" fill="#E74922"/>
<path d="M32.6386 12.6756C37.1793 12.6358 41.7215 12.6889 46.2623 12.6476C46.4541 12.6476 46.6371 12.6859 46.8112 12.7612C47.0119 13.322 46.8998 13.93 46.9116 14.5114C46.9116 18.636 46.9116 22.7605 46.916 26.8851C42.1613 26.9087 37.4036 26.9205 32.6489 26.8792C32.6711 22.1452 32.7212 17.4097 32.6386 12.6756Z" fill="#79B33E"/>
<path d="M17.039 26.8541C21.773 26.8364 26.5071 26.829 31.2411 26.8571C27.6832 26.9132 24.1238 26.8659 20.5659 26.8807C19.3721 26.8659 18.1767 26.9132 16.9844 26.8556L17.039 26.8541Z" fill="#3197D2"/>
<path d="M17.0552 28.2546C21.7863 28.2044 26.5189 28.2398 31.25 28.2369C31.3429 32.9842 31.2514 37.7359 31.2957 42.4833C26.5395 42.498 21.7819 42.5157 17.0272 42.4744C17.0478 37.7345 16.9918 32.993 17.0552 28.2546Z" fill="#3197D2"/>
<path d="M32.6947 28.2738C33.0282 28.2295 33.3661 28.2339 33.7041 28.2369C38.109 28.2487 42.5155 28.2251 46.9219 28.2487C46.9588 32.993 46.9352 37.7374 46.9308 42.4818C42.1657 42.4803 37.4007 42.5054 32.6356 42.47C32.643 38.1654 32.6489 33.8608 32.6386 29.5576C32.6504 29.1297 32.5929 28.6929 32.6947 28.2738Z" fill="#F7B424"/>
</svg>
