<svg width="107" height="55" viewBox="0 0 107 55" fill="none" xmlns="http://www.w3.org/2000/svg">
<rect x="0.984375" width="106" height="55" rx="8" fill="white"/>
<rect x="1.48438" y="0.5" width="105" height="54" rx="7.5" stroke="black" stroke-opacity="0.15"/>
<path d="M27.5601 12.7534C28.0753 12.3324 28.6746 12.5289 29.248 12.6822C31.1988 12.585 33.044 13.3277 34.8417 13.9862C36.8982 15.0354 38.8231 16.4625 40.179 18.3559C41.4033 19.7246 42.1212 21.4367 42.7333 23.1444C42.9166 24.049 43.3089 24.9277 43.2485 25.869C43.2076 26.5814 43.6344 27.2593 43.4274 27.9761C43.2227 28.5439 43.2485 29.1441 43.2291 29.7356C42.9166 31.9097 42.0263 33.9585 40.9183 35.8368C40.0518 36.8385 39.4073 38.0756 38.2562 38.7902C36.092 40.839 33.2121 42.0199 30.2956 42.4798C29.498 42.5165 28.6983 42.4949 27.9007 42.4798C28.666 40.5475 29.2609 38.5527 30.0606 36.6312C30.4163 35.7936 30.5241 34.8501 30.9961 34.0707C32.4813 34.0513 33.9666 34.0988 35.4496 34.0513C35.857 33.9088 36.2579 33.721 36.6136 33.4749C37.2129 32.594 37.4047 31.5189 37.7669 30.5323C38.3208 29.1225 38.8015 27.6868 39.334 26.2705C39.6573 24.9881 40.5217 23.818 40.4419 22.4557C40.1445 21.8425 39.7026 21.1107 38.9244 21.1215C36.8594 21.115 34.7943 21.1107 32.7314 21.1258C32.3369 21.6137 32.2227 22.2441 32.005 22.8162C31.0026 25.3098 30.2158 27.8811 29.2092 30.3725C28.7974 31.7218 28.2736 33.028 27.7886 34.3514C27.2131 35.6964 26.9027 37.1407 26.3099 38.4814C25.8184 39.6473 25.3981 40.8433 25.0747 42.0674C24.2039 42.0804 23.4149 41.6378 22.6109 41.355C20.8606 40.7548 19.4099 39.5695 17.9936 38.4188C17.5172 37.687 16.8037 37.1537 16.3252 36.4218C14.6999 34.3169 13.8678 31.7132 13.4971 29.1052C13.5122 27.486 13.3548 25.8387 13.842 24.267C14.2709 21.8533 15.4845 19.634 17.0646 17.7838C18.0583 16.3114 19.6642 15.4586 21.0804 14.4612C22.0375 13.7595 23.2296 13.5522 24.3203 13.142C23.7641 15.4672 22.7187 17.6369 21.9879 19.9081C20.4769 23.9583 19.0412 28.0365 17.5625 32.0996C17.3297 32.743 16.9654 33.3583 16.9245 34.0578C17.9203 34.0772 18.9141 34.0751 19.91 34.0599C20.52 32.3479 21.1667 30.651 21.712 28.9152C22.5247 27.0132 23.1455 25.0399 23.8913 23.1142C24.594 22.6651 25.4477 22.8788 26.2301 22.8508C26.2194 24.0295 25.5533 25.0594 25.2192 26.1626C24.6652 27.9955 23.8655 29.7399 23.2835 31.5621C23.0334 32.4213 22.654 33.2331 22.3458 34.0707C23.3309 34.0686 24.3181 34.0751 25.3032 34.0621C25.4692 33.8397 25.6115 33.6023 25.6999 33.3389C26.8229 30.1631 27.974 26.9981 29.1574 23.846C29.3062 23.261 29.2113 22.6457 29.2135 22.0498C28.8319 21.6785 28.4504 21.2488 27.9072 21.1344C26.8337 21.0891 25.7602 21.1431 24.6867 21.1107C24.6609 20.5709 25.0144 20.1305 25.161 19.634C25.868 17.3066 26.948 15.1132 27.5601 12.7534Z" fill="#024AD8"/>
<path d="M35.3246 22.8659C36.1092 22.8097 36.896 22.84 37.6806 22.8529C36.5252 25.7804 35.6199 28.8181 34.3675 31.6938C33.6561 31.7002 32.947 31.7153 32.2378 31.6851C32.2615 30.3941 33.0159 29.2714 33.3587 28.0538C33.9062 26.821 34.1972 25.4955 34.7447 24.2649C34.9624 23.8093 34.9603 23.2372 35.3246 22.8659Z" fill="#024AD8"/>
<path d="M55.8844 26C55.8294 26 55.8044 25.975 55.8044 25.92L55.8394 22.44L55.8044 19.08C55.8044 19.025 55.8294 19 55.8844 19H58.7194C60.1394 19 61.1594 19.55 61.1594 20.705C61.1594 21.56 60.7194 22.04 59.9094 22.265C60.8994 22.495 61.3544 23.11 61.3594 23.905C61.3594 25.405 60.1194 26 58.7494 26H55.8844ZM57.0144 21.89H58.7244C59.4694 21.89 59.9344 21.585 59.9344 20.89C59.9344 20.185 59.4194 19.865 58.7244 19.865H57.0444L57.0144 21.89ZM57.0444 25.13H58.7244C59.5344 25.13 60.1194 24.83 60.1194 23.91C60.1194 23.065 59.4694 22.755 58.7244 22.755H57.0144L57.0444 25.13ZM63.5295 26.12C62.4545 26.12 61.7695 25.405 61.7695 24.095V23.045L61.7445 20.93C61.7445 20.875 61.7745 20.85 61.8295 20.85H62.8845C62.9345 20.85 62.9645 20.875 62.9645 20.93L62.9445 23.045V24.065C62.9445 24.835 63.3345 25.225 63.8845 25.225C64.4895 25.225 65.0545 24.705 65.1545 23.65V23.045L65.1345 20.93C65.1345 20.875 65.1645 20.85 65.2195 20.85H66.2895C66.3395 20.85 66.3695 20.875 66.3695 20.93L66.3445 23.255L66.3545 25.92C66.3545 25.97 66.3245 26 66.2745 26H65.2695C65.2195 26 65.1895 25.975 65.1945 25.915L65.2145 25.225C64.8845 25.715 64.2995 26.12 63.5295 26.12ZM69.1715 26.115C67.7315 26.115 66.8165 25.515 66.7765 24.34C66.7765 24.29 66.8065 24.26 66.8565 24.26H67.8615C67.9115 24.26 67.9415 24.29 67.9415 24.34C67.9765 25.04 68.4165 25.355 69.2265 25.355C69.9015 25.355 70.3165 25.075 70.3165 24.58C70.3165 23.39 66.8915 24.415 66.8915 22.305C66.8915 21.28 67.7315 20.735 69.0365 20.735C70.3065 20.735 71.2015 21.245 71.2815 22.31C71.2865 22.37 71.2515 22.4 71.2015 22.4H70.2415C70.1915 22.4 70.1615 22.37 70.1565 22.32C70.0865 21.77 69.6965 21.48 69.0215 21.48C68.4215 21.48 68.0415 21.71 68.0415 22.22C68.0415 23.37 71.4615 22.305 71.4615 24.48C71.4615 25.52 70.4865 26.115 69.1715 26.115ZM71.9879 20.31C71.9329 20.31 71.9029 20.28 71.9029 20.23V19.24C71.9029 19.19 71.9329 19.16 71.9879 19.16H73.0429C73.0929 19.16 73.1229 19.19 73.1229 19.24V20.23C73.1229 20.28 73.0929 20.31 73.0429 20.31H71.9879ZM71.9779 26C71.9279 26 71.8979 25.975 71.8979 25.92L71.9229 23.385L71.8979 20.93C71.8979 20.875 71.9279 20.85 71.9779 20.85H73.0429C73.0929 20.85 73.1229 20.875 73.1229 20.93L73.0979 23.385L73.1229 25.92C73.1229 25.975 73.0929 26 73.0429 26H71.9779ZM73.7886 26C73.7386 26 73.7086 25.975 73.7086 25.92L73.7336 23.595L73.7236 20.93C73.7236 20.88 73.7536 20.85 73.8036 20.85H74.8086C74.8586 20.85 74.8886 20.875 74.8886 20.935L74.8636 21.625C75.1936 21.135 75.7786 20.73 76.5536 20.73C77.6236 20.73 78.3136 21.445 78.3136 22.755V23.805L78.3336 25.92C78.3336 25.975 78.3036 26 78.2486 26H77.1936C77.1436 26 77.1136 25.975 77.1136 25.92L77.1336 23.805V22.785C77.1336 22.015 76.7436 21.625 76.1986 21.625C75.5886 21.625 75.0286 22.145 74.9236 23.2V23.805L74.9436 25.92C74.9436 25.975 74.9136 26 74.8586 26H73.7886ZM81.2505 26.12C79.5905 26.12 78.6955 25.01 78.6955 23.44C78.6955 21.82 79.6455 20.73 81.2105 20.73C82.8055 20.73 83.7105 21.795 83.7405 23.55C83.7405 23.6 83.7055 23.63 83.6555 23.63H79.9105C79.9505 24.795 80.4305 25.31 81.2655 25.31C81.9005 25.31 82.3105 24.99 82.4505 24.355C82.4655 24.31 82.4955 24.285 82.5405 24.285H83.5355C83.5905 24.285 83.6255 24.305 83.6205 24.345C83.4855 25.33 82.6405 26.12 81.2505 26.12ZM79.9405 22.85H82.4405C82.3955 22.15 82.0055 21.535 81.2205 21.535C80.4855 21.535 80.0655 22.005 79.9405 22.85ZM86.3102 26.115C84.8702 26.115 83.9552 25.515 83.9152 24.34C83.9152 24.29 83.9452 24.26 83.9952 24.26H85.0002C85.0502 24.26 85.0802 24.29 85.0802 24.34C85.1152 25.04 85.5552 25.355 86.3652 25.355C87.0402 25.355 87.4552 25.075 87.4552 24.58C87.4552 23.39 84.0302 24.415 84.0302 22.305C84.0302 21.28 84.8702 20.735 86.1752 20.735C87.4452 20.735 88.3402 21.245 88.4202 22.31C88.4252 22.37 88.3902 22.4 88.3402 22.4H87.3802C87.3302 22.4 87.3002 22.37 87.2952 22.32C87.2252 21.77 86.8352 21.48 86.1602 21.48C85.5602 21.48 85.1802 21.71 85.1802 22.22C85.1802 23.37 88.6002 22.305 88.6002 24.48C88.6002 25.52 87.6252 26.115 86.3102 26.115ZM91.2516 26.115C89.8116 26.115 88.8966 25.515 88.8566 24.34C88.8566 24.29 88.8866 24.26 88.9366 24.26H89.9416C89.9916 24.26 90.0216 24.29 90.0216 24.34C90.0566 25.04 90.4966 25.355 91.3066 25.355C91.9816 25.355 92.3966 25.075 92.3966 24.58C92.3966 23.39 88.9716 24.415 88.9716 22.305C88.9716 21.28 89.8116 20.735 91.1166 20.735C92.3866 20.735 93.2816 21.245 93.3616 22.31C93.3666 22.37 93.3316 22.4 93.2816 22.4H92.3216C92.2716 22.4 92.2416 22.37 92.2366 22.32C92.1666 21.77 91.7766 21.48 91.1016 21.48C90.5016 21.48 90.1216 21.71 90.1216 22.22C90.1216 23.37 93.5416 22.305 93.5416 24.48C93.5416 25.52 92.5666 26.115 91.2516 26.115ZM55.8844 36C55.8294 36 55.8044 35.975 55.8044 35.92L55.8394 32.45L55.8044 29.08C55.8044 29.025 55.8294 29 55.8844 29H58.3494C59.9644 29 60.9244 29.735 60.9244 31.185C60.9244 32.645 59.9344 33.435 58.3544 33.435H57.0294L57.0494 35.92C57.0494 35.975 57.0194 36 56.9694 36H55.8844ZM57.0194 32.535H58.4344C59.1794 32.535 59.7394 32.16 59.7394 31.205C59.7394 30.315 59.2494 29.9 58.3944 29.9H57.0394L57.0194 32.535ZM63.1216 36.095C61.6966 36.095 60.9416 34.935 60.9416 33.435C60.9416 31.95 61.7666 30.75 63.1466 30.75C63.8366 30.75 64.3666 31.03 64.7066 31.545L64.6816 30.935C64.6766 30.88 64.7116 30.85 64.7616 30.85H65.8116C65.8616 30.85 65.8916 30.875 65.8916 30.93L65.8666 33.4L65.8916 35.92C65.8916 35.975 65.8616 36 65.8116 36H64.7666C64.7166 36 64.6866 35.97 64.6916 35.92L64.7066 35.26C64.3616 35.785 63.8266 36.095 63.1216 36.095ZM63.4466 35.285C64.2566 35.285 64.7216 34.675 64.7316 33.465C64.7416 32.25 64.2866 31.57 63.4716 31.565C62.5966 31.55 62.1666 32.245 62.1666 33.365C62.1666 34.565 62.6016 35.29 63.4466 35.285ZM66.5132 36C66.4582 36 66.4282 35.975 66.4282 35.92L66.4582 33.395L66.4282 30.93C66.4282 30.875 66.4582 30.85 66.5132 30.85H67.5482C67.5982 30.85 67.6282 30.875 67.6282 30.935L67.5932 31.765C67.9732 31.135 68.6532 30.805 69.3882 30.805C69.4832 30.805 69.5832 30.815 69.6682 30.835C69.7132 30.845 69.7382 30.88 69.7382 30.925V31.665C69.7382 31.715 69.7082 31.745 69.6532 31.74C69.5832 31.725 69.4982 31.72 69.4132 31.72C68.4482 31.72 67.6732 32.28 67.6232 33.445L67.6332 35.92C67.6332 35.97 67.6032 36 67.5532 36H66.5132ZM72.0955 36.09C71.2855 36.09 70.5505 35.685 70.5505 34.54L70.5605 31.71H69.9755C69.9205 31.71 69.8905 31.68 69.8905 31.63V30.93C69.8905 30.88 69.9255 30.85 69.9755 30.85H70.5555L70.5455 29.64C70.5455 29.585 70.5755 29.56 70.6305 29.56H71.6755C71.7255 29.56 71.7605 29.585 71.7605 29.64L71.7505 30.85H72.9205C72.9705 30.85 73.0005 30.88 73.0005 30.93V31.63C73.0005 31.68 72.9705 31.71 72.9205 31.71H71.7455L71.7505 34.51C71.7505 35.05 71.9655 35.22 72.3505 35.22C72.5655 35.22 72.7555 35.19 72.9005 35.145C72.9605 35.13 72.9955 35.16 72.9955 35.22V35.855C72.9955 35.9 72.9755 35.93 72.9355 35.945C72.6805 36.025 72.3805 36.09 72.0955 36.09ZM73.437 36C73.387 36 73.357 35.975 73.357 35.92L73.382 33.595L73.372 30.93C73.372 30.88 73.402 30.85 73.452 30.85H74.457C74.507 30.85 74.537 30.875 74.537 30.935L74.512 31.625C74.842 31.135 75.427 30.73 76.202 30.73C77.272 30.73 77.962 31.445 77.962 32.755V33.805L77.982 35.92C77.982 35.975 77.952 36 77.897 36H76.842C76.792 36 76.762 35.975 76.762 35.92L76.782 33.805V32.785C76.782 32.015 76.392 31.625 75.847 31.625C75.237 31.625 74.677 32.145 74.572 33.2V33.805L74.592 35.92C74.592 35.975 74.562 36 74.507 36H73.437ZM80.899 36.12C79.239 36.12 78.344 35.01 78.344 33.44C78.344 31.82 79.294 30.73 80.859 30.73C82.454 30.73 83.359 31.795 83.389 33.55C83.389 33.6 83.354 33.63 83.304 33.63H79.559C79.599 34.795 80.079 35.31 80.914 35.31C81.549 35.31 81.959 34.99 82.099 34.355C82.114 34.31 82.144 34.285 82.189 34.285H83.184C83.239 34.285 83.274 34.305 83.269 34.345C83.134 35.33 82.289 36.12 80.899 36.12ZM79.589 32.85H82.089C82.044 32.15 81.654 31.535 80.869 31.535C80.134 31.535 79.714 32.005 79.589 32.85ZM83.8667 36C83.8117 36 83.7817 35.975 83.7817 35.92L83.8117 33.395L83.7817 30.93C83.7817 30.875 83.8117 30.85 83.8667 30.85H84.9017C84.9517 30.85 84.9817 30.875 84.9817 30.935L84.9467 31.765C85.3267 31.135 86.0067 30.805 86.7417 30.805C86.8367 30.805 86.9367 30.815 87.0217 30.835C87.0667 30.845 87.0917 30.88 87.0917 30.925V31.665C87.0917 31.715 87.0617 31.745 87.0067 31.74C86.9367 31.725 86.8517 31.72 86.7667 31.72C85.8017 31.72 85.0267 32.28 84.9767 33.445L84.9867 35.92C84.9867 35.97 84.9567 36 84.9067 36H83.8667Z" fill="black"/>
</svg>
