<svg width="92" height="92" viewBox="0 0 92 92" fill="none" xmlns="http://www.w3.org/2000/svg">
<g clip-path="url(#clip0_7411_107)">
<path fill-rule="evenodd" clip-rule="evenodd" d="M44.8117 34.5C46.0767 36.0333 47.7634 35.65 49.0667 34.27C49.5209 33.6048 49.6989 32.7891 49.563 31.9952C49.4271 31.2013 48.988 30.4912 48.3384 30.015C47.7381 29.6536 47.0265 29.5239 46.3373 29.6503C45.6481 29.7766 45.0288 30.1503 44.5957 30.7011C44.1626 31.2518 43.9456 31.9418 43.9854 32.6414C44.0251 33.3409 44.319 34.0018 44.8117 34.5Z" fill="#F03240"/>
<path fill-rule="evenodd" clip-rule="evenodd" d="M53.9734 34.4999C55.2384 36.0333 56.9251 35.6499 58.2284 34.2699C58.6482 33.6142 58.8063 32.8247 58.6714 32.058C58.5365 31.2912 58.1184 30.603 57.5001 30.1299C56.9138 29.8377 56.2452 29.7546 55.6051 29.8942C54.9651 30.0338 54.3919 30.3878 53.9805 30.8976C53.569 31.4074 53.3441 32.0424 53.3428 32.6975C53.3415 33.3526 53.564 33.9885 53.9734 34.4999Z" fill="#F03240"/>
<path fill-rule="evenodd" clip-rule="evenodd" d="M44.1599 14.605C45.4249 16.1383 47.1116 15.7933 48.4149 14.4133C48.8597 13.7452 49.0321 12.9322 48.8967 12.141C48.7613 11.3498 48.3283 10.6405 47.6866 10.1583C47.0907 9.82556 46.3959 9.71565 45.7264 9.84823C45.0569 9.98081 44.4564 10.3472 44.0324 10.882C43.6083 11.4167 43.3882 12.0848 43.4116 12.7669C43.435 13.449 43.7002 14.1005 44.1599 14.605Z" fill="#F03240"/>
<path fill-rule="evenodd" clip-rule="evenodd" d="M57.5001 14.4133C57.9449 13.7452 58.1173 12.9322 57.9819 12.141C57.8465 11.3498 57.4135 10.6405 56.7718 10.1583C56.1759 9.82556 55.4811 9.71565 54.8116 9.84823C54.1421 9.98081 53.5417 10.3472 53.1176 10.882C52.6935 11.4167 52.4734 12.0848 52.4968 12.7669C52.5202 13.449 52.7854 14.1005 53.2451 14.605C54.5868 16.1383 56.2735 15.7933 57.5001 14.4133Z" fill="#F03240"/>
<path fill-rule="evenodd" clip-rule="evenodd" d="M86.9017 22.6549C93.2267 19.3966 93.7633 5.17494 86.4417 1.80161C79.8483 -1.26506 54.0117 0.421606 46.8817 0.766606C46.5599 0.820794 46.2678 0.987219 46.0571 1.23634C45.8464 1.48547 45.7309 1.80118 45.7309 2.12744C45.7309 2.4537 45.8464 2.76941 46.0571 3.01854C46.2678 3.26766 46.5599 3.43408 46.8817 3.48827C52.9767 3.48827 79.12 2.72161 84.6017 5.48161C87.9366 7.16827 87.8217 13.7616 86.2117 16.9816C85.215 18.9366 85.1767 18.9366 76.015 19.5499C70.1117 19.8949 47.0733 20.9299 45.77 20.9299C44.1332 21.0221 42.4938 20.8009 40.94 20.2783C34.5 17.1349 36.6083 3.83327 42.6267 4.21661C42.7828 4.22701 42.9394 4.20647 43.0876 4.15618C43.2358 4.10588 43.3725 4.02682 43.4901 3.92353C43.6076 3.82025 43.7036 3.69476 43.7725 3.55429C43.8414 3.41381 43.8819 3.26111 43.8917 3.10494C44.0833 0.268273 35.4583 1.41827 34.1933 11.2699C33.7917 13.467 34.0174 15.7329 34.8446 17.8076C35.6718 19.8822 37.0669 21.6818 38.87 22.9999C32.5833 26.4499 31.2033 39.5599 38.87 43.7383C40.3632 44.4367 41.9772 44.8402 43.6233 44.9266C46.9967 45.2716 80.73 44.9266 85.79 43.3549C92.2683 41.0549 93.6483 26.8333 86.9017 22.6549ZM85.8666 37.3749C84.87 39.3299 84.8317 39.3299 75.7083 39.9049C70.495 40.2116 46.69 41.3233 45.425 41.2849C43.7883 41.3743 42.1495 41.1532 40.595 40.6333C34.0783 37.4899 36.225 24.3033 42.205 24.5716C47.61 24.9166 69.0383 24.5716 74.75 24.1883C78.0111 24.2323 81.245 24.7885 84.3333 25.8366C87.63 27.5233 87.515 34.1166 85.8666 37.3749Z" fill="#020202"/>
<path fill-rule="evenodd" clip-rule="evenodd" d="M19.1667 67.0449C19.2763 65.0213 19.0824 62.9928 18.5917 61.0265C16.675 55.2765 10.925 57.0015 8.08837 56.9632C5.98003 56.9632 -0.613299 56.5032 0.421701 59.1099C0.540789 59.3979 0.768235 59.6275 1.05504 59.7494C1.34184 59.8713 1.66505 59.8757 1.95503 59.7615C3.85616 59.5038 5.78714 59.5686 7.6667 59.9532C11.5 60.3366 14.1834 59.3016 14.605 62.6749V84.9465C14.605 87.5915 14.375 88.3199 10.12 88.7799C7.55951 88.9411 4.98906 88.8254 2.45337 88.4349C2.27969 88.4022 2.10128 88.404 1.9283 88.4402C1.75533 88.4764 1.59118 88.5464 1.44524 88.646C1.2993 88.7457 1.17441 88.8732 1.07772 89.0211C0.98103 89.169 0.914422 89.3345 0.881701 89.5082C0.84898 89.6819 0.850787 89.8603 0.887019 90.0333C0.92325 90.2063 0.993197 90.3704 1.09287 90.5163C1.19253 90.6623 1.31997 90.7872 1.4679 90.8839C1.61583 90.9806 1.78136 91.0472 1.95503 91.0799C4.69802 91.6945 7.5007 92.003 10.3117 91.9999C14.145 91.9999 16.7517 91.4249 17.9784 88.1666C19.3584 87.8982 19.1667 67.4282 19.1667 67.0449Z" fill="#F03240"/>
<path fill-rule="evenodd" clip-rule="evenodd" d="M80.5001 70.7632C80.0532 69.7288 79.3231 68.8417 78.3939 68.2042C77.4648 67.5667 76.3744 67.2047 75.2485 67.1599C75.4456 65.8781 75.2932 64.5669 74.8073 63.3645C74.3214 62.1621 73.5201 61.1131 72.4878 60.3281C71.4555 59.5431 70.2306 59.0512 68.9421 58.9043C67.6536 58.7573 66.3493 58.9608 65.1668 59.4932C61.5862 61.2006 58.3506 63.5525 55.6218 66.4315C53.7051 68.0415 50.1401 70.6099 48.5685 71.7599L48.0701 72.1815C45.3567 72.1073 42.6694 71.6293 40.0968 70.7632C39.5985 70.5715 39.1001 70.5715 39.0235 70.2265C38.9468 69.8815 39.2535 69.4599 39.7135 68.8465C44.4668 62.3682 50.4851 60.1065 46.2301 53.5132C43.0101 48.6065 34.3851 53.2832 29.5935 56.6565L22.5785 60.9499C22.3146 61.1459 22.1294 61.4297 22.0562 61.7502C21.983 62.0706 22.0266 62.4067 22.1791 62.6979C22.3316 62.9891 22.5831 63.2162 22.8882 63.3385C23.1933 63.4608 23.5321 63.4701 23.8435 63.3649L31.1268 59.0715C33.6185 57.4615 41.7068 52.8615 43.2018 55.2382C45.7701 59.4165 41.2468 60.2215 36.4935 66.3549C34.1168 69.3832 34.6535 71.4532 36.0718 72.9099C38.1907 74.413 40.6329 75.3977 43.2018 75.7849C52.2101 78.0465 67.3518 73.0249 70.6485 72.3349C73.2935 71.7982 75.2101 70.5715 76.3601 72.7565C77.5101 74.9415 72.5268 77.6632 70.5718 78.8515C59.4935 86.5182 40.1351 86.2499 27.4085 83.2982C27.0251 83.2982 27.1785 83.2982 22.5401 84.3715C18.7068 86.2882 19.8568 87.5532 22.5401 86.9782L27.0635 85.9815C41.1318 89.5849 60.5668 90.3899 73.0635 82.5315C77.7018 79.5799 83.0301 75.7849 80.5001 70.7632ZM72.2201 67.4665C64.8218 69.0382 61.0651 70.6865 54.4718 71.5682C54.1268 71.5682 55.2001 71.2615 57.9218 69.6899C61.7551 67.2749 66.8918 62.0232 69.8435 63.2115C70.6792 63.5165 71.3726 64.1198 71.7902 64.9054C72.2077 65.691 72.3199 66.6032 72.1051 67.4665H72.2201Z" fill="#020202"/>
</g>
<defs>
<clipPath id="clip0_7411_107">
<rect width="92" height="92" fill="white"/>
</clipPath>
</defs>
</svg>
