<svg width="80" height="44" viewBox="0 0 80 44" fill="none" xmlns="http://www.w3.org/2000/svg">
<path fill-rule="evenodd" clip-rule="evenodd" d="M79.9427 12.5359C78.4114 6.94327 68.4246 2.88196 65.1955 0.518405C64.9997 0.416171 64.7754 0.381756 64.558 0.420547C64.3405 0.459339 64.142 0.569147 63.9936 0.732784C63.8452 0.89642 63.7552 1.10465 63.7378 1.32488C63.7203 1.5451 63.7764 1.76489 63.8972 1.94985C67.9296 5.02371 71.755 8.35988 75.3488 11.9367C63.3644 10.3875 51.2668 9.89732 39.1964 10.472C37.8316 10.472 36.5999 10.2056 36.6997 11.2376C36.1338 12.6691 37.4654 12.5026 39.0966 12.6691C50.7345 14.2227 62.4879 14.7352 74.2169 14.2004C70.3898 17.1093 66.3629 19.7457 62.1661 22.09C61.866 22.09 61.5781 22.2092 61.3658 22.4215C61.1536 22.6337 61.0343 22.9216 61.0343 23.2218C61.0343 23.522 61.1536 23.8099 61.3658 24.0221C61.5781 24.2344 61.866 24.3536 62.1661 24.3536C63.298 24.3536 77.6457 17.6958 79.6431 14.3668C79.9712 13.8165 80.0783 13.1621 79.9427 12.5359Z" fill="#F03240"/>
<path fill-rule="evenodd" clip-rule="evenodd" d="M38.4974 30.3456C33.7313 29.5084 28.9168 28.9747 24.0831 28.7477C20.7541 28.5813 17.4252 28.7477 14.5623 28.7477C5.37443 28.7477 5.94035 29.4135 7.07219 28.4481C19.4559 18.0951 18.4905 19.693 18.6569 19.0272C18.8234 18.3614 18.4572 17.3628 17.0923 17.8954C12.3657 20.5153 7.78701 23.3937 3.37706 26.5173C0.0481224 28.9475 -1.38332 30.4122 1.71259 32.9422C4.04285 34.8397 17.5917 43.6281 19.4559 43.5948C19.756 43.5948 20.0439 43.4756 20.2562 43.2633C20.4684 43.0511 20.5877 42.7632 20.5877 42.463C20.5877 42.1628 20.4684 41.8749 20.2562 41.6627C20.0439 41.4504 19.756 41.3312 19.4559 41.3312C16.593 39.4004 11.5663 36.0714 5.74061 31.3443C13.7634 31.9768 15.1615 32.3097 22.918 32.5094C28.5772 32.6759 37.1325 32.1433 37.9315 32.2764C38.0583 32.3136 38.1911 32.3254 38.3225 32.3112C38.4538 32.297 38.5811 32.2571 38.697 32.1937C38.8129 32.1304 38.9152 32.0448 38.9981 31.9419C39.0809 31.839 39.1427 31.7208 39.1798 31.594C39.217 31.4672 39.2288 31.3344 39.2146 31.203C39.2005 31.0717 39.1605 30.9444 39.0972 30.8285C39.0338 30.7126 38.9482 30.6103 38.8453 30.5274C38.7424 30.4446 38.6242 30.3828 38.4974 30.3456Z" fill="#262626"/>
</svg>
