<svg width="92" height="92" viewBox="0 0 92 92" fill="none" xmlns="http://www.w3.org/2000/svg">
<g clip-path="url(#clip0_7411_89)">
<path fill-rule="evenodd" clip-rule="evenodd" d="M20.7384 78.2767C20.4331 77.2935 19.8938 76.399 19.1667 75.67C18.6493 75.1507 18.0379 74.7345 17.3651 74.4434C18.8328 73.1865 19.888 71.5168 20.3934 69.6517C20.7337 68.5745 20.8457 67.4381 20.7222 66.3151C20.5987 65.1922 20.2424 64.1073 19.6761 63.1298C19.1098 62.1523 18.3459 61.3035 17.4331 60.6378C16.5204 59.9721 15.4789 59.504 14.3751 59.2634C14.9689 57.936 15.6608 56.6547 16.4451 55.43C16.7901 54.8934 17.0967 54.3567 17.4034 53.82C17.6936 53.2417 18.0135 52.6788 18.3617 52.1334C18.6899 51.6527 19.0621 51.2035 19.4734 50.7917H19.7417C21.3114 50.9023 22.887 50.9023 24.4567 50.7917C25.4534 51.8267 26.2201 52.9384 27.1017 54.05C27.9834 55.1617 28.0984 55.2384 29.0567 56.4267C30.0151 57.615 31.2034 55.7367 30.9734 53.7817C30.7434 51.8267 30.7434 51.5584 29.7467 50.6767C29.2508 50.0971 28.6842 49.582 28.0601 49.1434C29.5016 47.9182 30.543 46.2893 31.0501 44.4667C31.4008 43.3582 31.5107 42.1876 31.3725 41.0333C31.2343 39.8789 30.8512 38.7673 30.2488 37.7729C29.6463 36.7785 28.8385 35.9243 27.8793 35.2673C26.9201 34.6103 25.8316 34.1658 24.6867 33.9634C23.3422 33.7316 21.9679 33.7316 20.6234 33.9634C19.595 34.1407 18.6154 34.5326 17.7484 35.1134C16.3547 36.0884 15.2326 37.4026 14.4881 38.9319C13.7436 40.4612 13.4012 42.155 13.4934 43.8534C13.5614 44.8947 13.8412 45.9112 14.3158 46.8406C14.7904 47.77 15.4497 48.5927 16.2534 49.2584C15.3274 49.6497 14.4521 50.1517 13.6467 50.7534C13.0529 51.3405 12.5491 52.0122 12.1517 52.7467C11.7665 53.4796 11.4582 54.2504 11.2317 55.0467C10.9301 56.3921 10.8013 57.7704 10.8484 59.1484C10.5548 59.1292 10.2603 59.1292 9.96673 59.1484C8.93165 59.3226 7.94142 59.7004 7.05339 60.26C5.67015 61.2451 4.55593 62.5612 3.81261 64.0881C3.06928 65.6149 2.72059 67.3037 2.79839 69C2.86124 70.048 3.13864 71.0718 3.6134 72.0082C4.08817 72.9445 4.75017 73.7734 5.55839 74.4434C4.63359 74.8213 3.75826 75.3105 2.95173 75.9C2.36605 76.5084 1.86337 77.1916 1.45673 77.9317C1.06533 78.6483 0.756683 79.4071 0.536726 80.1934C0.0967532 81.9334 -0.0840829 83.7289 5.9532e-05 85.5217C-0.0383593 85.7161 -0.036722 85.9162 0.00487112 86.11C0.0464643 86.3037 0.127139 86.4869 0.24196 86.6483C0.356782 86.8098 0.503337 86.9461 0.67266 87.049C0.841984 87.1519 1.03052 87.2192 1.22673 87.2467C1.62083 87.2925 2.01769 87.1876 2.33764 86.953C2.65759 86.7183 2.87696 86.3714 2.95173 85.9817C3.62934 84.0422 4.55718 82.1994 5.71173 80.5C6.05673 80.0017 6.36339 79.465 6.67006 78.9284C6.96454 78.3324 7.29746 77.7562 7.66673 77.2034C8.01429 76.7376 8.38532 76.2898 8.77839 75.8617H9.04673C10.6172 75.9486 12.1913 75.9486 13.7617 75.8617C14.7584 76.935 15.5251 78.0467 16.4067 79.12C17.2884 80.1934 17.4417 80.385 17.9401 80.9984C18.3021 81.3821 18.6352 81.7921 18.9367 82.225C19.9334 83.5284 21.5817 80.5 20.7384 78.2767ZM20.3551 39.1384C20.7853 38.8906 21.2774 38.771 21.7734 38.7934C22.4199 38.6779 23.0818 38.6779 23.7284 38.7934C24.2649 38.8761 24.7777 39.0718 25.2329 39.3676C25.688 39.6634 26.0752 40.0524 26.3688 40.509C26.6623 40.9657 26.8555 41.4794 26.9356 42.0163C27.0157 42.5532 26.9809 43.101 26.8334 43.6234C26.7366 44.4787 26.4398 45.2992 25.967 46.0184C25.4941 46.7377 24.8586 47.3354 24.1117 47.7634C23.9181 47.7997 23.7349 47.8782 23.5751 47.9934C23.0561 48.2237 22.4945 48.3427 21.9267 48.3427C21.3589 48.3427 20.7974 48.2237 20.2784 47.9934C19.3509 47.782 18.5351 47.2334 17.9896 46.4541C17.4441 45.6748 17.2078 44.7205 17.3267 43.7767C17.3856 42.8073 17.6958 41.8698 18.2268 41.0566C18.7578 40.2434 19.4912 39.5823 20.3551 39.1384ZM16.2917 68.77C16.1766 69.6144 15.8674 70.4207 15.3886 71.1256C14.9098 71.8306 14.2742 72.4151 13.5317 72.8334C13.3388 72.8915 13.1573 72.9823 12.9951 73.1017C12.4761 73.3321 11.9145 73.4511 11.3467 73.4511C10.7789 73.4511 10.2174 73.3321 9.69839 73.1017C8.7927 72.8922 7.99401 72.3606 7.45102 71.6061C6.90803 70.8515 6.65773 69.9254 6.74673 69C6.81043 68.0563 7.11069 67.1437 7.61984 66.3465C8.12897 65.5493 8.83061 64.8931 9.66006 64.4384C10.1153 64.2205 10.6121 64.1028 11.1167 64.0934C11.7534 64.0174 12.3968 64.0174 13.0334 64.0934C13.5668 64.1599 14.0802 64.3378 14.5403 64.6156C15.0005 64.8934 15.397 65.2649 15.7043 65.7059C16.0116 66.1469 16.2226 66.6476 16.3238 67.1755C16.425 67.7034 16.4141 68.2467 16.2917 68.77Z" fill="#020202"/>
<path fill-rule="evenodd" clip-rule="evenodd" d="M64.2468 70.8017C63.2502 67.8501 62.2918 64.8601 61.4868 61.8317L58.6502 52.9001C58.383 52.0077 58.0499 51.1364 57.6535 50.2934C57.4258 49.8095 57.0993 49.3786 56.6952 49.0284C55.7611 48.54 54.7208 48.2898 53.6668 48.3001C50.3702 48.3001 42.5118 48.0701 40.5185 47.8401C39.5034 47.6912 38.4776 47.627 37.4518 47.6484C36.6504 47.7054 35.8806 47.9841 35.2285 48.4534C34.8835 48.8518 34.6344 49.3238 34.5002 49.8334C34.2187 50.5222 33.9756 51.2261 33.7718 51.9417C33.7718 51.9417 30.9735 58.7268 31.0502 58.8418C31.1268 58.9567 21.5052 80.0401 21.1602 85.2917C21.283 85.6673 21.5496 85.9789 21.9016 86.1585C22.2536 86.3381 22.6623 86.371 23.0385 86.2501C23.2744 86.1708 23.4844 86.0291 23.6464 85.8402C23.8083 85.6512 23.9162 85.422 23.9585 85.1767C24.2482 84.9767 24.4531 84.6761 24.5335 84.3334L34.9218 60.5667L38.3335 53.6667C38.3335 53.6667 38.9085 52.8617 39.1002 52.3634C39.5007 52.5166 39.9104 52.6446 40.3268 52.7467C42.3585 52.9384 50.3702 52.9767 53.7052 53.1301H54.0502C54.1276 53.5952 54.23 54.0559 54.3568 54.5101L57.5385 62.9434C58.5352 65.9717 59.6852 69.0001 60.9118 71.9901C62.5218 75.8234 64.2468 79.6568 66.0102 83.4901C64.8469 83.2013 63.6698 82.971 62.4835 82.8001C59.9535 82.4934 57.4235 82.3784 54.8168 82.1101C52.2102 81.8418 50.9835 81.7651 48.9902 81.6884C46.0499 81.599 43.107 81.663 40.1735 81.8801C35.2687 82.3726 30.4023 83.1922 25.6068 84.3334C25.2808 84.4109 24.9955 84.6075 24.8072 84.8847C24.6189 85.1619 24.5411 85.4995 24.5892 85.8312C24.6372 86.1628 24.8077 86.4645 25.0669 86.6768C25.3262 86.8891 25.6555 86.9967 25.9902 86.9784C27.9068 86.9784 29.8235 86.7484 31.7018 86.7101H43.2018C47.0352 86.7101 50.8685 86.5184 54.7018 86.7101C57.2318 86.7101 59.7618 86.4417 62.3685 86.4417C63.9471 86.4232 65.5244 86.5386 67.0835 86.7867C68.0802 86.7867 68.9235 86.2884 68.9235 85.7134C67.8848 80.5944 66.3175 75.5971 64.2468 70.8017Z" fill="#F03240"/>
<path fill-rule="evenodd" clip-rule="evenodd" d="M91.4635 80.0784C91.2435 79.2921 90.9349 78.5333 90.5435 77.8167C90.1369 77.0766 89.6342 76.3934 89.0485 75.785C88.2412 75.218 87.3811 74.7302 86.4802 74.3284C87.2749 73.6715 87.9289 72.861 88.4031 71.9455C88.8774 71.0299 89.1621 70.0281 89.2402 69C89.3173 67.2997 88.9643 65.6074 88.2138 64.0797C87.4634 62.552 86.3397 61.2383 84.9468 60.26C84.0736 59.6987 83.0955 59.3205 82.0718 59.1484C81.7655 59.1292 81.4582 59.1292 81.1518 59.1484C81.199 57.7704 81.0701 56.3921 80.7685 55.0467C80.542 54.2504 80.2337 53.4796 79.8485 52.7467C79.4511 52.0122 78.9474 51.3405 78.3535 50.7534C77.5481 50.1517 76.6729 49.6497 75.7468 49.2584C76.5505 48.5927 77.2098 47.77 77.6844 46.8406C78.159 45.9112 78.4389 44.8947 78.5068 43.8534C78.599 42.155 78.2566 40.4612 77.5121 38.9319C76.7676 37.4026 75.6455 36.0884 74.2518 35.1134C73.3848 34.5326 72.4052 34.1407 71.3768 33.9634C70.0323 33.7316 68.658 33.7316 67.3135 33.9634C66.1686 34.1658 65.0802 34.6103 64.1209 35.2673C63.1617 35.9243 62.3539 36.7785 61.7514 37.7729C61.149 38.7673 60.7659 39.8789 60.6277 41.0333C60.4895 42.1876 60.5995 43.3582 60.9502 44.4667C61.4466 46.3357 62.5034 48.0079 63.9785 49.2584C62.8472 50.4183 61.9493 51.7847 61.3335 53.2834C60.4902 55.0467 61.8702 57.1167 62.9435 56.35C62.6752 56.35 64.6302 54.8167 65.1285 54.165C65.6268 53.5134 66.7768 51.9417 67.7735 50.9067C69.3432 51.0173 70.9188 51.0173 72.4885 50.9067H72.7568C73.1682 51.3185 73.5403 51.7677 73.8685 52.2484C74.2167 52.7938 74.5366 53.3567 74.8268 53.935C75.1335 54.4717 75.4402 55.0084 75.7852 55.545C76.5754 56.7661 77.2675 58.0479 77.8552 59.3784C76.7562 59.6188 75.7195 60.0859 74.8113 60.7496C73.9031 61.4134 73.1433 62.2593 72.5806 63.2334C72.0178 64.2074 71.6644 65.2881 71.5429 66.4065C71.4215 67.5248 71.5346 68.6562 71.8752 69.7284C72.3809 71.5825 73.4368 73.2398 74.9035 74.4817C74.2053 74.7546 73.5265 75.0748 72.8718 75.44C72.2678 75.888 71.7704 76.4639 71.4152 77.1267C70.6423 78.205 70.1425 79.4546 69.9585 80.7684C69.4218 83.95 71.3385 84.87 71.8368 84.1417C72.3352 83.4134 73.7535 81.9184 74.2902 81.2667C74.8268 80.615 75.3252 80.04 75.8235 79.3884C76.3218 78.7367 77.4718 77.2034 78.4685 76.13C80.0512 76.236 81.6392 76.236 83.2218 76.13H83.4518C83.8536 76.5369 84.2251 76.9725 84.5635 77.4334C84.9196 77.9872 85.2398 78.5634 85.5218 79.1584C85.8285 79.695 86.1352 80.2317 86.4802 80.73C87.6213 82.4315 88.5362 84.2742 89.2018 86.2117C89.2766 86.6014 89.496 86.9483 89.8159 87.183C90.1359 87.4176 90.5327 87.5225 90.9268 87.4767C91.123 87.4492 91.3116 87.3819 91.4809 87.279C91.6502 87.1762 91.7968 87.0398 91.9116 86.8783C92.0264 86.7169 92.1071 86.5337 92.1487 86.34C92.1903 86.1462 92.1919 85.9461 92.1535 85.7517C92.2229 83.8361 91.9901 81.9215 91.4635 80.0784ZM68.4635 47.9934C68.3037 47.8782 68.1204 47.7997 67.9268 47.7634C67.1728 47.3399 66.5297 46.7441 66.05 46.0246C65.5704 45.305 65.2677 44.4822 65.1668 43.6234C65.0444 43.1028 65.0322 42.5624 65.1311 42.0369C65.23 41.5114 65.4378 41.0123 65.741 40.5719C66.0443 40.1314 66.4364 39.7593 66.892 39.4794C67.3477 39.1995 67.8569 39.0181 68.3868 38.9467C69.0334 38.8312 69.6953 38.8312 70.3418 38.9467C70.8378 38.9243 71.3299 39.044 71.7602 39.2917C72.5867 39.7402 73.2869 40.3897 73.796 41.1803C74.3052 41.9709 74.607 42.877 74.6735 43.815C74.6531 44.5624 74.4523 45.2938 74.0883 45.9468C73.7242 46.5999 73.2077 47.1553 72.5828 47.5656C71.9578 47.976 71.2429 48.2292 70.4989 48.3037C69.755 48.3782 69.0041 48.2717 68.3102 47.9934H68.4635ZM79.1202 73.14C78.9792 73.0408 78.8241 72.9633 78.6602 72.91C77.9082 72.4842 77.2666 71.8877 76.7872 71.1687C76.3079 70.4496 76.004 69.628 75.9002 68.77C75.7778 68.2467 75.7668 67.7034 75.868 67.1755C75.9692 66.6476 76.1803 66.1469 76.4876 65.7059C76.7949 65.2649 77.1914 64.8934 77.6516 64.6156C78.1117 64.3378 78.6251 64.1599 79.1585 64.0934C79.7951 64.0174 80.4385 64.0174 81.0752 64.0934C81.5798 64.1028 82.0766 64.2205 82.5318 64.4384C83.3327 64.9118 84.0039 65.5762 84.4855 66.3721C84.9671 67.1681 85.2441 68.0709 85.2918 69C85.2719 69.7427 85.0723 70.4695 84.7102 71.1182C84.3482 71.767 83.8343 72.3184 83.2127 72.7252C82.5911 73.1321 81.8802 73.3824 81.1408 73.4546C80.4014 73.5268 79.6554 73.4189 78.9668 73.14H79.1202Z" fill="#020202"/>
<path fill-rule="evenodd" clip-rule="evenodd" d="M51.4433 20.4701C51.175 20.7767 50.8683 21.0067 50.6 21.2751C48.99 21.5051 49.2966 23.7284 50.6 24.1884C51.7153 25.3691 52.7164 26.6525 53.59 28.0217C54.2033 28.9162 54.7783 29.8362 55.315 30.7817C55.7218 31.3724 56.093 31.9869 56.4266 32.6217C57.2142 34.0125 57.7953 35.5104 58.1516 37.0684C58.1715 37.4582 58.343 37.8247 58.6295 38.0897C58.916 38.3548 59.2948 38.4972 59.685 38.4867C59.8796 38.4819 60.0714 38.438 60.2488 38.3578C60.4262 38.2776 60.5858 38.1626 60.718 38.0196C60.8503 37.8767 60.9525 37.7087 61.0187 37.5255C61.0848 37.3424 61.1136 37.1479 61.1033 36.9534C61.3559 34.6304 61.1209 32.2803 60.4133 30.0534C60.1099 29.0957 59.6848 28.181 59.1483 27.3317C58.647 26.4588 58.0278 25.659 57.3083 24.9551C56.2089 24.0102 54.9833 23.2232 53.6666 22.6167C54.179 22.1299 54.6531 21.6045 55.085 21.0451C55.8647 20.0186 56.421 18.8403 56.7181 17.5859C57.0152 16.3315 57.0465 15.0289 56.81 13.7617C56.3487 11.1703 54.992 8.82314 52.9766 7.13005C51.5046 5.86463 49.6903 5.06422 47.7633 4.83005C45.8687 4.61967 43.952 4.91048 42.205 5.67339C40.6699 6.43334 39.3129 7.50923 38.2228 8.83049C37.1328 10.1518 36.3344 11.6885 35.88 13.3401C35.3848 14.9924 35.3744 16.7521 35.8501 18.4102C36.3258 20.0682 37.2675 21.5549 38.5633 22.6934C38.5633 22.6934 38.9466 22.6934 39.1383 23.0384C38.3397 23.3991 37.5706 23.8221 36.8383 24.3034C36.0236 24.9385 35.2783 25.6581 34.615 26.4501C33.9854 27.2443 33.4454 28.1056 33.005 29.0184C32.0123 31.0826 31.3154 33.2764 30.935 35.5351C30.8684 35.7212 30.8394 35.9188 30.8497 36.1162C30.86 36.3137 30.9093 36.5072 30.9949 36.6854C31.0804 36.8637 31.2005 37.0232 31.3482 37.1547C31.4958 37.2863 31.6681 37.3872 31.855 37.4517C32.2262 37.5744 32.6307 37.5468 32.9818 37.3749C33.3329 37.2029 33.6027 36.9002 33.7333 36.5317C34.9433 34.4241 36.3832 32.4571 38.0266 30.6667C38.6016 29.9767 39.1766 29.2867 39.79 28.6351C40.4033 27.9834 40.48 27.6767 40.9016 27.2551C43.24 24.8017 45.1566 22.5784 42.7416 21.4667C42.1366 21.2088 41.5989 20.8154 41.17 20.3167C40.5301 19.5339 40.1226 18.5872 39.9938 17.5843C39.8651 16.5814 40.0202 15.5625 40.4416 14.6434C40.7574 13.7059 41.2599 12.8422 41.9187 12.1043C42.5776 11.3663 43.3791 10.7696 44.275 10.3501C45.235 9.91367 46.2904 9.72898 47.3416 9.81339C48.3645 9.91802 49.3424 10.288 50.1783 10.8867C51.4759 11.806 52.39 13.1704 52.7466 14.7201C53.2336 16.1849 53.1234 17.7826 52.44 19.1667C52.1405 19.6253 51.8074 20.0609 51.4433 20.4701Z" fill="#020202"/>
</g>
<defs>
<clipPath id="clip0_7411_89">
<rect width="92" height="92" fill="white"/>
</clipPath>
</defs>
</svg>
