<svg width="695" height="356" viewBox="0 0 695 356" fill="none" xmlns="http://www.w3.org/2000/svg">
<path d="M159.53 350.092C158.756 350.277 158.091 350.761 157.684 351.445C157.277 352.128 157.16 352.954 157.357 353.736C157.555 354.517 158.051 355.188 158.734 355.596C159.418 356.003 160.233 356.114 161.001 355.908C163.198 355.323 165.516 354.835 167.839 354.386C183.319 351.534 199.21 349.755 215.015 347.772C242.096 344.521 269.43 342.698 296.735 340.758C299.131 340.591 301.528 340.425 303.939 340.26C304.233 340.239 304.508 340.102 304.704 339.88C304.9 339.657 305.001 339.369 304.985 339.075C304.969 338.781 304.836 338.505 304.616 338.306C304.397 338.107 304.108 338.001 303.814 338.013C301.399 338.117 298.998 338.22 296.597 338.324C269.235 339.557 241.877 340.664 214.516 343.228C198.633 344.807 182.781 346.152 166.817 348.665C164.401 349.067 161.976 349.509 159.53 350.092Z" fill="#F03240"/>
<path fill-rule="evenodd" clip-rule="evenodd" d="M388.867 211.239C363.996 208.032 338.816 208.032 313.945 211.239C308.742 211.655 303.539 212.28 298.336 213.112C297.508 213.112 296.714 213.441 296.129 214.027C295.543 214.612 295.214 215.406 295.214 216.234C295.214 217.062 295.543 217.856 296.129 218.441C296.714 219.027 297.508 219.356 298.336 219.356H309.991C306.245 236.526 310.927 249.013 315.506 248.18C321.645 247.14 318.94 225.912 317.587 219.876C342.561 221.437 325.6 221.437 384.081 219.876C380.959 232.675 385.121 251.094 388.555 249.949C391.989 248.804 394.486 238.607 395.007 229.137C395.007 225.912 394.278 220.813 395.007 219.876C395.735 218.94 395.007 219.876 415.818 220.605C420.189 220.605 419.46 212.28 415.818 212.384C406.141 211.655 409.679 213.112 388.867 211.239Z" fill="#262626"/>
<path fill-rule="evenodd" clip-rule="evenodd" d="M459.315 97.1909C447.868 76.3791 425.496 64.8286 405.204 77.1075C379.502 92.4042 365.454 140.479 385.641 170.76C391.06 179.066 398.147 186.154 406.453 191.572C409.431 193.114 412.623 194.201 415.922 194.798C419.46 195.422 420.709 190.844 415.922 188.242C413.821 187.692 411.794 186.888 409.887 185.849C402.833 180.694 396.918 174.141 392.509 166.598C377.941 142.04 389.387 103.538 408.326 89.3865C440.272 65.4529 471.802 125.807 456.297 170.656C449.117 191.468 437.567 191.468 436.422 195.63C436.277 196.157 436.257 196.711 436.362 197.247C436.467 197.783 436.694 198.288 437.027 198.721C437.36 199.154 437.788 199.505 438.279 199.745C438.77 199.985 439.309 200.108 439.856 200.105C445.875 197.599 451.222 193.714 455.465 188.763C472.114 168.783 475.444 126.848 459.315 97.1909Z" fill="#F03240"/>
<path fill-rule="evenodd" clip-rule="evenodd" d="M423.935 243.185C423.797 244.124 424.038 245.078 424.604 245.839C425.169 246.601 426.015 247.106 426.953 247.244C427.891 247.382 428.846 247.141 429.607 246.575C430.368 246.009 430.873 245.164 431.011 244.226C433.936 228.269 434.602 211.981 432.988 195.839C432.052 188.867 430.699 181.999 429.867 176.484C434.965 173.778 435.069 170.344 444.539 142.248C445.163 138.918 448.909 128.513 446.516 125.391C446.065 124.877 445.482 124.495 444.83 124.289C444.178 124.082 443.482 124.058 442.818 124.219C442.153 124.38 441.545 124.719 441.06 125.201C440.574 125.683 440.23 126.288 440.064 126.952C436.942 138.07 432.469 148.764 426.745 158.794C426.745 159.522 426.224 161.707 425.808 163.476C423.935 159.002 426.745 163.476 413.113 142.665C409.575 136.109 407.598 130.594 404.476 130.49C403.893 130.428 403.303 130.513 402.76 130.736C402.218 130.959 401.739 131.314 401.367 131.768C400.996 132.222 400.743 132.761 400.632 133.338C400.52 133.914 400.554 134.508 400.73 135.068C400.73 136.109 398.857 131.114 405.413 145.994C407.39 151.926 416.859 173.362 422.582 176.276C423.831 200.521 424.872 227.681 423.935 243.185Z" fill="#262626"/>
<path fill-rule="evenodd" clip-rule="evenodd" d="M327.889 70.864C330.698 74.298 334.132 111.239 335.693 124.246C338.429 144.78 340.027 165.45 340.48 186.161C340.48 187.099 340.853 187.999 341.516 188.663C342.18 189.326 343.08 189.699 344.018 189.699C344.956 189.699 345.856 189.326 346.52 188.663C347.183 187.999 347.556 187.099 347.556 186.161C347.72 165.312 346.747 144.469 344.642 123.726C342.873 105.307 341.521 71.6965 336.422 64.7245C330.876 58.9816 323.532 55.3095 315.61 54.3187C316.581 49.196 316.581 43.9366 315.61 38.8139C315.255 36.3728 314.299 34.0582 312.828 32.0783C311.357 30.0984 309.416 28.5154 307.181 27.4715C300.457 25.3188 293.429 24.2646 286.369 24.3497C288.951 17.6527 288.951 10.235 286.369 3.538C286.369 3.07338 286.278 2.61331 286.1 2.18406C285.922 1.75482 285.662 1.36479 285.333 1.03626C285.005 0.707722 284.615 0.447115 284.185 0.269314C283.756 0.091513 283.296 0 282.831 0C282.367 0 281.907 0.091513 281.477 0.269314C281.048 0.447115 280.658 0.707722 280.33 1.03626C280.001 1.36479 279.74 1.75482 279.563 2.18406C279.385 2.61331 279.293 3.07338 279.293 3.538C276.541 10.2023 276.541 17.6854 279.293 24.3497C275.79 24.6056 272.312 25.1274 268.888 25.9106C260.355 28.0959 252.55 28.408 251.302 37.253C251 43.1281 251.279 49.0187 252.134 54.839C230.386 60.0419 228.929 65.8692 227.368 78.1481C224.037 130.882 223.829 183.767 226.744 236.526C226.744 237.353 227.073 238.148 227.658 238.733C228.244 239.318 229.038 239.647 229.865 239.647C230.693 239.647 231.487 239.318 232.073 238.733C232.658 238.148 232.987 237.353 232.987 236.526C232.155 203.331 234.548 116.13 238.606 83.3511C240.063 71.3843 238.606 71.4884 250.261 68.2625C274.403 61.2906 320.917 62.5393 327.889 70.864ZM260.043 38.8139C274.642 36.2502 289.531 35.7598 304.267 37.3571C307.181 37.9814 309.054 49.636 308.846 52.9659C291.985 51.015 274.936 51.3651 258.169 54.0065C259.418 49.7401 262.956 41.1032 260.043 38.8139Z" fill="#262626"/>
<path fill-rule="evenodd" clip-rule="evenodd" d="M283.456 82.2065C280.646 76.5873 277.524 77.836 259.938 79.709C251.51 79.709 249.532 88.8662 248.804 94.1732C248.12 99.1098 248.12 104.117 248.804 109.054C250.157 113.736 261.395 114.152 266.806 114.257C272.217 114.361 281.478 114.569 284.808 109.782C287.258 102.668 287.258 94.9394 284.808 87.8256C284.574 85.907 284.12 84.0216 283.456 82.2065ZM256.816 103.018C256.398 98.623 256.398 94.198 256.816 89.8027C256.816 89.0743 257.441 88.2419 256.816 88.0337C256.971 87.6719 257.051 87.2825 257.051 86.8891C257.051 86.4956 256.971 86.1063 256.816 85.7444C257.522 86.4057 258.451 86.7772 259.418 86.785C273.986 86.785 270.864 86.785 273.57 87.6175C274.454 90.4054 274.773 93.3418 274.506 96.2544V101.77C271.593 102.394 258.794 103.018 256.816 103.018Z" fill="#F03240"/>
<path fill-rule="evenodd" clip-rule="evenodd" d="M319.044 158.273C323.935 156.608 325.288 152.238 325.392 147.035C325.255 140.443 324.24 133.9 322.374 127.576C319.564 121.957 316.547 123.206 298.857 125.079C290.428 125.079 288.451 134.236 287.826 139.543C286.897 144.446 286.687 149.459 287.202 154.423C289.075 160.979 312.696 160.355 319.044 158.273ZM295.735 148.388C295.157 144.078 294.983 139.723 295.215 135.38C295.215 134.652 295.839 133.82 295.215 133.611C295.369 133.25 295.449 132.86 295.449 132.467C295.449 132.073 295.369 131.684 295.215 131.322C296.567 132.779 296.775 132.363 309.887 132.675C310.579 132.605 311.276 132.605 311.968 132.675C311.968 133.507 311.968 134.444 312.592 134.756C313.217 135.068 313.113 146.307 313.113 146.827C307.348 147.621 301.549 148.142 295.735 148.388Z" fill="#F03240"/>
<path fill-rule="evenodd" clip-rule="evenodd" d="M279.294 172.633C276.692 167.118 273.362 168.159 255.776 170.136C247.348 170.136 245.37 179.189 244.746 184.6C243.87 189.475 243.66 194.445 244.122 199.376C245.579 204.059 256.817 204.475 262.124 204.579C267.431 204.683 277.421 204.579 280.23 200.209C282.849 193.153 283.033 185.424 280.75 178.253C280.435 176.339 279.948 174.459 279.294 172.633ZM252.655 193.445C251.914 187.644 252.231 181.756 253.591 176.067C253.902 176.425 254.286 176.712 254.716 176.909C255.147 177.107 255.615 177.21 256.089 177.212C270.241 177.212 270.449 176.484 270.865 180.022C270.865 181.27 271.489 191.78 271.489 192.092C265.24 192.867 258.951 193.284 252.655 193.341V193.445Z" fill="#F03240"/>
<path d="M18.6372 269.76V326H8.60517V269.76H18.6372ZM82.7693 269.76V279.64H61.3373V326H51.0013V279.64H29.5693V269.76H82.7693ZM98.5981 307.38C107.515 313.105 114.786 319.211 120.41 325.696L113.722 332.536C107.439 325.595 100.422 319.489 92.6701 314.22L98.5981 307.38ZM162.742 283.212C169.126 281.54 175.181 278.88 180.906 275.232C186.682 271.584 190.811 267.353 193.294 262.54H206.366C208.849 267.353 212.953 271.584 218.678 275.232C224.454 278.88 230.534 281.54 236.918 283.212L232.51 292.256C228.609 291.192 224.429 289.469 219.97 287.088V293.928H204.694V302.896H222.63V311.712H204.694V321.896H233.27V331.32H166.39V321.896H194.966V311.712H177.03V302.896H194.966V293.928H179.69V287.088C175.586 289.317 171.406 291.04 167.15 292.256L162.742 283.212ZM216.094 284.808C210.115 281.109 204.846 276.651 200.286 271.432H199.374C194.966 276.549 189.697 281.008 183.566 284.808H216.094ZM247.178 289.064C246.57 285.821 245.886 282.604 245.126 279.412H241.25V270.52H254.626V262.54H264.658V270.52H278.034V279.412H274.462C273.803 282.857 273.119 286.075 272.41 289.064H278.794V298.184H240.49V289.064H247.178ZM276.514 301.68V330.56H242.77V301.68H276.514ZM311.93 272.8C310.359 277.563 308.054 282.427 305.014 287.392V288.152C307.395 290.989 309.143 294.232 310.258 297.88C311.373 301.477 311.93 305.176 311.93 308.976C311.93 312.675 310.993 315.588 309.118 317.716C307.243 319.793 304.406 320.832 300.606 320.832H293.462V311.484H300.226C301.341 311.484 302.126 311.205 302.582 310.648C303.038 310.04 303.266 309.128 303.266 307.912C303.266 304.821 302.734 301.959 301.67 299.324C300.606 296.689 298.883 294.08 296.502 291.496V285.644C299.289 281.439 301.366 277.309 302.734 273.256V272.8H290.422V331.7H281.226V263.68H310.41L311.93 272.8ZM267.394 321.288V310.952H251.89V321.288H267.394ZM253.866 279.412C254.575 282.3 255.209 285.517 255.766 289.064H263.594C264.506 285.517 265.241 282.3 265.798 279.412H253.866ZM315.806 288.38C320.113 286.708 324.774 285.163 329.79 283.744C327.763 276.752 326.015 270.875 324.546 266.112L333.818 264.212C335.743 270.292 337.466 276.043 338.986 281.464C347.346 279.691 354.515 278.804 360.494 278.804C367.993 278.804 374.149 280.172 378.962 282.908C383.775 285.593 386.182 289.799 386.182 295.524C386.182 301.655 383.522 306.24 378.202 309.28C372.933 312.269 366.549 314.093 359.05 314.752L357.302 305.328C362.521 305.075 366.954 304.112 370.602 302.44C374.25 300.768 376.074 298.539 376.074 295.752C376.074 293.421 374.706 291.547 371.97 290.128C369.285 288.709 365.611 288 360.95 288C355.731 288 349.271 288.887 341.57 290.66C344.711 301.857 348.03 314.727 351.526 329.268L342.102 331.168C339.569 320.173 336.351 307.507 332.45 293.168C327.535 294.688 323.153 296.233 319.302 297.804L315.806 288.38ZM350.158 264.364C358.923 264.516 367.055 265.631 374.554 267.708L372.502 276.676C364.395 274.649 356.263 273.535 348.106 273.332L350.158 264.364ZM453.518 263.756C455.139 267.708 456.381 272.192 457.242 277.208C458.154 282.173 458.61 286.86 458.61 291.268C458.61 302.111 455.494 310.876 449.262 317.564C443.081 324.201 433.099 328.964 419.318 331.852L415.67 323.036C427.475 320.503 435.962 316.576 441.13 311.256C446.349 305.885 448.958 298.919 448.958 290.356C448.958 286.505 448.527 282.655 447.666 278.804C446.855 274.903 445.69 270.748 444.17 266.34L453.518 263.756ZM410.046 265.656C408.779 269.659 407.791 274.497 407.082 280.172C406.373 285.796 405.942 290.837 405.79 295.296C405.79 295.853 405.917 296.309 406.17 296.664C406.423 296.968 406.753 297.12 407.158 297.12C407.31 297.12 407.538 297.069 407.842 296.968C409.615 296.309 412.073 294.663 415.214 292.028L420.458 300.54C417.063 303.124 413.39 305.455 409.438 307.532C408.627 307.988 407.614 308.343 406.398 308.596C405.233 308.799 404.118 308.9 403.054 308.9C398.494 308.9 396.214 306.468 396.214 301.604C396.214 287.367 397.683 274.852 400.622 264.06L410.046 265.656ZM504.438 269.76V263.3H514.166V269.76H536.206V278.652H514.166V286.404H533.318V295.144H514.166V303.428C518.067 304.289 521.766 305.607 525.262 307.38C528.809 309.103 532.735 311.433 537.042 314.372L532.634 322.884C528.885 320.097 525.642 317.893 522.906 316.272C520.221 314.651 517.231 313.333 513.938 312.32C513.33 318.147 511.253 322.656 507.706 325.848C504.21 328.989 499.245 330.56 492.81 330.56C488.909 330.56 485.489 329.952 482.55 328.736C479.611 327.571 477.331 325.924 475.71 323.796C474.139 321.617 473.354 319.109 473.354 316.272C473.354 311.864 475.457 308.393 479.662 305.86C483.867 303.276 490.581 301.984 499.802 301.984L504.438 302.136V295.144H474.798V286.404H504.438V278.652H470.846V269.76H504.438ZM483.006 316.272C483.006 317.843 483.817 319.109 485.438 320.072C487.059 321.035 489.517 321.516 492.81 321.516C496.205 321.516 498.865 320.756 500.79 319.236C502.766 317.665 503.931 314.752 504.286 310.496C502.614 310.344 500.841 310.268 498.966 310.268C493.241 310.268 489.137 310.825 486.654 311.94C484.222 313.004 483.006 314.448 483.006 316.272ZM584.618 270.9V263.528H594.27V270.9H614.942V279.64H594.27V295.98C595.385 298.716 595.942 301.705 595.942 304.948C595.942 310.268 593.586 315.259 588.874 319.92C584.213 324.581 575.295 328.027 562.122 330.256L559.006 321.06C567.113 319.996 573.37 318.349 577.778 316.12C582.186 313.891 584.998 311.028 586.214 307.532H585.834C584.821 308.647 583.453 309.483 581.73 310.04C580.007 310.547 578.057 310.8 575.878 310.8C572.635 310.8 569.747 310.243 567.214 309.128C564.681 307.963 562.705 306.392 561.286 304.416C559.918 302.44 559.234 300.261 559.234 297.88C559.234 295.549 559.893 293.421 561.21 291.496C562.527 289.52 564.503 287.975 567.138 286.86C569.773 285.695 572.939 285.112 576.638 285.112C579.425 285.112 582.085 285.467 584.618 286.176V279.64H545.478V270.9H584.618ZM568.506 297.804C568.506 300.692 571.217 302.136 576.638 302.136C579.627 302.136 581.679 301.604 582.794 300.54C583.959 299.476 584.567 297.551 584.618 294.764C582.389 293.852 579.729 293.396 576.638 293.396C571.217 293.396 568.506 294.865 568.506 297.804ZM638.806 332.612C636.475 332.612 634.271 332.004 632.194 330.788C630.167 329.623 628.521 328.027 627.254 326C626.038 324.024 625.43 321.871 625.43 319.54C625.43 317.209 626.038 315.056 627.254 313.08C628.47 311.053 630.091 309.457 632.118 308.292C634.195 307.076 636.399 306.468 638.73 306.468C641.061 306.468 643.239 307.076 645.266 308.292C647.343 309.457 648.99 311.053 650.206 313.08C651.422 315.056 652.03 317.209 652.03 319.54C652.03 321.871 651.422 324.024 650.206 326C648.99 328.027 647.369 329.623 645.342 330.788C643.315 332.004 641.137 332.612 638.806 332.612ZM638.73 324.784C640.402 324.784 641.719 324.328 642.682 323.416C643.695 322.453 644.202 321.161 644.202 319.54C644.202 317.919 643.695 316.652 642.682 315.74C641.719 314.777 640.402 314.296 638.73 314.296C637.109 314.296 635.791 314.777 634.778 315.74C633.765 316.652 633.258 317.919 633.258 319.54C633.258 321.161 633.765 322.453 634.778 323.416C635.791 324.328 637.109 324.784 638.73 324.784Z" fill="#262626"/>
</svg>
