<svg width="247" height="250" viewBox="0 0 247 250" fill="none" xmlns="http://www.w3.org/2000/svg">
<path fill-rule="evenodd" clip-rule="evenodd" d="M165.102 211.239C140.23 208.032 115.05 208.032 90.1793 211.239C84.9764 211.655 79.7734 212.28 74.5705 213.112C73.7426 213.112 72.9485 213.441 72.3631 214.027C71.7776 214.612 71.4487 215.406 71.4487 216.234C71.4487 217.062 71.7776 217.856 72.3631 218.441C72.9485 219.027 73.7426 219.356 74.5705 219.356H86.2251C82.479 236.526 87.1616 249.013 91.7402 248.18C97.8796 247.14 95.1741 225.912 93.8214 219.876C118.795 221.437 101.834 221.437 160.315 219.876C157.193 232.675 161.355 251.094 164.789 249.949C168.223 248.804 170.721 238.607 171.241 229.137C171.241 225.912 170.513 220.813 171.241 219.876C171.969 218.94 171.241 219.876 192.053 220.605C196.423 220.605 195.695 212.28 192.053 212.384C182.375 211.655 185.913 213.112 165.102 211.239Z" fill="#262626"/>
<path fill-rule="evenodd" clip-rule="evenodd" d="M235.549 97.1909C224.103 76.3791 201.73 64.8286 181.439 77.1075C155.736 92.4042 141.688 140.479 161.876 170.76C167.294 179.066 174.382 186.154 182.687 191.572C185.665 193.114 188.857 194.201 192.157 194.798C195.695 195.422 196.943 190.844 192.157 188.242C190.055 187.692 188.029 186.888 186.121 185.849C179.068 180.694 173.152 174.141 168.743 166.598C154.175 142.04 165.622 103.538 184.56 89.3865C216.506 65.4529 248.036 125.807 232.531 170.656C225.351 191.468 213.801 191.468 212.656 195.63C212.512 196.157 212.491 196.711 212.596 197.247C212.701 197.783 212.929 198.288 213.261 198.721C213.594 199.154 214.022 199.505 214.513 199.745C215.004 199.985 215.544 200.108 216.09 200.105C222.11 197.599 227.456 193.714 231.699 188.763C248.348 168.783 251.678 126.848 235.549 97.1909Z" fill="#F03240"/>
<path fill-rule="evenodd" clip-rule="evenodd" d="M200.17 243.185C200.032 244.124 200.272 245.078 200.838 245.839C201.404 246.601 202.249 247.106 203.187 247.244C204.126 247.382 205.08 247.141 205.841 246.575C206.602 246.009 207.108 245.164 207.246 244.226C210.171 228.269 210.836 211.981 209.223 195.839C208.286 188.867 206.933 181.999 206.101 176.484C211.2 173.778 211.304 170.344 220.773 142.248C221.398 138.918 225.144 128.513 222.75 125.391C222.3 124.877 221.717 124.495 221.065 124.289C220.413 124.082 219.717 124.058 219.052 124.219C218.387 124.38 217.779 124.719 217.294 125.201C216.809 125.683 216.464 126.288 216.299 126.952C213.177 138.07 208.703 148.764 202.979 158.794C202.979 159.522 202.459 161.707 202.043 163.476C200.17 159.002 202.979 163.476 189.347 142.665C185.809 136.109 183.832 130.594 180.711 130.49C180.127 130.428 179.537 130.513 178.995 130.736C178.452 130.959 177.973 131.314 177.602 131.768C177.23 132.222 176.977 132.761 176.866 133.338C176.755 133.914 176.789 134.508 176.964 135.068C176.964 136.109 175.091 131.114 181.647 145.994C183.624 151.926 193.094 173.362 198.817 176.276C200.066 200.521 201.106 227.681 200.17 243.185Z" fill="#262626"/>
<path fill-rule="evenodd" clip-rule="evenodd" d="M104.123 70.864C106.933 74.298 110.367 111.239 111.928 124.246C114.663 144.78 116.261 165.45 116.714 186.161C116.714 187.099 117.087 187.999 117.751 188.663C118.414 189.326 119.314 189.699 120.252 189.699C121.191 189.699 122.091 189.326 122.754 188.663C123.418 187.999 123.79 187.099 123.79 186.161C123.954 165.312 122.981 144.469 120.877 123.726C119.108 105.307 117.755 71.6965 112.656 64.7245C107.11 58.9816 99.7661 55.3095 91.8443 54.3187C92.8153 49.196 92.8153 43.9366 91.8443 38.8139C91.4895 36.3728 90.5335 34.0582 89.0622 32.0783C87.5909 30.0984 85.6505 28.5154 83.4155 27.4715C76.6912 25.3188 69.6637 24.2646 62.6037 24.3497C65.1856 17.6527 65.1856 10.235 62.6037 3.538C62.6037 3.07338 62.5122 2.61331 62.3344 2.18406C62.1566 1.75482 61.896 1.36479 61.5675 1.03626C61.239 0.707722 60.8489 0.447115 60.4197 0.269314C59.9904 0.091513 59.5304 0 59.0658 0C58.6011 0 58.1411 0.091513 57.7118 0.269314C57.2826 0.447115 56.8925 0.707722 56.564 1.03626C56.2355 1.36479 55.9749 1.75482 55.7971 2.18406C55.6193 2.61331 55.5278 3.07338 55.5278 3.538C52.7758 10.2023 52.7758 17.6854 55.5278 24.3497C52.0246 24.6056 48.5459 25.1274 45.1219 25.9106C36.5891 28.0959 28.7847 28.408 27.536 37.253C27.2341 43.1281 27.5129 49.0187 28.3684 54.839C6.62015 60.0419 5.16333 65.8692 3.60245 78.1481C0.271364 130.882 0.0628825 183.767 2.9781 236.526C2.9781 237.353 3.30699 238.148 3.89244 238.733C4.47788 239.318 5.27191 239.647 6.09986 239.647C6.9278 239.647 7.72183 239.318 8.30728 238.733C8.89272 238.148 9.22162 237.353 9.22162 236.526C8.38915 203.331 10.7825 116.13 14.8408 83.3511C16.2976 71.3843 14.8408 71.4884 26.4954 68.2625C50.637 61.2906 97.1513 62.5393 104.123 70.864ZM36.2769 38.8139C50.8766 36.2502 65.7651 35.7598 80.5018 37.3571C83.4155 37.9814 85.2886 49.636 85.0804 52.9659C68.2191 51.015 51.1709 51.3651 34.4038 54.0065C35.6525 49.7401 39.1905 41.1032 36.2769 38.8139Z" fill="#262626"/>
<path fill-rule="evenodd" clip-rule="evenodd" d="M59.6899 82.2065C56.8803 76.5873 53.7586 77.836 36.1726 79.709C27.7439 79.709 25.7668 88.8662 25.0383 94.1732C24.3544 99.1098 24.3544 104.117 25.0383 109.054C26.3911 113.736 37.6295 114.152 43.0405 114.257C48.4516 114.361 57.7128 114.569 61.0427 109.782C63.4926 102.668 63.4926 94.9394 61.0427 87.8256C60.808 85.907 60.3541 84.0216 59.6899 82.2065ZM33.0509 103.018C32.6324 98.623 32.6324 94.198 33.0509 89.8027C33.0509 89.0743 33.6752 88.2419 33.0509 88.0337C33.2054 87.6719 33.2851 87.2825 33.2851 86.8891C33.2851 86.4956 33.2054 86.1063 33.0509 85.7444C33.7566 86.4057 34.6853 86.7772 35.6523 86.785C50.2206 86.785 47.0988 86.785 49.8043 87.6175C50.6886 90.4054 51.007 93.3418 50.7409 96.2544V101.77C47.8272 102.394 35.028 103.018 33.0509 103.018Z" fill="#F03240"/>
<path fill-rule="evenodd" clip-rule="evenodd" d="M95.2784 158.273C100.169 156.608 101.522 152.238 101.626 147.035C101.489 140.443 100.474 133.9 98.6082 127.576C95.7987 121.957 92.781 123.206 75.091 125.079C66.6622 125.079 64.6851 134.236 64.0608 139.543C63.1314 144.446 62.9211 149.459 63.4364 154.423C65.3095 160.979 88.9308 160.355 95.2784 158.273ZM71.9692 148.388C71.3917 144.078 71.2175 139.723 71.4489 135.38C71.4489 134.652 72.0733 133.82 71.4489 133.611C71.6035 133.25 71.6832 132.86 71.6832 132.467C71.6832 132.073 71.6035 131.684 71.4489 131.322C72.8017 132.779 73.0098 132.363 86.1212 132.675C86.8132 132.605 87.5104 132.605 88.2024 132.675C88.2024 133.507 88.2024 134.444 88.8267 134.756C89.4511 135.068 89.347 146.307 89.347 146.827C83.5823 147.621 77.7832 148.142 71.9692 148.388Z" fill="#F03240"/>
<path fill-rule="evenodd" clip-rule="evenodd" d="M55.528 172.633C52.9265 167.118 49.5967 168.159 32.0107 170.136C23.582 170.136 21.6049 179.189 20.9805 184.6C20.1049 189.475 19.8948 194.445 20.3562 199.376C21.813 204.059 33.0513 204.475 38.3583 204.579C43.6653 204.683 53.655 204.579 56.4645 200.209C59.0837 193.153 59.2669 185.424 56.9848 178.253C56.6696 176.339 56.182 174.459 55.528 172.633ZM28.889 193.445C28.1483 187.644 28.4656 181.756 29.8255 176.067C30.1364 176.425 30.52 176.712 30.9507 176.909C31.3813 177.107 31.8492 177.21 32.3229 177.212C46.4749 177.212 46.683 176.484 47.0993 180.022C47.0993 181.27 47.7236 191.78 47.7236 192.092C41.4743 192.867 35.1859 193.284 28.889 193.341V193.445Z" fill="#F03240"/>
</svg>
