<svg width="128" height="42" viewBox="0 0 128 42" fill="none" xmlns="http://www.w3.org/2000/svg">
<path d="M104.221 1.00055C103.669 0.982304 103.206 1.41499 103.188 1.96697C103.17 2.51895 103.602 2.98121 104.154 2.99945L104.188 2L104.221 1.00055ZM104.287 2.0033L104.373 1.00701L104.347 1.00473L104.32 1.00385L104.287 2.0033ZM124.688 12.1968L123.795 12.6472L124.688 12.1968ZM117.853 37.1505L118.319 38.0354L117.853 37.1505ZM98.5051 39.8011L98.5429 38.8018L98.5051 39.8011ZM88.5051 39.6728L88.493 38.6728L88.5051 39.6728ZM78.5051 39.9268L78.5438 40.9261L78.5051 39.9268ZM68.5051 39.8752L68.554 38.8764L68.5051 39.8752ZM38.5051 40.2029L38.5036 41.2029L38.5051 40.2029ZM28.5051 39.9853L28.5471 38.9862L28.5051 39.9853ZM9.50916 36.2657L8.90817 37.065L9.50916 36.2657ZM3.16346 28.8428L2.28079 29.3128L3.16346 28.8428ZM81.8022 1.92477L81.8114 0.924811L81.8022 1.92477ZM99.0774 1.8248L99.1577 0.828017L99.1542 0.827747L99.0774 1.8248ZM101.253 2L101.172 2.99677L101.212 3H101.253V2ZM101.353 3C101.905 3 102.353 2.55228 102.353 2C102.353 1.44772 101.905 1 101.353 1V2V3ZM104.188 2L104.154 2.99945L104.254 3.00276L104.287 2.0033L104.32 1.00385L104.221 1.00055L104.188 2ZM104.287 2.0033L104.201 2.99959C110.703 3.56114 115.18 4.6666 117.782 6.21708L118.294 5.35801L118.805 4.49894C115.794 2.70451 110.933 1.5735 104.373 1.00701L104.287 2.0033ZM118.294 5.35801L117.782 6.21708C120.427 7.79335 122.426 9.93197 123.795 12.6472L124.688 12.1968L125.581 11.7465C124.038 8.68818 121.774 6.26758 118.805 4.49894L118.294 5.35801ZM124.688 12.1968L123.795 12.6472C125.18 15.3928 125.855 18.28 125.826 21.3215L126.826 21.331L127.826 21.3406C127.858 17.9767 127.108 14.7744 125.581 11.7465L124.688 12.1968ZM126.826 21.331L125.826 21.3215C125.797 24.363 125.066 27.2604 123.625 30.0253L124.512 30.4875L125.399 30.9496C126.982 27.9113 127.794 24.7044 127.826 21.3406L126.826 21.331ZM124.512 30.4875L123.625 30.0253C122.208 32.7443 120.137 34.8188 117.387 36.2655L117.853 37.1505L118.319 38.0354C121.424 36.4014 123.792 34.0338 125.399 30.9496L124.512 30.4875ZM117.853 37.1505L117.387 36.2655C114.588 37.7384 111.606 38.5583 108.431 38.727L108.484 39.7256L108.537 40.7242C111.999 40.5402 115.263 39.6434 118.319 38.0354L117.853 37.1505ZM108.484 39.7256L108.431 38.727C105.142 38.9018 101.846 38.9267 98.5429 38.8018L98.5051 39.8011L98.4673 40.8004C101.831 40.9276 105.187 40.9022 108.537 40.7242L108.484 39.7256ZM98.5051 39.8011L98.5429 38.8018C95.193 38.6751 91.843 38.6321 88.493 38.6728L88.5051 39.6728L88.5173 40.6727C91.834 40.6323 95.1506 40.6749 98.4673 40.8004L98.5051 39.8011ZM88.5051 39.6728L88.493 38.6728C85.1508 38.7135 81.8087 38.7984 78.4665 38.9276L78.5051 39.9268L78.5438 40.9261C81.8683 40.7976 85.1928 40.7131 88.5173 40.6727L88.5051 39.6728ZM78.5051 39.9268L78.4665 38.9276C75.1624 39.0553 71.8582 39.0382 68.554 38.8764L68.5051 39.8752L68.4562 40.874C71.8187 41.0387 75.1812 41.056 78.5438 40.9261L78.5051 39.9268ZM68.5051 39.8752L68.554 38.8764C65.1849 38.7114 61.8156 38.7279 58.4465 38.9259L58.5051 39.9242L58.5638 40.9225C61.8613 40.7287 65.1588 40.7125 68.4562 40.874L68.5051 39.8752ZM58.5051 39.9242L58.4465 38.9259C55.1329 39.1207 51.8194 39.2168 48.5059 39.2143L48.5051 40.2143L48.5044 41.2143C51.8576 41.2168 55.2107 41.1195 58.5638 40.9225L58.5051 39.9242ZM48.5051 40.2143L48.5059 39.2143C45.1728 39.2119 41.8397 39.208 38.5067 39.2029L38.5051 40.2029L38.5036 41.2029C41.8372 41.208 45.1708 41.2119 48.5044 41.2143L48.5051 40.2143ZM38.5051 40.2029L38.5067 39.2029C35.1868 39.1978 31.867 39.1256 28.5471 38.9862L28.5051 39.9853L28.4632 40.9845C31.81 41.1249 35.1568 41.1978 38.5036 41.2029L38.5051 40.2029ZM28.5051 39.9853L28.5471 38.9862C25.2167 38.8464 21.8855 38.6919 18.5536 38.5225L18.5028 39.5212L18.4521 40.5199C21.7899 40.6896 25.1269 40.8444 28.4632 40.9845L28.5051 39.9853ZM18.5028 39.5212L18.5536 38.5225C15.4173 38.3631 12.6111 37.347 10.1101 35.4665L9.50916 36.2657L8.90817 37.065C11.729 39.186 14.9186 40.3403 18.4521 40.5199L18.5028 39.5212ZM9.50916 36.2657L10.1101 35.4665C7.56646 33.5538 5.54723 31.192 4.04613 28.3729L3.16346 28.8428L2.28079 29.3128C3.91884 32.3892 6.13007 34.976 8.90817 37.065L9.50916 36.2657ZM3.16346 28.8428L4.04613 28.3729C2.57082 25.6021 1.99696 22.6535 2.32251 19.501L1.3278 19.3983L0.333085 19.2955C-0.0329584 22.8403 0.616964 26.1881 2.28079 29.3128L3.16346 28.8428ZM1.3278 19.3983L2.32251 19.501C2.64862 16.3429 3.7916 13.5807 5.75388 11.1883L4.9807 10.5542L4.20753 9.91997C1.99085 12.6225 0.698554 15.7564 0.333085 19.2955L1.3278 19.3983ZM4.9807 10.5542L5.75388 11.1883C7.76511 8.73633 10.153 6.72641 12.9227 5.15497L12.4293 4.28521L11.9358 3.41545C8.95305 5.10776 6.37526 7.27714 4.20753 9.91997L4.9807 10.5542ZM12.4293 4.28521L12.9227 5.15497C15.6426 3.61181 18.5822 2.8603 21.7605 2.89977L21.7729 1.89984L21.7853 0.899922C18.2579 0.85612 14.9684 1.69485 11.9358 3.41545L12.4293 4.28521ZM21.7729 1.89984L21.7605 2.89977C25.1127 2.94139 28.4551 2.98635 31.7877 3.03464L31.8022 2.03474L31.8167 1.03485C28.4827 0.986539 25.1389 0.941564 21.7853 0.899922L21.7729 1.89984ZM31.8022 2.03474L31.7877 3.03464C35.1415 3.08323 38.4953 3.02898 41.849 2.87189L41.8022 1.87299L41.7554 0.874085C38.4425 1.02926 35.1296 1.08285 31.8167 1.03485L31.8022 2.03474ZM41.8022 1.87299L41.849 2.87189C45.1503 2.71726 48.4516 2.72135 51.753 2.88414L51.8022 1.88536L51.8515 0.886571C48.4862 0.720619 45.1208 0.716456 41.7554 0.874085L41.8022 1.87299ZM51.8022 1.88536L51.753 2.88414C55.0929 3.04884 58.4328 3.1804 61.7728 3.27882L61.8022 2.27925L61.8317 1.27969C58.5049 1.18166 55.1782 1.05062 51.8515 0.886571L51.8022 1.88536ZM61.8022 2.27925L61.7728 3.27882C65.1342 3.37787 68.4956 3.33535 71.8569 3.15129L71.8022 2.15278L71.7475 1.15428C68.4422 1.33528 65.1369 1.37708 61.8317 1.27969L61.8022 2.27925ZM71.8022 2.15278L71.8569 3.15129C75.169 2.96992 78.481 2.8944 81.7931 2.92473L81.8022 1.92477L81.8114 0.924811C78.4567 0.894091 75.1021 0.970582 71.7475 1.15428L71.8022 2.15278ZM81.8022 1.92477L81.7931 2.92473C85.1402 2.95538 88.4872 2.91699 91.8343 2.80956L91.8022 1.81007L91.7701 0.810588C88.4505 0.917136 85.131 0.95521 81.8114 0.924811L81.8022 1.92477ZM91.8022 1.81007L91.8343 2.80956C95.1636 2.7027 97.5421 2.70953 99.0007 2.82184L99.0774 1.8248L99.1542 0.827747C97.5791 0.706458 95.1075 0.70347 91.7701 0.810588L91.8022 1.81007ZM99.0774 1.8248L98.9972 2.82157L101.172 2.99677L101.253 2L101.333 1.00323L99.1577 0.828024L99.0774 1.8248ZM101.253 2V3H101.353V2V1H101.253V2Z" fill="#F03240"/>
</svg>
