<svg width="43" height="43" viewBox="0 0 43 43" fill="none" xmlns="http://www.w3.org/2000/svg">
<g clip-path="url(#clip0_7408_60)">
<path d="M42.5078 18C42.312 16.2088 41.9068 14.4468 41.3003 12.75C40.1293 9.60954 38.0751 6.87468 35.3853 4.87504C32.7445 2.88571 29.6217 1.63538 26.3378 1.25254C26.1786 1.2371 26.0196 1.28275 25.8928 1.38024C25.7661 1.47773 25.6812 1.61976 25.6553 1.77754C25.6402 1.93467 25.6864 2.09156 25.7842 2.21545C25.882 2.33935 26.0239 2.4207 26.1803 2.44254C29.2485 2.87368 32.1472 4.11168 34.5803 6.03004C36.9918 7.91808 38.8133 10.4561 39.8303 13.345C40.3965 14.9243 40.7839 16.562 40.9853 18.2275C41.1344 19.8984 41.1344 21.5792 40.9853 23.25C40.8229 24.8961 40.4464 26.5139 39.8653 28.0625C39.2732 29.6181 38.5102 31.103 37.5903 32.49C35.6382 35.2817 32.8867 37.417 29.6978 38.615C26.5113 39.8875 23.0713 40.3969 19.6528 40.1025C17.7618 39.9402 15.9015 39.5222 14.1228 38.86C12.3596 38.209 10.7202 37.2621 9.27527 36.06C5.6429 32.8379 3.29425 28.414 2.66027 23.6C1.84818 18.7782 2.96722 13.8306 5.77527 9.82754C7.25636 7.7707 9.10801 6.00808 11.2353 4.63004C13.3914 3.29232 15.8305 2.47729 18.3578 2.25004C19.6003 2.12754 20.8428 2.02254 22.0678 2.02254C22.8872 2.01394 23.7062 2.06658 24.5178 2.18004C24.5889 2.19852 24.6631 2.20187 24.7356 2.18986C24.8081 2.17786 24.8773 2.15076 24.9387 2.11032C25 2.06989 25.0522 2.01702 25.0919 1.95514C25.1315 1.89326 25.1578 1.82374 25.1688 1.75109C25.1799 1.67844 25.1756 1.60427 25.1562 1.53338C25.1368 1.46249 25.1028 1.39646 25.0562 1.33957C25.0097 1.28268 24.9518 1.23619 24.8861 1.20311C24.8205 1.17003 24.7487 1.1511 24.6753 1.14754C23.8203 0.982444 22.9549 0.877188 22.0853 0.832536C20.7996 0.811527 19.5138 0.869972 18.2353 1.00754C15.5213 1.23874 12.8978 2.09529 10.5703 3.51004C8.25774 4.93375 6.22859 6.77304 4.58527 8.93504C1.44668 13.2211 0.131772 18.5751 0.927767 23.8275C1.54901 29.1138 4.06737 33.9951 8.01527 37.565C9.62646 38.9315 11.4618 40.0091 13.4403 40.75C15.3936 41.4769 17.4363 41.9361 19.5128 42.115C23.2511 42.414 27.0077 41.8388 30.4853 40.435C34.0205 39.0421 37.0437 36.599 39.1478 33.435C40.1301 31.9165 40.9346 30.2899 41.5453 28.5875C42.1557 26.8958 42.5382 25.1303 42.6828 23.3375C42.7903 21.5568 42.7318 19.7699 42.5078 18Z" fill="#F03240"/>
<path d="M36.208 18C36.3645 17.9741 36.5049 17.8885 36.5995 17.7612C36.6942 17.6339 36.7357 17.4749 36.7155 17.3175C36.512 15.934 35.7854 14.6812 34.6855 13.8175C33.5806 12.9652 32.2126 12.5257 30.818 12.575C29.4453 12.6693 28.1362 13.1893 27.073 14.0625C26.0789 14.9449 25.3565 16.0922 24.9905 17.37C24.9655 17.4355 24.9538 17.5052 24.9561 17.5752C24.9584 17.6452 24.9748 17.7141 25.0041 17.7777C25.0335 17.8413 25.0753 17.8984 25.127 17.9456C25.1788 17.9928 25.2395 18.0291 25.3055 18.0525C25.4357 18.0994 25.579 18.0947 25.7058 18.0393C25.8327 17.984 25.9336 17.8823 25.988 17.755C26.448 16.7923 27.1775 15.9838 28.088 15.4275C28.4273 15.2186 28.7919 15.0539 29.173 14.9375C29.7341 14.7289 30.3248 14.6108 30.923 14.5875C31.893 14.4728 32.8733 14.6886 33.7055 15.2C34.5365 15.715 35.1569 16.5091 35.4555 17.44C35.4607 17.5293 35.4855 17.6163 35.5279 17.6949C35.5704 17.7736 35.6295 17.842 35.7013 17.8954C35.773 17.9487 35.8555 17.9858 35.943 18.0038C36.0306 18.0219 36.121 18.0206 36.208 18Z" fill="#262626"/>
<path d="M8.41796 22.8475C8.28567 22.8882 8.17393 22.9779 8.10561 23.0983C8.03729 23.2186 8.01756 23.3606 8.05046 23.495C8.68316 26.572 10.2618 29.3743 12.5655 31.51C15.0854 33.5114 18.2399 34.5422 21.4555 34.415C24.685 34.4635 27.8319 33.3939 30.363 31.3875C32.7081 29.2994 34.4743 26.6411 35.4905 23.67C35.5215 23.5976 35.538 23.5198 35.5389 23.4411C35.5399 23.3623 35.5253 23.2841 35.4961 23.211C35.4668 23.1379 35.4234 23.0712 35.3684 23.0149C35.3134 22.9585 35.2479 22.9135 35.1755 22.8825C35.1031 22.8515 35.0253 22.835 34.9465 22.834C34.8678 22.8331 34.7896 22.8476 34.7165 22.8769C34.6433 22.9061 34.5767 22.9495 34.5203 23.0045C34.464 23.0595 34.419 23.1251 34.388 23.1975C33.3019 25.8756 31.5561 28.2354 29.313 30.0575C27.028 31.7058 24.2524 32.5323 21.438 32.4025C18.6648 32.6178 15.9037 31.8563 13.633 30.25C11.423 28.4454 9.82714 25.9997 9.06547 23.25C9.05115 23.1801 9.02274 23.1138 8.98196 23.0553C8.94118 22.9967 8.8889 22.9471 8.8283 22.9094C8.76771 22.8718 8.70007 22.8469 8.62952 22.8362C8.55896 22.8256 8.48698 22.8294 8.41796 22.8475Z" fill="#262626"/>
<path d="M16.3804 15.69C16.7104 14.9792 16.7604 14.1701 16.5203 13.4241C16.2803 12.6781 15.7679 12.05 15.0854 11.665C14.6207 11.4571 14.1114 11.369 13.6039 11.4087C13.0964 11.4485 12.607 11.6148 12.1804 11.8925C10.4304 12.9425 9.36285 15.725 11.3754 17.1425C11.7973 17.3843 12.2637 17.5387 12.7466 17.5964C13.2295 17.6541 13.719 17.614 14.1861 17.4785C14.6532 17.3429 15.0882 17.1147 15.4652 16.8074C15.8421 16.5002 16.1534 16.1201 16.3804 15.69Z" fill="#262626"/>
</g>
<defs>
<clipPath id="clip0_7408_60">
<rect width="42" height="42" fill="white" transform="translate(0.735352 0.5)"/>
</clipPath>
</defs>
</svg>
