<svg width="150" height="106" viewBox="0 0 150 106" fill="none" xmlns="http://www.w3.org/2000/svg">
<path d="M35.5677 32.5119C30.7467 32.5119 26.5429 38.3776 25 41.4418C34.345 41.792 39.3231 45.2064 49.1921 47.5702C59.0611 49.934 66.2227 51.5098 79.7598 44.3309C99.6725 33.3874 116.849 12.4635 125 0.556946C117.105 11.1327 102.496 23.4653 96.179 28.3096C100.79 24.5976 111.114 10.158 115.655 3.27093C98.9738 25.333 83.69 32.9497 71.8996 32.0742C84.5458 26.5412 97.9549 8.99073 103.079 0.907137C75.393 19.905 63.4279 18.8545 54.1703 20.2552C41.7726 22.1311 42.4381 30.1481 44.1266 33.8252C43.2824 33.3874 40.3886 32.5119 35.5677 32.5119Z" fill="#F03240"/>
<path d="M0 73.5569H26.9104V78.8019H17.2813V104.867H9.64502V78.8019H0V73.5569Z" fill="#262626"/>
<path d="M29.6365 73.5569H150V73.7323C149.777 73.7323 149.554 73.7429 149.33 73.7642C148.278 73.812 147.242 73.8439 146.19 73.8917C145.999 73.8917 145.807 73.9077 145.6 73.9236C143.145 74.0193 140.69 74.1309 138.235 74.2584C135.206 74.4178 132.177 74.5294 129.148 74.641C126.007 74.7526 122.882 74.8642 119.758 75.0077C119.598 75.0077 119.439 75.013 119.279 75.0236C117.526 75.1033 115.772 75.183 114.018 75.2628C109.602 75.486 105.171 75.6773 100.755 75.8367C98.7618 75.9164 96.7531 75.9961 94.7603 76.0758C94.5584 76.0758 94.3511 76.0864 94.1386 76.1077C89.611 76.2831 85.0993 76.4744 80.5718 76.6657C80.3964 76.6657 80.221 76.6657 80.0457 76.6816C78.0529 76.7613 76.0601 76.857 74.0674 76.9367C72.9992 76.9845 71.9152 77.0323 70.847 77.0802C70.0818 77.1121 69.3166 77.1439 68.5514 77.1758C68.1847 77.1758 67.834 77.2077 67.4673 77.2236C65.0919 77.3193 62.7165 77.4309 60.3571 77.5584C57.057 77.7179 53.757 77.8454 50.457 77.9729C47.683 78.0686 44.8931 78.1802 42.1192 78.3077C41.9385 78.3077 41.7579 78.313 41.5772 78.3237C39.9989 78.3874 38.4206 78.4512 36.8423 78.5309C34.4351 78.6425 32.0597 78.6584 29.6524 78.6425V73.5569H29.6365Z" fill="#262626"/>
<path d="M53.6295 83.8716C55.5425 83.8716 57.4396 83.8716 59.4165 83.8556C60.0223 83.8556 60.6121 83.8556 61.2339 83.8556C61.7122 83.8556 62.1904 83.8556 62.6687 83.8556C62.7962 83.8556 62.9078 83.8556 63.0354 83.8556C65.4426 83.8397 67.9137 83.9991 69.9862 85.3223C71.2456 86.6136 71.134 88.0644 71.134 89.7702C71.134 90.0412 71.134 90.2963 71.134 90.5673C71.1871 92.4697 70.8577 93.7982 70.1456 94.5528C69.1412 95.5731 67.8977 96.0355 66.5108 96.3702C67.5311 97.8688 68.5673 99.3514 69.6195 100.834C70.289 101.791 70.9746 102.731 71.6441 103.688C71.7717 103.879 71.9152 104.07 72.0427 104.262C72.234 104.549 72.3297 104.751 72.3297 104.867C70.4485 105.378 68.1209 105.856 66.3354 104.867C64.8049 103.48 63.8165 101.536 62.844 99.75C62.7484 99.5746 62.6368 99.3833 62.5411 99.192C62.3498 98.8413 62.1585 98.4906 61.9832 98.1239C61.7919 97.7519 61.4836 97.3427 61.0585 96.8963C60.2774 96.8326 59.4962 96.7847 58.6991 96.721V104.867H53.6135V83.8716H53.6295ZM58.731 87.4904V93.2775C59.6397 93.2775 60.5324 93.2934 61.473 93.3093C61.76 93.3093 62.0469 93.3093 62.3339 93.3093C62.5571 93.3093 62.7803 93.3093 63.0194 93.3093C63.2532 93.3093 63.4871 93.3093 63.7209 93.3093C64.502 93.2296 64.9644 93.0702 65.6499 92.7035C66.16 91.9383 66.0803 91.2687 66.0803 90.36C66.0803 90.2006 66.0803 90.0359 66.0803 89.8658C66.0803 89.2388 65.9475 88.6489 65.6818 88.0962C64.789 87.5223 64.0875 87.4267 63.0354 87.4267C62.8122 87.4267 62.589 87.4267 62.3498 87.4267C62.0629 87.4267 61.7759 87.4267 61.489 87.4267C60.5803 87.4267 59.6716 87.4267 58.731 87.4426V87.4904Z" fill="#262626"/>
<path d="M145.632 85.5455C146.604 86.4063 147.386 87.6498 147.497 88.9571C147.497 89.1643 147.497 89.3716 147.497 89.5788C147.497 89.818 147.497 90.0412 147.497 90.2803C147.497 90.5354 147.497 90.7904 147.497 91.0455C147.497 91.3006 147.497 91.5716 147.497 91.8267C147.497 92.3847 147.497 92.9267 147.497 93.4847C147.497 94.1861 147.497 94.8876 147.497 95.589C147.497 96.1311 147.497 96.6731 147.497 97.2151C147.497 97.4702 147.497 97.7253 147.497 97.9963C147.513 99.9253 147.306 101.504 145.935 102.954C144.102 104.485 141.216 105.154 138.857 105.234C138.649 105.234 138.426 105.25 138.219 105.266C136.672 105.33 135.206 105.186 133.691 104.915C133.532 104.883 133.367 104.857 133.197 104.836C131.396 104.485 129.722 103.943 128.494 102.524C127.761 101.344 127.378 100.324 127.378 98.9369C127.378 98.7297 127.378 98.5065 127.378 98.2992C127.378 98.076 127.378 97.8369 127.378 97.6137C127.378 97.3799 127.378 97.1408 127.378 96.8963C127.378 96.4021 127.378 95.8919 127.378 95.3977C127.378 94.7601 127.378 94.1224 127.378 93.4847C127.378 92.8789 127.378 92.2571 127.378 91.6513C127.378 91.4281 127.378 91.2049 127.378 90.9658C127.378 88.973 127.681 87.3469 129.084 85.8643C132.799 82.2135 141.551 82.6759 145.632 85.5455ZM132.894 88.3991C132.559 89.0527 132.48 89.5948 132.48 90.3441C132.48 90.5513 132.48 90.7426 132.48 90.9658C132.48 91.189 132.48 91.3963 132.48 91.6194C132.48 91.8426 132.48 92.0658 132.48 92.305C132.48 92.7832 132.48 93.2615 132.48 93.7398C132.48 94.234 132.48 94.7122 132.48 95.2064C132.48 95.9079 132.48 96.6093 132.48 97.3108C132.48 97.534 132.48 97.7412 132.48 97.9644C132.48 99.1123 132.512 99.8616 133.293 100.722C134.728 101.934 137.183 101.727 138.936 101.631C139.988 101.504 140.961 101.312 141.838 100.722C142.332 100.053 142.459 99.5587 142.459 98.7297C142.459 98.5224 142.459 98.2992 142.459 98.076C142.459 97.8528 142.459 97.6137 142.459 97.3746C142.459 97.1354 142.459 96.8963 142.459 96.6572C142.459 96.163 142.459 95.6528 142.459 95.1586C142.459 94.5209 142.459 93.8832 142.459 93.2455C142.459 92.6397 142.459 92.018 142.459 91.4122C142.459 91.189 142.459 90.9499 142.459 90.7107C142.47 89.8392 142.284 89.0262 141.902 88.2716C141.487 87.9209 141.2 87.6977 140.69 87.5382C140.573 87.4957 140.456 87.4585 140.339 87.4266C140.228 87.3948 140.1 87.3629 139.988 87.331C139.877 87.2991 139.781 87.2672 139.67 87.2353C137.501 86.8208 134.568 86.9006 132.894 88.4151V88.3991Z" fill="#262626"/>
<path d="M47.731 85.5614C49.1339 86.9165 49.644 88.1441 49.6919 90.105C49.6919 90.5673 49.6919 91.0137 49.6919 91.476C49.6919 91.7151 49.6919 91.9702 49.6919 92.2093C49.6919 92.7195 49.6919 93.2296 49.6919 93.7398C49.6919 94.3934 49.6919 95.047 49.6919 95.7007C49.6919 96.2108 49.6919 96.705 49.6919 97.2152C49.6919 97.5659 49.6919 97.9326 49.6919 98.2833C49.6919 99.8616 49.4687 101.137 48.5281 102.444C47.731 103.193 46.9976 103.751 45.9614 104.15C45.802 104.214 45.6426 104.278 45.4831 104.341C41.5614 105.712 36.4917 105.665 32.6497 104.054C31.3265 103.353 30.3221 102.333 29.7801 100.93C29.6047 100.324 29.5728 99.8137 29.5569 99.192C29.5569 98.9688 29.5569 98.7456 29.5569 98.5065C29.5569 98.2674 29.5569 98.0123 29.5569 97.7731C29.5569 97.5181 29.5569 97.263 29.5569 97.0079C29.5569 96.4818 29.5569 95.9398 29.5569 95.4137C29.5569 94.7282 29.5569 94.0586 29.5569 93.3731C29.5569 92.847 29.5569 92.3209 29.5569 91.7948C29.5569 91.5398 29.5569 91.3006 29.5569 91.0455C29.5569 88.8455 29.7641 87.3629 31.3265 85.7368C35.0729 82.5165 43.873 82.3889 47.715 85.5774L47.731 85.5614ZM34.9135 88.5745C34.6743 89.0528 34.7062 89.4354 34.6903 89.9774C34.6903 90.2006 34.6903 90.4079 34.6903 90.631C34.6903 91.6354 34.6903 92.6238 34.6743 93.6282C34.6743 94.1543 34.6743 94.6804 34.6743 95.2065C34.6743 95.8441 34.6743 96.4818 34.6743 97.1195C34.6743 97.4862 34.6743 97.8369 34.6743 98.2036C34.6424 99.0645 34.8231 99.8563 35.2164 100.579C37.1772 101.87 39.9831 101.807 42.2309 101.424C43.315 101.105 43.9527 100.738 44.5904 99.7978C44.6648 99.4577 44.6966 99.107 44.686 98.7456C44.686 98.5384 44.686 98.3311 44.686 98.1239C44.686 97.9007 44.686 97.6775 44.686 97.4543C44.686 97.2311 44.686 96.992 44.686 96.7688C44.686 96.2905 44.686 95.7963 44.686 95.318C44.686 94.6963 44.686 94.0905 44.686 93.4688C44.686 92.8789 44.686 92.289 44.686 91.6992C44.686 91.476 44.686 91.2528 44.686 91.0296C44.686 89.818 44.6063 89.0209 43.857 88.0484C42.4701 86.8368 39.9512 87.0281 38.2135 87.1238C36.8743 87.2354 35.9019 87.6658 34.9453 88.6064L34.9135 88.5745Z" fill="#262626"/>
<path d="M104.357 83.8716H109.443V92.1934H118.355V83.8716H123.44V104.867H118.355V96.0036H109.443V104.867H104.357V83.8716Z" fill="#262626"/>
<path d="M93.2618 83.473C93.4318 83.473 93.6019 83.473 93.7719 83.473C95.8604 83.473 97.9169 83.6802 99.9894 83.8715V87.6658C98.7672 87.6658 97.9222 87.6392 97.4546 87.5861C97.2952 87.5701 97.1517 87.5542 96.9923 87.5382C96.8328 87.5223 96.6734 87.5063 96.514 87.4904C94.1227 87.246 91.7632 87.3682 89.4357 87.8571C88.9733 88.3194 89.0212 88.6223 89.0212 89.26C89.0212 89.3875 89.0212 89.5204 89.0212 89.6585C89.0212 89.7861 89.0212 89.9296 89.0212 90.0571C89.0212 90.5566 89.1275 91.0243 89.34 91.46C89.9458 91.8586 90.3603 91.8586 91.0777 91.8904C91.3009 91.8904 91.5241 91.8904 91.7473 91.9064C91.9864 91.9064 92.2096 91.9064 92.4487 91.9223C96.0623 92.018 98.4058 92.5228 99.4793 93.4368C100.818 94.8876 100.994 96.1948 100.994 98.1079C100.994 98.3152 100.994 98.5065 100.994 98.7137C100.994 100.276 100.707 101.806 99.6865 103.034C97.2314 105.266 93.5488 105.393 90.4241 105.25C88.3357 105.122 86.2472 104.899 84.1588 104.676V100.691C84.6052 100.738 85.0516 100.802 85.498 100.85C85.7849 100.882 86.0719 100.914 86.3588 100.946C86.9487 101.009 87.5226 101.089 88.1125 101.153C90.4719 101.44 92.6082 101.631 94.9038 100.866C95.0792 100.802 95.2705 100.754 95.4459 100.691C95.685 100.005 95.6691 99.3355 95.685 98.6181C95.685 98.4746 95.685 98.347 95.7009 98.2036C95.7009 97.518 95.7009 97.1833 95.3024 96.6253C94.6328 96.163 94.0748 96.147 93.2777 96.1311C88.9627 96.0354 86.2313 95.4456 85.0835 94.3615C83.9037 92.9107 83.7762 91.8107 83.7603 89.9774C83.7603 89.7755 83.7603 89.5735 83.7603 89.3716C83.7603 88.0165 83.84 86.9484 84.6371 85.8165C86.8849 83.6643 90.2647 83.457 93.2459 83.457L93.2618 83.473Z" fill="#262626"/>
<path d="M75.2629 83.8716H80.3485V104.867H75.2629V83.8716Z" fill="#262626"/>
<path d="M0 73.5569H26.9104V78.8019H17.2813V104.867H9.64502V78.8019H0V73.5569Z" fill="#262626"/>
<path d="M29.6365 73.5569H150V73.7323C149.777 73.7323 149.554 73.7429 149.33 73.7642C148.278 73.812 147.242 73.8439 146.19 73.8917C145.999 73.8917 145.807 73.9077 145.6 73.9236C143.145 74.0193 140.69 74.1309 138.235 74.2584C135.206 74.4178 132.177 74.5294 129.148 74.641C126.007 74.7526 122.882 74.8642 119.758 75.0077C119.598 75.0077 119.439 75.013 119.279 75.0236C117.526 75.1033 115.772 75.183 114.018 75.2628C109.602 75.486 105.171 75.6773 100.755 75.8367C98.7618 75.9164 96.7531 75.9961 94.7603 76.0758C94.5584 76.0758 94.3511 76.0864 94.1386 76.1077C89.611 76.2831 85.0993 76.4744 80.5718 76.6657C80.3964 76.6657 80.221 76.6657 80.0457 76.6816C78.0529 76.7613 76.0601 76.857 74.0674 76.9367C72.9992 76.9845 71.9152 77.0323 70.847 77.0802C70.0818 77.1121 69.3166 77.1439 68.5514 77.1758C68.1847 77.1758 67.834 77.2077 67.4673 77.2236C65.0919 77.3193 62.7165 77.4309 60.3571 77.5584C57.057 77.7179 53.757 77.8454 50.457 77.9729C47.683 78.0686 44.8931 78.1802 42.1192 78.3077C41.9385 78.3077 41.7579 78.313 41.5772 78.3237C39.9989 78.3874 38.4206 78.4512 36.8423 78.5309C34.4351 78.6425 32.0597 78.6584 29.6524 78.6425V73.5569H29.6365Z" fill="#262626"/>
<path d="M53.6295 83.8716C55.5425 83.8716 57.4396 83.8716 59.4165 83.8556C60.0223 83.8556 60.6121 83.8556 61.2339 83.8556C61.7122 83.8556 62.1904 83.8556 62.6687 83.8556C62.7962 83.8556 62.9078 83.8556 63.0354 83.8556C65.4426 83.8397 67.9137 83.9991 69.9862 85.3223C71.2456 86.6136 71.134 88.0644 71.134 89.7702C71.134 90.0412 71.134 90.2963 71.134 90.5673C71.1871 92.4697 70.8577 93.7982 70.1456 94.5528C69.1412 95.5731 67.8977 96.0355 66.5108 96.3702C67.5311 97.8688 68.5673 99.3514 69.6195 100.834C70.289 101.791 70.9746 102.731 71.6441 103.688C71.7717 103.879 71.9152 104.07 72.0427 104.262C72.234 104.549 72.3297 104.751 72.3297 104.867C70.4485 105.378 68.1209 105.856 66.3354 104.867C64.8049 103.48 63.8165 101.536 62.844 99.75C62.7484 99.5746 62.6368 99.3833 62.5411 99.192C62.3498 98.8413 62.1585 98.4906 61.9832 98.1239C61.7919 97.7519 61.4836 97.3427 61.0585 96.8963C60.2774 96.8326 59.4962 96.7847 58.6991 96.721V104.867H53.6135V83.8716H53.6295ZM58.731 87.4904V93.2775C59.6397 93.2775 60.5324 93.2934 61.473 93.3093C61.76 93.3093 62.0469 93.3093 62.3339 93.3093C62.5571 93.3093 62.7803 93.3093 63.0194 93.3093C63.2532 93.3093 63.4871 93.3093 63.7209 93.3093C64.502 93.2296 64.9644 93.0702 65.6499 92.7035C66.16 91.9383 66.0803 91.2687 66.0803 90.36C66.0803 90.2006 66.0803 90.0359 66.0803 89.8658C66.0803 89.2388 65.9475 88.6489 65.6818 88.0962C64.789 87.5223 64.0875 87.4267 63.0354 87.4267C62.8122 87.4267 62.589 87.4267 62.3498 87.4267C62.0629 87.4267 61.7759 87.4267 61.489 87.4267C60.5803 87.4267 59.6716 87.4267 58.731 87.4426V87.4904Z" fill="#262626"/>
<path d="M145.632 85.5455C146.604 86.4063 147.386 87.6498 147.497 88.9571C147.497 89.1643 147.497 89.3716 147.497 89.5788C147.497 89.818 147.497 90.0412 147.497 90.2803C147.497 90.5354 147.497 90.7904 147.497 91.0455C147.497 91.3006 147.497 91.5716 147.497 91.8267C147.497 92.3847 147.497 92.9267 147.497 93.4847C147.497 94.1861 147.497 94.8876 147.497 95.589C147.497 96.1311 147.497 96.6731 147.497 97.2151C147.497 97.4702 147.497 97.7253 147.497 97.9963C147.513 99.9253 147.306 101.504 145.935 102.954C144.102 104.485 141.216 105.154 138.857 105.234C138.649 105.234 138.426 105.25 138.219 105.266C136.672 105.33 135.206 105.186 133.691 104.915C133.532 104.883 133.367 104.857 133.197 104.836C131.396 104.485 129.722 103.943 128.494 102.524C127.761 101.344 127.378 100.324 127.378 98.9369C127.378 98.7297 127.378 98.5065 127.378 98.2992C127.378 98.076 127.378 97.8369 127.378 97.6137C127.378 97.3799 127.378 97.1408 127.378 96.8963C127.378 96.4021 127.378 95.8919 127.378 95.3977C127.378 94.7601 127.378 94.1224 127.378 93.4847C127.378 92.8789 127.378 92.2571 127.378 91.6513C127.378 91.4281 127.378 91.2049 127.378 90.9658C127.378 88.973 127.681 87.3469 129.084 85.8643C132.799 82.2135 141.551 82.6759 145.632 85.5455ZM132.894 88.3991C132.559 89.0527 132.48 89.5948 132.48 90.3441C132.48 90.5513 132.48 90.7426 132.48 90.9658C132.48 91.189 132.48 91.3963 132.48 91.6194C132.48 91.8426 132.48 92.0658 132.48 92.305C132.48 92.7832 132.48 93.2615 132.48 93.7398C132.48 94.234 132.48 94.7122 132.48 95.2064C132.48 95.9079 132.48 96.6093 132.48 97.3108C132.48 97.534 132.48 97.7412 132.48 97.9644C132.48 99.1123 132.512 99.8616 133.293 100.722C134.728 101.934 137.183 101.727 138.936 101.631C139.988 101.504 140.961 101.312 141.838 100.722C142.332 100.053 142.459 99.5587 142.459 98.7297C142.459 98.5224 142.459 98.2992 142.459 98.076C142.459 97.8528 142.459 97.6137 142.459 97.3746C142.459 97.1354 142.459 96.8963 142.459 96.6572C142.459 96.163 142.459 95.6528 142.459 95.1586C142.459 94.5209 142.459 93.8832 142.459 93.2455C142.459 92.6397 142.459 92.018 142.459 91.4122C142.459 91.189 142.459 90.9499 142.459 90.7107C142.47 89.8392 142.284 89.0262 141.902 88.2716C141.487 87.9209 141.2 87.6977 140.69 87.5382C140.573 87.4957 140.456 87.4585 140.339 87.4266C140.228 87.3948 140.1 87.3629 139.988 87.331C139.877 87.2991 139.781 87.2672 139.67 87.2353C137.501 86.8208 134.568 86.9006 132.894 88.4151V88.3991Z" fill="#262626"/>
<path d="M47.731 85.5614C49.1339 86.9165 49.644 88.1441 49.6919 90.105C49.6919 90.5673 49.6919 91.0137 49.6919 91.476C49.6919 91.7151 49.6919 91.9702 49.6919 92.2093C49.6919 92.7195 49.6919 93.2296 49.6919 93.7398C49.6919 94.3934 49.6919 95.047 49.6919 95.7007C49.6919 96.2108 49.6919 96.705 49.6919 97.2152C49.6919 97.5659 49.6919 97.9326 49.6919 98.2833C49.6919 99.8616 49.4687 101.137 48.5281 102.444C47.731 103.193 46.9976 103.751 45.9614 104.15C45.802 104.214 45.6426 104.278 45.4831 104.341C41.5614 105.712 36.4917 105.665 32.6497 104.054C31.3265 103.353 30.3221 102.333 29.7801 100.93C29.6047 100.324 29.5728 99.8137 29.5569 99.192C29.5569 98.9688 29.5569 98.7456 29.5569 98.5065C29.5569 98.2674 29.5569 98.0123 29.5569 97.7731C29.5569 97.5181 29.5569 97.263 29.5569 97.0079C29.5569 96.4818 29.5569 95.9398 29.5569 95.4137C29.5569 94.7282 29.5569 94.0586 29.5569 93.3731C29.5569 92.847 29.5569 92.3209 29.5569 91.7948C29.5569 91.5398 29.5569 91.3006 29.5569 91.0455C29.5569 88.8455 29.7641 87.3629 31.3265 85.7368C35.0729 82.5165 43.873 82.3889 47.715 85.5774L47.731 85.5614ZM34.9135 88.5745C34.6743 89.0528 34.7062 89.4354 34.6903 89.9774C34.6903 90.2006 34.6903 90.4079 34.6903 90.631C34.6903 91.6354 34.6903 92.6238 34.6743 93.6282C34.6743 94.1543 34.6743 94.6804 34.6743 95.2065C34.6743 95.8441 34.6743 96.4818 34.6743 97.1195C34.6743 97.4862 34.6743 97.8369 34.6743 98.2036C34.6424 99.0645 34.8231 99.8563 35.2164 100.579C37.1772 101.87 39.9831 101.807 42.2309 101.424C43.315 101.105 43.9527 100.738 44.5904 99.7978C44.6648 99.4577 44.6966 99.107 44.686 98.7456C44.686 98.5384 44.686 98.3311 44.686 98.1239C44.686 97.9007 44.686 97.6775 44.686 97.4543C44.686 97.2311 44.686 96.992 44.686 96.7688C44.686 96.2905 44.686 95.7963 44.686 95.318C44.686 94.6963 44.686 94.0905 44.686 93.4688C44.686 92.8789 44.686 92.289 44.686 91.6992C44.686 91.476 44.686 91.2528 44.686 91.0296C44.686 89.818 44.6063 89.0209 43.857 88.0484C42.4701 86.8368 39.9512 87.0281 38.2135 87.1238C36.8743 87.2354 35.9019 87.6658 34.9453 88.6064L34.9135 88.5745Z" fill="#262626"/>
<path d="M104.357 83.8716H109.443V92.1934H118.355V83.8716H123.44V104.867H118.355V96.0036H109.443V104.867H104.357V83.8716Z" fill="#262626"/>
<path d="M93.2618 83.473C93.4318 83.473 93.6019 83.473 93.7719 83.473C95.8604 83.473 97.9169 83.6802 99.9894 83.8715V87.6658C98.7672 87.6658 97.9222 87.6392 97.4546 87.5861C97.2952 87.5701 97.1517 87.5542 96.9923 87.5382C96.8328 87.5223 96.6734 87.5063 96.514 87.4904C94.1227 87.246 91.7632 87.3682 89.4357 87.8571C88.9733 88.3194 89.0212 88.6223 89.0212 89.26C89.0212 89.3875 89.0212 89.5204 89.0212 89.6585C89.0212 89.7861 89.0212 89.9296 89.0212 90.0571C89.0212 90.5566 89.1275 91.0243 89.34 91.46C89.9458 91.8586 90.3603 91.8586 91.0777 91.8904C91.3009 91.8904 91.5241 91.8904 91.7473 91.9064C91.9864 91.9064 92.2096 91.9064 92.4487 91.9223C96.0623 92.018 98.4058 92.5228 99.4793 93.4368C100.818 94.8876 100.994 96.1948 100.994 98.1079C100.994 98.3152 100.994 98.5065 100.994 98.7137C100.994 100.276 100.707 101.806 99.6865 103.034C97.2314 105.266 93.5488 105.393 90.4241 105.25C88.3357 105.122 86.2472 104.899 84.1588 104.676V100.691C84.6052 100.738 85.0516 100.802 85.498 100.85C85.7849 100.882 86.0719 100.914 86.3588 100.946C86.9487 101.009 87.5226 101.089 88.1125 101.153C90.4719 101.44 92.6082 101.631 94.9038 100.866C95.0792 100.802 95.2705 100.754 95.4459 100.691C95.685 100.005 95.6691 99.3355 95.685 98.6181C95.685 98.4746 95.685 98.347 95.7009 98.2036C95.7009 97.518 95.7009 97.1833 95.3024 96.6253C94.6328 96.163 94.0748 96.147 93.2777 96.1311C88.9627 96.0354 86.2313 95.4456 85.0835 94.3615C83.9037 92.9107 83.7762 91.8107 83.7603 89.9774C83.7603 89.7755 83.7603 89.5735 83.7603 89.3716C83.7603 88.0165 83.84 86.9484 84.6371 85.8165C86.8849 83.6643 90.2647 83.457 93.2459 83.457L93.2618 83.473Z" fill="#262626"/>
<path d="M75.2629 83.8716H80.3485V104.867H75.2629V83.8716Z" fill="#262626"/>
</svg>
