<svg width="74" height="37" viewBox="0 0 74 37" fill="none" xmlns="http://www.w3.org/2000/svg">
<path d="M7.82009 23.9771C4.25258 23.9771 1.14178 28.2866 0 30.5379C6.91528 30.7952 10.5991 33.3037 17.9022 35.0403C25.2052 36.777 30.5048 37.9348 40.5223 32.6605C55.2576 24.6203 67.968 9.24765 74 0.5C68.1576 8.26997 57.3473 17.3306 52.6725 20.8897C56.0849 18.1625 63.724 7.55386 67.0847 2.49395C54.7406 18.7028 43.4306 24.2987 34.7057 23.6555C44.0639 19.5905 53.9866 6.69625 57.7782 0.757284C37.2908 14.7149 28.4367 13.9431 21.586 14.9722C12.4117 16.3504 12.9042 22.2405 14.1537 24.9419C13.529 24.6203 11.3876 23.9771 7.82009 23.9771Z" fill="#F03240"/>
</svg>
