<svg width="72" height="72" viewBox="0 0 72 72" fill="none" xmlns="http://www.w3.org/2000/svg">
<g clip-path="url(#clip0_8254_933)">
<path fill-rule="evenodd" clip-rule="evenodd" d="M29.2197 54.84C27.9941 54.5713 26.7907 54.2103 25.6197 53.76C24.4725 53.3315 23.3759 52.7782 22.3497 52.11C20.5654 50.9786 19.0855 49.4272 18.0395 47.5915C16.9936 45.7558 16.4134 43.6918 16.3497 41.58C16.2084 37.3267 17.5322 33.1539 20.0997 29.76C21.7376 27.4848 23.8582 25.5999 26.3097 24.24C28.7915 22.9252 31.5188 22.1387 34.3197 21.93C38.0425 21.7149 41.7447 22.6166 44.9517 24.5194C48.1587 26.4222 50.7243 29.2395 52.3197 32.61C53.2708 34.203 53.8895 35.9721 54.1384 37.8107C54.3873 39.6493 54.2613 41.5192 53.7679 43.3078C53.2745 45.0963 52.424 46.7664 51.2676 48.2173C50.1113 49.6683 48.673 50.87 47.0397 51.75C46.9044 51.8275 46.786 51.9313 46.6913 52.0552C46.5967 52.1791 46.5278 52.3207 46.4887 52.4716C46.4496 52.6225 46.441 52.7797 46.4635 52.934C46.486 53.0883 46.5391 53.2365 46.6197 53.37C46.6942 53.5043 46.7952 53.6221 46.9164 53.7164C47.0376 53.8107 47.1767 53.8796 47.3252 53.9188C47.4737 53.958 47.6286 53.9668 47.7806 53.9447C47.9326 53.9226 48.0785 53.8699 48.2097 53.79C57.8397 48.51 58.9497 39.06 55.3197 31.17C53.4981 27.1539 50.5364 23.7617 46.8029 21.4149C43.0693 19.0681 38.7284 17.8702 34.3197 17.97C30.9416 18.1921 27.6539 19.1548 24.6897 20.79C21.0236 22.8587 18.0304 25.9389 16.0675 29.6626C14.1045 33.3864 13.2548 37.5964 13.6197 41.79C13.7645 44.2961 14.5107 46.7304 15.7953 48.887C17.0799 51.0437 18.865 52.8592 20.9997 54.18C22.1967 54.872 23.4638 55.4352 24.7797 55.86C26.0521 56.2978 27.3558 56.6388 28.6797 56.88C28.9579 56.9332 29.2459 56.875 29.4816 56.7178C29.7172 56.5607 29.8818 56.3173 29.9397 56.04C29.9882 55.7865 29.9415 55.5239 29.8087 55.3026C29.6759 55.0812 29.4662 54.9165 29.2197 54.84Z" fill="#F03240"/>
<path fill-rule="evenodd" clip-rule="evenodd" d="M35.7002 50.4C37.0571 50.1331 38.3221 49.5207 39.3732 48.6221C40.4242 47.7234 41.2257 46.5689 41.7002 45.27C41.7779 45.1352 41.8272 44.9859 41.845 44.8313C41.8629 44.6768 41.8489 44.5202 41.8039 44.3712C41.7589 44.2223 41.6839 44.0841 41.5836 43.9652C41.4832 43.8463 41.3595 43.7493 41.2202 43.68C41.0854 43.6023 40.9361 43.553 40.7816 43.5352C40.627 43.5173 40.4704 43.5313 40.3215 43.5763C40.1725 43.6213 40.0344 43.6963 39.9155 43.7966C39.7966 43.897 39.6995 44.0207 39.6302 44.16C39.046 45.0522 38.208 45.7491 37.2242 46.1608C36.2404 46.5725 35.1558 46.6802 34.1102 46.47C33.4933 46.3982 32.8883 46.247 32.3102 46.02C30.7561 45.5249 29.414 44.521 28.5002 43.17C28.4509 43.025 28.3695 42.893 28.2621 42.7838C28.1548 42.6746 28.0242 42.5909 27.8802 42.5391C27.7361 42.4872 27.5822 42.4684 27.4298 42.4842C27.2775 42.4999 27.1307 42.5497 27.0002 42.63C26.746 42.7418 26.5464 42.9498 26.4452 43.2085C26.344 43.4671 26.3494 43.7553 26.4602 44.01C27.0849 46.2621 28.5296 48.1991 30.5102 49.44C31.4293 49.9776 32.4517 50.3149 33.5102 50.43C34.2375 50.5313 34.976 50.5211 35.7002 50.4Z" fill="#F03240"/>
<path fill-rule="evenodd" clip-rule="evenodd" d="M71.6697 37.32C71.4828 36.5246 71.1902 35.7578 70.7997 35.04C70.0912 33.7792 69.1277 32.6799 67.9707 31.8121C66.8137 30.9444 65.4885 30.3272 64.0797 30C63.8502 28.2355 63.4892 26.4907 62.9997 24.78C61.8877 20.9419 59.9502 17.3933 57.3229 14.3825C54.6955 11.3717 51.4419 8.97153 47.7897 7.35001C43.9268 5.89009 39.8076 5.23035 35.6819 5.41084C31.5563 5.59134 27.5104 6.60831 23.7897 8.40001C19.9632 9.96621 16.5803 12.4488 13.9385 15.6294C11.2967 18.81 9.47713 22.5911 8.63974 26.64C8.63974 27.36 8.63974 28.08 8.45974 28.8C6.9331 29.0847 5.4892 29.7064 4.23326 30.6199C2.97732 31.5333 1.94098 32.7154 1.19974 34.08C0.809242 34.7978 0.516641 35.5646 0.329744 36.36C-0.161998 38.0245 -0.161998 39.7956 0.329744 41.46C0.776466 42.7144 1.52885 43.8376 2.51885 44.7281C3.50885 45.6186 4.70522 46.2482 5.99974 46.56C6.59615 46.7472 7.20886 46.8777 7.82974 46.95C8.43828 47.0098 9.05121 47.0098 9.65974 46.95C9.9344 46.9405 10.1975 46.837 10.405 46.6568C10.6125 46.4766 10.7518 46.2306 10.7997 45.96C10.9214 46.0185 11.0547 46.0489 11.1897 46.0489C11.3248 46.0489 11.4581 46.0185 11.5797 45.96C11.7634 45.8771 11.9184 45.7417 12.0252 45.5709C12.1319 45.4 12.1857 45.2014 12.1797 45C11.4772 42.0444 11.0355 39.0329 10.8597 36C10.6926 33.0352 10.9043 30.0612 11.4897 27.15C12.4314 23.6966 14.1866 20.519 16.6084 17.8832C19.0302 15.2474 22.0482 13.23 25.4097 12C28.666 10.4391 32.2024 9.54718 35.8094 9.37714C39.4165 9.20709 43.0211 9.76233 46.4097 11.01C49.5994 12.3542 52.4633 14.3676 54.8079 16.9139C57.1524 19.4603 58.9229 22.4804 59.9997 25.77C62.2707 32.6214 62.069 40.0519 59.4297 46.77C59.3715 46.9137 59.3424 47.0675 59.3441 47.2225C59.3458 47.3776 59.3783 47.5307 59.4397 47.6731C59.5011 47.8154 59.5902 47.9442 59.7018 48.0518C59.8134 48.1594 59.9453 48.2438 60.0897 48.3C60.2751 48.3597 60.4744 48.3597 60.6597 48.3C59.826 50.0452 58.8211 51.7034 57.6597 53.25C56.5508 54.7533 55.2497 56.1047 53.7897 57.27C51.5447 59.2911 48.6497 60.4406 45.6297 60.51C45.4964 60.268 45.2816 60.081 45.0235 59.9821C44.7654 59.8833 44.4807 59.879 44.2197 59.97C43.9257 60.0898 43.6912 60.3213 43.5675 60.6137C43.4438 60.9061 43.441 61.2356 43.5597 61.53C43.5597 61.92 43.5597 62.19 43.1697 62.46C42.6897 62.8254 42.1194 63.0535 41.5197 63.12C40.6821 63.2795 39.8185 63.2384 38.9997 63C38.1693 62.7967 37.392 62.4182 36.7197 61.89C36.2097 61.53 35.8197 61.29 35.9997 60.93C36.2255 60.4923 36.582 60.1358 37.0197 59.91L39.0597 59.25C39.635 59.1555 40.2168 59.1053 40.7997 59.1H42.6597C42.9262 59.1433 43.199 59.0793 43.4183 58.9218C43.6377 58.7643 43.7856 58.5264 43.8297 58.26C43.8558 58.1241 43.8547 57.9843 43.8265 57.8488C43.7984 57.7132 43.7437 57.5846 43.6656 57.4703C43.5875 57.356 43.4876 57.2582 43.3716 57.1827C43.2556 57.1071 43.1259 57.0552 42.9897 57.03L38.9997 56.37C38.4907 56.3251 37.9788 56.3251 37.4697 56.37C36.9304 56.4117 36.3972 56.5123 35.8797 56.67C35.0295 56.8823 34.2473 57.3077 33.6069 57.9061C32.9666 58.5045 32.4892 59.2561 32.2197 60.09C32.0226 61.0395 32.1313 62.0269 32.5301 62.9108C32.9289 63.7947 33.5974 64.5296 34.4397 65.01C35.6405 65.8027 37.0041 66.3153 38.4297 66.51C39.7911 66.6478 41.1659 66.4734 42.4497 66C43.6783 65.5372 44.7286 64.697 45.4497 63.6C45.5809 63.3217 45.6815 63.03 45.7497 62.73C48.8591 63.1436 52.0186 62.5328 54.7497 60.99C57.236 59.5439 59.3037 57.4763 60.7497 54.99C62.0617 52.8377 62.9857 50.4718 63.4797 48H64.3197C64.9388 47.9029 65.5503 47.7626 66.1497 47.58C67.4003 47.2334 68.5478 46.5881 69.4937 45.6997C70.4396 44.8113 71.1555 43.7064 71.5797 42.48C72.1235 40.8075 72.1549 39.0105 71.6697 37.32ZM8.18974 44.4C7.75969 44.256 7.3389 44.0857 6.92974 43.89C6.22848 43.5477 5.61344 43.0516 5.1304 42.4387C4.64735 41.8258 4.30874 41.1119 4.13974 40.35C3.93852 39.3601 3.93852 38.3399 4.13974 37.35C4.34826 36.1191 4.81749 34.9469 5.51599 33.9121C6.21448 32.8773 7.1261 32.0037 8.18974 31.35C8.15992 32.9921 8.22001 34.6345 8.36974 36.27C8.66963 39.2241 9.23184 42.1456 10.0497 45C9.86974 45 9.74974 44.79 9.53974 44.79L8.18974 44.4ZM65.1897 44.82C60.6597 47.01 64.8897 42 64.3797 32.46C66.2747 33.8416 67.5556 35.9082 67.9497 38.22C68.147 39.2103 68.147 40.2297 67.9497 41.22C67.7817 42.0023 67.434 42.7347 66.9342 43.3595C66.4343 43.9843 65.796 44.4843 65.0697 44.82H65.1897Z" fill="#262626"/>
<path fill-rule="evenodd" clip-rule="evenodd" d="M26.4897 31.53C25.9472 31.5149 25.4069 31.6067 24.8997 31.8C23.7603 32.2481 22.7353 32.9451 21.8997 33.84C21.6661 33.9882 21.5004 34.2226 21.4386 34.4922C21.3769 34.7618 21.424 35.0449 21.5697 35.28C21.9897 36.03 27.5697 35.28 28.6497 35.28C29.1281 35.2989 29.602 35.3796 30.0597 35.52C30.3323 35.6791 30.6555 35.7273 30.9627 35.6548C31.2698 35.5822 31.5372 35.3943 31.7097 35.13C31.8672 34.8621 31.9145 34.5435 31.8417 34.2413C31.769 33.9392 31.5819 33.677 31.3197 33.51C30.4222 32.6158 29.3046 31.9742 28.0797 31.65C27.5604 31.52 27.0227 31.4794 26.4897 31.53Z" fill="#F03240"/>
<path fill-rule="evenodd" clip-rule="evenodd" d="M48.2393 35.28C48.3824 35.0413 48.4248 34.7555 48.3573 34.4855C48.2898 34.2154 48.1179 33.9833 47.8793 33.84C47.052 32.9353 46.0247 32.2367 44.8793 31.8C44.3721 31.6066 43.8318 31.5149 43.2893 31.53C42.743 31.4989 42.1954 31.5598 41.6693 31.71C40.4471 32.0406 39.331 32.6813 38.4293 33.57C38.1721 33.7416 37.9912 34.0059 37.9241 34.3077C37.857 34.6095 37.909 34.9256 38.0693 35.19C38.2366 35.4603 38.5043 35.6531 38.8136 35.7263C39.1229 35.7994 39.4487 35.7468 39.7193 35.58C40.1769 35.4395 40.6509 35.3588 41.1293 35.34C44.5193 35.07 47.6093 36.36 48.2393 35.28Z" fill="#F03240"/>
</g>
<defs>
<clipPath id="clip0_8254_933">
<rect width="72" height="72" fill="white"/>
</clipPath>
</defs>
</svg>
