<svg width="72" height="72" viewBox="0 0 72 72" fill="none" xmlns="http://www.w3.org/2000/svg">
<g clip-path="url(#clip0_8254_969)">
<path fill-rule="evenodd" clip-rule="evenodd" d="M69.3904 50.34C68.9751 50.1218 68.5091 50.0182 68.0404 50.04C67.3804 50.04 66.3604 50.31 65.9704 50.34C64.6104 50.46 63.2604 50.61 61.9204 50.79H61.6504C61.6504 49.77 61.8304 48.72 61.8604 47.79C61.8904 46.86 61.8604 46.35 61.8604 45.63C61.8604 44.91 61.8604 44.19 61.6204 43.5C61.3804 41.79 60.9604 40.17 60.7204 38.49C60.7204 38.2195 60.613 37.96 60.4217 37.7687C60.2304 37.5774 59.9709 37.47 59.7004 37.47C59.4299 37.47 59.1705 37.5774 58.9792 37.7687C58.7879 37.96 58.6804 38.2195 58.6804 38.49C58.3209 40.2013 58.0804 41.9354 57.9604 43.68C57.9154 44.4193 57.9154 45.1607 57.9604 45.9C58.006 46.6248 58.0962 47.3462 58.2304 48.06C58.4104 49.2 58.6504 50.31 58.8904 51.42C58.5604 51.42 58.2304 51.42 57.9004 51.6C57.6376 51.6511 57.4043 51.8008 57.2482 52.0182C57.0921 52.2357 57.0249 52.5046 57.0604 52.77C57.1046 53.0363 57.2525 53.2743 57.4718 53.4318C57.6911 53.5892 57.9639 53.6533 58.2304 53.61C60.6772 53.4311 63.1337 53.4311 65.5804 53.61L64.5904 55.17C63.5404 56.64 62.4904 58.17 61.5904 59.64C59.4904 62.79 57.5104 66.03 55.5904 69.21C54.0304 66.57 52.5904 64.02 50.7904 61.56C49.5004 59.76 48.1204 58.02 46.7404 56.22L45.0304 54.42V54.27L49.6804 53.67C49.6804 53.67 51.8704 52.71 51.8404 51.81C51.8104 50.91 52.2304 49.53 52.3204 48.36C52.4287 47.3629 52.4287 46.357 52.3204 45.36C52.0804 44.22 51.6904 43.2 51.4204 42.06C51.4246 41.9249 51.401 41.7904 51.3512 41.6648C51.3015 41.5391 51.2265 41.425 51.1309 41.3295C51.0354 41.2339 50.9213 41.1589 50.7956 41.1091C50.67 41.0594 50.5355 41.0358 50.4004 41.04C50.2693 41.0358 50.1387 41.0586 50.0167 41.1068C49.8947 41.1551 49.7839 41.2279 49.6911 41.3207C49.5983 41.4134 49.5256 41.5242 49.4773 41.6462C49.429 41.7682 49.4062 41.8988 49.4104 42.03C48.8445 43.1488 48.3729 44.3128 48.0004 45.51C47.9555 45.9989 47.9555 46.491 48.0004 46.98C48.0004 47.46 48.0004 47.97 48.1804 48.45C48.3904 49.5 48.7204 50.49 48.9904 51.45L43.3204 51.3H41.7304C41.3496 51.3099 40.9845 51.4537 40.6993 51.706C40.414 51.9584 40.2267 52.3033 40.1704 52.68C40.0865 53.4237 40.2556 54.1741 40.6504 54.81C41.4645 56.1006 42.3666 57.3335 43.3504 58.5C50.5504 67.17 54.6604 73.74 56.3404 71.55C59.1004 68.28 61.8304 65.04 64.4404 61.65C65.5204 60.21 66.5704 58.65 67.6504 57.27C68.0104 56.76 68.3704 56.22 68.7004 55.65C69.0518 55.0619 69.3626 54.4505 69.6304 53.82C69.6304 53.82 69.9904 52.83 70.0804 52.44C70.1914 52.0612 70.1849 51.6577 70.0617 51.2828C69.9385 50.9078 69.7044 50.5791 69.3904 50.34Z" fill="#262626"/>
<path fill-rule="evenodd" clip-rule="evenodd" d="M18.81 30C18.6992 30.1038 18.6109 30.2293 18.5505 30.3686C18.4901 30.5079 18.459 30.6581 18.459 30.81C18.459 30.9618 18.4901 31.1121 18.5505 31.2514C18.6109 31.3907 18.6992 31.5162 18.81 31.62C21.1708 33.5961 24.1617 34.6604 27.24 34.62C27.24 35.58 27.39 36.57 27.48 37.62C27.4838 37.7723 27.5181 37.9224 27.5809 38.0612C27.6437 38.2001 27.7337 38.325 27.8456 38.4285C27.9575 38.5319 28.0889 38.6119 28.2323 38.6637C28.3756 38.7155 28.5279 38.7381 28.68 38.73C28.9851 38.7144 29.2719 38.5802 29.4794 38.356C29.6868 38.1318 29.7983 37.8353 29.79 37.53V34.68C30.8059 34.5856 31.8104 34.3947 32.79 34.11C33.7523 33.9066 34.662 33.5058 35.4615 32.9329C36.2609 32.3601 36.9329 31.6275 37.4347 30.7816C37.9366 29.9358 38.2576 28.995 38.3772 28.0187C38.4969 27.0425 38.4127 26.052 38.13 25.11C37.9257 24.2337 37.4892 23.4286 36.8663 22.7793C36.2434 22.13 35.4571 21.6605 34.59 21.42C33.1881 21.0739 31.7385 20.9624 30.3 21.09V18.09V15.72C31.7243 15.7816 33.1262 16.0965 34.44 16.65C34.5467 16.7521 34.6736 16.8306 34.8127 16.8803C34.9517 16.9301 35.0996 16.9499 35.2469 16.9386C35.3941 16.9273 35.5372 16.885 35.667 16.8146C35.7968 16.7442 35.9103 16.6472 36 16.53C36.1032 16.2843 36.1145 16.0096 36.0319 15.7562C35.9492 15.5029 35.7782 15.2877 35.55 15.15C33.9589 14.3191 32.2315 13.7806 30.45 13.56V8.03998C30.4667 7.90518 30.4554 7.76839 30.417 7.63812C30.3785 7.50786 30.3136 7.38691 30.2264 7.28279C30.1391 7.17867 30.0314 7.09362 29.9099 7.03293C29.7884 6.97223 29.6557 6.93719 29.52 6.92998C29.3899 6.91761 29.2587 6.93113 29.1338 6.96975C29.0089 7.00837 28.893 7.07133 28.7926 7.155C28.6921 7.23867 28.6093 7.34139 28.5488 7.45724C28.4883 7.57309 28.4513 7.69977 28.44 7.82998C28.08 9.65998 27.87 11.55 27.57 13.41C26.5584 13.424 25.5517 13.5549 24.57 13.8C23.8147 13.9461 23.0962 14.2421 22.4571 14.6704C21.818 15.0988 21.2711 15.6508 20.8489 16.294C20.4266 16.9371 20.1375 17.6584 19.9986 18.4151C19.8597 19.1719 19.8738 19.9488 20.04 20.7C20.114 21.5836 20.4344 22.4287 20.9647 23.1393C21.495 23.85 22.214 24.3976 23.04 24.72C24.1481 25.1039 25.3183 25.2769 26.49 25.23V27.24C26.49 28.83 26.76 30.42 26.91 32.01C24.5827 32.1089 22.2929 31.3986 20.43 30C20.324 29.893 20.1979 29.808 20.0588 29.75C19.9198 29.692 19.7707 29.6622 19.62 29.6622C19.4694 29.6622 19.3203 29.692 19.1812 29.75C19.0422 29.808 18.916 29.893 18.81 30ZM33.15 25.14C33.484 25.1478 33.8074 25.2586 34.0759 25.4573C34.3444 25.656 34.545 25.9329 34.65 26.25C35.64 29.25 33.03 31.02 30.06 31.68L30.24 27.21V25.08H30.69C31.511 25.0266 32.3352 25.0568 33.15 25.17V25.14ZM23.43 20.04C22.89 17.67 24.72 16.56 26.91 16.14H27C27 16.83 26.73 17.52 26.67 18.24C26.61 18.96 26.67 20.37 26.49 21.45C25.14 21.54 23.79 21.57 23.43 20.04Z" fill="#262626"/>
<path fill-rule="evenodd" clip-rule="evenodd" d="M16.3804 45.3C18.3952 46.1919 20.5106 46.8366 22.6804 47.22C24.8374 47.612 27.0287 47.7829 29.2204 47.73C32.4322 47.7336 35.6303 47.3099 38.7304 46.47C40.865 45.8765 42.8907 44.9447 44.7304 43.71C44.8631 43.6176 44.9757 43.4993 45.0615 43.3622C45.1473 43.2252 45.2045 43.0722 45.2298 42.9125C45.255 42.7528 45.2477 42.5896 45.2082 42.4328C45.1688 42.276 45.0981 42.1288 45.0004 42C44.9184 41.8731 44.812 41.7637 44.6874 41.6782C44.5628 41.5928 44.4224 41.533 44.2744 41.5023C44.1265 41.4716 43.9739 41.4706 43.8256 41.4994C43.6772 41.5282 43.5361 41.5862 43.4104 41.67C41.3449 42.9574 39.0547 43.8429 36.6604 44.28C34.1984 44.7533 31.6974 44.9943 29.1904 45C27.1734 44.9806 25.1634 44.7595 23.1904 44.34C21.272 43.9324 19.4089 43.2979 17.6404 42.45C16.29 41.7975 14.9956 41.0349 13.7704 40.17C12.5585 39.2892 11.4424 38.2837 10.4404 37.17C1.95039 28.47 5.16039 16.71 12.9904 9.56998C16.902 5.823 22.0102 3.57611 27.4155 3.2249C32.8208 2.87369 38.1768 4.44068 42.5404 7.64998C43.8815 8.59587 45.0317 9.78679 45.9304 11.16C46.8952 12.5656 47.7192 14.0628 48.3904 15.63C48.4334 15.7663 48.5046 15.8921 48.5994 15.9992C48.6941 16.1063 48.8103 16.1922 48.9405 16.2515C49.0706 16.3107 49.2117 16.342 49.3547 16.3432C49.4977 16.3443 49.6393 16.3155 49.7704 16.2584C49.9015 16.2013 50.0191 16.1173 50.1157 16.0118C50.2122 15.9063 50.2855 15.7817 50.3307 15.6461C50.376 15.5104 50.3922 15.3668 50.3784 15.2245C50.3645 15.0822 50.3209 14.9444 50.2504 14.82C49.4902 12.7655 48.4828 10.8111 47.2504 8.99998C46.3652 7.73533 45.2929 6.61252 44.0704 5.66998C39.2724 1.80089 33.2454 -0.218074 27.085 -0.019883C20.9245 0.178308 15.0397 2.5805 10.5004 6.74998C7.09469 9.53207 4.53834 13.2143 3.12227 17.3777C1.70619 21.541 1.48726 26.0183 2.49039 30.3C2.63019 35.2447 3.99057 40.0782 6.45039 44.37C8.89471 48.1325 12.4798 51.0132 16.6804 52.59C18.0229 53.0707 19.396 53.4615 20.7904 53.76C22.1557 54.0574 23.5384 54.2678 24.9304 54.39C26.6513 54.6112 28.3855 54.7114 30.1204 54.69C31.3395 54.6767 32.551 54.495 33.7204 54.15C34.0119 54.0658 34.2593 53.8718 34.4104 53.6087C34.5615 53.3456 34.6045 53.0342 34.5304 52.74C34.4399 52.4526 34.2447 52.2098 33.9835 52.0597C33.7223 51.9097 33.4142 51.8634 33.1204 51.93C32.1346 52.1361 31.1253 52.2068 30.1204 52.14C28.5245 52.0367 26.9395 51.8059 25.3804 51.45C24.1131 51.2144 22.8609 50.9039 21.6304 50.52C20.3855 50.1826 19.1712 49.7411 18.0004 49.2C15.8817 48.3056 13.9486 47.0237 12.3004 45.42C10.6204 43.8253 9.22088 41.9592 8.16039 39.9C9.33577 41.0146 10.6111 42.0188 11.9704 42.9C13.3738 43.8167 14.8485 44.6193 16.3804 45.3Z" fill="#F03240"/>
<path fill-rule="evenodd" clip-rule="evenodd" d="M48.9001 24C48.7653 23.9876 48.6293 24.0031 48.5006 24.0454C48.3719 24.0877 48.2533 24.1559 48.1521 24.2459C48.0509 24.3359 47.9692 24.4457 47.9121 24.5685C47.855 24.6913 47.8237 24.8246 47.8201 24.96C47.4126 26.371 47.0821 27.8031 46.8301 29.25C46.7845 29.8591 46.7845 30.4708 46.8301 31.08C46.7855 31.6892 46.7855 32.3008 46.8301 32.91C46.9801 34.35 47.2201 35.73 47.4001 37.17C47.3731 37.3373 47.3827 37.5084 47.4283 37.6716C47.4739 37.8348 47.5544 37.9861 47.6642 38.1151C47.7741 38.2442 47.9106 38.3478 48.0645 38.4189C48.2183 38.4899 48.3857 38.5267 48.5551 38.5267C48.7246 38.5267 48.892 38.4899 49.0458 38.4189C49.1997 38.3478 49.3362 38.2442 49.446 38.1151C49.5559 37.9861 49.6364 37.8348 49.682 37.6716C49.7276 37.5084 49.7372 37.3373 49.7101 37.17C49.9801 35.73 50.2801 34.35 50.4601 32.91C50.5039 32.3008 50.5039 31.6892 50.4601 31.08V29.25C50.3101 27.78 49.9501 26.43 49.7701 24.99C49.7657 24.7487 49.6758 24.5169 49.5165 24.3356C49.3572 24.1543 49.1388 24.0354 48.9001 24Z" fill="#262626"/>
<path fill-rule="evenodd" clip-rule="evenodd" d="M54.3304 36C54.4801 36.0081 54.63 35.9866 54.7714 35.9366C54.9128 35.8867 55.043 35.8093 55.1545 35.709C55.2659 35.6087 55.3565 35.4874 55.421 35.352C55.4855 35.2166 55.5227 35.0698 55.5303 34.92C55.9203 32.25 56.2803 29.64 56.4603 26.97C56.4603 25.86 56.6403 24.72 56.6403 23.58V20.22C56.4903 17.58 56.2203 15.03 56.1303 12.39C56.1427 12.256 56.1284 12.1208 56.0883 11.9923C56.0481 11.8638 55.983 11.7445 55.8965 11.6413C55.8101 11.5381 55.704 11.4531 55.5845 11.3911C55.4651 11.3291 55.3345 11.2913 55.2003 11.28C55.0703 11.2719 54.9399 11.2895 54.8167 11.3319C54.6934 11.3743 54.5798 11.4406 54.4822 11.527C54.3847 11.6134 54.3052 11.7182 54.2482 11.8354C54.1912 11.9526 54.158 12.0799 54.1503 12.21C53.5301 15.1796 53.0992 18.1857 52.8604 21.21V26.64C52.8604 29.34 53.1903 32.01 53.2803 34.71C53.2638 34.8638 53.2778 35.0193 53.3217 35.1677C53.3657 35.316 53.4385 35.4541 53.5362 35.5741C53.6338 35.694 53.7543 35.7935 53.8906 35.8666C54.0269 35.9397 54.1764 35.985 54.3304 36Z" fill="#262626"/>
<path fill-rule="evenodd" clip-rule="evenodd" d="M60.2104 31.41C60.2023 31.5622 60.2249 31.7144 60.2766 31.8577C60.3284 32.0011 60.4084 32.1326 60.5119 32.2444C60.6154 32.3563 60.7403 32.4463 60.8791 32.5091C61.018 32.5719 61.168 32.6062 61.3204 32.61C61.6256 32.6101 61.9187 32.4909 62.1373 32.278C62.3559 32.065 62.4826 31.7751 62.4904 31.47C62.7904 28.68 63.1204 25.92 63.2704 23.1V19.47C63.2704 18.27 63.2704 17.07 63.1204 15.87C62.8204 12.87 62.3104 10.29 61.8304 7.49998C61.8191 7.36584 61.7813 7.23526 61.7193 7.11578C61.6573 6.9963 61.5723 6.89028 61.4691 6.80382C61.3659 6.71737 61.2466 6.6522 61.1181 6.61206C60.9896 6.57193 60.8544 6.55762 60.7204 6.56998C60.4551 6.59296 60.2092 6.71879 60.0355 6.9206C59.8617 7.12241 59.7737 7.38418 59.7904 7.64998C59.7904 10.44 59.4904 13.17 59.4004 15.99V19.53C59.4004 20.7 59.4004 21.9 59.5504 23.1C59.7904 25.89 60.0004 28.65 60.2104 31.41Z" fill="#262626"/>
</g>
<defs>
<clipPath id="clip0_8254_969">
<rect width="72" height="72" fill="white"/>
</clipPath>
</defs>
</svg>
