<svg width="72" height="72" viewBox="0 0 72 72" fill="none" xmlns="http://www.w3.org/2000/svg">
<g clip-path="url(#clip0_8254_978)">
<path fill-rule="evenodd" clip-rule="evenodd" d="M66.8105 38.04L66.0605 36.24C65.9231 35.9339 65.6924 35.6791 65.4015 35.512C65.1105 35.345 64.7741 35.2743 64.4405 35.31C63.4805 35.46 62.4905 35.82 61.4405 35.91C61.2081 35.9159 60.9786 35.8573 60.7774 35.7408C60.5762 35.6244 60.4111 35.4545 60.3005 35.25C60.1846 35.0493 60.1236 34.8217 60.1236 34.59C60.1236 34.3583 60.1846 34.1307 60.3005 33.93C60.6959 33.1978 61.2134 32.5383 61.8305 31.98C62.0705 31.74 62.7605 31.17 63.1505 30.72C63.5051 30.3439 63.7172 29.8558 63.7505 29.34C63.7799 28.9734 63.7287 28.6047 63.6005 28.26C63.6005 27.87 63.0905 27.33 63.0305 27.09L61.2605 23.46C60.965 22.8803 60.6344 22.3193 60.2705 21.78C59.976 21.3856 59.5505 21.109 59.0705 21C58.6851 20.9154 58.2859 20.9154 57.9005 21C57.5405 21 57.0005 21.45 56.7905 21.54L54.0005 22.86C53.7305 22.56 53.4605 22.32 53.4005 22.26C52.7411 21.5573 51.9159 21.0312 51.0005 20.73C50.1102 20.4446 49.1692 20.3526 48.2405 20.46C46.6481 20.6336 45.1853 21.4188 44.1605 22.65C43.6501 23.2443 43.2669 23.9369 43.0347 24.6851C42.8025 25.4333 42.7262 26.2212 42.8105 27C42.8781 27.43 42.9887 27.8521 43.1405 28.26C43.2077 28.4551 43.2879 28.6456 43.3805 28.83L42.2405 29.31L40.4405 30.18C38.8805 31.53 39.5405 32.97 41.2205 32.31L43.1105 31.56C43.6505 31.38 44.3705 31.26 45.0005 31.05C45.3696 30.9225 45.7221 30.7513 46.0505 30.54C46.3038 30.3173 46.4765 30.0171 46.5416 29.6862C46.6067 29.3552 46.5606 29.0121 46.4105 28.71C46.4105 28.53 46.0805 28.08 46.0805 28.05L45.7205 26.73C45.7149 25.9761 45.9934 25.2478 46.5005 24.69C47.0639 24.2224 47.7787 23.977 48.5105 24C48.9429 23.9882 49.3727 24.0701 49.7705 24.24C50.1193 24.3842 50.4281 24.6106 50.6705 24.9C50.6705 24.9 51.3005 25.98 51.5405 26.34C51.7249 26.6484 51.9833 26.906 52.2924 27.0893C52.6015 27.2727 52.9514 27.376 53.3105 27.39C53.6729 27.3285 54.0195 27.1959 54.3305 27L55.2905 26.43L57.9605 25.38L59.6105 28.62L59.7605 29.07L59.2505 29.43C58.1687 30.567 57.3944 31.9608 57.0005 33.48C56.8617 34.1231 56.8706 34.7893 57.0265 35.4284C57.1824 36.0676 57.4812 36.663 57.9005 37.17C58.2591 37.6918 58.7319 38.125 59.2828 38.4369C59.8338 38.7487 60.4486 38.9311 61.0805 38.97C62.0322 38.9303 62.9727 38.7483 63.8705 38.43C64.1105 38.79 64.4405 39.15 64.4405 39.18C65.0405 40.35 65.7305 41.52 66.3305 42.69C66.4805 43.02 66.6005 43.38 66.7505 43.71C66.1805 43.98 65.6405 44.28 65.0405 44.52C63.8105 45.03 62.5205 45.33 61.2605 45.75C60.0005 46.17 58.6805 46.77 57.4505 47.28L52.8905 50.07L49.8905 51.54C49.5643 51.6872 49.3099 51.958 49.1833 52.2927C49.0567 52.6275 49.0683 52.9988 49.2155 53.325C49.3627 53.6512 49.6334 53.9056 49.9682 54.0322C50.3029 54.1588 50.6743 54.1472 51.0005 54C53.7084 53.1893 56.3551 52.1868 58.9205 51C59.7905 50.64 60.6905 50.31 61.5605 49.89C62.4305 49.47 63.3605 48.99 64.2005 48.51C65.0915 47.9342 65.9526 47.3134 66.7805 46.65L66.6005 49.98C66.6005 52.02 66.6005 52.59 64.0505 54.39C62.1899 55.5186 60.2555 56.5208 58.2605 57.39C56.5805 58.29 54.7805 59.07 53.0105 59.82C52.0805 60.24 51.0905 60.63 50.0105 61.02C50.0105 60.27 50.2805 57.15 48.9305 57.15C47.5805 57.15 46.5905 57.9 46.9805 60.39C47.1305 61.38 47.2805 61.05 47.6105 62.01L40.1105 65.01C37.3505 66.18 34.8005 67.59 32.0705 68.7C30.9589 69.1605 29.816 69.5415 28.6505 69.84C28.3521 69.9076 28.0928 70.091 27.9297 70.3498C27.7665 70.6086 27.7129 70.9216 27.7805 71.22C27.8481 71.5184 28.0315 71.7776 28.2903 71.9408C28.5491 72.104 28.8621 72.1576 29.1605 72.09C30.4662 71.8154 31.7497 71.4444 33.0005 70.98C35.8205 70.08 38.4905 68.88 41.2805 67.98C45.0605 66.66 48.9305 65.52 52.6205 64.05C55.1569 63.025 57.6224 61.8323 60.0005 60.48C62.0968 59.3798 64.103 58.1159 66.0005 56.7C67.2992 55.6233 68.3268 54.2566 69.0005 52.71C69.1679 52.3967 69.2507 52.0451 69.2405 51.69C69.2405 51.03 68.9405 50.1 68.9105 49.65C68.7005 40.53 71.2205 48.21 66.8105 38.04Z" fill="#262626"/>
<path fill-rule="evenodd" clip-rule="evenodd" d="M25.2901 69.54C23.6108 68.8004 22.1976 67.5653 21.2401 66C19.6832 63.3194 18.3391 60.5208 17.2201 57.63C16.5001 56.07 15.8401 54.48 15.1801 52.89C14.1001 50.49 10.7401 42 10.6501 41.73C9.81008 39.66 8.82008 37.62 8.01008 35.55C7.68008 34.71 7.35008 33.87 7.05008 33C6.75008 32.13 6.30008 30.54 6.00008 29.28C5.77952 28.5302 5.59926 27.7691 5.46008 27C5.27804 26.3385 5.27371 25.6407 5.44753 24.9771C5.62135 24.3134 5.96717 23.7073 6.45008 23.22C6.99008 22.47 7.59008 21.78 8.19008 21.09C8.47359 23.5614 8.89424 26.0152 9.45008 28.44C10.0501 31.11 11.0401 33.18 11.8501 35.88C12.1501 36.84 12.2401 37.32 12.7801 38.73C12.9872 39.0287 13.2872 39.2507 13.6335 39.3614C13.9797 39.4721 14.3529 39.4654 14.6949 39.3423C15.0369 39.2191 15.3287 38.9865 15.525 38.6805C15.7212 38.3745 15.8109 38.0122 15.7801 37.65C15.3301 36.48 15.2101 36.09 14.8501 35.22C13.6201 32.22 12.4801 29.22 11.5501 26.22C11.0101 24 10.4701 21.93 10.0501 19.8C10.0501 19.8 10.0501 19.62 9.87008 19.5C13.5001 18.18 17.1001 16.5 20.7601 15.21C22.3753 14.6018 24.0289 14.1007 25.7101 13.71C26.8157 13.1696 27.9711 12.7375 29.1601 12.42C29.4601 12.99 29.9101 13.8 30.2701 14.64C30.6134 15.3529 30.8557 16.1102 30.9901 16.89C30.9901 16.89 30.9901 17.25 30.9901 16.89C30.7894 17.2377 30.5477 17.56 30.2701 17.85C29.5831 18.5757 29.0161 19.4061 28.5901 20.31C28.3584 20.8292 28.2387 21.3914 28.2387 21.96C28.2387 22.5286 28.3584 23.0907 28.5901 23.61C29.0053 24.8056 29.7678 25.8502 30.7801 26.61C31.8579 27.3769 33.194 27.6894 34.5001 27.48H35.0701C35.0527 27.5792 35.0527 27.6807 35.0701 27.78L36.0601 30.27C36.9601 31.83 38.6401 30.42 38.3701 29.16L37.6201 26.82C37.4353 26.1684 37.215 25.5275 36.9601 24.9C36.8542 24.6596 36.6881 24.4505 36.4779 24.2928C36.2678 24.1352 36.0205 24.0344 35.7601 24C35.4738 23.9345 35.1764 23.9345 34.8901 24C34.6501 24 33.7801 24.21 33.8101 24.51C33.395 24.4633 33.0059 24.2845 32.7001 24C32.2785 23.6076 31.968 23.1109 31.8001 22.56C31.7461 22.4423 31.7182 22.3144 31.7182 22.185C31.7182 22.0556 31.7461 21.9276 31.8001 21.81C32.2441 21.1571 32.7682 20.5625 33.3601 20.04C34.0158 19.3463 34.4899 18.5012 34.7401 17.58C34.8495 16.558 34.6946 15.5249 34.2901 14.58C33.705 13.0093 32.9822 11.4934 32.1301 10.05C31.8797 9.66371 31.5222 9.35872 31.1014 9.17225C30.6805 8.98579 30.2144 8.92593 29.7601 8.99999C28.0467 9.31957 26.3537 9.7403 24.6901 10.26C22.9219 10.8352 21.1974 11.537 19.5301 12.36C15.7201 14.07 12.0001 16.23 8.31008 18L7.65008 18.45C6.66008 19.47 5.58008 20.52 4.65008 21.66C3.97032 22.4577 3.35821 23.3106 2.82008 24.21C2.67657 24.5213 2.59505 24.8575 2.58008 25.2C2.58008 25.86 2.73008 26.82 2.73008 27.21C2.73008 28.14 2.91008 29.04 3.09008 29.97C3.27008 30.9 3.57008 32.58 3.84008 33.9C4.14297 35.2245 4.53384 36.5274 5.01008 37.8C5.67008 39.6 6.42008 41.4 7.11008 43.2C8.40008 46.47 9.66008 49.74 11.0701 52.95C12.0601 55.11 13.1401 57.24 14.2801 59.31C15.6474 62.2558 17.2527 65.0852 19.0801 67.77C20.4832 69.7098 22.47 71.15 24.7501 71.88C24.9646 71.939 25.1921 71.9304 25.4016 71.8552C25.611 71.78 25.7921 71.642 25.9201 71.46C26.0897 71.6289 26.312 71.7347 26.5501 71.76C26.7007 71.7723 26.8523 71.7537 26.9955 71.7053C27.1388 71.657 27.2706 71.5798 27.3829 71.4787C27.4953 71.3776 27.5858 71.2546 27.6489 71.1172C27.7121 70.9799 27.7465 70.8311 27.7501 70.68C28.0867 69.33 28.3174 67.9559 28.4401 66.57C27.6301 65.01 26.7601 64.5 25.4401 65.64C25.1318 66.9172 25.0808 68.2429 25.2901 69.54Z" fill="#262626"/>
<path fill-rule="evenodd" clip-rule="evenodd" d="M34.8301 5.25002L35.6701 6.33002C35.9701 6.66002 36.2701 6.99002 36.6001 7.29002C39.6001 10.29 39.6001 10.29 40.3801 10.02C41.7301 9.36002 39.7801 5.46002 39.5401 5.04002C39.2725 4.55652 38.9393 4.11233 38.5501 3.72002C38.1932 3.31488 37.7905 2.95246 37.3501 2.64002C33.4201 -0.359983 32.7301 0.660017 32.4601 1.08002C32.1901 1.50002 32.3401 2.16002 34.8301 5.25002Z" fill="#F03240"/>
<path fill-rule="evenodd" clip-rule="evenodd" d="M46.5898 9.00004C46.9198 9.00004 47.5498 9.33004 49.1098 6.00004C49.2692 5.68573 49.3901 5.35332 49.4698 5.01004C49.4698 4.68004 49.4698 4.35004 49.6498 4.02004C49.9498 0.840042 50.0698 0.420041 49.2598 0.0600415C48.9298 0.0600415 47.9698 -0.599959 46.2598 3.06004C46.0713 3.39923 45.93 3.76259 45.8398 4.14004C45.7267 4.50055 45.6562 4.8731 45.6298 5.25004C45.6298 5.25004 45.4798 9.00004 46.5898 9.00004Z" fill="#F03240"/>
<path fill-rule="evenodd" clip-rule="evenodd" d="M57.6904 12.0001C58.1404 11.7901 58.5604 11.5501 58.9804 11.3101L60.2704 10.5001C63.7804 8.1901 64.4704 8.0401 64.0804 6.9601C63.9004 6.5101 63.6304 5.5501 58.6804 7.2001C58.1221 7.39652 57.5803 7.63729 57.0604 7.9201C56.5406 8.21503 56.0486 8.55643 55.5904 8.9401C54.8704 9.6001 51.9604 12.6601 53.0404 13.6801C54.1204 14.7001 53.7304 14.0701 57.6904 12.0001Z" fill="#F03240"/>
<path fill-rule="evenodd" clip-rule="evenodd" d="M47.9997 51.72L46.2897 47.28C46.7997 46.98 47.3697 46.74 47.3997 46.71C48.4191 45.8558 49.2125 44.7636 49.7097 43.53C50.0841 42.5763 50.1777 41.5353 49.9797 40.53C49.8735 39.9208 49.6429 39.3399 49.3022 38.8238C48.9616 38.3076 48.5182 37.8672 47.9997 37.53C46.6752 36.6754 45.0962 36.3045 43.5297 36.48L41.7897 36.84L41.3997 36.36L39.5097 33C39.5097 33 38.9697 31.29 38.4597 31.14C37.0197 30.72 34.2897 33.27 33.1497 33.96C32.7058 34.2297 32.2448 34.4702 31.7697 34.68C31.4997 34.68 30.2697 35.13 29.7897 35.37C29.4484 35.5668 29.184 35.8735 29.0397 36.24C28.9886 36.5076 28.9886 36.7825 29.0397 37.05C29.0397 37.5 29.4297 38.4 29.4297 38.76C29.4766 39.5204 29.343 40.2812 29.0397 40.98C28.8094 41.5487 28.3839 42.0167 27.8397 42.3C27.6563 42.4025 27.4498 42.4563 27.2397 42.4563C27.0296 42.4563 26.8231 42.4025 26.6397 42.3C25.9845 41.9314 25.4045 41.4429 24.9297 40.86C24.4666 40.287 23.9655 39.7458 23.4297 39.24C22.9388 38.8578 22.3412 38.6377 21.7197 38.61C21.2934 38.635 20.871 38.7054 20.4597 38.82C19.3797 39.06 18.2697 39.63 17.2497 39.75H16.8597C15.8997 39.36 13.3197 41.1 13.6797 42.12C13.6797 42.33 16.6797 49.26 17.7297 51.72C18.5097 53.67 19.2897 55.59 20.1297 57.48C20.7007 58.9328 21.4248 60.3206 22.2897 61.6201C22.8284 62.2835 23.4658 62.8603 24.1797 63.33C25.3554 63.9629 26.6572 64.3262 27.9908 64.3937C29.3243 64.4611 30.6561 64.231 31.8897 63.72C33.9428 63.1572 35.9489 62.435 37.8897 61.56C39.751 60.6559 41.5635 59.6545 43.3197 58.56C44.0697 58.11 45.4797 57.5401 46.5597 56.85C46.5597 57.09 48.6297 55.62 48.8097 54.9C48.8781 53.7815 48.5949 52.6696 47.9997 51.72ZM45.2097 44.16C45.2097 44.16 43.8597 45.06 43.4097 45.42C43.0988 45.6424 42.8614 45.9524 42.7278 46.3105C42.5942 46.6686 42.5705 47.0584 42.6597 47.43L44.3997 52.8L44.6997 53.34L44.0997 53.67C43.0797 54.24 41.8197 54.75 41.0997 55.14C39.4497 56.13 37.7697 57.06 35.9997 57.9C34.2838 58.7215 32.5089 59.4135 30.6897 59.97C29.8067 60.2719 28.8897 60.4634 27.9597 60.54C27.1592 60.6118 26.3536 60.4776 25.6197 60.15C25.1314 59.8887 24.7183 59.5065 24.4197 59.04C23.766 58.0846 23.1844 57.0819 22.6797 56.04C21.4797 53.79 20.3697 51.51 19.2897 49.2C18.2097 46.89 17.6397 45.48 16.8297 43.59H17.4597C22.9797 42.15 20.9397 42.48 22.0497 43.59C23.0444 44.6899 24.3045 45.5162 25.7097 45.99C26.2991 46.1772 26.9211 46.2393 27.5359 46.1721C28.1507 46.1049 28.7446 45.9101 29.2797 45.6C30.279 45.0396 31.0766 44.179 31.5597 43.14C32.2213 41.7707 32.4714 40.2387 32.2797 38.73C32.2052 38.4549 32.0722 38.1991 31.8897 37.98C32.3097 37.77 32.7597 37.41 32.8797 37.35C33.4367 37.0488 33.9775 36.7183 34.4997 36.36C35.4297 35.7 36.3297 34.95 37.2897 34.29L39.0897 37.86C39.261 38.3755 39.4926 38.8689 39.7797 39.33C40.0128 39.6238 40.3422 39.8257 40.7097 39.9C41.1175 39.9604 41.5319 39.9604 41.9397 39.9C42.5397 39.9 43.2297 39.6 43.7697 39.57C44.5107 39.5273 45.2487 39.6936 45.8997 40.05C46.1487 40.1645 46.3677 40.3351 46.5395 40.5485C46.7112 40.762 46.8311 41.0124 46.8897 41.28C46.956 41.8223 46.8399 42.3711 46.5597 42.84C46.1913 43.3462 45.7459 43.7916 45.2397 44.16H45.2097Z" fill="#F03240"/>
</g>
<defs>
<clipPath id="clip0_8254_978">
<rect width="72" height="72" fill="white"/>
</clipPath>
</defs>
</svg>
