<svg width="72" height="72" viewBox="0 0 72 72" fill="none" xmlns="http://www.w3.org/2000/svg">
<g clip-path="url(#clip0_8254_955)">
<path fill-rule="evenodd" clip-rule="evenodd" d="M27.5401 64.89C26.8921 64.4512 26.3068 63.9264 25.8001 63.33L25.2601 63L27.7801 60.3L30.0601 57.78C30.1669 57.7132 30.259 57.6253 30.3309 57.5218C30.4027 57.4183 30.4528 57.3013 30.4781 57.1779C30.5033 57.0544 30.5032 56.9271 30.4778 56.8037C30.4523 56.6803 30.4021 56.5634 30.3301 56.46C30.2604 56.3522 30.1698 56.2594 30.0637 56.1873C29.9575 56.1151 29.838 56.0649 29.7121 56.0398C29.5863 56.0146 29.4566 56.0149 29.3309 56.0407C29.2051 56.0665 29.0859 56.1173 28.9801 56.19L25.8301 58.26C25.1401 58.77 23.8801 59.37 22.8301 60.09C22.2794 60.5255 21.8205 61.0659 21.4801 61.68C21.3287 61.9934 21.25 62.3369 21.25 62.685C21.25 63.033 21.3287 63.3766 21.4801 63.69C21.9357 64.588 22.5565 65.392 23.3101 66.06C23.9487 66.5522 24.6316 66.9841 25.3501 67.35C26.8201 68.04 28.3501 68.49 29.8501 69.18C30.1016 69.3234 30.3992 69.363 30.6794 69.2901C30.9596 69.2172 31.2003 69.0378 31.3501 68.79C31.4295 68.6677 31.4825 68.5302 31.5058 68.3863C31.5292 68.2424 31.5223 68.0951 31.4856 67.954C31.4489 67.8129 31.3832 67.681 31.2928 67.5667C31.2023 67.4523 31.089 67.3581 30.9601 67.29C30.0001 66.33 28.6801 65.67 27.5401 64.89Z" fill="#020202"/>
<path fill-rule="evenodd" clip-rule="evenodd" d="M39.4498 52.2C39.2108 52.1207 38.9505 52.1355 38.722 52.2414C38.4935 52.3473 38.3139 52.5363 38.2198 52.77C37.2298 54.69 36.1198 56.49 35.2198 58.44C34.8166 59.2608 34.4562 60.1019 34.1398 60.96C33.8398 61.83 33.5398 62.7 33.2998 63.57C32.6998 65.67 32.2798 67.77 31.8598 69.9C31.8182 70.0359 31.8038 70.1787 31.8175 70.3202C31.8312 70.4616 31.8727 70.599 31.9396 70.7245C32.0064 70.8499 32.0974 70.9609 32.2073 71.051C32.3172 71.1412 32.4438 71.2088 32.5798 71.25C32.8583 71.3349 33.1591 71.3071 33.4172 71.1724C33.6753 71.0377 33.8702 70.807 33.9598 70.53C34.7998 68.52 35.7898 66.63 36.6598 64.53C37.2298 63.18 37.7698 61.86 38.2198 60.48C38.9998 58.14 39.4498 55.74 40.0198 53.37C40.0891 53.139 40.069 52.8904 39.9634 52.6736C39.8578 52.4569 39.6744 52.2878 39.4498 52.2Z" fill="#020202"/>
<path fill-rule="evenodd" clip-rule="evenodd" d="M48.2998 58.6199C47.335 58.0261 46.3329 57.495 45.2998 57.0299C44.3284 56.5703 43.3259 56.1793 42.2998 55.8599C42.1839 55.8049 42.0581 55.7737 41.9299 55.7681C41.8017 55.7625 41.6737 55.7827 41.5534 55.8275C41.4332 55.8722 41.3231 55.9406 41.2297 56.0286C41.1364 56.1167 41.0616 56.2225 41.0098 56.3399C40.9553 56.4537 40.9245 56.5773 40.9193 56.7033C40.914 56.8293 40.9345 56.9551 40.9794 57.0729C41.0243 57.1908 41.0927 57.2983 41.1804 57.3889C41.2682 57.4795 41.3735 57.5513 41.4898 57.5999C42.3181 58.126 43.1099 58.7073 43.8598 59.3399C44.6118 59.9532 45.3233 60.6146 45.9898 61.3199L46.3498 61.4999C46.011 62.0394 45.6298 62.551 45.2098 63.0299L43.7398 64.7099L41.1598 67.3199C40.9139 67.4796 40.7411 67.7302 40.6793 68.0169C40.6174 68.3035 40.6715 68.603 40.8298 68.8499C40.999 69.0849 41.2514 69.2467 41.5355 69.3024C41.8197 69.3581 42.1144 69.3036 42.3598 69.1499L45.7198 66.9299L47.6998 65.4299C48.3499 64.8262 48.9425 64.1634 49.4698 63.4499C49.9079 62.8158 50.1859 62.0849 50.2798 61.3199C50.326 61.0405 50.3067 60.7541 50.2234 60.4834C50.1401 60.2127 49.9951 59.9651 49.7998 59.7599C49.3385 59.3315 48.8361 58.9497 48.2998 58.6199Z" fill="#020202"/>
<path fill-rule="evenodd" clip-rule="evenodd" d="M42.5701 25.3199C42.6141 25.0354 42.5915 24.7445 42.504 24.4702C42.4165 24.1959 42.2665 23.9456 42.0659 23.7391C41.8652 23.5326 41.6193 23.3756 41.3476 23.2802C41.0759 23.1849 40.7858 23.154 40.5001 23.1899C40.0055 23.2502 39.55 23.4895 39.2197 23.8625C38.8894 24.2356 38.707 24.7166 38.707 25.2149C38.707 25.7132 38.8894 26.1943 39.2197 26.5673C39.55 26.9404 40.0055 27.1796 40.5001 27.2399C40.7675 27.2758 41.0396 27.252 41.2967 27.1704C41.5539 27.0888 41.7898 26.9513 41.9877 26.7678C42.1855 26.5844 42.3403 26.3594 42.441 26.1091C42.5417 25.8588 42.5858 25.5893 42.5701 25.3199Z" fill="#020202"/>
<path fill-rule="evenodd" clip-rule="evenodd" d="M31.6199 25.62C31.6639 25.3354 31.6413 25.0445 31.5538 24.7702C31.4663 24.4959 31.3163 24.2457 31.1157 24.0392C30.915 23.8327 30.6691 23.6756 30.3974 23.5803C30.1257 23.485 29.8356 23.4541 29.5499 23.49C29.0553 23.5503 28.5999 23.7895 28.2695 24.1626C27.9392 24.5356 27.7568 25.0167 27.7568 25.515C27.7568 26.0133 27.9392 26.4943 28.2695 26.8674C28.5999 27.2404 29.0553 27.4797 29.5499 27.54C29.8154 27.5654 30.0832 27.5344 30.3358 27.449C30.5884 27.3636 30.8201 27.2256 31.0156 27.0443C31.2111 26.863 31.366 26.6423 31.4702 26.3968C31.5743 26.1513 31.6254 25.8866 31.6199 25.62Z" fill="#020202"/>
<path fill-rule="evenodd" clip-rule="evenodd" d="M31.6793 35.2199C32.3224 35.5963 33.0383 35.8316 33.7793 35.9099C34.4924 35.9945 35.2151 35.9436 35.9093 35.7599C37.4872 35.3643 38.8836 34.4439 39.8693 33.1499C40.0745 32.9422 40.1896 32.6619 40.1896 32.3699C40.1896 32.0779 40.0745 31.7977 39.8693 31.5899C39.6616 31.3847 39.3813 31.2697 39.0893 31.2697C38.7973 31.2697 38.5171 31.3847 38.3093 31.5899C37.7078 31.9668 37.0358 32.2171 36.3342 32.3254C35.6327 32.4337 34.9165 32.3978 34.2293 32.2199C33.8544 32.179 33.4833 32.1088 33.1193 32.0099C32.1488 31.8351 31.2805 31.2992 30.6893 30.5099C30.584 30.2728 30.3898 30.0866 30.1486 29.9912C29.9073 29.8958 29.6383 29.899 29.3993 29.9999C29.2803 30.0456 29.172 30.1153 29.081 30.2046C28.9901 30.2939 28.9185 30.401 28.8707 30.5192C28.8228 30.6373 28.7998 30.764 28.803 30.8915C28.8062 31.0189 28.8356 31.1443 28.8893 31.2599C29.0369 32.0837 29.3632 32.8651 29.8453 33.5492C30.3273 34.2334 30.9533 34.8036 31.6793 35.2199Z" fill="#020202"/>
<path fill-rule="evenodd" clip-rule="evenodd" d="M14.0393 55.8899C13.8588 57.0714 13.7686 58.2648 13.7693 59.4599C13.7097 60.6492 13.7097 61.8407 13.7693 63.0299C14.0227 65.7994 14.5248 68.5404 15.2693 71.2199C15.2946 71.36 15.3473 71.4936 15.4244 71.6132C15.5014 71.7328 15.6014 71.836 15.7185 71.9168C15.8356 71.9977 15.9675 72.0546 16.1066 72.0843C16.2458 72.114 16.3894 72.1159 16.5293 72.0899C16.6712 72.0686 16.8072 72.0184 16.9289 71.9424C17.0506 71.8664 17.1555 71.7663 17.237 71.6482C17.3185 71.5302 17.375 71.3966 17.4029 71.2559C17.4308 71.1152 17.4296 70.9702 17.3993 70.8299C17.3993 69.3299 17.1893 67.8299 17.1593 66.2999C17.1293 64.7699 17.1593 63.2999 17.1593 61.7999V57.2999V51.9599C17.1593 49.6199 14.6393 51.7499 14.1593 53.4599C14.2793 54.4499 14.1893 54.8999 14.0393 55.8899Z" fill="#F03240"/>
<path fill-rule="evenodd" clip-rule="evenodd" d="M45.4199 43.38C45.1523 43.2652 44.8509 43.2572 44.5775 43.3576C44.3042 43.4581 44.0796 43.6593 43.9499 43.92C43.2386 45.0173 42.2722 45.9261 41.1333 46.5686C39.9944 47.2112 38.7169 47.5685 37.4099 47.61C35.8694 47.798 34.3066 47.6652 32.8199 47.22C31.8497 46.9652 30.9414 46.5162 30.1499 45.9C29.5915 45.4321 29.1411 44.8487 28.8299 44.19C28.8299 43.92 28.4099 43.68 27.5999 44.19C27.5999 44.19 26.5799 45.27 26.7299 45.66C26.9873 46.5566 27.4378 47.3861 28.0499 48.09C29.2603 49.5098 30.8537 50.5512 32.6399 51.09C34.3604 51.5649 36.1672 51.6368 37.9199 51.3C39.6953 51.0147 41.3683 50.2807 42.7806 49.1677C44.1929 48.0547 45.2975 46.5995 45.9899 44.94C46.0696 44.803 46.1182 44.6501 46.1321 44.4922C46.1461 44.3343 46.1252 44.1752 46.0708 44.0263C46.0164 43.8774 45.9298 43.7423 45.8174 43.6306C45.7049 43.5189 45.5692 43.4334 45.4199 43.38Z" fill="#F03240"/>
<path fill-rule="evenodd" clip-rule="evenodd" d="M54.2993 56.22C54.2993 58.02 54.7193 59.82 54.9593 61.62C55.3493 64.29 55.8293 66.93 56.1593 69.66C56.1593 69.9464 56.2731 70.2211 56.4757 70.4236C56.6782 70.6262 56.9529 70.74 57.2393 70.74C57.5258 70.74 57.8005 70.6262 58.003 70.4236C58.2055 70.2211 58.3193 69.9464 58.3193 69.66C58.3193 66.93 58.5593 64.26 58.3193 61.56C58.3193 60.39 58.3193 59.25 58.0493 58.11C57.9427 56.9596 57.7623 55.8172 57.5093 54.69C57.3822 53.9408 57.2119 53.1995 56.9993 52.47C56.6993 51.27 54.4193 49.11 53.8193 50.7C53.9993 53.07 53.9993 53.82 54.2993 56.22Z" fill="#F03240"/>
<path fill-rule="evenodd" clip-rule="evenodd" d="M69.5698 65.1C69.1086 63.2297 68.4862 61.4029 67.7098 59.64C66.3746 56.7401 64.6815 54.0189 62.6698 51.54C60.6261 49.0728 58.2773 46.8752 55.6798 45C52.1385 42.4927 48.0956 40.7834 43.8298 39.99C44.8608 39.1162 45.769 38.107 46.5298 36.99C48.8592 33.4289 50.0519 29.2441 49.9498 24.99C49.9498 24.6956 49.8328 24.4132 49.6247 24.2051C49.4165 23.9969 49.1342 23.88 48.8398 23.88C48.5454 23.88 48.263 23.9969 48.0549 24.2051C47.8467 24.4132 47.7298 24.6956 47.7298 24.99C47.5704 28.1118 46.6319 31.144 44.9998 33.81C43.633 36.2992 41.3526 38.1601 38.6398 39C36.2674 39.6186 33.7611 39.4823 31.4698 38.61C29.8984 38.0734 28.4355 37.2607 27.1498 36.21C25.5095 34.8416 24.2284 33.0932 23.418 31.1168C22.6076 29.1404 22.2924 26.996 22.4998 24.87C22.521 24.7454 22.5166 24.6179 22.4869 24.4951C22.4572 24.3723 22.4028 24.2569 22.327 24.1558C22.2512 24.0548 22.1556 23.9702 22.046 23.9073C21.9365 23.8444 21.8153 23.8045 21.6898 23.79C21.4314 23.7557 21.17 23.8247 20.9622 23.9819C20.7544 24.1392 20.617 24.372 20.5798 24.63C20.0766 27.152 20.2109 29.7597 20.9705 32.2166C21.7301 34.6736 23.091 36.9021 24.9298 38.7C25.5603 39.2995 26.243 39.8417 26.9698 40.32C23.1553 41.1909 19.5411 42.7791 16.3198 45C13.7259 46.8566 11.3773 49.0339 9.32978 51.48C7.31808 53.9589 5.62489 56.6801 4.28978 59.58C3.5133 61.3429 2.89098 63.1697 2.42978 65.04C1.9225 66.9359 1.71997 68.9004 1.82978 70.86C1.80234 71.0028 1.80769 71.1499 1.84544 71.2904C1.8832 71.4308 1.95235 71.5608 2.0477 71.6706C2.14304 71.7804 2.26208 71.8671 2.39583 71.9241C2.52958 71.9812 2.67454 72.0071 2.81978 72C2.94587 71.9961 3.06995 71.9674 3.18495 71.9155C3.29994 71.8637 3.40358 71.7897 3.48995 71.6977C3.57633 71.6058 3.64373 71.4977 3.68831 71.3797C3.73289 71.2617 3.75378 71.1361 3.74978 71.01C3.81348 69.2759 4.15795 67.5637 4.76978 65.94C5.36362 64.2763 6.10665 62.6698 6.98978 61.14C8.40577 58.6658 10.0856 56.3524 11.9998 54.24C12.8698 53.19 16.2898 50.22 17.8498 48.63C18.9661 47.6716 20.1382 46.78 21.3598 45.96C24.3893 44.4717 27.5285 43.218 30.7498 42.21C33.642 43.2491 36.7837 43.3748 39.7498 42.57C40.0498 42.57 40.3198 42.21 40.6198 42.09C42.0696 42.3531 43.5022 42.7038 44.9098 43.14C47.0107 43.8354 49.0241 44.7716 50.9098 45.93C54.3043 48.2611 57.3629 51.0471 59.9998 54.21C61.8265 56.3284 63.4723 58.5964 64.9198 60.99C65.8029 62.5198 66.5459 64.1263 67.1398 65.79C67.7516 67.4137 68.0961 69.1259 68.1598 70.86C68.1558 70.9861 68.1766 71.1117 68.2212 71.2297C68.2658 71.3477 68.3332 71.4558 68.4196 71.5477C68.506 71.6397 68.6096 71.7137 68.7246 71.7655C68.8396 71.8174 68.9637 71.8461 69.0898 71.85C69.2158 71.854 69.3415 71.8331 69.4595 71.7885C69.5775 71.7439 69.6856 71.6765 69.7775 71.5901C69.8694 71.5038 69.9435 71.4001 69.9953 71.2851C70.0472 71.1701 70.0759 71.0461 70.0798 70.92C70.2189 68.9652 70.0468 67.0007 69.5698 65.1Z" fill="#020202"/>
<path fill-rule="evenodd" clip-rule="evenodd" d="M14.0999 24.57C15.6 24.1002 17.1348 23.7492 18.6899 23.52C21.0599 23.13 23.4899 22.92 25.8599 22.68C28.8599 22.32 31.4999 22.14 34.2599 21.96C37.0199 21.78 39.8699 21.6 42.6599 21.63C46.4579 21.6551 50.2486 21.966 53.9999 22.56C54.2761 22.5982 54.5565 22.5311 54.7855 22.3719C55.0145 22.2128 55.1751 21.9734 55.2356 21.7012C55.2961 21.4291 55.2519 21.1441 55.1119 20.903C54.9719 20.6619 54.7463 20.4823 54.4799 20.4C53.8199 20.22 53.1899 20.16 52.5299 20.01C52.8094 19.0345 52.9508 18.0247 52.9499 17.01C52.82 15.2538 52.436 13.5258 51.8099 11.8799C51.307 10.5794 50.6738 9.33302 49.9199 8.15995C49.1356 6.97147 48.1861 5.90072 47.0999 4.97995C45.2207 3.4185 42.9272 2.43854 40.4999 2.15995C39.5187 1.2039 38.3111 0.512341 36.9899 0.149945C34.7405 -0.328891 32.399 -0.119829 30.2699 0.749945C29.1688 1.17616 28.1528 1.79593 27.2699 2.57995C27.1031 2.77741 26.9526 2.9881 26.8199 3.20995C24.4421 4.0218 22.2924 5.38973 20.5499 7.19995C19.6701 8.10298 18.9044 9.1105 18.2699 10.1999C17.6189 11.3244 17.1052 12.523 16.7399 13.77C16.126 16.3236 16.126 18.9863 16.7399 21.54C15.6491 21.8467 14.5772 22.2174 13.5299 22.65C13.3918 22.6859 13.263 22.7512 13.1525 22.8416C13.042 22.9319 12.9524 23.045 12.8897 23.1733C12.827 23.3015 12.7928 23.4418 12.7893 23.5845C12.7859 23.7271 12.8134 23.8689 12.8699 24C12.9099 24.1205 12.9742 24.2316 13.0587 24.3264C13.1433 24.4212 13.2464 24.4976 13.3616 24.551C13.4769 24.6044 13.6018 24.6337 13.7288 24.6369C13.8558 24.6402 13.9821 24.6174 14.0999 24.57ZM45.7799 8.81995C46.8353 10.1628 47.7501 11.6103 48.5099 13.14C49.1112 14.1974 49.6037 15.3131 49.9799 16.47C50.2509 17.4457 50.3223 18.466 50.1899 19.47C47.2913 18.8663 44.3542 18.4653 41.3999 18.27C41.6699 17.31 41.9999 16.32 42.1799 15.27C42.4851 13.8013 42.7253 12.3198 42.8999 10.8299C43.0053 9.59219 43.0053 8.34771 42.8999 7.10995C42.8247 6.49369 42.6735 5.8891 42.4499 5.30995C42.8099 5.54995 43.1699 5.78995 43.4999 6.05995C44.3438 6.90728 45.1071 7.83126 45.7799 8.81995ZM31.6499 4.16995C33.0282 3.61146 34.5365 3.45542 35.9999 3.71995C36.6862 3.84909 37.3344 4.13214 37.8956 4.54784C38.4567 4.96353 38.9164 5.50104 39.2399 6.11995C39.5747 6.76353 39.7786 7.46708 39.8399 8.18995C39.9149 9.06835 39.9149 9.95155 39.8399 10.8299C39.8399 12.3899 39.6899 13.83 39.5399 15.09C39.3888 16.1014 39.1784 17.1031 38.9099 18.09C36.7416 17.9704 34.5683 17.9704 32.3999 18.09C31.2899 18.09 30.1499 18.42 29.0399 18.6C28.7699 17.46 28.5299 16.35 28.3799 15.24C28.239 13.7944 28.1789 12.3422 28.1999 10.8899C28.1304 9.89116 28.1304 8.88874 28.1999 7.88995C28.283 7.34545 28.4553 6.81838 28.7099 6.32995C28.954 5.86454 29.3161 5.47142 29.7599 5.18995C30.345 4.77266 30.9799 4.43002 31.6499 4.16995ZM21.4799 12.15C21.9783 11.1999 22.5606 10.2963 23.2199 9.44995C23.7759 8.71422 24.3985 8.03133 25.0799 7.40995C25.0654 8.61551 25.1557 9.82005 25.3499 11.0099C25.5446 12.6357 25.8351 14.2485 26.2199 15.84C26.4844 16.9356 26.8048 18.0171 27.1799 19.08L25.3799 19.35C23.1599 19.89 20.9999 20.37 18.8099 21C18.8829 18.9396 19.3196 16.9083 20.0999 15C20.5123 14.0276 20.9728 13.0764 21.4799 12.15Z" fill="#F03240"/>
</g>
<defs>
<clipPath id="clip0_8254_955">
<rect width="72" height="72" fill="white"/>
</clipPath>
</defs>
</svg>
