<svg width="500" height="83" viewBox="0 0 500 83" fill="none" xmlns="http://www.w3.org/2000/svg">
<path d="M19.902 0.891998H61.886V8.436H19.902V0.891998ZM19.902 20.572H62.214V27.952H19.902V20.572ZM19.328 40.252H61.722V47.714H19.328V40.252ZM14.736 0.891998H22.69V27.05C22.69 30.6033 22.4987 34.43 22.116 38.53C21.7333 42.5753 20.9953 46.6753 19.902 50.83C18.8087 54.9847 17.196 58.9753 15.064 62.802C12.932 66.574 10.0893 69.9633 6.536 72.97C6.15333 72.4233 5.60667 71.7673 4.896 71.002C4.18533 70.2913 3.44733 69.5807 2.682 68.87C1.91667 68.214 1.23333 67.6947 0.632 67.312C3.85733 64.524 6.39933 61.4627 8.258 58.128C10.1713 54.7933 11.5927 51.3493 12.522 47.796C13.4513 44.2427 14.0527 40.6893 14.326 37.136C14.5993 33.5827 14.736 30.1933 14.736 26.968V0.891998ZM58.36 0.891998H66.56V62.31C66.56 64.8247 66.1773 66.738 65.412 68.05C64.7013 69.4167 63.4987 70.428 61.804 71.084C60.0547 71.7947 57.7313 72.232 54.834 72.396C51.9913 72.56 48.3833 72.642 44.01 72.642C43.9007 71.822 43.6547 70.92 43.272 69.936C42.8893 68.952 42.4793 67.968 42.042 66.984C41.6593 66 41.2493 65.1527 40.812 64.442C42.944 64.5513 45.0213 64.6333 47.044 64.688C49.1213 64.688 50.9253 64.688 52.456 64.688C54.0413 64.6333 55.162 64.606 55.818 64.606C56.7473 64.606 57.4033 64.442 57.786 64.114C58.1687 63.7313 58.36 63.1027 58.36 62.228V0.891998ZM110.348 17.128H144.46V24.918H110.348V17.128ZM107.396 46.976L112.234 40.58C115.022 41.8373 117.919 43.2587 120.926 44.844C123.933 46.4293 126.857 48.124 129.7 49.928C132.597 51.732 135.276 53.536 137.736 55.34C140.196 57.144 142.246 58.8933 143.886 60.588L138.474 67.886C136.943 66.1913 135.003 64.4147 132.652 62.556C130.301 60.6427 127.705 58.7567 124.862 56.898C122.074 55.0393 119.177 53.2627 116.17 51.568C113.163 49.8187 110.239 48.288 107.396 46.976ZM113.792 0.973997L122.32 2.942C120.461 8.40866 118.22 14.012 115.596 19.752C113.027 25.492 110.047 30.9587 106.658 36.152C103.323 41.3453 99.606 45.91 95.506 49.846C94.9047 49.4087 94.1667 48.9167 93.292 48.37C92.4173 47.7687 91.5153 47.222 90.586 46.73C89.7113 46.1833 88.9187 45.746 88.208 45.418C91.2693 42.63 94.112 39.4593 96.736 35.906C99.36 32.3527 101.738 28.608 103.87 24.672C106.057 20.6813 107.97 16.6633 109.61 12.618C111.305 8.57266 112.699 4.69133 113.792 0.973997ZM141.18 17.128H143.066L144.542 16.8L150.364 19.998C148.997 23.8793 147.248 27.952 145.116 32.216C142.984 36.4253 140.661 40.5527 138.146 44.598C135.631 48.5887 133.089 52.1967 130.52 55.422C129.645 54.7113 128.525 53.9187 127.158 53.044C125.846 52.1147 124.643 51.3767 123.55 50.83C125.354 48.6433 127.131 46.2107 128.88 43.532C130.684 40.8533 132.379 38.0927 133.964 35.25C135.549 32.3527 136.943 29.5373 138.146 26.804C139.403 24.016 140.415 21.4467 141.18 19.096V17.128ZM190.298 66V26.64C190.298 25 190.353 23.0593 190.462 20.818C190.571 18.522 190.653 16.554 190.708 14.914H190.38C189.615 16.4447 188.822 18.0027 188.002 19.588C187.237 21.1733 186.417 22.7313 185.542 24.262L173.734 42.384H206.78V49.764H164.14V43.45L188.166 5.566H199.154V66H190.298ZM215.744 82.4L213.612 77.07C216.454 75.8673 218.668 74.2547 220.254 72.232C221.839 70.264 222.604 68.05 222.55 65.59L221.894 58.046L225.83 64.278C225.283 64.8793 224.654 65.3167 223.944 65.59C223.233 65.8087 222.468 65.918 221.648 65.918C220.008 65.918 218.532 65.3987 217.22 64.36C215.962 63.2667 215.334 61.7633 215.334 59.85C215.334 57.9913 215.962 56.5153 217.22 55.422C218.532 54.3287 220.09 53.782 221.894 53.782C224.244 53.782 226.048 54.684 227.306 56.488C228.563 58.292 229.192 60.7793 229.192 63.95C229.192 68.2687 227.989 72.0133 225.584 75.184C223.233 78.4093 219.953 80.8147 215.744 82.4ZM240.659 66V58.21H253.943V16.226H243.119V10.24C245.962 9.748 248.422 9.11933 250.499 8.354C252.631 7.58867 254.572 6.65933 256.321 5.566H263.455V58.21H275.181V66H240.659ZM303.907 67.148C300.135 67.148 296.773 66.4647 293.821 65.098C290.869 63.6767 288.518 61.7633 286.769 59.358C285.074 56.898 284.227 54.11 284.227 50.994C284.227 48.3153 284.746 45.9373 285.785 43.86C286.824 41.7827 288.163 40.006 289.803 38.53C291.443 36.9993 293.165 35.742 294.969 34.758V34.348C292.782 32.7627 290.896 30.822 289.311 28.526C287.726 26.1753 286.933 23.4147 286.933 20.244C286.933 17.128 287.671 14.3947 289.147 12.044C290.678 9.69333 292.728 7.88933 295.297 6.632C297.921 5.32 300.9 4.664 304.235 4.664C307.734 4.664 310.74 5.34733 313.255 6.714C315.77 8.08066 317.71 9.96666 319.077 12.372C320.498 14.7227 321.209 17.4833 321.209 20.654C321.209 22.6767 320.799 24.59 319.979 26.394C319.159 28.198 318.148 29.838 316.945 31.314C315.797 32.7353 314.567 33.9107 313.255 34.84V35.25C315.114 36.234 316.808 37.464 318.339 38.94C319.87 40.3613 321.1 42.0833 322.029 44.106C322.958 46.1287 323.423 48.5067 323.423 51.24C323.423 54.192 322.603 56.8707 320.963 59.276C319.378 61.6813 317.109 63.5947 314.157 65.016C311.26 66.4373 307.843 67.148 303.907 67.148ZM307.925 32.462C309.674 30.7673 310.986 28.9907 311.861 27.132C312.79 25.2187 313.255 23.2233 313.255 21.146C313.255 19.342 312.9 17.702 312.189 16.226C311.478 14.75 310.412 13.602 308.991 12.782C307.624 11.9073 305.957 11.47 303.989 11.47C301.529 11.47 299.479 12.2627 297.839 13.848C296.199 15.3787 295.379 17.5107 295.379 20.244C295.379 22.4307 295.953 24.262 297.101 25.738C298.249 27.214 299.78 28.4713 301.693 29.51C303.606 30.5487 305.684 31.5327 307.925 32.462ZM304.153 60.26C306.176 60.26 307.952 59.8773 309.483 59.112C311.068 58.3467 312.298 57.2807 313.173 55.914C314.048 54.4927 314.485 52.8253 314.485 50.912C314.485 49.108 314.102 47.55 313.337 46.238C312.572 44.8713 311.506 43.696 310.139 42.712C308.827 41.728 307.269 40.826 305.465 40.006C303.661 39.1313 301.72 38.284 299.643 37.464C297.566 38.94 295.871 40.7713 294.559 42.958C293.247 45.09 292.591 47.4407 292.591 50.01C292.591 52.0327 293.083 53.8093 294.067 55.34C295.106 56.8707 296.5 58.0733 298.249 58.948C299.998 59.8227 301.966 60.26 304.153 60.26ZM350.673 67.148C346.737 67.148 343.293 65.9727 340.341 63.622C337.389 61.2713 335.093 57.7727 333.453 53.126C331.867 48.4247 331.075 42.5753 331.075 35.578C331.075 28.5807 331.867 22.786 333.453 18.194C335.093 13.602 337.389 10.1853 340.341 7.944C343.293 5.648 346.737 4.5 350.673 4.5C354.609 4.5 358.025 5.648 360.923 7.944C363.82 10.24 366.061 13.684 367.647 18.276C369.287 22.8133 370.107 28.5807 370.107 35.578C370.107 42.5753 369.287 48.4247 367.647 53.126C366.061 57.7727 363.82 61.2713 360.923 63.622C358.025 65.9727 354.609 67.148 350.673 67.148ZM350.673 59.604C352.695 59.604 354.499 58.8113 356.085 57.226C357.67 55.6407 358.9 53.0987 359.775 49.6C360.649 46.0467 361.087 41.3727 361.087 35.578C361.087 29.7833 360.649 25.164 359.775 21.72C358.9 18.276 357.67 15.7887 356.085 14.258C354.499 12.7273 352.695 11.962 350.673 11.962C348.65 11.962 346.846 12.7273 345.261 14.258C343.675 15.7887 342.418 18.276 341.489 21.72C340.614 25.164 340.177 29.7833 340.177 35.578C340.177 41.3727 340.614 46.0467 341.489 49.6C342.418 53.0987 343.675 55.6407 345.261 57.226C346.846 58.8113 348.65 59.604 350.673 59.604ZM381.038 2.204H445.326V9.912H388.828V72.888H381.038V2.204ZM441.718 2.204H449.508V63.294C449.508 65.5353 449.208 67.2847 448.606 68.542C448.06 69.7993 446.994 70.756 445.408 71.412C443.932 72.068 441.964 72.478 439.504 72.642C437.044 72.806 433.983 72.888 430.32 72.888C430.211 72.1227 429.992 71.2753 429.664 70.346C429.336 69.4167 428.981 68.4873 428.598 67.558C428.216 66.6287 427.806 65.8087 427.368 65.098C429.172 65.1527 430.894 65.2073 432.534 65.262C434.174 65.262 435.623 65.262 436.88 65.262C438.192 65.2073 439.094 65.18 439.586 65.18C440.352 65.18 440.898 65.0433 441.226 64.77C441.554 64.442 441.718 63.9227 441.718 63.212V2.204ZM385.302 32.544H445.408V40.252H385.302V32.544ZM410.886 6.222H418.594V36.398H410.886V6.222ZM487.392 42.794C485.588 42.794 483.948 42.4113 482.472 41.646C481.051 40.8807 479.712 40.006 478.454 39.022C477.252 38.038 476.049 37.1633 474.846 36.398C473.698 35.6327 472.468 35.25 471.156 35.25C469.844 35.25 468.614 35.7147 467.466 36.644C466.318 37.5187 465.252 38.8853 464.268 40.744L459.102 37.054C460.961 33.938 462.956 31.6967 465.088 30.33C467.22 28.9633 469.325 28.28 471.402 28.28C473.261 28.28 474.901 28.69 476.322 29.51C477.744 30.2753 479.056 31.15 480.258 32.134C481.516 33.0633 482.718 33.9107 483.866 34.676C485.069 35.4413 486.299 35.824 487.556 35.824C488.868 35.824 490.098 35.3867 491.246 34.512C492.394 33.6373 493.488 32.2433 494.526 30.33L499.61 34.184C497.752 37.2453 495.756 39.4593 493.624 40.826C491.547 42.138 489.47 42.794 487.392 42.794Z" fill="#262626"/>
</svg>
