<svg width="472" height="482" viewBox="0 0 472 482" fill="none" xmlns="http://www.w3.org/2000/svg">
<g clip-path="url(#clip0_8147_275)">
<path fill-rule="evenodd" clip-rule="evenodd" d="M460.883 252.812C461.317 247.889 456.812 245.711 451.853 244.804C436.793 241.92 432.367 245.315 426.12 243.821C426.516 243.303 426.473 241.98 426.637 241.12C428.128 235.551 423.936 231.524 418.726 229.042C412.245 226.427 405.481 224.576 398.57 223.527C392.811 222.821 387.007 222.546 381.207 222.705C381.888 221.298 382.4 219.816 382.732 218.288C384.066 218.752 385.48 218.944 386.89 218.853C388.3 218.762 389.677 218.39 390.941 217.758C392.204 217.126 393.329 216.248 394.247 215.174C395.166 214.101 395.861 212.855 396.29 211.509C396.37 211.169 396.325 210.811 396.163 210.501C396.001 210.192 395.733 209.95 395.409 209.821C395.084 209.692 394.724 209.684 394.393 209.799C394.063 209.913 393.785 210.142 393.609 210.444C389.295 219.46 377.797 212.379 380.146 207.866C381.121 206.464 382.424 205.323 383.942 204.541C385.46 203.76 387.146 203.362 388.853 203.382C392.819 203.717 392.412 206.948 394.275 205.862C394.548 205.67 394.735 205.379 394.798 205.05C394.861 204.722 394.794 204.383 394.612 204.103C391.105 196.94 378.086 199.792 375.485 206.506C374.925 208.521 375.078 210.667 375.917 212.582C376.756 214.497 378.23 216.064 380.09 217.019C378.673 220.202 377.557 223.51 376.755 226.901C374.863 232.351 374.2 232.266 369.112 248.643C364.322 263.465 356.727 294.931 356.689 295.349C356.652 295.766 358.81 296.9 359.401 295.147C373.751 252.332 373.424 250.275 377.357 236.604C378.668 231.976 379.595 230.457 380.657 225.357C391.444 224.411 416.302 228.408 422.315 236.22C424.686 239.347 421.108 242.522 422.088 245.382C423.7 249.594 433.943 248.162 438.543 248.067C442.738 248.031 446.923 248.477 451.016 249.395C452.899 249.755 456.377 250.422 456.172 252.376C455.461 260.301 450.263 283.232 448.178 291.021C448.021 291.839 447.586 292.562 447.459 293.004C445.197 293.397 442.911 293.639 440.617 293.73C430.882 295.559 421.003 296.507 411.099 296.562C407.155 296.335 403.373 294.916 400.254 292.492C397.372 289.818 400.138 288.227 400.669 285.232C401.2 282.236 399.298 280.43 396.761 279.053C388.798 275.345 380.319 272.863 371.614 271.692C371.245 271.621 370.863 271.7 370.552 271.911C370.241 272.122 370.026 272.448 369.956 272.817C369.493 275.231 372.656 274.225 383.067 277.237C387.194 278.48 391.222 280.031 395.117 281.878C395.9 282.28 396.587 282.846 397.133 283.536C397.213 283.656 397.263 283.794 397.28 283.937C397.297 284.08 397.279 284.225 397.23 284.361C396.665 287.307 393.369 289.9 396.918 294.186C400.645 297.806 405.524 300.001 410.705 300.39C420.931 300.659 431.16 299.976 441.259 298.35C443.969 297.936 448.166 298.612 451.042 296.448C453.917 294.283 460.42 258.111 460.883 252.812Z" fill="#262626"/>
<path fill-rule="evenodd" clip-rule="evenodd" d="M405.268 249.034C405.315 248.821 405.312 248.6 405.26 248.389C405.208 248.178 405.107 247.981 404.967 247.814C404.826 247.648 404.649 247.516 404.45 247.429C404.25 247.342 404.033 247.303 403.815 247.313C400.139 247.855 396.543 248.848 393.11 250.269C391.382 250.872 389 251.349 388.234 253.578C386.997 256.268 389.333 258.031 390.499 259.696C392.823 262.897 395.549 265.786 398.61 268.292C398.925 268.527 399.32 268.627 399.709 268.57C400.098 268.513 400.448 268.304 400.683 267.989C400.918 267.674 401.018 267.278 400.961 266.89C400.904 266.501 400.695 266.151 400.38 265.916C397.421 262.576 394.79 258.961 392.52 255.12C403.075 250.735 404.748 250.419 405.268 249.034Z" fill="#F03240"/>
<path fill-rule="evenodd" clip-rule="evenodd" d="M427.743 281.423C432.688 279.701 437.405 277.385 441.791 274.525C442.179 274.182 442.494 273.764 442.717 273.296C442.941 272.829 443.068 272.322 443.092 271.804C443.116 271.287 443.036 270.77 442.857 270.284C442.677 269.797 442.403 269.352 442.048 268.974C441.429 268.22 434.451 262.344 433.818 261.883C433.185 261.423 430.439 259.37 429.415 260.064C427.034 261.645 430.871 264.204 438.253 271.514C434.714 274.231 430.935 276.617 426.96 278.643C426.639 278.784 426.379 279.037 426.229 279.355C426.078 279.673 426.048 280.034 426.144 280.373C426.239 280.711 426.453 281.004 426.747 281.197C427.041 281.39 427.395 281.47 427.743 281.423Z" fill="#F03240"/>
<path fill-rule="evenodd" clip-rule="evenodd" d="M404.967 276.297C408.391 273.262 411.736 270.636 414.825 267.579C419.778 262.758 421.396 258.741 425.76 254.783C426.024 254.58 426.197 254.281 426.24 253.951C426.283 253.621 426.194 253.288 425.991 253.024C425.788 252.76 425.489 252.587 425.159 252.544C424.83 252.501 424.496 252.59 424.232 252.793C416.394 257.613 409.109 267.078 403.161 274.212C403.008 274.475 402.941 274.779 402.97 275.081C402.998 275.384 403.12 275.67 403.319 275.9C403.518 276.13 403.784 276.292 404.08 276.363C404.375 276.434 404.686 276.411 404.967 276.297Z" fill="#F03240"/>
</g>
<path d="M345.065 72.0589C345.192 73.2918 346.607 73.9244 347.611 73.1973C347.92 72.9735 348.14 72.6472 348.231 72.2765C348.974 66.2984 349.764 60.324 350.184 54.2286C350.43 50.6376 350.677 47.0465 350.543 43.477C350.674 38.1215 350.704 32.854 351.298 27.673C357.983 27.1825 364.695 27.1682 371.381 27.6295L379.273 28.1721L391.085 28.9842C401.089 29.862 411.024 30.8141 420.891 31.8406C421.859 32.0179 422.776 31.3414 422.892 30.3643C423.041 29.394 422.386 28.483 421.419 28.3166C413 27.168 404.41 25.0579 395.998 23.8153C390.28 22.9322 384.517 22.3775 378.737 22.1537C369.049 21.8468 359.358 22.6457 349.852 24.5348C349.277 24.639 348.818 25.0734 348.684 25.6418C348.2 25.8811 347.854 26.3301 347.745 26.859C346.467 32.0613 345.517 37.3399 344.902 42.6616L344.435 49.4656C344.292 51.5449 344.11 54.1908 344.345 56.2956C344.406 61.6171 344.852 66.8696 345.065 72.0589Z" fill="#262626"/>
<path d="M440.495 111.282C440.388 110.537 439.817 109.944 439.077 109.808C439.761 109.35 440.022 108.47 439.696 107.714C438.418 104.208 437.228 100.803 435.659 97.372C434.998 95.9498 434.336 94.5276 433.576 93.1459C432.874 91.7534 432.095 90.4004 431.244 89.0927C429.275 85.9668 426.909 83.0979 425.076 80.0763C426.015 75.3934 427.096 70.7202 428.013 65.6564C428.405 63.4048 428.669 60.9539 428.91 58.8346C429.15 56.7153 429.234 54.1094 429.384 51.9361L429.556 49.4317L429.621 48.4866C429.752 43.1311 429.546 37.8473 429.245 32.5575C429.26 31.5878 428.486 30.7896 427.516 30.7771C426.513 30.7593 425.679 31.5448 425.637 32.5467C425.274 37.8384 424.481 43.1485 423.871 48.566C423.628 52.1096 423.097 55.6811 422.853 59.2251L422.72 61.1624L422.616 62.6741C422.22 68.4385 421.83 74.1088 421.916 79.7641C414.058 78.749 406.213 77.5449 398.395 76.6275C392.694 75.9984 386.993 75.3688 381.27 75.0702C371.633 74.6118 361.979 74.6609 352.348 75.2179C351.474 75.2336 350.772 75.944 350.766 76.8185C350.806 77.6822 351.503 78.3707 352.367 78.4002L354.21 78.5269C353.722 79.3952 353.141 80.2571 352.651 81.1731C352.161 82.089 351.389 83.6497 350.731 84.9339C350.025 86.2144 349.367 87.4986 348.71 88.7823C347.824 90.3741 347.075 92.0378 346.469 93.7556C346.156 94.5691 346.095 95.4579 346.293 96.307C347.008 97.6201 348.302 98.5189 349.782 98.7305C356.085 100.112 362.478 101.028 368.915 101.47C375.861 101.948 383.657 102.484 391.051 102.66C399.957 102.94 408.173 102.888 413.157 102.898L417.624 102.826C418.518 102.836 419.373 102.462 419.974 101.8C420.418 101.047 420.702 100.21 420.808 99.3418C420.86 97.9456 420.732 96.5488 420.429 95.1857C420.149 93.0301 419.968 90.8336 419.645 88.6278C419.322 86.4219 419.094 85.5988 418.675 84.0984C418.56 83.6605 418.279 83.284 417.892 83.0478L423.09 83.4051C424.29 86.6686 425.395 89.925 426.882 93.1604C427.961 95.4187 429.188 97.5917 430.466 99.721C432.381 102.939 434.498 105.98 436.413 109.197C436.654 109.632 437.06 109.95 437.539 110.082C437.15 110.399 436.912 110.865 436.881 111.366C424.482 110.798 412.122 109.664 399.766 108.481C391.497 107.913 383.251 107.014 374.982 106.445C361.138 105.493 347.299 105.159 333.399 105.01C332.529 104.976 331.789 105.64 331.729 106.509C331.719 107.371 332.371 108.097 333.229 108.179C345.703 109.037 357.973 110.782 370.374 112.015C378.627 112.819 386.936 113.486 395.208 114.007C409.099 114.962 422.952 115.108 436.826 114.922C436.81 115.163 436.81 115.158 436.8 115.301C436.849 115.965 436.804 116.633 436.664 117.285C436.029 119.615 433.236 120.182 430.227 120.45C425.356 120.561 420.485 120.226 415.674 119.45C407.926 118.917 394.728 117.535 381.977 116.563L365.062 115.4C356.982 114.844 350.533 114.733 348.218 114.574C343.569 114.61 338.948 113.842 334.559 112.306C332.052 111.519 330.464 109.053 330.785 106.444L330.827 105.83C331.507 105.86 332.137 105.47 332.414 104.847C334.254 101.44 336.287 98.1396 338.505 94.9646L343.058 88.8212C345.409 84.9951 347.431 81.1462 349.719 77.5534C350.518 76.8162 350.339 75.5089 349.372 75.0133C348.687 74.4628 347.687 74.5634 347.125 75.2386C344.47 77.9521 341.625 80.6521 339.083 83.8004C338.032 85.1388 337.049 86.5291 336.138 87.9656C335.234 89.3751 334.418 90.8856 333.64 92.5414C333.62 92.8244 328.093 104.17 327.96 106.108C327.074 110.221 329.271 114.376 333.169 115.96C337.92 118.016 342.995 119.217 348.164 119.508C350.479 119.667 356.92 120.584 365.078 121.382L381.946 122.542C394.75 123.423 408 124.049 415.759 124.44C421.786 125.161 427.886 125.021 433.875 124.024C437.069 123.539 439.719 121.298 440.729 118.229C440.94 117.236 441.01 116.218 440.937 115.205C441.025 113.929 440.596 112.57 440.495 111.282ZM398.714 82.3461C398.517 83.8347 398.414 85.3337 398.405 86.8352L391.932 86.3902L387.869 86.1108C387.817 84.704 387.692 83.3005 387.493 81.9072L394.628 82.3977L398.714 82.3461ZM383.594 81.3065C383.144 82.6522 382.764 84.0205 382.458 85.4061L375.418 84.922L371.054 84.8597C371.158 83.3474 371.499 81.8515 371.616 80.1507L377.836 80.8156L383.594 81.3065ZM367.65 79.8308C366.859 81.2304 366.142 82.6709 365.502 84.1453L365.463 84.7124C363.431 84.5727 361.376 84.7635 359.341 84.6713C357.306 84.5791 356.695 84.4894 355.373 84.3984C355.402 83.9729 355.718 83.5203 355.936 83.1077C356.553 81.7262 357.211 80.442 357.967 79.1173L367.65 79.8308ZM352.383 94.732C351.782 94.5589 351.194 94.3437 350.624 94.0885C351.154 92.9712 351.752 91.8866 352.413 90.8412L353.832 87.4729C355.486 87.5866 357.154 88.1761 358.845 88.4351C360.537 88.6941 362.326 88.9116 364.067 89.1263L363.983 90.355C363.77 92.0639 363.652 93.7833 363.629 95.5052C358.995 95.2339 354.975 95.0052 352.437 94.6408L352.383 94.732ZM367.834 95.7944C368.356 94.4059 368.879 93.0179 369.358 91.5792C369.397 91.0121 369.672 90.4613 369.853 89.904C371.507 90.0177 373.208 90.1346 374.842 90.5319L381.882 91.0159L381.849 91.4885C381.736 93.1422 381.956 94.7712 382.045 96.249L367.834 95.7944ZM389.227 96.7428L386.391 96.5478C386.83 95.0114 387.264 93.5224 387.567 91.8816L387.606 91.3145L391.716 91.5972C394.315 91.7759 396.883 91.7152 399.488 91.7994C399.884 93.6304 400.477 95.3804 400.92 97.2147L389.227 96.7428ZM416.49 98.6173L411.197 98.2534L404.63 97.8019C404.852 95.9514 404.98 94.0905 405.013 92.2266C408.671 92.1932 412.379 92.116 416.044 91.9881C415.956 93.2638 416.199 94.5622 416.347 95.8542C416.495 97.1461 416.476 97.4297 416.512 98.2868L416.49 98.6173ZM415.673 88.4024L408.869 87.9345L404.664 87.6454C404.58 86.9793 404.451 86.3205 404.277 85.6724C403.964 84.7012 403.557 83.7236 403.193 82.7968C407.587 83.0989 411.982 83.401 416.348 83.4164C415.524 83.7411 415.047 84.6042 415.21 85.4745C415.438 86.2971 415.555 87.3497 415.676 88.3549L415.673 88.4024Z" fill="#262626"/>
<path d="M380.617 69.3766C383.687 70.457 387.032 70.4695 390.109 69.4117C392.933 68.4206 395.538 66.8909 397.778 64.9071C398.883 63.9375 399.908 62.8808 400.843 61.747C401.751 60.5695 402.538 59.3035 403.192 57.9684C403.687 57.1119 403.375 56.0153 402.504 55.5475C401.634 55.0479 400.524 55.3558 400.036 56.232C399.407 57.2186 398.66 58.1241 397.809 58.9272C396.92 59.7163 395.966 60.429 394.957 61.0574C392.958 62.2824 390.782 63.1901 388.505 63.747C386.497 64.2726 384.385 64.2583 382.384 63.7059C377.883 62.1383 374.02 59.1376 371.388 55.1646C370.61 54.1994 369.079 54.438 368.632 55.5945C368.478 55.9933 368.489 56.4374 368.662 56.8287C370.958 62.3461 375.217 66.8167 380.617 69.3766Z" fill="#F03240"/>
<path d="M373.851 42.8005C374.357 42.5416 374.922 42.4166 375.49 42.4389C376.923 42.3726 378.323 42.8787 379.381 43.8455C380.276 44.9122 381.99 44.6099 382.466 43.3014C382.687 42.6942 382.568 42.0148 382.152 41.5203C380.96 39.0899 378.717 37.3425 376.069 36.7816C375.317 36.566 374.528 36.5118 373.754 36.6224C372.673 36.8212 371.661 37.2903 370.812 37.9867C369.166 39.4023 368.006 41.2985 367.496 43.4081C367.003 44.1571 367.264 45.1669 368.058 45.5831C368.815 46.0161 369.78 45.7665 370.233 45.0207C371.256 44.0165 372.493 43.2572 373.851 42.8005Z" fill="#F03240"/>
<path d="M401.933 36.8984C402.71 36.4667 402.99 35.4871 402.559 34.7106C402.095 33.9706 401.136 33.7178 400.368 34.1323C398.173 34.7382 396.069 35.6312 394.108 36.7879C392.576 37.8073 391.655 39.5261 391.657 41.3664C391.727 42.4862 392.193 43.5446 392.971 44.3528C394.687 45.7708 396.522 47.0404 398.454 48.1479C399.108 48.9053 400.254 48.9841 401.006 48.3234C401.739 47.6574 401.816 46.532 401.181 45.772C397.33 40.3326 394.812 43.8147 401.933 36.8984Z" fill="#F03240"/>
<g clip-path="url(#clip1_8147_275)">
<path fill-rule="evenodd" clip-rule="evenodd" d="M107.645 312.658C104.395 312.809 101.196 313.521 98.1886 314.763C93.9084 316.402 89.6663 318.606 85.9367 320.169L64.6185 329.047C57.68 332.016 50.5618 335.099 43.6109 338.386C38.8961 340.638 34.3186 343.016 29.9714 345.528C29.811 345.617 29.67 345.737 29.5565 345.88C29.4431 346.024 29.3595 346.189 29.3108 346.366C29.262 346.543 29.2491 346.727 29.2727 346.909C29.2963 347.091 29.3559 347.266 29.4482 347.424C29.5313 347.585 29.6463 347.727 29.786 347.841C29.9258 347.956 30.0874 348.041 30.2611 348.092C30.4348 348.142 30.617 348.157 30.7964 348.134C30.9759 348.112 31.149 348.053 31.3051 347.962C35.6582 345.581 40.2563 343.374 44.9529 341.308C51.9543 338.269 59.1917 335.498 66.1418 332.791L87.6984 324.536C91.3949 323.12 95.6668 320.993 99.899 319.462C102.4 318.517 105.031 317.961 107.7 317.812C109.124 317.803 110.075 317.84 110.455 318.364C110.834 318.888 110.4 318.92 110.271 319.282C109.233 321.424 107.555 323.189 105.468 324.334C103.037 325.702 100.517 326.905 97.9245 327.937L85.6287 332.646L46.9166 348.765C43.7259 349.987 40.3937 351.888 36.9546 353.161C34.8438 354.019 32.6205 354.57 30.353 354.796C28.4083 354.961 26.967 354.576 26.2384 353.606C25.8825 352.979 25.7149 352.262 25.7557 351.542C25.7965 350.822 26.044 350.13 26.4686 349.547C26.6691 349.184 26.719 348.756 26.6077 348.357C26.4964 347.957 26.2327 347.617 25.8734 347.41C25.6865 347.324 25.4843 347.276 25.2786 347.269C25.0728 347.262 24.8678 347.296 24.6756 347.37C24.4834 347.443 24.3079 347.555 24.1594 347.697C24.0109 347.84 23.8925 348.011 23.8111 348.2C22.9738 349.283 22.4857 350.595 22.4116 351.962C22.3375 353.33 22.6809 354.687 23.3963 355.854C24.2346 356.865 25.3196 357.642 26.5464 358.11C27.7732 358.579 29.1 358.722 30.3985 358.527C32.9874 358.322 35.5364 357.766 37.9754 356.874C41.4773 355.533 45.0215 353.953 48.2362 352.677L68.3531 344.973C68.7215 346.75 69.051 348.543 69.4583 350.305C67.9987 352.203 66.4464 354.091 65.0556 356.052C64.2972 357.101 63.5927 358.173 62.903 359.285C62.2134 360.397 61.5776 361.533 61.0345 362.678C59.763 365.473 58.6561 368.34 57.7196 371.265C57.6442 371.431 57.6025 371.61 57.5969 371.792C57.5913 371.974 57.622 372.156 57.6872 372.326C57.7524 372.496 57.8507 372.651 57.9765 372.783C58.1023 372.915 58.253 373.021 58.42 373.094C58.5821 373.169 58.7577 373.211 58.9364 373.218C59.1151 373.224 59.2932 373.194 59.4602 373.13C59.6272 373.066 59.7797 372.969 59.9084 372.845C60.0372 372.721 60.1397 372.573 60.2099 372.408C61.8557 369.949 63.6928 367.639 65.4165 365.149C66.097 364.13 66.7866 363.018 67.4374 361.921C68.0881 360.824 68.685 359.703 69.2819 358.582C69.8788 357.462 70.407 356.278 70.9501 355.133L71.874 357.545C72.9023 360.23 74.212 362.718 75.3602 365.134C75.4066 365.358 75.5013 365.571 75.6378 365.755C75.7743 365.94 75.9493 366.092 76.1507 366.203C76.3521 366.313 76.575 366.378 76.8041 366.394C77.0331 366.409 77.2628 366.375 77.4772 366.292C77.6916 366.21 77.8856 366.083 78.0457 365.918C78.2058 365.753 78.3282 365.556 78.4045 365.34C78.4807 365.123 78.5089 364.892 78.4872 364.664C78.4654 364.435 78.3942 364.214 78.2785 364.016C77.6303 361.275 77.1675 358.552 76.5044 355.772L75.7842 353.192C77.0815 353.9 78.3547 354.662 79.691 355.355L82.4652 356.657C83.4338 357.089 84.4116 357.428 85.3893 357.768C87.7306 358.522 90.0602 359.013 92.3659 359.558C92.528 359.633 92.7036 359.676 92.8823 359.682C93.061 359.688 93.2392 359.658 93.4061 359.595C93.5731 359.531 93.7256 359.434 93.8544 359.31C93.9831 359.186 94.0856 359.037 94.1558 358.872C94.2376 358.711 94.2848 358.535 94.2942 358.355C94.3036 358.174 94.2751 357.994 94.2105 357.825C94.1459 357.656 94.0467 357.503 93.9192 357.375C93.7917 357.247 93.6388 357.148 93.4703 357.082C91.4022 355.644 89.412 354.175 87.4036 352.892C86.42 352.421 85.4903 351.974 84.5366 351.58C83.5829 351.187 82.5124 350.838 81.5496 350.538C79.1305 349.814 76.6303 349.343 74.4173 348.808C73.5773 346.947 72.6433 345.131 71.6191 343.365L87.378 337.33L99.7905 332.576C102.616 331.45 105.361 330.131 108.005 328.627C109.996 327.603 111.724 326.133 113.054 324.331C114.384 322.529 115.28 320.445 115.672 318.24C115.751 315.533 113.906 312.58 107.645 312.658Z" fill="#262626"/>
<path fill-rule="evenodd" clip-rule="evenodd" d="M43.7621 318.161L53.6603 320.706C53.9496 320.777 54.2538 320.759 54.5321 320.652C54.8103 320.545 55.0493 320.356 55.2167 320.11C55.3371 320.385 55.5354 320.619 55.7872 320.784C56.1736 320.946 56.608 320.954 56.9995 320.804C57.3911 320.654 57.7096 320.358 57.8883 319.979C58.8427 318.284 59.4515 316.417 59.6795 314.485C59.9074 312.554 59.7499 310.596 59.2162 308.726C58.6825 306.855 57.7831 305.109 56.5701 303.589C55.3571 302.068 53.8546 300.804 52.1495 299.868C48.8553 297.594 44.8529 296.582 40.8738 297.016C36.8948 297.45 33.2049 299.302 30.4787 302.233C28.7906 304.209 27.5407 306.52 26.8116 309.014C26.0825 311.508 25.8908 314.129 26.249 316.703C26.5455 319.285 27.4867 321.752 28.9861 323.875C30.4854 325.999 32.4947 327.711 34.8292 328.855C37.881 330.21 41.3062 330.474 44.5295 329.601C47.5436 328.782 50.3262 327.273 52.6577 325.195C52.9339 324.957 53.1079 324.622 53.1435 324.259C53.1791 323.897 53.0736 323.534 52.849 323.247C52.6342 322.959 52.3153 322.767 51.9603 322.711C51.6054 322.655 51.2427 322.74 50.9498 322.948C48.8676 324.568 46.4381 325.681 43.8523 326.202C41.4679 326.69 38.9887 326.368 36.8087 325.286C34.9572 324.229 33.511 322.584 32.699 320.613L36.5901 319.123C43.7356 315.762 41.3281 317.397 43.7621 318.161ZM55.2524 318.222C55.0916 317.978 54.8631 317.787 54.595 317.671L45.1513 313.167C44.2797 312.713 43.3811 312.312 42.4607 311.967C42.4607 311.967 42.4607 311.967 42.1883 312.071C42.3249 311.123 42.4062 310.168 42.4317 309.211C42.4842 308.452 42.4902 307.689 42.45 306.929C42.3906 306.159 42.2908 305.393 42.1511 304.634L41.1825 302.105C44.1609 301.668 47.2002 302.23 49.8256 303.703C52.4337 304.95 54.4565 307.16 55.4686 309.867C56.4807 312.575 56.4032 315.57 55.2524 318.222ZM31.574 316.627C31.4902 316.451 31.4205 316.269 31.3653 316.082C31.1603 314.286 31.3215 312.467 31.8392 310.735C32.3569 309.003 33.2203 307.394 34.3772 306.005C35.1886 305.074 36.1591 304.294 37.2434 303.703C37.1738 304.22 37.1043 304.737 37.0737 305.24C37.0281 306.693 37.1363 308.147 37.3965 309.578C37.6141 310.662 37.8902 311.732 38.2236 312.786C37.3332 313.06 36.4623 313.394 35.6165 313.785C34.2145 314.652 32.8646 315.601 31.574 316.627Z" fill="#262626"/>
<path fill-rule="evenodd" clip-rule="evenodd" d="M66.9395 298.175C66.1613 298.473 65.3831 298.771 67.649 306.202C67.9082 307.053 68.2268 307.886 68.6027 308.692C68.9586 309.529 69.3733 310.339 69.8437 311.117C73.3257 317.413 74.0849 317.881 75.3002 317.326C76.5156 316.772 76.427 315.958 74.3606 309.164C74.102 308.313 73.7833 307.48 73.4069 306.674C73.0674 305.847 72.6707 305.045 72.2197 304.273C68.4901 297.447 67.6639 297.853 66.9395 298.175Z" fill="#F03240"/>
<path fill-rule="evenodd" clip-rule="evenodd" d="M74.4849 282.926C74.3109 282.98 74.1499 283.07 74.0118 283.189C73.8738 283.308 73.7617 283.454 73.6824 283.619C73.6031 283.783 73.5583 283.962 73.5508 284.144C73.5433 284.326 73.5733 284.508 73.6388 284.678C74.4087 288.086 74.9932 291.476 75.8947 294.879C76.4312 296.28 76.7342 297.77 77.2318 299.186C77.7293 300.601 78.3047 301.987 78.8412 303.388C80.1078 306.695 81.8894 309.716 83.5692 312.821C83.7479 313.198 84.0649 313.492 84.4546 313.642C84.8443 313.792 85.2766 313.786 85.6621 313.626C85.851 313.542 86.0212 313.422 86.1626 313.271C86.304 313.12 86.4136 312.943 86.4851 312.749C86.5565 312.555 86.5882 312.349 86.5784 312.143C86.5686 311.936 86.5174 311.734 86.4279 311.548C85.1612 308.24 84.4691 304.802 83.421 301.366C82.5865 299.187 82.0095 296.865 81.175 294.686C79.6848 290.795 77.8469 287.394 76.1978 283.787C76.0721 283.455 75.8263 283.182 75.5091 283.023C75.1919 282.863 74.8264 282.829 74.4849 282.926Z" fill="#F03240"/>
<path fill-rule="evenodd" clip-rule="evenodd" d="M24.4753 346.205C24.5287 346.376 24.6158 346.534 24.7316 346.671C24.8474 346.807 24.9894 346.919 25.1492 346.999C25.309 347.079 25.4834 347.127 25.6619 347.138C25.8404 347.15 26.0194 347.125 26.1882 347.066C26.3622 347.012 26.5232 346.922 26.6613 346.803C26.7993 346.684 26.9115 346.538 26.9908 346.374C27.0701 346.21 27.1148 346.031 27.1223 345.849C27.1298 345.667 27.0999 345.485 27.0343 345.315C25.4125 339.332 23.77 333.179 21.7409 327.532L17.7919 317.22C15.81 312.045 13.3131 307.156 11.2086 301.894C11.0194 301.57 10.721 301.323 10.3667 301.199C10.0125 301.074 9.62547 301.079 9.27476 301.214C8.92405 301.348 8.6325 301.603 8.45217 301.932C8.27185 302.261 8.21448 302.644 8.29032 303.012C9.64389 308.294 11.1382 313.477 12.8809 318.61L15.3546 325.069L17.8283 331.529C19.9841 336.459 22.2806 341.29 24.4753 346.205Z" fill="#262626"/>
<path fill-rule="evenodd" clip-rule="evenodd" d="M12.0118 300.382C13.9689 299.9 16.037 299.242 17.8716 298.673C22.1907 297.019 26.5098 295.365 31.011 293.953C38.9273 291.323 46.8435 288.693 54.6406 285.751C59.8935 283.74 65.1076 281.743 70.1155 279.557L84.8593 274.134C85.5208 273.881 88.5418 272.099 88.334 273.071C89.0987 273.868 89.7117 274.797 90.1429 275.814L92.8401 282.856L100.425 302.662C101.528 305.541 102.616 308.382 103.937 311.133C104.017 311.327 104.135 311.503 104.285 311.65C104.435 311.797 104.614 311.911 104.81 311.987C105.006 312.062 105.215 312.097 105.425 312.088C105.635 312.08 105.841 312.029 106.03 311.938C106.215 311.861 106.384 311.748 106.525 311.605C106.666 311.462 106.777 311.292 106.851 311.106C106.925 310.919 106.961 310.72 106.957 310.519C106.952 310.318 106.908 310.121 106.826 309.938L103.592 301.494C101.292 294.79 99.1329 287.987 96.7312 281.366C96.0338 278.379 95.16 275.436 94.1143 272.553C93.3799 271.073 92.28 269.805 90.9187 268.868C90.1814 268.377 89.3067 268.134 88.4218 268.174C86.7564 268.348 85.1201 268.735 83.5529 269.325C80.5957 270.457 77.4415 271.308 74.4156 272.378L68.3455 274.703L29.5771 290.442C25.2191 292.111 21.049 294.154 16.7448 295.847C14.916 296.548 13.0872 297.248 11.1839 297.754C11.0068 297.797 10.8399 297.875 10.6931 297.983C10.5463 298.091 10.4224 298.227 10.3286 298.383C10.2349 298.539 10.1731 298.713 10.147 298.893C10.1208 299.073 10.1308 299.257 10.1764 299.434C10.2293 299.62 10.3199 299.793 10.4424 299.943C10.565 300.093 10.7169 300.216 10.8889 300.305C11.0609 300.394 11.2493 300.446 11.4424 300.46C11.6355 300.473 11.8293 300.446 12.0118 300.382Z" fill="#262626"/>
</g>
<g clip-path="url(#clip2_8147_275)">
<path fill-rule="evenodd" clip-rule="evenodd" d="M235.207 132.656C235.207 135.99 235.832 139.24 236.041 142.531C236.018 142.762 236.042 142.996 236.113 143.217C236.183 143.438 236.298 143.643 236.45 143.818C236.602 143.994 236.788 144.137 236.997 144.238C237.206 144.339 237.434 144.396 237.666 144.406C238.109 144.407 238.536 144.24 238.861 143.939C239.186 143.637 239.384 143.223 239.416 142.781C240.082 139.448 240.332 136.073 240.582 132.99V131.073H242.166H252.624C252.846 131.096 253.071 131.074 253.285 131.008C253.498 130.942 253.696 130.834 253.868 130.691C254.039 130.547 254.179 130.37 254.28 130.171C254.382 129.972 254.442 129.754 254.457 129.531C254.494 129.108 254.368 128.688 254.104 128.355C253.841 128.022 253.461 127.802 253.041 127.74C249.624 127.031 246.124 126.365 242.541 125.906H240.707V124.99C240.457 121.49 240.082 118.323 239.666 115.24C239.695 115.033 239.681 114.822 239.624 114.621C239.567 114.42 239.469 114.233 239.335 114.072C239.202 113.911 239.036 113.78 238.849 113.687C238.662 113.594 238.458 113.541 238.249 113.531C237.858 113.52 237.478 113.662 237.19 113.926C236.902 114.191 236.729 114.557 236.707 114.948C236.124 118.448 235.457 121.906 235.207 125.406H233.374C229.808 125.713 226.261 126.214 222.749 126.906C222.534 126.87 222.314 126.881 222.103 126.939C221.893 126.996 221.698 127.099 221.531 127.24C221.365 127.381 221.231 127.556 221.139 127.754C221.048 127.952 221 128.167 221 128.385C221 128.604 221.048 128.819 221.139 129.017C221.231 129.215 221.365 129.39 221.531 129.531C221.698 129.672 221.893 129.774 222.103 129.832C222.314 129.89 222.534 129.901 222.749 129.865C226.166 130.073 229.582 130.531 233.124 130.823H234.999C235.207 131.531 235.166 132.115 235.207 132.656Z" fill="#262626"/>
<path fill-rule="evenodd" clip-rule="evenodd" d="M308.249 130.906C307.97 130.636 307.596 130.486 307.207 130.486C306.819 130.486 306.445 130.636 306.166 130.906C302.968 133.875 299.922 137.004 297.041 140.281C295.374 142.281 293.874 144.448 292.416 146.531C290.541 149.323 288.832 152.156 287.041 154.865C286.799 154.651 286.488 154.533 286.166 154.531C283.999 153.24 281.999 151.781 279.499 150.365C276.999 148.948 275.332 147.74 273.416 146.573C270.582 144.948 267.832 143.656 265.082 142.406C266.457 139.531 267.832 136.656 269.249 133.74C269.916 132.198 270.541 130.656 271.124 129.073C271.707 127.49 272.249 125.948 272.749 124.323C273.874 120.573 274.749 116.823 275.874 113.031C275.948 112.851 275.985 112.658 275.983 112.463C275.981 112.268 275.94 112.076 275.862 111.897C275.784 111.718 275.672 111.557 275.531 111.423C275.39 111.288 275.223 111.184 275.041 111.115C274.863 111.04 274.672 111.001 274.479 111C274.287 110.999 274.096 111.037 273.917 111.11C273.739 111.184 273.577 111.292 273.441 111.429C273.305 111.566 273.197 111.728 273.124 111.906C271.207 115.406 269.291 118.823 267.666 122.448C266.955 123.968 266.329 125.526 265.791 127.115C265.207 128.698 264.707 130.281 264.207 131.906C260.041 146.031 260.957 141.448 261.207 144.406C258.125 145.383 255.117 146.58 252.207 147.99C247.508 149.996 243.072 152.57 238.999 155.656C237.125 157.646 235.866 160.134 235.374 162.823C234.8 166.25 234.605 169.729 234.791 173.198C234.791 178.073 235.416 182.823 236.082 187.573C237.041 194.656 238.499 201.615 240.249 208.656C240.33 209.085 240.577 209.465 240.935 209.715C241.293 209.964 241.735 210.063 242.166 209.99C242.309 210.402 242.604 210.745 242.992 210.946C243.379 211.147 243.829 211.193 244.249 211.073C251.124 208.865 257.874 206.615 264.457 203.948C268.916 202.156 273.249 200.115 277.582 197.865C280.564 196.246 283.359 194.303 285.916 192.073C288.01 190.315 289.545 187.983 290.332 185.365C290.952 180.342 290.952 175.262 290.332 170.24C290.053 166.487 289.454 162.765 288.541 159.115C288.819 158.97 289.04 158.735 289.166 158.448C289.166 158.448 289.166 158.073 289.166 157.865C291.541 155.365 293.916 152.906 296.166 150.24C297.249 149.031 298.249 147.781 299.249 146.49C300.249 145.198 301.166 143.906 302.082 142.573C304.166 139.406 305.999 136.156 308.124 132.99C308.276 132.866 308.401 132.712 308.491 132.537C308.58 132.363 308.633 132.171 308.644 131.975C308.656 131.78 308.627 131.583 308.559 131.399C308.491 131.215 308.385 131.047 308.249 130.906ZM285.207 183.948C284.628 185.493 283.633 186.849 282.332 187.865C279.938 189.787 277.356 191.462 274.624 192.865C269.582 195.865 264.416 198.448 259.166 200.906C248.041 206.156 247.624 207.156 243.541 205.948C242.582 205.656 242.499 201.073 242.291 199.823C241.916 197.406 241.666 195.031 241.666 195.031C241.666 193.531 241.291 192.031 241.166 190.531C240.601 184.744 240.351 178.93 240.416 173.115C240.26 170.064 240.428 167.005 240.916 163.99C241.141 162.338 241.819 160.78 242.874 159.49C246.992 155.875 251.541 152.783 256.416 150.281C259.059 148.818 261.853 147.644 264.749 146.781C266.249 148.073 267.666 149.365 269.291 150.615C270.916 151.865 271.832 152.365 273.124 153.156C274.416 153.948 275.832 154.698 277.291 155.406C279.999 156.673 282.782 157.772 285.624 158.698C286.225 161.618 286.532 164.592 286.541 167.573C286.807 173.066 286.359 178.57 285.207 183.948Z" fill="#262626"/>
<path fill-rule="evenodd" clip-rule="evenodd" d="M267.457 161.323C266.409 161.024 265.335 160.829 264.249 160.74C263.168 160.636 262.08 160.636 260.999 160.74C260.253 160.8 259.514 160.926 258.791 161.115C258.034 161.316 257.295 161.581 256.582 161.906C254.742 162.56 253.227 163.903 252.356 165.652C251.486 167.4 251.328 169.419 251.916 171.281C253.032 174.212 254.971 176.759 257.499 178.615C255.374 181.031 253.332 183.406 251.124 186.156C250.041 187.615 249.041 189.115 248.082 190.656C247.124 192.198 246.291 193.823 245.499 195.448C245.249 195.948 245.082 196.448 244.874 196.948C243.832 206.24 246.707 202.531 249.041 200.073C249.749 198.906 250.541 197.781 251.249 196.615C252.499 194.656 253.749 192.448 254.957 190.656C256.999 187.156 258.791 183.74 260.624 180.49C260.916 180.49 261.166 180.781 261.416 180.865C261.775 181.02 262.182 181.029 262.548 180.889C262.914 180.749 263.21 180.471 263.374 180.115C264.374 177.865 258.874 176.49 256.916 171.781C256.67 171.343 256.529 170.853 256.505 170.351C256.481 169.849 256.573 169.348 256.775 168.888C256.977 168.427 257.283 168.02 257.669 167.698C258.055 167.376 258.51 167.148 258.999 167.031L261.624 166.448C262.387 166.386 263.153 166.386 263.916 166.448C264.647 166.512 265.372 166.638 266.082 166.823C267.512 167.207 268.771 168.061 269.655 169.248C270.54 170.435 270.998 171.885 270.957 173.365C271.006 174.134 270.884 174.905 270.601 175.622C270.318 176.339 269.881 176.985 269.32 177.514C268.759 178.043 268.089 178.442 267.356 178.683C266.624 178.923 265.848 179 265.082 178.906C264.668 178.925 264.275 179.093 263.976 179.38C263.676 179.667 263.492 180.053 263.456 180.466C263.42 180.879 263.536 181.291 263.782 181.625C264.027 181.959 264.386 182.192 264.791 182.281C266.079 182.517 267.403 182.47 268.671 182.144C269.939 181.817 271.121 181.219 272.136 180.391C273.15 179.563 273.972 178.524 274.546 177.347C275.119 176.17 275.43 174.882 275.457 173.573C275.698 170.929 275.039 168.28 273.587 166.057C272.135 163.834 269.975 162.166 267.457 161.323Z" fill="#F03240"/>
</g>
<g clip-path="url(#clip3_8147_275)">
<path d="M101.833 227.75C90.2917 227.75 79.25 227.125 67.8333 226.5C64.6667 226.5 43.9167 226.833 41.9583 225.083C41.5833 222.333 41.375 211.833 40.5417 162.833V156C40.0438 149.763 39.9185 143.502 40.1667 137.25C40.1667 135.417 37.875 136.125 37.75 136.458C37.25 138.292 36.625 207.25 36.625 207.667C36.625 214.833 36.625 226.333 38.125 227.875C43.0417 233.25 51.5833 230 59.25 230.208C72.875 230.542 88.4167 230.792 101.833 230.583C102.209 230.583 102.569 230.434 102.835 230.168C103.101 229.903 103.25 229.542 103.25 229.167C103.25 228.791 103.101 228.431 102.835 228.165C102.569 227.899 102.209 227.75 101.833 227.75Z" fill="#262626"/>
<path d="M126.791 154.958H120.291C122.333 146.625 119.958 142.458 119.625 142.458C117.583 139.75 115.958 148.167 117.125 154.958C112.291 154.958 109.625 154.667 104.625 154.5C104.878 151.854 104.507 149.185 103.541 146.708C103.541 146.708 101.625 145.708 101.083 147.375C99.9863 149.553 99.7197 152.056 100.333 154.417H89.2914C89.6295 151.806 89.5167 149.156 88.9581 146.583C88.9106 146.424 88.8317 146.275 88.7259 146.146C88.6201 146.017 88.4895 145.911 88.342 145.833C88.1945 145.755 88.0329 145.708 87.8668 145.694C87.7007 145.68 87.5334 145.699 87.3748 145.75C86.1438 146.79 85.2921 148.209 84.9529 149.785C84.6137 151.36 84.806 153.004 85.4998 154.458H74.1664V153.708C74.7914 150.458 75.1664 141.958 73.3331 141.417C72.6664 141.083 72.1248 141.417 71.5414 142.25C69.5414 145.042 70.3748 153.083 70.3748 153.5C70.3748 155.042 71.4581 153.917 61.6664 154.208V145.167V141C60.7081 137.417 59.1248 138.917 58.8331 141C58.8331 147.667 58.5831 144.458 58.2498 154.25L44.3331 155.667C40.5414 156.833 40.6248 157.75 44.3331 158.458C46.5414 158.458 50.5414 158.458 57.9581 158.083C57.6664 169.417 57.7498 164 57.7081 170.292C57.3748 170.292 46.7081 167.208 45.7081 170.625C44.5831 172.667 47.4164 172.125 49.3748 173.083C52.06 174.098 55.0229 174.098 57.7081 173.083V183.25C47.7498 181.125 49.8748 185.833 49.3748 186.167C59.9164 188.833 57.3748 182.833 58.0831 197.375C56.8748 196.821 55.5387 196.606 54.2177 196.753C52.8966 196.9 51.6403 197.403 50.5831 198.208C47.8331 200.75 57.9164 201.167 58.2498 201.208C58.4998 205.542 58.7081 209.875 58.8748 214.208C57.7081 214.792 45.0831 213.875 46.1248 217C46.1248 217.333 46.1248 217.833 46.8331 218C50.8097 219.268 55.0985 219.15 58.9998 217.667V222.667C59.8331 225.25 60.7914 225.542 62.0414 222.667C62.4581 202.625 62.0414 176.833 61.4998 158C68.8748 158.25 72.2081 159.292 84.2914 159.167C90.5414 159.167 96.7914 158.708 103.041 158.625C108 158.625 117.375 158.625 126.5 157.917C129.5 157.458 131.125 155 126.791 154.958Z" fill="#F03240"/>
<path d="M134.292 196.833V156.708C134.292 150.792 136.167 140.708 133.167 134.5C131.834 131.708 127.667 132.375 126.042 131.958C114.667 129.083 81.8335 133.583 65.1669 133.917C61.2502 134 55.2919 132.75 50.1669 132.625C39.5419 132.417 42.6669 134.75 44.3335 135.875C46.0002 137 124.25 136.5 125.084 136.542C129.25 136.542 130.125 139.958 130.625 144C130.75 145.817 130.75 147.641 130.625 149.458V162.875L131.417 195.75L108.625 197.667C103.459 198.542 105.75 202.458 105.792 204.25C106.5 223.583 106.334 211.875 104.959 225.375C104.896 225.639 104.917 225.916 105.021 226.167C105.124 226.417 105.304 226.629 105.534 226.772C105.765 226.915 106.035 226.982 106.305 226.963C106.576 226.944 106.833 226.84 107.042 226.667C109.292 225.042 110.084 202.917 110.125 201.667C133.875 199.875 130.292 200.208 130.709 200C131.125 199.792 129.417 205.917 128.875 207.208C126.084 213.583 118.75 222.208 111.792 222.375C111.416 222.375 111.056 222.524 110.79 222.79C110.524 223.056 110.375 223.416 110.375 223.792C110.375 224.167 110.524 224.528 110.79 224.793C111.056 225.059 111.416 225.208 111.792 225.208C125.375 225.458 139.417 202.25 134.292 196.833Z" fill="#262626"/>
</g>
<g clip-path="url(#clip4_8147_275)">
<path fill-rule="evenodd" clip-rule="evenodd" d="M246.626 281.127C248.613 281.773 250.67 282.178 252.754 282.333C258.67 282.811 264.625 282.306 270.377 280.839C276.233 279.39 281.71 276.7 286.439 272.953C287.567 271.982 288.461 270.767 289.052 269.4C289.642 268.033 289.915 266.55 289.849 265.062C289.803 263.547 289.434 262.06 288.768 260.698C288.103 259.337 287.154 258.133 285.987 257.167C284.874 256.309 283.621 255.65 282.282 255.22C281.349 255 280.401 254.845 279.447 254.755C278.879 251.936 277.56 249.322 275.629 247.191C273.279 244.652 270.254 242.836 266.907 241.958C263.438 241.079 259.781 241.3 256.441 242.588C253.944 243.585 251.706 245.136 249.894 247.123C248.083 249.11 246.745 251.482 245.982 254.061C245.483 255.935 245.427 257.899 245.818 259.798C244.343 260.663 243.071 261.834 242.089 263.234C241.106 264.633 240.437 266.227 240.125 267.908C239.647 269.791 239.624 271.761 240.058 273.655C240.491 275.549 241.369 277.312 242.619 278.8C243.755 279.877 245.127 280.674 246.626 281.127ZM243.327 268.282C243.657 265.942 244.883 263.82 246.746 262.365C247.755 264.546 249.371 266.389 251.4 267.675C251.655 267.753 251.927 267.753 252.182 267.675C252.437 267.596 252.662 267.444 252.829 267.236C252.996 267.028 253.097 266.776 253.119 266.51C253.141 266.245 253.083 265.979 252.952 265.746C251.323 264.605 250.12 262.953 249.534 261.052C248.947 259.151 249.01 257.109 249.712 255.248C250.476 253.416 251.629 251.773 253.092 250.433C254.555 249.092 256.292 248.086 258.183 247.485C261.022 246.307 264.182 246.156 267.121 247.057C269.156 247.797 270.996 248.991 272.501 250.548C274.374 252.363 275.58 254.758 275.922 257.345C276.265 259.931 275.725 262.557 274.388 264.798C274.254 264.96 274.156 265.149 274.099 265.352C274.042 265.554 274.029 265.767 274.06 265.975C274.091 266.183 274.165 266.383 274.279 266.56C274.392 266.738 274.541 266.889 274.716 267.006C274.892 267.122 275.09 267.2 275.297 267.234C275.505 267.269 275.718 267.259 275.921 267.206C276.125 267.153 276.315 267.058 276.48 266.927C276.644 266.796 276.779 266.631 276.876 266.444C278.662 263.99 279.638 261.04 279.667 258.005L280.443 258.154C281.665 258.52 282.794 259.145 283.754 259.985C284.458 260.621 285.017 261.401 285.394 262.272C285.77 263.143 285.955 264.085 285.936 265.034C285.938 265.909 285.735 266.773 285.342 267.555C284.949 268.337 284.378 269.016 283.674 269.536C279.327 272.627 274.394 274.796 269.178 275.912C263.928 277.263 258.506 277.825 253.091 277.581C251.363 277.584 249.641 277.374 247.965 276.957C247.054 276.75 246.206 276.329 245.49 275.729C244.553 274.756 243.866 273.57 243.49 272.273C243.113 270.976 243.057 269.606 243.327 268.282Z" fill="#262626"/>
<path fill-rule="evenodd" clip-rule="evenodd" d="M297.953 321.486C297.784 321.181 297.556 320.912 297.282 320.696C297.008 320.479 296.693 320.32 296.357 320.227C295.613 320.325 285.2 320.402 282.339 320.696L268.625 322.513L259.954 323.998C257.599 324.31 248.059 326.54 247.002 326.807C245.944 327.073 245.42 331.681 245.426 331.723C245.441 333.008 245.887 334.251 246.692 335.254C247.583 336.412 248.777 337.301 250.142 337.823C250.511 338.068 266.884 337.286 267.927 337.232C271.595 336.999 275.28 336.258 278.997 335.766L284.018 334.638C287.84 333.67 291.611 332.624 295.422 331.573C296.455 331.436 295.67 331.54 297.793 328.527C298.141 328.061 298.413 327.542 298.598 326.991C298.788 326.435 298.895 325.854 298.916 325.267C298.853 323.955 298.525 322.669 297.953 321.486ZM294.183 324.76C293.96 325.294 293.866 325.852 293.689 326.422C293.492 327.284 293.239 328.131 292.933 328.96L278.393 330.886L267.571 332.32C262.242 333.026 257.029 333.968 251.681 334.845L251.189 333.985C251.087 333.509 251.023 333.026 250.998 332.54C250.938 332.085 250.877 331.631 250.569 331.209C250.261 330.788 249.965 329.819 249.707 329.138L269.607 327.385C272.209 327.04 274.77 326.701 277.262 326.16C281.077 325.445 284.792 324.617 288.581 324.031L294.942 323.188C294.612 323.697 294.317 324.227 294.059 324.776L294.183 324.76Z" fill="#262626"/>
<path fill-rule="evenodd" clip-rule="evenodd" d="M251.812 320.285L250.893 313.346L250.379 309.463C250.358 309.01 250.382 308.556 250.451 308.108C250.451 308.108 250.419 307.86 250.614 307.75C251.027 307.696 251.688 307.608 251.862 307.333C252.706 306.9 253.587 306.544 254.495 306.27C255.985 305.778 257.579 305.441 259.086 305.073C263.864 303.795 268.72 302.829 273.624 302.181C276.882 301.754 280.162 301.516 283.448 301.468C284.894 301.276 286.588 301.052 288.295 301.246L288.99 306.492L289.427 309.796L289.865 313.101C290.133 315.125 290.458 315.67 290.803 317.642C290.922 317.994 291.144 318.301 291.442 318.523C291.739 318.746 292.097 318.873 292.467 318.887C292.838 318.902 293.205 318.804 293.519 318.605C293.833 318.407 294.079 318.118 294.225 317.777C294.354 315.574 294.627 314.782 294.585 312.56L294.125 309.09C293.993 307.925 293.756 306.775 293.418 305.653C290.535 295.317 289.354 298.458 283.361 297.949C278.959 297.644 274.54 297.724 270.152 298.185C265.876 298.616 261.631 299.319 257.443 300.289C255.819 300.714 254.1 301.068 252.456 301.664C251.255 302.059 250.098 302.579 249.005 303.214C248.262 303.622 247.565 304.108 246.927 304.666C246.332 305.158 245.919 305.834 245.753 306.587C245.553 307.474 245.518 308.391 245.648 309.291C246.029 310.891 246.491 312.471 247.032 314.025C247.556 316.394 248.157 318.71 248.799 321.02C248.98 322.383 248.98 322.383 249.615 323.686C250.25 324.989 253.042 324.493 252.63 323.287C252.29 322.306 252.016 321.303 251.812 320.285Z" fill="#F03240"/>
<path fill-rule="evenodd" clip-rule="evenodd" d="M250.413 307.819C250.399 307.917 250.413 308.017 250.452 308.108L250.413 307.819Z" fill="#262626"/>
<path fill-rule="evenodd" clip-rule="evenodd" d="M232.792 262.365C229.236 262.149 225.689 262.91 222.534 264.564C221.147 265.249 219.849 266.098 218.666 267.094C217.523 268.142 216.537 269.349 215.736 270.676C214.671 272.198 213.951 273.934 213.627 275.763C213.303 277.592 213.383 279.47 213.86 281.264C213.888 281.436 213.95 281.599 214.043 281.746C214.136 281.893 214.257 282.019 214.399 282.118C214.542 282.217 214.703 282.286 214.872 282.321C215.042 282.356 215.217 282.357 215.387 282.323C215.721 282.258 216.016 282.067 216.214 281.791C216.412 281.515 216.497 281.174 216.452 280.837C216.516 278.065 217.679 275.431 219.685 273.516C220.463 272.642 221.294 271.816 222.173 271.043C223.078 270.231 224.031 269.473 225.025 268.773C227.369 267.036 230.108 265.908 232.996 265.49C233.193 265.493 233.389 265.457 233.571 265.382C233.754 265.308 233.919 265.197 234.058 265.057C234.197 264.917 234.305 264.75 234.378 264.567C234.45 264.384 234.484 264.188 234.479 263.991C234.499 263.767 234.47 263.541 234.391 263.33C234.313 263.119 234.188 262.928 234.026 262.772C233.864 262.616 233.669 262.498 233.456 262.428C233.242 262.357 233.015 262.336 232.792 262.365Z" fill="#F03240"/>
<path fill-rule="evenodd" clip-rule="evenodd" d="M237.706 327.702L232.419 328.402C231.372 328.496 230.317 328.437 229.286 328.229C227.636 328.12 226.024 327.691 224.538 326.966C223.107 326.413 221.815 325.551 220.756 324.441C219.956 323.332 219.214 322.182 218.535 320.995C218.332 319.466 215.129 320.353 215.659 322.763C215.956 324.538 216.743 326.195 217.932 327.547C219.583 329.475 221.737 330.907 224.154 331.683C225.682 332.195 227.277 332.48 228.889 332.526C230.283 332.513 231.67 332.329 233.019 331.979C234.837 331.739 236.547 331.008 238.332 330.519C238.529 330.493 238.719 330.427 238.889 330.326C239.06 330.224 239.208 330.088 239.325 329.927C239.441 329.766 239.523 329.583 239.566 329.389C239.609 329.195 239.612 328.994 239.575 328.799C239.528 328.602 239.442 328.417 239.322 328.254C239.202 328.091 239.05 327.954 238.875 327.851C238.7 327.749 238.507 327.683 238.306 327.657C238.105 327.631 237.901 327.647 237.706 327.702Z" fill="#F03240"/>
<path fill-rule="evenodd" clip-rule="evenodd" d="M221.407 317.294C228.075 315.276 234.535 311.057 234.454 309.807C234.456 306.655 234.47 303.585 234.23 300.506L233.683 296.376C233.496 294.994 233.217 293.627 232.847 292.283C232.661 290.879 231.943 289.587 231.473 288.262C231.81 287.166 231.859 286.001 231.614 284.881C231.353 283.853 230.89 282.887 230.251 282.041C229.612 281.194 228.81 280.484 227.893 279.952C226.623 279.226 225.218 278.768 223.764 278.608C221.85 278.488 219.929 278.531 218.023 278.738C217.63 278.754 217.26 278.925 216.991 279.212C216.722 279.499 216.577 279.88 216.587 280.273C216.615 280.668 216.795 281.037 217.089 281.304C217.382 281.57 217.767 281.713 218.163 281.703C219.886 281.726 221.601 281.921 223.284 282.286C224.307 282.383 225.291 282.728 226.15 283.293C226.778 283.746 227.268 284.365 227.563 285.081L227.859 287.312C227.674 287.796 227.388 288.234 227.021 288.6C225.743 289.776 224.194 290.616 222.511 291.046C219.659 291.873 216.718 292.361 213.752 292.501C210.957 292.812 208.136 292.804 205.343 292.48C203.73 292.386 202.184 291.799 200.917 290.797C199.48 289.474 200.555 288.071 201.947 286.836C203.744 285.228 205.807 283.945 208.044 283.044L211.637 282.568C211.808 282.563 211.976 282.524 212.131 282.453C212.286 282.383 212.426 282.282 212.543 282.157C212.659 282.032 212.749 281.886 212.809 281.726C212.868 281.566 212.895 281.396 212.888 281.225C212.926 281.026 212.919 280.821 212.865 280.625C212.812 280.429 212.715 280.248 212.581 280.096C212.448 279.943 212.281 279.823 212.094 279.745C211.907 279.666 211.704 279.632 211.502 279.643L207.371 280.191C203.128 281.226 199.331 283.601 196.542 286.963C195.864 288.021 195.557 289.274 195.669 290.525C195.159 292.918 194.848 295.349 194.74 297.793C194.736 299.187 194.822 300.58 194.998 301.962C195.173 303.284 195.348 304.606 195.752 306.066C196.442 308.816 197.292 311.525 198.297 314.177C198.292 314.288 198.307 314.4 198.341 314.507C198.505 315.746 208.443 317.792 210.756 318.116C214.328 318.416 217.924 318.139 221.407 317.294ZM199.197 295.27C200.692 296.254 202.351 296.959 204.097 297.353C207.347 297.839 210.647 297.897 213.912 297.523C217.275 297.318 220.595 296.666 223.785 295.585C225.372 294.966 226.86 294.117 228.201 293.067L228.436 294.843C228.639 296.371 228.841 297.9 229.25 299.401C226.772 300.55 224.152 301.364 221.459 301.82C219.203 302.167 216.928 302.37 214.646 302.428C212.292 302.74 209.935 302.716 207.614 302.645C205.828 302.714 204.039 302.67 202.259 302.514C201.524 302.438 200.793 302.325 200.07 302.173L199.523 298.043C199.331 296.597 199.359 296.173 199.197 295.27ZM211.005 313.334C207.708 313.414 204.411 313.176 201.16 312.621C200.837 310.184 200.503 307.664 200.376 305.117C200.748 305.068 201.091 305.442 201.485 305.558C203.36 306.122 205.271 306.557 207.205 306.86C208.882 307.139 210.575 307.308 212.274 307.365C214.84 307.432 217.404 307.205 219.918 306.689C223.448 305.878 226.802 304.437 229.82 302.435C230.328 304.68 230.877 306.919 231.301 309.174L230.971 309.218C227.631 310.836 224.062 311.932 220.39 312.469L215.722 313.087L211.005 313.334Z" fill="#262626"/>
</g>
<g clip-path="url(#clip5_8147_275)">
<path fill-rule="evenodd" clip-rule="evenodd" d="M390.33 441.874C380.608 444.387 371.249 448.137 362.482 453.033C360.61 453.963 358.769 454.97 356.96 456.054C356.652 456.177 356.406 456.418 356.275 456.723C356.145 457.027 356.141 457.371 356.264 457.679C356.388 457.987 356.628 458.233 356.933 458.363C357.238 458.494 357.582 458.498 357.89 458.375L362.221 456.639C363.386 463.578 366.986 467.522 368.564 466.531C370.691 465.23 366.524 457.743 365.122 455.701C374.637 452.561 368.333 455.088 389.837 445.797C390.583 451.02 394.873 457.246 395.979 456.309C397.085 455.372 396.494 451.209 395.277 447.612C394.797 446.413 393.767 444.627 393.898 444.17C394.029 443.713 393.898 444.17 401.742 441.341C403.366 440.69 401.856 437.705 400.518 438.286C396.812 439.456 398.344 439.471 390.33 441.874Z" fill="#262626"/>
<path fill-rule="evenodd" clip-rule="evenodd" d="M399.527 388.992C392.173 382.961 382.137 382 376.424 389.586C369.149 399.1 371.088 419.061 383.101 427.309C386.352 429.589 390.042 431.168 393.936 431.945C395.273 432.075 396.621 432.003 397.937 431.734C399.345 431.439 399.127 429.551 396.96 429.297C396.097 429.405 395.224 429.409 394.36 429.306C390.971 428.441 387.796 426.886 385.034 424.739C375.962 417.781 374.482 401.766 379.413 393.685C387.723 380.032 408.431 397.768 409.348 416.747C409.779 425.552 405.485 427.273 405.68 428.99C405.705 429.207 405.779 429.416 405.898 429.6C406.017 429.783 406.177 429.937 406.365 430.049C406.553 430.16 406.765 430.227 406.983 430.243C407.201 430.259 407.42 430.224 407.623 430.142C409.487 428.314 410.895 426.073 411.735 423.601C414.948 413.695 409.939 397.613 399.527 388.992Z" fill="#F03240"/>
<path fill-rule="evenodd" clip-rule="evenodd" d="M408.121 448.525C408.21 448.895 408.441 449.214 408.765 449.412C409.089 449.611 409.478 449.673 409.847 449.584C410.217 449.496 410.536 449.264 410.734 448.94C410.933 448.617 410.995 448.227 410.906 447.858C409.617 441.492 407.438 435.338 404.434 429.579C403.048 427.127 401.522 424.776 400.391 422.85C401.884 421.085 401.411 419.793 400.746 407.94C400.482 406.609 400.325 402.183 398.97 401.38C398.726 401.256 398.453 401.201 398.179 401.221C397.906 401.241 397.644 401.336 397.421 401.495C397.198 401.654 397.022 401.87 396.914 402.122C396.805 402.373 396.767 402.649 396.805 402.921C397.3 407.518 397.23 412.159 396.596 416.74C396.705 417.01 396.837 417.9 396.946 418.62C395.583 417.235 397.294 418.48 389.127 412.775C386.836 410.865 385.28 409.11 384.104 409.536C383.878 409.6 383.671 409.719 383.503 409.883C383.334 410.047 383.209 410.25 383.139 410.474C383.068 410.698 383.055 410.937 383.099 411.167C383.144 411.398 383.245 411.614 383.394 411.796C383.549 412.183 382.108 410.605 386.761 415.16C388.38 417.07 395.092 423.627 397.653 423.857C401.728 432.683 406.16 442.623 408.121 448.525Z" fill="#262626"/>
<path fill-rule="evenodd" clip-rule="evenodd" d="M346.757 398.781C348.313 399.639 355.091 412.858 357.609 417.46C361.684 424.685 365.356 432.129 368.609 439.76C368.749 440.109 369.022 440.388 369.367 440.535C369.713 440.683 370.103 440.688 370.451 440.548C370.8 440.408 371.079 440.136 371.227 439.79C371.375 439.445 371.379 439.055 371.24 438.706C368.195 430.932 364.729 423.33 360.858 415.934C357.457 409.351 351.948 397.06 349.015 395.228C346.098 393.92 342.821 393.648 339.729 394.46C339.327 392.411 338.544 390.457 337.42 388.697C336.925 387.843 336.225 387.125 335.383 386.608C334.541 386.091 333.584 385.792 332.598 385.737C329.778 385.938 327.009 386.593 324.398 387.676C324.36 384.802 323.255 382.045 321.298 379.941C321.229 379.768 321.126 379.611 320.996 379.478C320.866 379.344 320.711 379.238 320.54 379.165C320.369 379.092 320.185 379.053 319.999 379.051C319.813 379.049 319.629 379.083 319.456 379.153C319.283 379.222 319.126 379.324 318.993 379.454C318.86 379.584 318.754 379.739 318.68 379.91C318.607 380.081 318.569 380.265 318.566 380.451C318.564 380.637 318.599 380.822 318.668 380.995C318.638 383.881 319.752 386.663 321.768 388.73C320.504 389.347 319.288 390.059 318.132 390.86C315.286 392.943 312.432 394.221 313.285 397.695C314.048 399.924 315.029 402.071 316.214 404.107C308.905 409.28 309.232 411.663 310.48 416.46C317.096 436.556 324.895 456.244 333.837 475.419C333.96 475.727 334.2 475.973 334.505 476.103C334.81 476.234 335.154 476.238 335.462 476.114C335.77 475.991 336.016 475.751 336.146 475.446C336.277 475.141 336.281 474.797 336.157 474.489C330.904 462.275 318.806 429.507 315.432 416.72C314.192 412.055 313.666 412.31 317.517 409.376C325.452 403.189 342.926 396.725 346.757 398.781ZM316.767 396.973C321.811 393.846 327.272 391.446 332.987 389.845C334.163 389.643 336.595 393.696 337.014 394.965C330.456 396.751 324.172 399.42 318.333 402.899C318.162 401.127 318.19 397.39 316.767 396.973Z" fill="#262626"/>
<path fill-rule="evenodd" clip-rule="evenodd" d="M331.931 409.614C330.05 407.944 329.076 408.873 322.818 412.189C319.686 413.444 320.315 417.142 320.834 419.223C321.315 421.16 322.061 423.021 323.051 424.754C324.251 426.293 328.49 424.774 330.517 424.007C332.543 423.239 336.017 421.937 336.541 419.662C336.392 416.653 335.241 413.781 333.271 411.502C332.898 410.823 332.449 410.19 331.931 409.614ZM325.13 421.317C324.32 419.746 323.661 418.101 323.161 416.405C323.053 416.135 323.161 415.732 322.898 415.748C322.902 415.59 322.873 415.434 322.815 415.288C322.756 415.141 322.668 415.008 322.557 414.897C322.918 415.038 323.318 415.037 323.679 414.896C329.094 412.727 327.933 413.192 329.063 413.098C329.807 414.002 330.363 415.046 330.697 416.169L331.519 418.219C330.529 418.885 325.865 421.023 325.13 421.317Z" fill="#F03240"/>
<path fill-rule="evenodd" clip-rule="evenodd" d="M356.489 432.587C358.059 431.24 357.911 429.414 357.174 427.464C356.142 425.035 354.79 422.754 353.154 420.681C351.273 419.011 350.338 419.925 344.041 423.256C340.909 424.511 341.538 428.209 342.096 430.275C342.481 432.236 343.149 434.13 344.08 435.898C345.753 438.056 354.439 434.306 356.489 432.587ZM346.353 432.384C345.496 430.868 344.783 429.276 344.222 427.627C344.114 427.356 344.222 426.954 343.959 426.97C343.962 426.812 343.934 426.656 343.875 426.509C343.817 426.363 343.729 426.23 343.618 426.119C344.337 426.459 344.353 426.273 349.273 424.436C349.519 424.307 349.779 424.204 350.046 424.126C350.17 424.436 350.31 424.784 350.588 424.807C350.867 424.83 352.502 429.023 352.579 429.216C350.555 430.37 348.477 431.427 346.353 432.384Z" fill="#F03240"/>
<path fill-rule="evenodd" clip-rule="evenodd" d="M343.853 443.845C342.064 442.182 340.982 443.065 334.74 446.419C331.607 447.674 332.22 451.334 332.794 453.438C333.195 455.38 333.857 457.259 334.763 459.023C336.002 460.547 340.241 459.028 342.229 458.276C344.217 457.524 347.915 455.998 348.308 453.955C348.231 450.942 347.148 448.042 345.231 445.716C344.829 445.052 344.368 444.426 343.853 443.845ZM337.051 455.548C335.912 453.502 335.153 451.266 334.811 448.949C334.98 449.036 335.165 449.085 335.355 449.095C335.544 449.104 335.733 449.072 335.91 449.003C341.17 446.895 341.139 446.593 341.82 447.846C342.006 448.31 343.804 452.124 343.85 452.24C341.643 453.458 339.368 454.55 337.036 455.509L337.051 455.548Z" fill="#F03240"/>
</g>
<g clip-path="url(#clip6_8147_275)">
<path fill-rule="evenodd" clip-rule="evenodd" d="M187.207 112.519C187.759 110.473 187.838 108.329 187.438 106.248C187.038 104.167 186.17 102.205 184.899 100.51C183.993 99.6125 182.946 98.8702 181.8 98.3127C189.586 94.8572 191.796 82.4808 183.596 78.5283C183.258 78.4007 182.885 78.4029 182.549 78.5345C182.212 78.666 181.937 78.9176 181.776 79.2406C181.614 79.5635 181.578 79.9348 181.675 80.2827C181.771 80.6305 181.994 80.9302 182.298 81.1237C188.64 84.437 184.295 98.8113 172.459 93.0853C165.097 89.3866 169.957 75.8719 180.229 79.2715C180.532 79.3309 180.847 79.2796 181.115 79.1271C181.384 78.9745 181.589 78.7308 181.693 78.44C181.798 78.1493 181.794 77.8308 181.684 77.5423C181.573 77.2538 181.363 77.0144 181.092 76.8675C178.699 75.8285 176.027 75.6183 173.501 76.2704C170.975 76.9225 168.74 78.3996 167.149 80.4671C165.558 82.5347 164.703 85.0743 164.72 87.6831C164.737 90.2918 165.625 92.8201 167.242 94.8668C165.25 95.0271 163.328 95.6724 161.642 96.7463C159.957 97.8203 158.56 99.2902 157.573 101.028C156.903 98.0098 155.139 95.3467 152.621 93.5531C148.462 90.6168 148.702 92.0521 151.301 90.7723C161.393 86.0062 164.266 69.2853 153.682 64.2179C153.345 64.0903 152.972 64.0925 152.635 64.224C152.299 64.3556 152.024 64.6072 151.862 64.9301C151.701 65.253 151.665 65.6244 151.762 65.9722C151.858 66.3201 152.08 66.6197 152.385 66.8132C162.605 72.3046 154.652 94.1926 137.808 85.3168C126.699 79.9455 133.792 58.9153 149.307 64.1916C149.462 64.2476 149.626 64.2724 149.791 64.2647C149.956 64.257 150.118 64.2169 150.267 64.1468C150.416 64.0766 150.55 63.9777 150.661 63.8557C150.772 63.7338 150.858 63.5911 150.914 63.4359C150.97 63.2807 150.995 63.116 150.987 62.9512C150.98 62.7864 150.94 62.6248 150.87 62.4755C150.799 62.3262 150.7 62.1922 150.579 62.0811C150.457 61.97 150.314 61.884 150.159 61.8281C146.789 60.4118 143.034 60.2016 139.528 61.233C136.021 62.2645 132.978 64.4743 130.912 67.4895C128.846 70.5046 127.883 74.1404 128.187 77.7828C128.491 81.4252 130.043 84.8512 132.58 87.4823C129.951 87.8858 127.4 88.6936 125.018 89.877C120.113 92.2956 122.557 93.3399 121.472 88.5988C120.954 86.1151 119.508 83.9227 117.428 82.4692C115.752 81.4462 115.974 81.7598 116.267 81.6187C118.999 80.2267 121.11 77.8609 122.182 74.9885C123.254 72.1161 123.21 68.9461 122.059 66.1044C120.819 63.6875 117.095 60.2161 115.899 62.5792C115.746 62.9207 115.727 63.3072 115.844 63.6626C115.961 64.018 116.207 64.3168 116.533 64.5001C121.269 67.1948 119.186 75.4785 114.373 77.5334C113.078 77.9181 111.716 78.0268 110.376 77.8526C109.036 77.6784 107.747 77.2252 106.593 76.5223C99.2312 72.8235 104.05 59.2987 114.363 62.7084C114.666 62.7678 114.981 62.7166 115.249 62.564C115.518 62.4115 115.723 62.1677 115.827 61.8769C115.932 61.5862 115.928 61.2677 115.818 60.9792C115.707 60.6907 115.497 60.4513 115.226 60.3045C112.833 59.2654 110.161 59.0552 107.635 59.7073C105.109 60.3595 102.874 61.8365 101.283 63.9041C99.6918 65.9716 98.837 68.5113 98.854 71.12C98.8709 73.7287 99.7586 76.257 101.376 78.3038C98.6822 78.577 96.1236 79.6188 94.005 81.3051C92.8649 82.2375 91.9253 83.3909 91.2427 84.696C90.5601 86.0011 90.1486 87.4308 90.0331 88.8991C90.013 89.2009 90.0995 89.5002 90.2774 89.7448C90.4554 89.9894 90.7135 90.1638 91.0069 90.2376C91.3003 90.3113 91.6102 90.2798 91.8827 90.1485C92.1552 90.0171 92.373 89.7943 92.498 89.5189C93.8722 87.2894 95.8137 85.4647 98.1241 84.2313C99.9234 82.8374 101.939 81.7477 104.091 81.0057C106.375 82.1464 108.904 82.7086 111.456 82.6429C113.619 84.3155 115.301 86.5321 116.328 89.0667C117.326 91.1127 118.037 93.2867 118.441 95.5271C116.973 97.5234 116.044 99.8645 115.744 102.325C115.723 102.626 115.81 102.926 115.988 103.17C116.166 103.415 116.424 103.589 116.717 103.663C117.011 103.737 117.321 103.705 117.593 103.574C117.866 103.443 118.083 103.22 118.209 102.944C119.087 100.623 120.595 98.5923 122.562 97.079C125.522 94.7384 128.735 92.7362 132.14 91.1096L135.254 90.0023C135.45 89.9945 135.641 89.9393 135.81 89.8414C138.766 91.3925 142.049 92.2179 145.387 92.2496C149.41 95.4811 152.299 99.9095 153.636 104.893C154.387 107.25 154.885 109.679 155.122 112.141C155.154 112.489 155.309 112.814 155.56 113.057C155.812 113.3 156.142 113.444 156.49 113.465C156.839 113.485 157.184 113.379 157.461 113.166C157.739 112.954 157.93 112.649 158.002 112.307C158.228 110.46 158.308 108.598 158.242 106.739C158.96 106.103 158.254 105.667 160.955 103.125C161.34 102.792 164.121 100.956 164.485 100.704C166.269 99.2864 168.289 98.1945 170.452 97.4785C172.702 98.5895 175.187 99.1406 177.696 99.0852C179.738 100.827 181.277 103.083 182.153 105.62C183.195 107.829 183.906 110.179 184.266 112.595C184.276 112.985 184.441 113.355 184.724 113.624C185.007 113.892 185.385 114.038 185.775 114.027C186.165 114.017 186.535 113.853 186.803 113.57C187.072 113.287 187.217 112.909 187.207 112.519Z" fill="#262626"/>
<path fill-rule="evenodd" clip-rule="evenodd" d="M123.972 11.8499C124.714 8.90009 125.927 9.03313 124.989 7.80905C124.05 6.58497 123.555 6.84704 121.995 9.29046C120.982 11.098 120.079 14.179 119.541 15.2898C113.773 27.3916 110.086 40.3792 108.635 53.7066C108.599 53.9037 108.603 54.1057 108.646 54.3013C108.689 54.4969 108.769 54.6822 108.884 54.8466C108.998 55.0109 109.143 55.1512 109.312 55.2593C109.48 55.3675 109.668 55.4414 109.865 55.4768C110.062 55.5123 110.264 55.5085 110.46 55.4659C110.656 55.4232 110.841 55.3425 111.005 55.2282C111.17 55.1139 111.31 54.9684 111.418 54.8C111.526 54.6315 111.6 54.4434 111.636 54.2464C113.987 41.9914 123.485 13.6177 123.972 11.8499Z" fill="#262626"/>
<path fill-rule="evenodd" clip-rule="evenodd" d="M185.682 38.2803C165.542 31.8863 145.03 26.7283 124.261 22.8349C121.917 22.5892 121.368 24.7712 123.601 25.4615C130.713 27.2499 138.146 30.1504 152.198 33.7269C166.25 37.3035 175.242 38.7913 185.244 41.0486C185.558 41.0097 185.851 40.8697 186.078 40.6498C186.306 40.4299 186.456 40.1419 186.505 39.8294C186.555 39.5169 186.501 39.1968 186.353 38.9173C186.204 38.6379 185.969 38.4143 185.682 38.2803Z" fill="#F03240"/>
<path fill-rule="evenodd" clip-rule="evenodd" d="M131.444 9.64708C143.243 12.6142 155.579 14.9858 167.205 18.6399C175.69 21.2892 189.875 23.9969 193.849 29.2068C194.697 30.2791 193.018 38.4927 192.681 41.2006C191.704 51.6411 189.561 61.9394 186.292 71.9029C186.174 72.2149 186.184 72.5613 186.321 72.8656C186.458 73.17 186.711 73.4075 187.023 73.5258C187.335 73.6442 187.681 73.6337 187.985 73.4967C188.29 73.3598 188.527 73.1075 188.646 72.7954C192.483 62.7943 195.238 52.4108 196.864 41.8228C197.618 37.4582 200.114 29.751 197.673 26.3016C192.064 19.2199 177.576 17.2091 168.333 14.4981C156.291 11.1265 143.874 9.24989 131.943 6.80808C131.595 6.8008 131.255 6.91834 130.986 7.13945C130.717 7.36055 130.536 7.67062 130.476 8.01359C130.416 8.35655 130.48 8.70978 130.658 9.00938C130.835 9.30898 131.114 9.53518 131.444 9.64708Z" fill="#262626"/>
<path fill-rule="evenodd" clip-rule="evenodd" d="M129.289 18.2137C129.472 18.5623 129.726 18.8684 130.035 19.112C130.344 19.3556 130.701 19.5311 131.082 19.627C131.464 19.7229 131.861 19.7372 132.249 19.6687C132.636 19.6003 133.005 19.4507 133.33 19.2298C133.794 18.6879 134.066 18.0084 134.106 17.2962C134.145 16.584 133.949 15.8787 133.548 15.2889C131.388 12.9414 127.465 15.0481 129.289 18.2137Z" fill="#262626"/>
<path fill-rule="evenodd" clip-rule="evenodd" d="M138.313 19.4083C138.5 19.7522 138.756 20.0536 139.065 20.2934C139.375 20.5333 139.731 20.7064 140.11 20.8019C140.49 20.8973 140.885 20.9131 141.271 20.8481C141.658 20.7832 142.026 20.6389 142.353 20.4244C142.902 19.8767 143.236 19.1511 143.297 18.3785C143.357 17.6058 143.139 16.8371 142.683 16.2108C140.573 14.1767 136.66 16.243 138.313 19.4083Z" fill="#262626"/>
<path fill-rule="evenodd" clip-rule="evenodd" d="M148.091 21.8675C148.274 22.2161 148.528 22.5222 148.837 22.7658C149.146 23.0094 149.503 23.1849 149.884 23.2808C150.266 23.3768 150.663 23.391 151.051 23.3225C151.438 23.2541 151.807 23.1045 152.132 22.8837C152.739 22.5207 153.541 20.0156 152.39 18.9529C150.352 16.6359 146.358 18.6819 148.091 21.8675Z" fill="#262626"/>
</g>
<g clip-path="url(#clip7_8147_275)">
<path fill-rule="evenodd" clip-rule="evenodd" d="M168.875 415.208C170.375 416.958 172.458 417.375 173.667 418.708C174.007 419.151 174.196 419.692 174.208 420.25C174.208 420.57 174.336 420.878 174.562 421.104C174.789 421.331 175.096 421.458 175.417 421.458H176.083C177.844 421.959 179.641 422.321 181.458 422.542C182.234 422.625 183.016 422.625 183.792 422.542C184.576 422.506 185.356 422.409 186.125 422.25C187.75 421.958 189.333 421.458 190.958 421V424.25C190.958 426.708 188.042 427.375 186.25 427.542C183.522 427.728 180.783 427.417 178.167 426.625C178.458 425.75 177.458 423.417 177.375 422.667C177.325 422.302 177.133 421.972 176.84 421.749C176.547 421.527 176.177 421.429 175.812 421.479C175.448 421.529 175.118 421.721 174.895 422.014C174.672 422.307 174.575 422.677 174.625 423.042C174.625 423.958 174.625 426.583 175.042 427.625C175.081 427.952 175.206 428.262 175.403 428.526C175.601 428.789 175.864 428.996 176.167 429.125C179.465 430.377 182.973 430.985 186.5 430.917C189.172 430.909 191.733 429.846 193.625 427.958C194.198 427.258 194.546 426.401 194.625 425.5C194.625 424.417 194.625 422.958 194.875 421.667C195.125 420.375 195.542 420.083 199.333 416.708C201.26 414.455 202.324 411.59 202.333 408.625C202.226 404.454 200.763 400.432 198.167 397.167C195.909 394.364 192.832 392.336 189.367 391.365C185.901 390.394 182.219 390.529 178.833 391.75C175.485 392.823 172.537 394.879 170.374 397.651C168.212 400.423 166.934 403.783 166.708 407.292C166.601 408.936 166.785 410.586 167.25 412.167C167.589 413.277 168.141 414.31 168.875 415.208ZM169.958 407.583C170.289 404.841 171.429 402.259 173.232 400.167C175.035 398.075 177.42 396.566 180.083 395.833C182.61 394.965 185.344 394.9 187.91 395.646C190.476 396.391 192.749 397.912 194.417 400C196.077 402.03 197.182 404.457 197.625 407.042C197.868 408.23 197.848 409.458 197.568 410.638C197.287 411.818 196.752 412.923 196 413.875L191.833 417.75C191.712 417.901 191.614 418.07 191.542 418.25C191.309 418.192 191.066 418.192 190.833 418.25C189.042 418.25 187.333 418.042 185.583 418H183.375H181.208C179.542 418.25 177.958 418.667 176.292 418.875C176.147 418.179 175.848 417.524 175.417 416.958C174.333 415.625 172.292 415.125 170.917 413.333C170.368 412.521 170.012 411.595 169.875 410.625C169.746 409.613 169.774 408.587 169.958 407.583Z" fill="#020202"/>
<path fill-rule="evenodd" clip-rule="evenodd" d="M159.166 397.458C159.451 397.758 159.758 398.036 160.083 398.292C160.37 398.537 160.677 398.76 160.999 398.958C161.958 399.458 162.874 399.667 163.791 400.208C164.006 400.446 164.307 400.588 164.628 400.604C164.948 400.619 165.262 400.507 165.499 400.292C165.737 400.076 165.879 399.775 165.895 399.455C165.91 399.134 165.798 398.821 165.583 398.583C165.143 397.472 164.539 396.433 163.791 395.5C163.48 395.128 163.115 394.805 162.708 394.542C162.32 394.257 161.901 394.019 161.458 393.833C160.452 393.424 159.422 393.076 158.374 392.792C158.065 392.587 157.687 392.514 157.324 392.588C156.96 392.663 156.641 392.878 156.437 393.188C156.232 393.497 156.159 393.875 156.233 394.238C156.308 394.602 156.523 394.921 156.833 395.125C157.749 395.917 158.374 396.667 159.166 397.458Z" fill="#F03240"/>
<path fill-rule="evenodd" clip-rule="evenodd" d="M171.166 385.208C171.294 385.647 171.447 386.079 171.625 386.5C171.836 386.903 172.073 387.293 172.333 387.667C173.041 388.542 173.833 389.167 174.625 390.042C174.757 390.335 175.001 390.563 175.302 390.676C175.602 390.789 175.936 390.778 176.229 390.646C176.522 390.513 176.75 390.27 176.863 389.969C176.976 389.668 176.966 389.335 176.833 389.042C176.734 387.908 176.567 386.781 176.333 385.667C176.196 385.219 176.014 384.787 175.791 384.375C175.566 383.961 175.301 383.57 175 383.208C174.32 382.34 173.582 381.519 172.791 380.75C172.728 380.574 172.629 380.414 172.5 380.279C172.37 380.144 172.214 380.038 172.041 379.967C171.869 379.896 171.683 379.863 171.496 379.869C171.31 379.874 171.126 379.919 170.958 380C170.791 380.079 170.642 380.192 170.521 380.331C170.4 380.47 170.309 380.633 170.255 380.809C170.2 380.986 170.182 381.171 170.203 381.355C170.223 381.538 170.282 381.715 170.375 381.875C170.568 383.002 170.832 384.115 171.166 385.208Z" fill="#F03240"/>
<path fill-rule="evenodd" clip-rule="evenodd" d="M189.374 388.958C189.369 389.117 189.395 389.275 189.45 389.424C189.506 389.573 189.59 389.709 189.699 389.825C189.807 389.941 189.937 390.035 190.082 390.101C190.226 390.166 190.382 390.203 190.541 390.208C190.859 390.209 191.165 390.089 191.397 389.872C191.629 389.655 191.77 389.359 191.791 389.042C192.262 388.133 192.653 387.185 192.958 386.208C193.02 385.696 193.02 385.179 192.958 384.667C192.958 383.833 192.583 383.125 192.624 382.333C192.746 381.985 192.727 381.603 192.572 381.268C192.416 380.934 192.136 380.673 191.791 380.542C191.449 380.421 191.072 380.441 190.744 380.598C190.416 380.754 190.164 381.033 190.041 381.375C189.431 382.183 188.953 383.084 188.624 384.042C188.464 384.412 188.366 384.806 188.333 385.208C188.271 385.595 188.271 385.989 188.333 386.375C188.603 387.265 188.952 388.13 189.374 388.958Z" fill="#F03240"/>
<path fill-rule="evenodd" clip-rule="evenodd" d="M203.542 399.625H206.708H208L209.25 399.208C210.25 398.833 211.167 398.333 212.208 397.917C212.39 397.891 212.564 397.83 212.722 397.736C212.879 397.642 213.016 397.518 213.125 397.371C213.234 397.223 213.312 397.055 213.355 396.877C213.398 396.699 213.405 396.514 213.375 396.333C213.323 395.975 213.132 395.652 212.844 395.433C212.555 395.215 212.192 395.119 211.833 395.167C210.625 395.167 209.583 394.917 208.417 394.917C207.933 394.855 207.443 394.855 206.958 394.917C206.468 395.006 205.992 395.16 205.542 395.375C204.477 395.95 203.484 396.649 202.583 397.458C202.291 397.586 202.062 397.825 201.945 398.121C201.828 398.418 201.833 398.749 201.958 399.042C202.021 399.186 202.113 399.317 202.227 399.425C202.342 399.533 202.477 399.617 202.625 399.672C202.773 399.727 202.931 399.75 203.088 399.742C203.246 399.734 203.4 399.694 203.542 399.625Z" fill="#F03240"/>
<path fill-rule="evenodd" clip-rule="evenodd" d="M174.667 434.167C174.435 433.95 174.13 433.829 173.813 433.829C173.495 433.829 173.19 433.95 172.958 434.167C170.625 436.333 167.75 438.333 164.833 440.583C163.083 441.917 161.375 443.333 159.458 444.542C157.49 445.88 155.38 446.998 153.167 447.875C152.989 447.914 152.821 447.988 152.673 448.094C152.525 448.201 152.4 448.336 152.306 448.492C152.213 448.648 152.152 448.822 152.128 449.002C152.104 449.183 152.117 449.367 152.167 449.542C152.255 449.895 152.481 450.199 152.793 450.387C153.106 450.574 153.48 450.63 153.833 450.542C156.932 450.04 159.929 449.041 162.708 447.583C163.887 446.964 165.015 446.253 166.083 445.458C167.219 444.741 168.305 443.947 169.333 443.083C171.349 440.861 173.162 438.462 174.75 435.917C174.863 435.798 174.951 435.658 175.009 435.505C175.066 435.351 175.092 435.188 175.084 435.024C175.076 434.86 175.035 434.7 174.964 434.552C174.892 434.405 174.791 434.274 174.667 434.167Z" fill="#F03240"/>
<path fill-rule="evenodd" clip-rule="evenodd" d="M187.166 435.333C187.156 435.027 187.029 434.736 186.813 434.52C186.596 434.303 186.306 434.177 185.999 434.167C185.675 434.155 185.358 434.27 185.117 434.488C184.876 434.706 184.729 435.009 184.708 435.333C184.333 437.375 183.749 439.5 183.458 441.542C183.375 442.456 183.375 443.377 183.458 444.292C183.472 445.243 183.57 446.191 183.749 447.125C184.113 449.326 184.801 451.46 185.791 453.458C185.83 453.65 185.909 453.831 186.023 453.99C186.137 454.148 186.283 454.281 186.453 454.378C186.622 454.476 186.81 454.536 187.004 454.556C187.199 454.575 187.395 454.552 187.58 454.489C187.765 454.427 187.935 454.325 188.078 454.192C188.22 454.059 188.333 453.896 188.408 453.716C188.483 453.536 188.519 453.341 188.513 453.146C188.508 452.951 188.46 452.759 188.374 452.583C188.052 450.628 187.912 448.648 187.958 446.667V442.5C187.833 440 187.416 437.667 187.166 435.333Z" fill="#F03240"/>
<path fill-rule="evenodd" clip-rule="evenodd" d="M213.667 453.625C213.814 453.729 213.981 453.803 214.157 453.843C214.334 453.882 214.516 453.887 214.694 453.856C214.872 453.825 215.042 453.759 215.195 453.662C215.347 453.565 215.479 453.44 215.583 453.292C215.693 453.146 215.772 452.98 215.814 452.802C215.857 452.625 215.863 452.441 215.832 452.261C215.801 452.082 215.733 451.91 215.633 451.758C215.533 451.605 215.402 451.475 215.25 451.375C214.064 450.342 212.938 449.243 211.875 448.083C210.792 446.917 209.875 445.667 208.875 444.417C207.875 443.167 206.958 441.958 205.958 440.75C203.875 438.167 201.792 435.75 199.917 433.208C199.756 432.927 199.491 432.72 199.178 432.634C198.866 432.548 198.532 432.59 198.25 432.75C197.968 432.91 197.762 433.176 197.676 433.489C197.59 433.801 197.631 434.135 197.792 434.417C198.871 437.194 200.138 439.895 201.583 442.5C202.257 443.584 202.995 444.628 203.792 445.625C204.589 446.638 205.467 447.586 206.417 448.458C208.615 450.468 211.05 452.203 213.667 453.625Z" fill="#F03240"/>
<path fill-rule="evenodd" clip-rule="evenodd" d="M150.75 455C147.746 455.086 144.893 456.332 142.787 458.476C140.682 460.62 139.489 463.495 139.458 466.5C139.666 479.5 163.458 482 162.583 465.667C162.542 464.178 162.199 462.712 161.575 461.36C160.951 460.007 160.059 458.795 158.952 457.798C157.846 456.8 156.548 456.038 155.138 455.557C153.728 455.076 152.235 454.887 150.75 455ZM143.375 466.667C143.482 464.714 144.349 462.881 145.789 461.558C147.229 460.235 149.128 459.526 151.083 459.583C152.007 459.48 152.943 459.566 153.832 459.837C154.722 460.108 155.547 460.557 156.257 461.158C156.967 461.759 157.547 462.498 157.961 463.33C158.375 464.163 158.615 465.071 158.666 466C160.25 479.125 142.791 476.167 143.375 466.583V466.667Z" fill="#020202"/>
<path fill-rule="evenodd" clip-rule="evenodd" d="M194.916 470.458C193.208 468.083 191.541 463.792 189.166 460.917C187.933 459.302 186.252 458.085 184.333 457.417C183.81 457.314 183.269 457.371 182.779 457.579C182.289 457.787 181.872 458.137 181.583 458.583C180.958 459.542 179.583 462.125 179.458 462.333L171.666 476.083C171.491 476.349 171.428 476.673 171.49 476.985C171.553 477.297 171.736 477.572 172 477.75C172.272 477.927 172.602 477.992 172.921 477.93C173.24 477.867 173.522 477.683 173.708 477.417L182.75 464.583C182.75 464.583 183.916 463.542 184.625 462.667C185.283 463.37 185.869 464.138 186.375 464.958C188.208 467.708 189.75 471.083 191.25 473.292C191.932 473.826 192.586 474.396 193.208 475H193C192.354 475.302 191.685 475.553 191 475.75C189.318 476.247 187.584 476.54 185.833 476.625C183.083 476.833 180.291 476.625 177.5 476.625C177.171 476.682 176.873 476.853 176.658 477.109C176.443 477.364 176.325 477.687 176.325 478.021C176.325 478.355 176.443 478.678 176.658 478.933C176.873 479.188 177.171 479.36 177.5 479.417C180.375 479.625 183.208 479.958 186.083 480C188.099 480.054 190.115 479.858 192.083 479.417C193.183 479.209 194.258 478.888 195.291 478.458C196.196 478.048 196.984 477.418 197.583 476.625C197.829 476.216 197.959 475.748 197.959 475.271C197.959 474.794 197.829 474.326 197.583 473.917C196.833 472.958 195.125 470.75 194.916 470.458Z" fill="#020202"/>
<path fill-rule="evenodd" clip-rule="evenodd" d="M232.458 468.333C232.666 465.385 232.284 462.424 231.333 459.625C230.694 458.561 229.759 457.706 228.641 457.165C227.523 456.625 226.272 456.423 225.041 456.583C223.575 456.619 222.113 456.758 220.666 457C217.499 457.5 214.416 458.333 211.208 458.667C210.839 458.699 210.498 458.873 210.257 459.154C210.015 459.434 209.893 459.798 209.916 460.167C209.932 460.348 209.983 460.524 210.067 460.684C210.151 460.845 210.266 460.988 210.406 461.104C210.545 461.22 210.706 461.308 210.88 461.362C211.053 461.415 211.235 461.434 211.416 461.417C214.666 461.417 217.874 460.625 221.083 460.333C222.386 460.229 223.696 460.229 224.999 460.333C226.541 460.333 227.374 460.792 227.791 461.583C228.245 463.867 228.245 466.217 227.791 468.5C227.873 469.665 227.873 470.835 227.791 472C227.858 472.686 227.697 473.374 227.333 473.958C226.843 474.257 226.281 474.416 225.708 474.417C224.083 474.667 222.208 474.667 221.124 474.875L216.416 475.333H213.124C212.487 475.392 211.845 475.392 211.208 475.333C210.742 475.303 210.288 475.175 209.874 474.958C209.374 474.667 209.249 473.708 209.083 472.667C208.807 470.761 208.64 468.841 208.583 466.917C208.52 465.834 208.52 464.749 208.583 463.667C208.522 462.598 208.522 461.527 208.583 460.458C208.627 460.138 208.542 459.813 208.347 459.555C208.151 459.297 207.862 459.128 207.541 459.083C207.221 459.039 206.896 459.124 206.638 459.319C206.38 459.515 206.21 459.805 206.166 460.125C205.969 461.256 205.829 462.396 205.749 463.542C205.687 464.694 205.687 465.848 205.749 467C205.533 469.412 205.533 471.838 205.749 474.25C205.902 475.718 206.583 477.08 207.666 478.083C208.32 478.548 209.055 478.888 209.833 479.083C210.761 479.34 211.709 479.521 212.666 479.625L216.458 479.833L221.749 479.5C223.083 479.292 225.416 479.5 227.249 478.958C228.422 478.73 229.513 478.198 230.416 477.417C231.279 476.56 231.848 475.451 232.041 474.25C232.414 472.301 232.554 470.315 232.458 468.333Z" fill="#020202"/>
</g>
<defs>
<clipPath id="clip0_8147_275">
<rect width="100" height="100" fill="white" transform="translate(372.809 197) rotate(10.8411)"/>
</clipPath>
<clipPath id="clip1_8147_275">
<rect width="100" height="100" fill="white" transform="translate(0 294.764) rotate(-20.9555)"/>
</clipPath>
<clipPath id="clip2_8147_275">
<rect width="100" height="100" fill="white" transform="translate(215 111)"/>
</clipPath>
<clipPath id="clip3_8147_275">
<rect width="100" height="100" fill="white" transform="translate(36 131)"/>
</clipPath>
<clipPath id="clip4_8147_275">
<rect width="100" height="100" fill="white" transform="translate(188 249.132) rotate(-7.54589)"/>
</clipPath>
<clipPath id="clip5_8147_275">
<rect width="100" height="100" fill="white" transform="translate(297 388.196) rotate(-21.8364)"/>
</clipPath>
<clipPath id="clip6_8147_275">
<rect width="100" height="100" fill="white" transform="translate(112.388) rotate(14.1153)"/>
</clipPath>
<clipPath id="clip7_8147_275">
<rect width="100" height="100" fill="white" transform="translate(136 380)"/>
</clipPath>
</defs>
</svg>
