<svg width="248" height="60" viewBox="0 0 248 60" fill="none" xmlns="http://www.w3.org/2000/svg">
<path d="M0.000976562 10.0071C6.32333 10.0053 12.6475 10.0178 18.9698 10C18.9823 10.2852 18.9912 10.5704 19.0001 10.8556C18.9698 11.9268 18.9841 12.9981 18.9912 14.0693C19.1017 15.2582 18.8896 16.4543 19.0037 17.6485C19.1445 18.8321 18.8789 20.0174 19.0375 21.2009C18.886 23.7926 19.0625 26.3861 19.0268 28.9778C12.6849 28.9974 6.34293 28.9778 0.000976562 28.9885C0.00454146 22.6608 0.00632391 16.3331 0.000976562 10.0071Z" fill="#F25022"/>
<path d="M20.9248 10.0267C23.5557 9.97682 26.1884 10.0267 28.8193 10.0018C31.017 10.0107 33.2148 10.0089 35.4143 10.0018C36.9437 10.0142 38.4748 9.99821 40.0042 10.0107C39.9935 16.3366 39.997 22.6607 40.0024 28.9867C33.6444 28.9831 27.2846 29.0045 20.9266 28.976C20.9302 22.659 20.9355 16.3437 20.9248 10.0267Z" fill="#7FBA00"/>
<path d="M169.724 19.7963C170.581 17.7216 172.736 16.2314 174.993 16.2404C175.966 16.2297 176.964 16.178 177.904 16.4881C177.893 17.6431 177.896 18.7964 177.902 19.9514C177.403 19.8231 176.907 19.6769 176.415 19.5308C175.469 19.4933 174.392 19.766 173.868 20.6234C173.292 21.5414 173.439 22.659 173.417 23.6892C173.43 24.0564 173.369 24.4414 173.499 24.7943C174.109 24.7533 174.72 24.7052 175.333 24.7266C176.679 24.7195 178.025 24.7266 179.372 24.7213C179.356 23.4522 179.376 22.1813 179.358 20.9122C180.707 20.4309 182.103 20.0976 183.46 19.6324C183.472 21.3079 183.472 22.9852 183.458 24.6624C183.559 24.6927 183.764 24.7569 183.866 24.789C185.089 24.6553 186.322 24.7551 187.55 24.7177C187.591 25.8406 187.563 26.9654 187.573 28.0883C186.204 28.0812 184.837 28.0901 183.468 28.0812C183.461 30.5392 183.47 32.9972 183.465 35.4552C183.451 36.3286 183.451 37.2501 183.85 38.0522C184.21 38.6939 184.955 39.0094 185.672 38.9862C186.344 39.0379 186.958 38.7296 187.563 38.4818C187.572 39.6208 187.588 40.7615 187.552 41.9005C186.024 42.3943 184.374 42.5404 182.796 42.2303C181.47 41.954 180.292 40.9933 179.832 39.7117C179.492 38.8115 179.362 37.8401 179.363 36.8829C179.367 33.949 179.367 31.0169 179.363 28.083C177.385 28.0847 175.406 28.0937 173.428 28.0776C173.417 32.7084 173.419 37.3392 173.426 41.9683C172.023 42.0004 170.621 41.9897 169.22 41.9754C169.225 37.3446 169.223 32.7138 169.22 28.083C168.264 28.0865 167.307 28.0901 166.352 28.0794C166.36 26.9618 166.346 25.8424 166.364 24.7248C167.318 24.7213 168.273 24.7248 169.227 24.723C169.236 23.0743 169.068 21.356 169.724 19.7963Z" fill="#737373"/>
<path d="M82.1004 18.1564C83.0647 17.1369 84.8899 17.1636 85.8061 18.2367C86.2196 18.6413 86.3551 19.217 86.3889 19.7749C86.3818 20.5128 86.0913 21.2882 85.4317 21.6804C84.4033 22.4094 82.8205 22.3024 81.997 21.3132C81.1949 20.4594 81.2341 18.955 82.1004 18.1564Z" fill="#737373"/>
<path d="M198.244 18.8534C200.078 17.8945 202.171 17.5273 204.226 17.5327C206.183 17.5487 208.193 18.1494 209.627 19.529C212.14 21.8854 211.682 26.5768 208.758 28.4003C208.069 28.8815 207.272 29.1631 206.477 29.4127C208.06 29.6088 209.671 30.2041 210.737 31.4376C211.926 32.6817 212.272 34.5265 211.999 36.1842C211.794 38.3535 210.309 40.2607 208.404 41.2464C206.208 42.4406 203.611 42.5066 201.179 42.2731C199.871 42.0628 198.499 41.8293 197.369 41.0949C197.31 39.7955 197.361 38.4925 197.349 37.1913C199.194 38.4497 201.434 39.2322 203.686 39.0736C205.031 38.9417 206.486 38.4355 207.263 37.2555C207.865 36.4409 207.98 35.3625 207.798 34.3893C207.566 33.1202 206.473 32.1701 205.292 31.7798C203.534 31.1506 201.65 31.295 199.819 31.286C199.821 30.1631 199.811 29.0384 199.828 27.9154C201.228 27.9475 202.627 27.8923 204.026 27.8441C203.933 27.8281 203.75 27.7942 203.657 27.7764C205.051 27.5696 206.538 26.764 206.93 25.3166C207.09 24.306 207.138 23.1581 206.511 22.2847C205.866 21.3881 204.75 20.9532 203.678 20.873C201.725 20.6234 199.83 21.4416 198.244 22.511C198.235 21.2918 198.235 20.0726 198.244 18.8534Z" fill="#737373"/>
<path d="M216.738 21.7784C218.289 19.5378 220.783 17.9229 223.513 17.6199C225.431 17.4149 227.411 17.5557 229.253 18.1564C229.29 19.3988 229.271 20.6412 229.267 21.8835C227.59 21.085 225.674 20.5841 223.82 20.9584C222.588 21.1955 221.43 21.8425 220.615 22.8015C219.636 23.8264 219.145 25.19 218.793 26.5357C218.62 27.5072 218.497 28.4875 218.531 29.4768C219.594 27.5642 221.891 26.6873 223.995 26.7764C225.946 26.7122 227.878 27.5945 229.183 29.0312C230.126 30.0383 230.59 31.3965 230.804 32.7387C230.998 34.5675 230.88 36.489 230.051 38.1627C229.253 39.8524 227.718 41.1126 226.014 41.8238C224.585 42.4156 223.005 42.4316 221.487 42.3122C219.517 42.0859 217.661 40.9932 216.51 39.3801C215.184 37.6119 214.555 35.3945 214.409 33.2092C214.166 31.1666 214.355 29.0971 214.656 27.0705C215.011 25.2025 215.613 23.3362 216.738 21.7784ZM220.845 30.4357C219.515 31.081 218.653 32.5462 218.697 34.0185C218.629 35.104 218.877 36.2038 219.467 37.1235C220.155 38.3374 221.542 39.0949 222.929 39.0717C223.952 39.0289 224.968 38.5958 225.665 37.8383C226.941 36.3214 227.018 34.0916 226.387 32.2859C225.962 31.0899 224.847 30.3252 223.645 30.0525C222.7 29.9741 221.708 29.999 220.845 30.4357Z" fill="#737373"/>
<path d="M52.0427 17.9177C54.0052 17.9391 55.9694 17.9337 57.9319 17.923C59.7678 22.4415 61.4647 27.0153 63.2543 31.5534C63.7695 32.9687 64.388 34.3447 64.8532 35.7796C65.2774 35.047 65.5537 34.2431 65.862 33.4589C68.0206 28.2915 70.0758 23.0814 72.2557 17.923C74.1558 17.9373 76.0541 17.9266 77.9524 17.9301C77.9809 25.9476 77.9524 33.9651 77.9667 41.9843C76.5746 41.9879 75.1843 41.9843 73.794 41.9861C73.794 35.7083 73.8029 29.427 73.7904 23.1492C72.3466 26.6232 71.0062 30.1417 69.6052 33.6335C68.5036 36.4177 67.4074 39.2019 66.3023 41.9825C65.3683 41.9897 64.4361 41.9808 63.5039 41.9915C61.3328 36.6691 59.1814 31.3395 57.014 26.0153C56.6414 25.117 56.3295 24.1901 55.875 23.3274C55.809 24.0404 55.8465 24.7569 55.8429 25.4735C55.8447 30.9777 55.8411 36.4819 55.8447 41.9879C54.5471 41.9772 53.2476 42.0057 51.9482 41.9701C51.9625 34.867 51.95 27.7639 51.9554 20.6626C51.9661 19.7465 51.9001 18.8267 52.0427 17.9177Z" fill="#737373"/>
<path d="M234.441 17.9176C238.425 17.9123 242.409 17.9176 246.392 17.9141C246.392 19.0923 246.394 20.2722 246.391 21.4504C243.533 21.4522 240.678 21.4415 237.822 21.4558C237.803 22.0208 237.788 22.5859 237.698 23.1438C237.669 24.502 237.485 25.8495 237.443 27.206C239.218 27.1311 241.041 27.0491 242.754 27.6088C244.637 28.1346 246.253 29.5463 246.968 31.3734C247.478 32.5444 247.519 33.8403 247.474 35.0969C247.449 36.8954 246.704 38.6885 245.408 39.9434C243.979 41.4549 241.892 42.2107 239.845 42.3426C237.439 42.5761 234.944 42.1911 232.787 41.0681C232.796 39.7919 232.767 38.5139 232.807 37.2376C234.168 38.2928 235.846 38.9042 237.555 39.0789C239.12 39.1805 240.799 38.8347 242.004 37.7795C243.71 36.3054 243.822 33.2948 242.098 31.7922C240.949 30.8083 239.384 30.5035 237.908 30.5178C236.487 30.5089 235.067 30.5819 233.646 30.6212C233.794 26.3789 234.236 22.1545 234.441 17.9176Z" fill="#737373"/>
<path d="M119.041 25.8407C121.013 24.5217 123.488 24.1616 125.814 24.388C127.659 24.5965 129.531 25.2899 130.812 26.682C132.853 28.7193 133.393 31.8083 133.103 34.5782C132.923 36.4997 132.199 38.4159 130.855 39.8258C129.98 40.8044 128.807 41.4567 127.595 41.9255C126.091 42.3604 124.508 42.5012 122.952 42.3408C120.235 42.1822 117.596 40.5833 116.4 38.1057C115.521 36.4195 115.391 34.4731 115.498 32.6051C115.592 29.9831 116.829 27.329 119.041 25.8407ZM122.069 28.3308C120.941 28.9386 120.248 30.1096 119.945 31.3253C119.556 32.999 119.578 34.8117 120.218 36.4213C120.729 37.7047 121.922 38.6832 123.287 38.9114C124.583 39.0861 126.037 39.0433 127.108 38.1966C128.214 37.4034 128.62 36.0256 128.859 34.7529C128.968 33.0828 128.971 31.2985 128.123 29.7977C127.608 28.837 126.647 28.2131 125.622 27.9101C124.431 27.7853 123.151 27.7301 122.069 28.3308Z" fill="#737373"/>
<path d="M155.916 24.4164C158.106 24.1526 160.447 24.4343 162.352 25.616C164.216 26.7996 165.418 28.8494 165.79 31.0044C166.215 33.3964 166.015 35.9739 164.878 38.152C163.732 40.3159 161.536 41.8506 159.122 42.2285C157.08 42.5333 154.909 42.4923 152.987 41.6635C151.041 40.8257 149.474 39.1448 148.804 37.1307C148.23 35.6316 148.265 34.0043 148.319 32.4268C148.458 30.1666 149.41 27.9047 151.137 26.4057C152.454 25.2382 154.181 24.609 155.916 24.4164ZM154.237 28.7817C152.966 29.8476 152.622 31.573 152.477 33.1415C152.54 34.5265 152.638 36.0006 153.445 37.1859C154.233 38.4158 155.73 39.0557 157.167 38.9862C158.472 39.0646 159.844 38.562 160.641 37.4925C161.516 36.3072 161.741 34.7671 161.712 33.3269C161.739 32.1915 161.559 31.0311 161.045 30.008C160.472 28.787 159.206 27.9368 157.86 27.8566C156.598 27.7336 155.217 27.9065 154.237 28.7817Z" fill="#737373"/>
<path d="M96.0305 24.4575C98.107 24.1046 100.289 24.3452 102.2 25.2507C102.205 26.5751 102.226 27.8976 102.187 29.2202C101.073 28.4021 99.7522 27.7461 98.3352 27.8121C97.0126 27.755 95.6187 28.1347 94.6794 29.1079C93.4156 30.181 92.9825 31.8992 92.9272 33.4928C92.9593 34.8795 93.298 36.3393 94.2373 37.4052C95.2016 38.5121 96.7078 39.038 98.1552 38.9863C99.6364 39.0201 100.973 38.2697 102.203 37.5264C102.201 38.7991 102.232 40.0736 102.183 41.3462C100.98 41.922 99.6756 42.3195 98.3352 42.3515C97.0251 42.3729 95.6829 42.4389 94.4227 42.0182C91.0735 41.0486 88.6565 37.6815 88.7527 34.2057C88.6208 31.8315 89.2358 29.3699 90.7366 27.4948C91.9807 25.7979 93.9789 24.7783 96.0305 24.4575Z" fill="#737373"/>
<path d="M111.67 24.8853C112.795 24.347 114.128 24.3506 115.31 24.6928C115.305 26.0688 115.308 27.4449 115.308 28.821C113.968 28.083 112.094 27.8299 110.868 28.9136C109.722 29.8387 109.357 31.3806 109.312 32.7869C109.312 35.8527 109.31 38.9185 109.314 41.9844C107.943 41.9861 106.571 41.9897 105.2 41.9826C105.205 36.2573 105.212 30.5321 105.196 24.8069C105.697 24.7338 106.205 24.7124 106.713 24.7231C107.574 24.7267 108.437 24.7213 109.299 24.7213C109.324 25.6054 109.292 26.4913 109.326 27.3772C109.857 26.3505 110.576 25.3541 111.67 24.8853Z" fill="#737373"/>
<path d="M139.665 24.5127C141.649 24.0992 143.756 24.3238 145.645 25.0439C145.631 26.3237 145.649 27.6035 145.635 28.8833C144.398 28.2416 143.084 27.5892 141.651 27.6552C140.795 27.616 139.726 27.8013 139.314 28.6551C139.052 29.3895 139.216 30.3413 139.926 30.7691C141.54 31.8386 143.567 32.163 145.03 33.4891C147.228 35.3304 147.038 39.1876 144.756 40.8863C142.904 42.4246 140.352 42.5083 138.068 42.2944C137.177 42.1447 136.279 41.9807 135.434 41.6528C135.238 41.5725 134.961 41.4335 135.017 41.1751C135.002 39.9594 135.01 38.7438 135.022 37.53C135.567 37.7831 136.095 38.0736 136.624 38.357C138.072 39.0076 139.722 39.3997 141.287 38.963C142.018 38.7884 142.546 38.0219 142.423 37.2786C142.303 36.751 142.011 36.2466 141.556 35.9436C140.223 35.0363 138.605 34.6852 137.271 33.7832C136.578 33.3073 135.915 32.7316 135.539 31.9634C134.785 30.3894 134.867 28.4305 135.831 26.9618C136.699 25.657 138.163 24.8532 139.665 24.5127Z" fill="#737373"/>
<path d="M81.8447 24.8086C82.1121 24.7783 82.3812 24.7463 82.654 24.7195C83.7484 24.7534 84.8517 24.65 85.9426 24.8051C85.9319 30.5303 85.9354 36.2573 85.939 41.9826C84.5754 41.9879 83.2119 41.9897 81.8465 41.9826C81.8519 36.2573 81.8572 30.5339 81.8447 24.8086Z" fill="#737373"/>
<path d="M0.00623855 30.9153C6.32681 30.9153 12.6492 30.9295 18.9697 30.9081C19.0874 31.5908 18.9394 32.2806 19.0482 32.9633C19.0357 33.4499 18.9858 33.9347 18.9662 34.4214L19.0695 34.5336C19.0268 35.1985 18.9448 35.8651 19.0089 36.5318C19.1373 37.7759 18.9269 39.0201 18.9858 40.2678C19.1159 41.1073 18.9858 41.9504 18.9679 42.7935L19.0535 42.9076C19.0731 44.3425 18.9109 45.7756 19.0054 47.2104C19.0767 47.87 18.9751 48.5295 18.984 49.189C18.9822 49.4599 18.9786 49.729 18.9769 50C12.6527 49.9804 6.32859 49.9929 0.00445615 49.9946C-0.000891203 43.6348 -0.0026737 37.2751 0.00623855 30.9153Z" fill="#00A4EF"/>
<path d="M20.9978 30.9171C27.3291 30.9224 33.6621 30.9188 39.9951 30.9188C40.0005 37.2751 40.0005 43.6331 39.9951 49.9911C33.6639 49.9893 27.3344 49.9893 21.0049 49.9911C20.955 49.6649 20.9247 49.3369 20.9283 49.0072C20.9354 43.658 20.9283 38.3071 20.9301 32.9562C20.939 32.2753 20.8908 31.5908 20.9978 30.9171Z" fill="#FFB900"/>
</svg>
