<svg width="186" height="60" viewBox="0 0 186 60" fill="none" xmlns="http://www.w3.org/2000/svg">
<path d="M55.0372 0.276116C56.0193 0.173559 57.0068 0.106502 57.9863 0C58.5557 0.0749458 59.1118 0.259023 59.693 0.231411C60.3175 0.218263 60.9526 0.236671 61.5443 0.462823C62.1504 0.698179 62.8105 0.76918 63.3995 1.05056C62.9144 0.971665 62.4213 0.867793 61.9295 0.93222C61.284 1.09526 60.758 1.52653 60.1847 1.8434C57.2895 3.51851 54.3508 5.11472 51.4647 6.80429C50.3721 7.39728 49.3281 8.07968 48.2052 8.6135C48.1579 7.84301 48.292 7.08303 48.3486 6.31911C48.6562 4.50858 49.8869 3.00703 51.2991 1.90389C52.3733 1.04004 53.6921 0.52988 55.0372 0.276116Z" fill="black"/>
<path d="M39.7597 0.495703C39.8768 0.356331 40.07 0.391831 40.2305 0.379998C42.2382 0.381312 44.2473 0.40498 46.255 0.368164C46.3471 0.666632 46.4378 1.02032 46.2051 1.28198C44.8876 3.08856 43.7016 4.98719 42.3776 6.7872C41.3836 8.32819 40.3015 9.8087 39.3088 11.3497C38.867 12.0439 38.2411 12.629 37.9479 13.4114C37.8282 13.7585 38.0504 14.0793 38.2201 14.3633C37.8388 14.5329 37.4627 14.713 37.109 14.9339C35.9415 15.6755 34.7002 16.2895 33.5051 16.9838C31.5196 18.1658 29.4882 19.2663 27.4976 20.4379C26.6561 20.9191 25.762 21.3096 24.956 21.8513C25.1506 21.2662 25.5989 20.8284 25.9447 20.334C27.2477 18.438 28.5336 16.5302 29.8564 14.6473C30.0575 14.3423 30.3823 14.0885 30.4573 13.719C30.3415 13.2247 29.98 12.8315 29.6999 12.42C29.1411 11.731 28.7519 10.9263 28.2102 10.2255C27.8276 9.72061 27.5396 9.15128 27.1688 8.63587C25.9921 7.15536 25.0953 5.47631 23.9304 3.9866C23.3926 3.28448 23.0179 2.47059 22.4407 1.79608C22.1527 1.42529 21.7727 0.983508 21.9476 0.479925C23.7042 0.504907 25.4609 0.489129 27.2175 0.491759C27.7119 0.502278 28.2141 0.441795 28.7033 0.540408C29.2634 1.01243 29.5237 1.73034 29.9261 2.32596C31.3211 4.456 32.6609 6.62285 34.0652 8.74631C34.6976 8.39657 34.9672 7.68392 35.3498 7.11065C35.8376 6.21525 36.5344 5.45527 37.0091 4.55198C37.4009 3.8275 37.9387 3.1977 38.3594 2.49031C38.7999 1.80923 39.1852 1.07686 39.7597 0.495703Z" fill="black"/>
<path d="M78.7657 6.40851C79.3521 6.39536 79.903 6.10873 80.4947 6.16C81.1732 6.21128 81.8358 6.39931 82.5182 6.42823C83.3703 6.48346 84.1578 6.83715 84.9389 7.14876C85.7396 7.46958 86.3996 8.03759 87.082 8.54907C87.6369 8.96193 88.009 9.55623 88.4192 10.1019C89.0148 10.8803 89.3962 11.7928 89.7512 12.6987C89.9865 13.7322 90.4546 14.7354 90.4046 15.8162C90.402 16.8496 90.4007 17.8818 90.402 18.9152C90.2127 19.0125 90.0325 19.1664 89.8103 19.1611C85.9066 19.1598 82.0041 19.1598 78.1004 19.1611C77.702 19.1664 77.3141 19.0494 76.917 19.0586C76.6015 19.073 76.4503 19.3899 76.3109 19.6253C76.6501 20.2288 76.9459 20.8638 77.3838 21.4042C77.961 22.0248 78.7144 22.485 79.5441 22.6744C80.1489 22.8111 80.759 23.0609 81.3901 22.9492C82.1106 22.8335 82.8259 22.6731 83.5136 22.4298C84.2722 22.155 84.9218 21.6619 85.5529 21.1702C85.854 20.9125 86.3799 20.9085 86.6573 21.207C87.2714 21.7763 87.8867 22.3457 88.5415 22.8703C88.8584 23.1425 89.2016 23.433 89.3357 23.8446C89.3909 24.0812 89.17 24.239 89.0359 24.3955C88.3785 25.0082 87.7618 25.6853 86.9637 26.1219C85.8474 26.7569 84.6706 27.3907 83.3742 27.5301C83.0126 27.58 82.6589 27.6786 82.296 27.7102C80.9417 27.7339 79.5769 27.7602 78.245 27.488C76.6449 27.0239 75.0644 26.3664 73.8008 25.2528C71.9351 23.7315 70.7754 21.4581 70.4178 19.0967C70.3823 18.2631 70.0325 17.4637 70.1469 16.6209C70.2074 16.091 70.3875 15.5795 70.4086 15.0444C70.6334 13.3364 71.3316 11.7034 72.3164 10.2978C73.4735 9.04213 74.6489 7.68259 76.2898 7.05804C77.0998 6.79244 77.8953 6.40719 78.7657 6.40851ZM77.844 12.0123C77.2654 12.4318 76.9828 13.1076 76.6409 13.7111C76.4095 14.1266 76.2451 14.6052 76.3319 15.0851C76.5212 15.2613 76.7882 15.3323 77.0419 15.3455C79.4757 15.3626 81.9121 15.3152 84.3459 15.3691C84.4274 15.1798 84.6404 15.0036 84.5812 14.7814C84.309 13.7019 83.7371 12.6829 82.9061 11.9348C82.1948 11.4443 81.3585 11.0328 80.4684 11.1327C79.5112 11.0394 78.5987 11.4588 77.844 12.0123Z" fill="black"/>
<path d="M138.141 6.21787C138.921 6.06666 139.724 6.15607 140.476 6.39669C141.924 6.55184 143.37 7.00151 144.555 7.86536C146.673 9.21044 147.917 11.5758 148.497 13.957C148.831 14.9089 148.846 15.9266 148.95 16.9207C149.082 17.5268 148.857 18.125 148.749 18.7167C148.687 19.1651 148.131 19.1085 147.796 19.1611C144.067 19.1598 140.339 19.1598 136.612 19.1611C136.024 19.1624 135.336 18.8706 134.843 19.3281C134.787 19.5871 134.818 19.8659 134.968 20.0907C135.35 20.7363 135.73 21.4305 136.386 21.8421C137.226 22.535 138.317 22.8059 139.369 22.9768C140.969 22.9005 142.582 22.3654 143.801 21.3017C143.975 21.1702 144.134 20.9651 144.379 20.9914C144.902 20.9178 145.25 21.3806 145.591 21.7001C146.168 22.3615 147.017 22.7165 147.542 23.4304C147.738 23.6237 147.843 23.9866 147.622 24.2009C146.605 25.2686 145.488 26.3165 144.076 26.8319C143.454 27.0357 142.86 27.3276 142.217 27.4564C140.362 27.7865 138.434 27.8443 136.592 27.4052C135.046 26.9831 133.498 26.3586 132.31 25.2541C131.447 24.619 130.809 23.742 130.227 22.8571C129.822 22.134 129.372 21.4108 129.197 20.589C129.044 19.9237 128.753 19.2768 128.782 18.5813C128.804 17.8673 128.539 17.1613 128.695 16.4473C128.837 15.7886 128.707 15.097 128.934 14.4514C129.159 13.7532 129.236 13.0011 129.588 12.3476C130.067 11.3812 130.574 10.4043 131.335 9.62593C132.149 8.76471 133.038 7.94688 134.09 7.38413C134.592 7.12774 135.127 6.9384 135.647 6.71488C136.44 6.37697 137.324 6.46769 138.141 6.21787ZM138.025 11.1735C137.134 11.4444 136.203 11.8335 135.673 12.6474C135.168 13.4087 134.609 14.2555 134.691 15.2127C135.067 15.2574 135.439 15.3481 135.822 15.3481C137.928 15.3442 140.033 15.3428 142.138 15.3494C142.418 15.3507 142.713 15.3284 142.959 15.1759C143.115 14.7485 142.852 14.3265 142.732 13.9255C142.318 12.5067 141.049 11.3799 139.589 11.1498C139.068 11.1327 138.542 11.1091 138.025 11.1735Z" fill="black"/>
<path d="M162.329 6.30334C162.826 6.1666 163.393 6.05352 163.878 6.29808C164.146 6.54001 164.155 6.93709 164.157 7.27237C164.145 8.72264 164.149 10.1729 164.155 11.6219C164.18 11.9414 164.015 12.32 163.674 12.3858C162.61 12.6606 161.42 12.604 160.483 13.2601C159.3 13.8992 158.436 15.0365 158.001 16.2935C157.847 17.0074 157.668 17.7214 157.586 18.4459C157.588 21.1216 157.582 23.7986 157.592 26.4743C157.588 26.707 157.592 26.966 157.41 27.1409C157.199 27.2342 156.957 27.1922 156.736 27.2079C155.12 27.1895 153.503 27.2132 151.887 27.2014C151.564 27.2145 151.513 26.8516 151.53 26.6084C151.539 20.1236 151.526 13.6388 151.537 7.15404C151.509 6.8845 151.762 6.72277 151.908 6.53081C153.656 6.83322 155.443 6.58077 157.206 6.69253C157.329 6.71488 157.442 6.76748 157.546 6.84768C157.722 7.44462 157.369 8.17435 157.77 8.68451C158.21 8.66742 158.452 8.24141 158.725 7.95477C159.154 7.39071 159.803 7.07515 160.411 6.74381C160.996 6.40853 161.695 6.48216 162.329 6.30334Z" fill="black"/>
<path d="M102.687 6.55581C103.528 6.55581 104.335 6.08772 105.182 6.31914C105.403 6.52951 105.536 6.82929 105.523 7.13696C105.519 8.67664 105.523 10.215 105.521 11.7547C105.516 12.1504 105.091 12.345 104.759 12.42C104.008 12.5554 103.241 12.6119 102.504 12.8065C100.851 13.6139 99.7676 15.2863 99.3324 17.0364C99.172 17.6557 99.2364 18.3026 99.1089 18.9284C98.9998 19.5517 98.8906 20.1867 99.0037 20.8192C99.1562 21.8684 98.9314 22.9242 99.0537 23.9735C99.08 24.5441 98.8775 25.1108 99.0077 25.6814C99.1155 26.1443 99.0142 26.6097 98.9248 27.066C98.6579 27.1672 98.3778 27.2224 98.0938 27.2093C96.6436 27.1935 95.1933 27.204 93.7443 27.204C93.555 27.1764 93.2776 27.2658 93.2053 27.0265C93.0002 26.5164 93.0067 25.9549 93.079 25.4185C93.1869 24.8939 92.9752 24.3679 93.0751 23.842C93.1869 23.2727 92.9673 22.7033 93.062 22.1327C93.2158 21.1282 93.0869 20.1131 93.0593 19.1086C93.3328 17.6215 92.8674 16.1265 93.0948 14.6381C93.1658 14.245 93.133 13.8453 93.0685 13.4548C92.9712 12.9275 93.1934 12.4029 93.0896 11.8783C92.9673 11.1775 93.0764 10.4727 93.1369 9.77321C93.0685 8.83311 92.9147 7.86407 93.1658 6.93711C93.1921 6.76881 93.3394 6.6531 93.5116 6.68203C94.6411 6.65705 95.7718 6.6794 96.9026 6.67809C97.5916 6.71359 98.3121 6.38356 98.9459 6.79774C99.0813 7.29475 99.0826 7.81148 99.0129 8.32032C98.9459 8.60827 99.2299 8.92252 99.5257 8.7792C99.7887 8.53332 99.9925 8.22959 100.265 7.99161C100.76 7.54719 101.363 7.25136 101.913 6.8832C102.153 6.73988 102.388 6.53871 102.687 6.55581Z" fill="black"/>
<path d="M127.413 6.64913C127.852 6.55578 128.504 6.42298 128.654 7.01334C128.614 7.61685 128.209 8.11123 128.019 8.67267C127.105 11.1893 126.064 13.6572 125.115 16.1594C123.926 19.2584 122.684 22.3351 121.499 25.4355C121.285 25.9575 121.09 26.49 120.84 26.9976C120.753 27.2053 120.543 27.3447 120.316 27.3276C118.743 27.3815 117.159 27.2526 115.594 27.4091C114.871 26.9213 114.8 25.9444 114.462 25.2041C114.07 24.4257 113.828 23.5869 113.477 22.7901C113.037 21.395 112.35 20.092 111.905 18.6983C110.679 15.6216 109.502 12.5291 108.27 9.45631C107.975 8.55039 107.528 7.69837 107.307 6.76747C107.772 6.63598 108.259 6.67017 108.737 6.67148C110.176 6.68463 111.614 6.65833 113.051 6.67806C113.694 6.68595 113.861 7.41437 114.02 7.9048C114.855 10.1479 115.647 12.4055 116.504 14.6381C116.943 15.8569 117.36 17.0863 117.85 18.2868C118.027 18.2776 118.203 18.2684 118.382 18.2578C118.491 17.6333 118.717 17.0416 118.955 16.4578C119.28 15.4112 119.694 14.3962 120.087 13.3732C120.835 11.2826 121.637 9.21175 122.397 7.1251C122.461 6.86739 122.682 6.6557 122.962 6.682C124.444 6.6373 125.931 6.72013 127.413 6.64913Z" fill="black"/>
<path d="M56.6086 10.4529C56.9504 10.2057 57.3962 10.4174 57.7538 10.5318C58.7439 10.9368 59.822 11.0367 60.8292 11.3917C62.3939 11.8059 63.8928 12.4475 65.297 13.2483C66.2332 13.8676 67.1523 14.6236 67.5993 15.6847C68.3317 16.9509 68.5079 18.4616 68.4263 19.9014C68.3277 20.4562 68.1568 20.9966 68.1108 21.5607C67.9977 22.6244 67.4008 23.5382 66.8235 24.406C66.1951 25.3698 65.1616 25.9509 64.1755 26.4887C62.4228 27.4814 60.3585 27.7076 58.3783 27.7089C57.4461 27.7825 56.5389 27.5432 55.6172 27.4709C54.8966 27.4472 54.2392 27.1132 53.541 26.9726C52.689 26.8056 51.912 26.4085 51.106 26.1061C50.158 25.6551 49.2928 25.0503 48.4224 24.4678C47.9359 24.143 47.4481 23.7998 47.0957 23.3239C48.0174 22.1524 48.9667 21.0032 49.9384 19.8724C50.1685 19.5976 50.4117 19.311 50.7523 19.1729C50.9732 19.2663 51.1743 19.4017 51.365 19.5503C53.4556 21.2964 56.1457 22.4521 58.903 22.3272C59.638 22.3759 60.3506 22.1432 61.0238 21.8723C61.6207 21.6435 62.0559 21.1189 62.3373 20.5614C62.4425 20.1301 62.4228 19.6673 62.3531 19.2308C62.1112 18.6799 61.7062 18.1763 61.1553 17.9133C60.1941 17.3795 59.116 17.1349 58.0851 16.7786C57.049 16.5919 56.0682 16.2053 55.0413 15.9884C53.5029 15.4611 51.9409 14.9142 50.6274 13.9254C51.8278 13.3364 52.931 12.5724 54.1117 11.9453C54.9545 11.4693 55.8262 11.0315 56.6086 10.4529Z" fill="black"/>
<path d="M40.3785 19.7673C40.7664 19.5687 41.0727 19.2545 41.3593 18.9337C42.4546 20.3103 43.3224 21.8473 44.3585 23.266C44.9489 24.1233 45.4998 25.0082 46.123 25.8418C46.4294 26.2757 46.7541 26.7293 46.8685 27.2553C46.6936 27.4801 46.4044 27.442 46.1546 27.4485C44.4413 27.4367 42.7294 27.4433 41.0175 27.4472C40.5323 27.4407 39.9735 27.321 39.6869 26.8897C39.0794 26.1114 38.6823 25.1975 38.0907 24.4073C37.6121 23.5553 36.9546 22.8203 36.4971 21.9578C37.7935 21.2333 39.065 20.4602 40.3785 19.7673Z" fill="black"/>
<path d="M79.4065 38.0173C79.655 37.7806 80.0192 37.8503 80.3309 37.8358C81.5813 37.8555 82.8317 37.824 84.0821 37.8516C84.0637 41.7277 84.0755 45.6052 84.0729 49.4813C84.0374 50.4977 84.1518 51.5233 83.9979 52.5318C83.9467 52.2649 83.9243 51.994 83.9217 51.7245C83.9532 47.204 83.9033 42.681 83.9532 38.1619C83.66 37.8687 83.2051 37.9975 82.8343 37.9647C81.697 38.0212 80.5504 37.8713 79.4223 38.0633C79.4578 38.4012 79.4999 38.7404 79.5643 39.0744C79.2882 38.8022 79.3145 38.3604 79.4065 38.0173Z" fill="black"/>
<path d="M119.354 45.5946C119.794 45.3304 120.346 45.5249 120.834 45.4671C121.587 45.4027 122.318 45.6393 123.069 45.617C126.707 45.6052 130.346 45.6157 133.982 45.6117C134.911 45.5973 135.847 45.6827 136.763 45.4881C137.326 45.4816 137.928 45.3632 138.469 45.5683C137.099 45.5249 135.748 45.8274 134.377 45.7274C130.431 45.7248 126.485 45.734 122.539 45.7248C121.48 45.617 120.419 45.5697 119.354 45.5946Z" fill="black"/>
<path d="M60.1856 1.84337C60.7589 1.5265 61.2848 1.09523 61.9304 0.932192C62.4222 0.867765 62.9152 0.971637 63.4004 1.05053C64.777 1.67508 66.2496 2.22073 67.3541 3.29101C67.5921 3.47114 67.6013 3.86034 67.3949 4.06414C67.0898 4.42046 66.7822 4.77546 66.5376 5.1778C66.1221 5.84969 65.608 6.45451 65.2017 7.13297C64.9953 7.46036 64.781 7.81011 64.4286 7.9955C64.0973 7.90478 63.8119 7.70887 63.5463 7.49849C62.9941 7.03961 62.2959 6.82661 61.678 6.47949C61.1047 6.22179 60.5774 5.82865 59.9424 5.74055C59.4335 5.64983 58.9286 5.54201 58.429 5.41316C57.0905 5.23434 55.5179 5.41973 54.5831 6.50053C54.0913 7.00148 54.2123 7.747 54.2609 8.38206C54.4832 9.07893 55.0998 9.60355 55.7664 9.86652C56.0938 9.98748 56.3673 10.2057 56.6092 10.4529C55.8269 11.0315 54.9552 11.4693 54.1124 11.9453C52.9316 12.5725 51.8285 13.3364 50.628 13.9254C49.805 13.1221 48.9345 12.2674 48.6124 11.1261C48.3954 10.307 48.1285 9.47206 48.2061 8.61348C49.329 8.07965 50.373 7.39725 51.4656 6.80426C54.3517 5.11469 57.2903 3.51848 60.1856 1.84337Z" fill="#1B5FA6"/>
<path d="M37.1087 14.9339C37.4624 14.713 37.8385 14.5329 38.2198 14.3633C38.8206 14.9497 39.1336 15.7478 39.6661 16.3881C40.3169 17.177 40.7811 18.0948 41.3596 18.9337C41.073 19.2545 40.7666 19.5687 40.3787 19.7673C39.0652 20.4602 37.7938 21.2333 36.4973 21.9578C36.2278 21.6804 36.0056 21.3608 35.8504 21.0058C35.5704 20.3931 35.0576 19.9303 34.7565 19.3307C34.5921 19.0441 34.4751 18.7022 34.1845 18.5142C33.8256 18.4235 33.6599 18.8153 33.4995 19.0586C33.1195 19.8001 32.5528 20.4221 32.1439 21.1465C31.8901 21.5804 31.5825 21.9801 31.2945 22.3917C30.6686 23.3831 30.1098 24.4205 29.3801 25.3422C28.9212 25.9457 28.6819 26.7149 28.0902 27.2145C27.9246 27.3657 27.6866 27.3236 27.4828 27.3394C25.4579 27.3289 23.4344 27.3342 21.4109 27.3368C21.2952 26.8398 21.7277 26.4743 21.9933 26.1127C22.5272 25.5236 22.7993 24.7558 23.3147 24.1523C23.9051 23.4146 24.4047 22.6139 24.9557 21.8513C25.7617 21.3096 26.6558 20.9191 27.4972 20.4378C29.4879 19.2663 31.5193 18.1658 33.5047 16.9838C34.6999 16.2895 35.9411 15.6755 37.1087 14.9339Z" fill="#1B5FA6"/>
<path d="M161.562 36.5709C162.333 36.3631 163.042 35.7715 163.87 35.8924C164.647 36.6997 165.097 37.749 165.644 38.7141C165.78 38.9297 165.742 39.1953 165.767 39.4385C165.208 39.7173 164.65 39.9921 164.087 40.2577C163.833 40.3865 163.541 40.3326 163.27 40.3405C163.003 39.6673 162.53 39.1059 162.251 38.438C161.915 37.9475 161.625 37.4268 161.445 36.8575C161.474 36.7865 161.533 36.6419 161.562 36.5709Z" fill="#1B5FA6"/>
<path d="M54.777 35.9805C55.4844 35.9555 56.1155 36.304 56.7808 36.4815C57.671 36.73 58.5585 36.9956 59.4026 37.3743C59.1134 38.154 58.4757 38.7377 58.2074 39.5253C58.5072 39.6673 58.8162 39.8343 59.1607 39.8172C60.2599 39.8146 61.3591 39.8133 62.4596 39.8146C63.1696 39.8172 63.8402 39.528 64.5463 39.4925C65.2878 39.6502 65.8677 40.1867 66.5225 40.5404C66.9866 40.8231 67.573 41.0466 67.7873 41.5936C67.5651 42.2799 67.1694 42.8966 66.934 43.5803C66.3384 44.9398 65.7743 46.3165 65.0788 47.6287C64.5581 48.7029 64.0177 49.7745 63.3169 50.7448C62.9593 51.2326 62.6963 51.7836 62.3308 52.2648C61.5511 53.2299 60.54 53.9662 59.6958 54.8708C59.3513 55.2363 58.9621 55.5558 58.5651 55.8648C57.6749 56.5538 56.8163 57.298 55.8144 57.8266C54.8677 58.3315 53.9802 58.9665 52.956 59.311C52.5839 59.4083 52.3577 59.7291 52.1171 60H50.9469C50.4302 59.2821 49.8201 58.6312 49.1245 58.0843C48.7353 57.7516 48.2725 57.4939 47.9622 57.0784C47.8347 56.8365 48.0437 56.5459 48.287 56.492C49.3454 56.137 50.421 55.8083 51.4005 55.2613C52.2841 54.8629 53.0809 54.3094 53.9145 53.8216C54.752 53.2772 55.5041 52.6119 56.2312 51.9295C56.4363 51.7691 56.4824 51.5114 56.5218 51.2708C55.2122 50.5082 54.0341 49.547 52.7443 48.7555C52.7114 48.0323 53.382 47.626 53.8224 47.1606C54.3273 46.703 54.7336 46.135 55.2977 45.7458C55.6593 45.6446 55.9827 45.8878 56.2851 46.0509C57.1753 46.6005 58.1259 47.0672 58.928 47.7496C59.183 48.0139 59.7287 48.1336 59.9154 47.7352C60.6004 46.6715 61.1066 45.5065 61.7088 44.3942C61.8706 44.1233 61.8719 43.8012 61.8942 43.4961C61.5616 43.4159 61.2224 43.3528 60.8805 43.366C59.3408 43.3844 57.8025 43.3647 56.2628 43.3739C55.6395 43.3265 55.2609 43.884 54.898 44.2956C53.7948 45.5959 52.597 46.8108 51.369 47.9942C50.4998 48.7384 49.6544 49.5286 48.6564 50.1032C47.6019 49.4339 46.6947 48.5701 45.6783 47.8496C45.4561 47.7168 45.3181 47.4656 45.4627 47.2224C45.9715 46.6531 46.7092 46.3704 47.293 45.8918C48.3488 45.1186 49.1876 44.1075 50.1409 43.2213C51.1914 42.1892 52.0869 41.0098 52.8731 39.7673C53.6883 38.6036 54.28 37.3059 54.777 35.9805Z" fill="#1B5FA6"/>
<path d="M97.612 37.1863C99.0649 37.2152 100.516 37.185 101.969 37.206C101.986 37.6754 101.934 38.1422 101.855 38.605C101.792 39.382 101.846 40.1631 101.823 40.9414C101.834 41.3241 101.747 41.825 102.178 42.0183C103.09 42.0972 104.009 42.0196 104.924 42.0446C105.654 42.0104 106.439 42.1919 107.108 41.8132C107.059 40.384 107.197 38.9455 107.004 37.5242C106.978 37.1823 107.39 37.0167 107.68 37.0771C108.841 37.2665 110.019 37.1232 111.188 37.185C111.598 37.181 111.452 37.6898 111.422 37.9436C111.211 38.6273 111.494 39.3216 111.399 40.0145C111.335 40.5207 111.244 41.0493 111.414 41.5476C111.463 41.8224 111.694 42.0801 111.994 42.0485C113.19 42.0459 114.416 42.1432 115.569 41.7461C115.851 42.1682 115.786 42.6875 115.788 43.1688C115.773 44.1681 115.807 45.1686 115.762 46.1679C114.758 45.8642 113.707 46.0483 112.681 45.9483C112.299 45.9194 111.82 45.7459 111.534 46.0982C111.194 46.3822 111.348 46.8648 111.314 47.2487C111.37 49.4695 111.109 51.7455 110.156 53.7756C109.077 56.3132 106.896 58.296 104.361 59.3281C104.046 59.4596 103.859 59.7607 103.633 60H103.194C102.974 59.7042 102.749 59.4097 102.47 59.1664C101.764 58.5563 101.153 57.8463 100.413 57.2757C100.154 57.1034 100.101 56.7958 100.067 56.5118C101.722 56.0424 103.237 55.1851 104.603 54.1543C105.534 53.2628 106.298 52.1491 106.596 50.8816C107.088 49.3551 107.187 47.7365 107.081 46.1456C106.846 45.9654 106.544 45.8603 106.248 45.8931C105.021 46.0338 103.775 46.0312 102.549 45.8865C102.21 45.8208 101.813 46.0917 101.833 46.4559C101.819 48.1638 101.833 49.8731 101.842 51.5811C101.893 51.8585 101.637 52.0742 101.372 52.0426C100.125 52.0558 98.8756 52.0387 97.6278 52.0479C97.5897 49.9967 97.6528 47.9456 97.6015 45.8944C96.664 45.8734 95.7278 45.8787 94.7917 45.8773C94.3065 45.8721 93.8529 46.0746 93.3756 46.118C93.1442 46.0036 92.8313 45.8524 92.8812 45.5447C92.8628 44.3416 92.8865 43.1385 92.8786 41.9355C93.5978 41.5857 94.3223 42.0643 95.0573 42.0472C95.7318 42.0341 96.4103 42.0867 97.0834 42.0262C97.5134 41.9394 97.6212 41.4516 97.6186 41.0769C97.6081 40.1525 97.6791 39.2216 97.5239 38.3065C97.4621 37.9305 97.5055 37.5492 97.612 37.1863Z" fill="#1B5FA6"/>
<path d="M158.272 37.8818C159.089 37.5018 159.949 37.0771 160.88 37.1757C161.024 37.678 161.376 38.0685 161.615 38.5234C161.931 39.2413 162.575 39.8882 162.455 40.735C162.194 40.9822 161.843 41.0952 161.514 41.2202C161.034 41.3937 160.567 41.612 160.062 41.7001C159.529 40.8796 159.218 39.9369 158.679 39.1177C158.456 38.7456 158.074 38.3499 158.272 37.8818Z" fill="#1B5FA6"/>
<path d="M72.2943 37.8686C73.809 37.8345 75.325 37.8555 76.841 37.8594C76.8857 38.4051 76.8305 38.9468 76.7305 39.4833C76.7082 41.065 76.7279 42.6481 76.7253 44.2298C76.7358 44.6256 76.5885 45.003 76.5859 45.3987C76.5662 45.972 76.5991 46.5466 76.5859 47.1212C76.5951 47.5301 76.3335 47.8864 76.3321 48.294C76.3479 49.3038 76.2191 50.311 76.0363 51.3023C75.6405 52.6001 75.3684 53.9517 74.6912 55.1456C74.2823 55.8228 73.9181 56.5341 73.404 57.1415C72.8294 57.8331 72.2969 58.5787 71.5935 59.1467C71.2779 59.4188 70.8243 59.2427 70.5337 59.0191C69.9578 58.5721 69.2912 58.2644 68.7113 57.8213C68.2853 57.4808 67.6884 57.2901 67.4951 56.73C68.3327 55.9082 69.2596 55.1548 69.8947 54.1542C71.0215 52.6211 71.7657 50.8251 72.0997 48.9554C72.1128 48.0784 72.3285 47.2198 72.2548 46.3388C72.502 44.7702 72.3482 43.1753 72.3903 41.5923C72.3508 40.6088 72.4981 39.6069 72.2614 38.6391C72.2259 38.4117 72.2443 38.1816 72.2575 37.9528C73.7275 38.0146 75.2014 37.9844 76.6727 37.9725C75.2172 37.8529 73.7459 38.0461 72.2943 37.8686Z" fill="#1B5FA6"/>
<path d="M0 37.9909C1.53442 37.9949 3.07015 37.9817 4.60457 37.9896C4.83466 37.9673 4.94511 38.2408 4.92933 38.434C4.9977 39.0547 4.80837 39.6595 4.79259 40.2761C4.79259 44.4849 4.80048 48.695 4.78864 52.9038C4.77944 53.1694 4.8465 53.4285 4.93196 53.6796C5.20413 53.6454 5.48682 53.648 5.75111 53.5626C7.2303 53.0025 8.65559 52.303 10.0164 51.4956C10.8987 51.0433 11.6718 50.4149 12.5186 49.9047C13.3233 49.4221 13.9623 48.7266 14.667 48.1178C15.2074 47.6405 15.8556 47.2961 16.3448 46.7609C16.6248 46.4651 16.8497 46.1206 17.1337 45.8287C17.298 45.6262 17.6491 45.6762 17.7648 45.9076C18.3144 46.6518 18.7312 47.4841 19.2466 48.2519C19.4373 48.5846 19.7081 48.937 19.6463 49.3433C19.4228 49.8902 18.9311 50.2571 18.5668 50.7054C18.1461 51.2116 17.5794 51.5548 17.0666 51.9545C16.0936 52.7474 15.1312 53.5665 14.0359 54.1884C12.5067 55.2009 10.9211 56.1344 9.23806 56.8681C7.72468 57.4755 6.25074 58.1829 4.69003 58.6681C4.05759 58.8416 3.50273 59.3663 2.81901 59.2847C1.74611 58.7338 1.13339 57.5505 0 57.0955V55.8031C0.140688 55.5098 0.356321 55.2258 0.330025 54.8827C0.32345 50.1861 0.324765 45.4895 0.330025 40.7929C0.357636 40.451 0.144632 40.1696 0 39.8817V37.9909Z" fill="#1B5FA6"/>
<path d="M24.4879 38.0396C24.6418 37.8963 24.9061 37.9515 25.0652 38.0619C26.2617 38.8219 27.3306 39.7541 28.4482 40.6232C29.387 41.3411 30.2443 42.1577 31.1279 42.94C31.4224 43.1504 31.4829 43.6198 31.1976 43.8643C30.435 44.6348 29.6395 45.3737 28.9032 46.1692C28.7296 46.3454 28.5639 46.54 28.3457 46.6636C27.9447 46.7346 27.633 46.4217 27.3385 46.2021C25.8409 44.8044 24.292 43.4646 22.7576 42.1064C22.4933 41.8684 22.1791 41.6948 21.9201 41.4542C21.8333 41.2583 21.8346 41.0111 21.9201 40.8165C22.2895 40.4392 22.6971 40.0934 22.9917 39.6503C23.394 39.0323 23.9449 38.53 24.4879 38.0396Z" fill="#1B5FA6"/>
<path d="M79.4229 38.0633C80.551 37.8713 81.6975 38.0212 82.8349 37.9647C83.2056 37.9975 83.6606 37.8687 83.9538 38.1619C83.9038 42.681 83.9538 47.204 83.9222 51.7244C83.9249 51.994 83.9472 52.2648 83.9985 52.5318C84.1273 52.7645 84.4824 52.7803 84.6796 52.6422C85.2897 52.0374 86.1522 51.7862 86.7452 51.1564C87.6209 50.2755 88.5768 49.4563 89.2763 48.4203C89.3657 48.2243 89.5984 48.1836 89.7838 48.2677C90.1388 48.5583 90.3097 49.0027 90.5819 49.363C91.0473 49.9954 91.5233 50.6239 91.9296 51.2984C92.0282 51.4773 91.9993 51.7008 91.9585 51.8927C91.5075 52.5304 90.8961 53.0274 90.361 53.5902C89.6418 54.3607 88.82 55.0234 88.0193 55.7058C87.1936 56.2291 86.4651 56.8891 85.6394 57.4151C84.8347 57.8831 84.0327 58.3565 83.2214 58.8141C82.7967 59.0507 82.4128 59.5635 81.8698 59.3899C81.4516 59.1664 81.1124 58.8285 80.7403 58.5432C80.3169 58.1829 79.8265 57.8831 79.5083 57.419C79.3558 56.8733 79.5925 56.3369 79.6214 55.7952C79.6227 50.4017 79.6161 45.0082 79.624 39.6161C79.6214 39.4333 79.5977 39.2532 79.5649 39.0744C79.5004 38.7404 79.4584 38.4012 79.4229 38.0633Z" fill="#1B5FA6"/>
<path d="M155.393 39.7462C155.858 39.6318 156.301 39.3583 156.798 39.4214C157.491 40.3826 157.829 41.5475 158.353 42.6047C159.163 44.214 159.786 45.9062 160.479 47.5669C160.892 48.7371 161.408 49.8705 161.72 51.0749C162.159 52.1688 162.429 53.3193 162.814 54.4316C163.058 55.1324 163.245 55.853 163.461 56.5643C163.544 56.8575 163.59 57.3006 163.215 57.4032C161.932 57.7292 160.702 58.2381 159.436 58.6128C159.172 58.626 158.702 58.7377 158.655 58.3669C158.612 57.6582 158.325 57.0035 158.171 56.3184C157.908 54.8787 157.387 53.506 157.026 52.0912C156.346 50.0125 155.681 47.9206 154.776 45.9259C154.471 45.1476 154.202 44.3508 153.785 43.6224C153.486 42.9281 153.192 42.2299 152.795 41.583C152.603 41.3043 152.569 40.9703 152.591 40.6429C153.557 40.4457 154.438 39.9816 155.393 39.7462Z" fill="#1B5FA6"/>
<path d="M145.875 39.8645C146.296 39.7449 146.714 39.9027 147.131 39.9684C148.019 40.1025 148.861 40.447 149.762 40.5062C150.013 40.5759 150.446 40.6061 150.477 40.9309C150.539 41.5475 150.176 42.0958 150.091 42.6928C149.965 43.2884 149.945 43.905 149.745 44.4849C149.486 45.2343 149.436 46.0377 149.161 46.7819C148.835 47.6471 148.734 48.578 148.409 49.4431C148.028 50.4043 147.807 51.4207 147.391 52.37C146.763 53.715 146.32 55.1535 145.501 56.4026C145.035 57.0955 144.688 57.8581 144.238 58.5589C144.119 58.722 143.943 58.935 143.717 58.8771C142.787 58.6141 141.969 58.0711 141.05 57.7832C140.6 57.6293 140.165 57.4439 139.721 57.2809C139.405 56.7786 139.806 56.2698 140.103 55.8701C140.578 55.2679 140.991 54.6197 141.334 53.9333C142.114 52.6882 142.813 51.3812 143.304 49.9901C143.578 49.2591 143.943 48.5622 144.123 47.797C144.859 45.7208 145.33 43.5553 145.645 41.3766C145.781 40.8822 145.948 40.3865 145.875 39.8645Z" fill="#1B5FA6"/>
<path d="M40.084 41.8302C40.2379 41.6146 40.4969 41.6001 40.6455 41.8302C41.0386 42.4982 41.4265 43.174 41.7696 43.8708C42.0957 44.5046 42.5244 45.0871 42.7755 45.759C42.9517 46.4361 42.2877 46.8963 42.0011 47.4314C40.9373 49.284 39.2964 50.6857 37.8186 52.1938C37.1716 52.8709 36.4012 53.4047 35.6714 53.9846C35.035 54.5092 34.2724 54.8497 33.6387 55.3783C30.8223 57.1941 27.6443 58.3972 24.3822 59.1309C24.0561 59.1611 23.709 59.1979 23.3948 59.094C22.8964 58.5576 22.5848 57.8818 22.1864 57.2756C21.746 56.5906 21.2555 55.9411 20.8203 55.2534C21.5869 54.7038 22.5585 54.6578 23.4566 54.5039C24.8911 54.1976 26.2611 53.6559 27.6483 53.1865C29.3641 52.5133 30.9393 51.539 32.4672 50.5187C33.3481 49.877 34.1462 49.1315 35.0061 48.4623C35.7963 47.6707 36.6457 46.9265 37.286 46.0009C38.3866 44.736 39.3872 43.3607 40.084 41.8302Z" fill="#1B5FA6"/>
<path d="M165.865 45.5736C166.532 45.4 167.226 45.5105 167.906 45.4763C168.438 45.4277 168.946 45.638 169.477 45.6209C173.908 45.613 178.338 45.6196 182.769 45.617C183.207 45.6144 183.629 45.4487 184.072 45.4737C184.536 45.5 185.071 45.3606 185.456 45.6998C185.43 47.133 185.45 48.5688 185.45 50.002C185.479 50.1953 185.356 50.3649 185.2 50.4635C184.69 50.5437 184.192 50.3609 183.685 50.3491C178.162 50.3517 172.638 50.3491 167.114 50.3504C166.74 50.3504 166.377 50.4871 166.003 50.449C165.817 50.3175 165.875 50.0717 165.857 49.8784C165.871 48.4439 165.86 47.0081 165.865 45.5736Z" fill="#1B5FA6"/>
<path d="M134.376 45.7274C135.748 45.8273 137.098 45.5249 138.468 45.5683H138.602C138.693 46.5623 138.624 47.5629 138.645 48.5609C138.623 49.2078 138.716 49.8652 138.561 50.5016C137.132 50.2728 135.686 50.3675 134.245 50.3504C129.774 50.3478 125.304 50.3543 120.833 50.3478C120.326 50.3438 119.833 50.4753 119.328 50.4871C119.104 49.8218 119.225 49.1158 119.199 48.4294C119.221 47.5577 119.152 46.6807 119.229 45.8116C119.261 45.7577 119.323 45.6485 119.353 45.5946C120.418 45.5696 121.479 45.617 122.539 45.7248C126.485 45.734 130.43 45.7248 134.376 45.7274Z" fill="#1B5FA6"/>
</svg>
